%FSLAX45Y45*%
G04 Gerber Fmt 4.5, Leading zero omitted, Abs format (unit mm)*
G04 Created by KiCad (PCBNEW (5.1.9)-1) date 2021-06-10 17:57:28*
%MOMM*%
%LPD*%
G01*
G04 APERTURE LIST*
%TA.AperFunction,Profile*%
%ADD10C,0.038100*%
%TD*%
%ADD11C,0.200000*%
%ADD12C,0.300000*%
G04 APERTURE END LIST*
D10*
X4500000Y-13250000D02*
X19500000Y-13250000D01*
X19500000Y-3750000D02*
X19500000Y-13250000D01*
X4500000Y-3750000D02*
X19500000Y-3750000D01*
X4500000Y-13250000D02*
X4500000Y-3750000D01*
D11*
X18564400Y-4261500D02*
X18824400Y-4521500D01*
X18824400Y-4261500D02*
X18564400Y-4521500D01*
X19024400Y-4261500D02*
X19284400Y-4521500D01*
X19284400Y-4261500D02*
X19024400Y-4521500D01*
D12*
X4784523Y-13717619D02*
X4784523Y-13417619D01*
X4855952Y-13417619D01*
X4898809Y-13431905D01*
X4927381Y-13460476D01*
X4941666Y-13489048D01*
X4955952Y-13546191D01*
X4955952Y-13589048D01*
X4941666Y-13646191D01*
X4927381Y-13674762D01*
X4898809Y-13703334D01*
X4855952Y-13717619D01*
X4784523Y-13717619D01*
X5084523Y-13717619D02*
X5084523Y-13517619D01*
X5084523Y-13574762D02*
X5098809Y-13546191D01*
X5113095Y-13531905D01*
X5141666Y-13517619D01*
X5170238Y-13517619D01*
X5270238Y-13717619D02*
X5270238Y-13517619D01*
X5270238Y-13417619D02*
X5255952Y-13431905D01*
X5270238Y-13446191D01*
X5284523Y-13431905D01*
X5270238Y-13417619D01*
X5270238Y-13446191D01*
X5455952Y-13717619D02*
X5427381Y-13703334D01*
X5413095Y-13674762D01*
X5413095Y-13417619D01*
X5613095Y-13717619D02*
X5584523Y-13703334D01*
X5570238Y-13674762D01*
X5570238Y-13417619D01*
X5955952Y-13717619D02*
X5955952Y-13417619D01*
X6055952Y-13631905D01*
X6155952Y-13417619D01*
X6155952Y-13717619D01*
X6427381Y-13717619D02*
X6427381Y-13560476D01*
X6413095Y-13531905D01*
X6384523Y-13517619D01*
X6327381Y-13517619D01*
X6298809Y-13531905D01*
X6427381Y-13703334D02*
X6398809Y-13717619D01*
X6327381Y-13717619D01*
X6298809Y-13703334D01*
X6284523Y-13674762D01*
X6284523Y-13646191D01*
X6298809Y-13617619D01*
X6327381Y-13603334D01*
X6398809Y-13603334D01*
X6427381Y-13589048D01*
X6570238Y-13517619D02*
X6570238Y-13817619D01*
X6570238Y-13531905D02*
X6598809Y-13517619D01*
X6655952Y-13517619D01*
X6684523Y-13531905D01*
X6698809Y-13546191D01*
X6713095Y-13574762D01*
X6713095Y-13660476D01*
X6698809Y-13689048D01*
X6684523Y-13703334D01*
X6655952Y-13717619D01*
X6598809Y-13717619D01*
X6570238Y-13703334D01*
X6841666Y-13689048D02*
X6855952Y-13703334D01*
X6841666Y-13717619D01*
X6827381Y-13703334D01*
X6841666Y-13689048D01*
X6841666Y-13717619D01*
X6841666Y-13531905D02*
X6855952Y-13546191D01*
X6841666Y-13560476D01*
X6827381Y-13546191D01*
X6841666Y-13531905D01*
X6841666Y-13560476D01*
X4238095Y-14081905D02*
X4498095Y-14341905D01*
X4498095Y-14081905D02*
X4238095Y-14341905D01*
X4770238Y-14076191D02*
X4784523Y-14061905D01*
X4813095Y-14047619D01*
X4884523Y-14047619D01*
X4913095Y-14061905D01*
X4927381Y-14076191D01*
X4941666Y-14104762D01*
X4941666Y-14133334D01*
X4927381Y-14176191D01*
X4755952Y-14347619D01*
X4941666Y-14347619D01*
X5070238Y-14319048D02*
X5084523Y-14333334D01*
X5070238Y-14347619D01*
X5055952Y-14333334D01*
X5070238Y-14319048D01*
X5070238Y-14347619D01*
X5341666Y-14047619D02*
X5284523Y-14047619D01*
X5255952Y-14061905D01*
X5241666Y-14076191D01*
X5213095Y-14119048D01*
X5198809Y-14176191D01*
X5198809Y-14290476D01*
X5213095Y-14319048D01*
X5227381Y-14333334D01*
X5255952Y-14347619D01*
X5313095Y-14347619D01*
X5341666Y-14333334D01*
X5355952Y-14319048D01*
X5370238Y-14290476D01*
X5370238Y-14219048D01*
X5355952Y-14190476D01*
X5341666Y-14176191D01*
X5313095Y-14161905D01*
X5255952Y-14161905D01*
X5227381Y-14176191D01*
X5213095Y-14190476D01*
X5198809Y-14219048D01*
X5555952Y-14047619D02*
X5584523Y-14047619D01*
X5613095Y-14061905D01*
X5627381Y-14076191D01*
X5641666Y-14104762D01*
X5655952Y-14161905D01*
X5655952Y-14233334D01*
X5641666Y-14290476D01*
X5627381Y-14319048D01*
X5613095Y-14333334D01*
X5584523Y-14347619D01*
X5555952Y-14347619D01*
X5527381Y-14333334D01*
X5513095Y-14319048D01*
X5498809Y-14290476D01*
X5484523Y-14233334D01*
X5484523Y-14161905D01*
X5498809Y-14104762D01*
X5513095Y-14076191D01*
X5527381Y-14061905D01*
X5555952Y-14047619D01*
X5784523Y-14347619D02*
X5784523Y-14147619D01*
X5784523Y-14176191D02*
X5798809Y-14161905D01*
X5827381Y-14147619D01*
X5870238Y-14147619D01*
X5898809Y-14161905D01*
X5913095Y-14190476D01*
X5913095Y-14347619D01*
X5913095Y-14190476D02*
X5927381Y-14161905D01*
X5955952Y-14147619D01*
X5998809Y-14147619D01*
X6027381Y-14161905D01*
X6041666Y-14190476D01*
X6041666Y-14347619D01*
X6184523Y-14347619D02*
X6184523Y-14147619D01*
X6184523Y-14176191D02*
X6198809Y-14161905D01*
X6227381Y-14147619D01*
X6270238Y-14147619D01*
X6298809Y-14161905D01*
X6313095Y-14190476D01*
X6313095Y-14347619D01*
X6313095Y-14190476D02*
X6327381Y-14161905D01*
X6355952Y-14147619D01*
X6398809Y-14147619D01*
X6427381Y-14161905D01*
X6441666Y-14190476D01*
X6441666Y-14347619D01*
X7027381Y-14033334D02*
X6770238Y-14419048D01*
X7413095Y-14047619D02*
X7441666Y-14047619D01*
X7470238Y-14061905D01*
X7484523Y-14076191D01*
X7498809Y-14104762D01*
X7513095Y-14161905D01*
X7513095Y-14233334D01*
X7498809Y-14290476D01*
X7484523Y-14319048D01*
X7470238Y-14333334D01*
X7441666Y-14347619D01*
X7413095Y-14347619D01*
X7384523Y-14333334D01*
X7370238Y-14319048D01*
X7355952Y-14290476D01*
X7341666Y-14233334D01*
X7341666Y-14161905D01*
X7355952Y-14104762D01*
X7370238Y-14076191D01*
X7384523Y-14061905D01*
X7413095Y-14047619D01*
X7641666Y-14319048D02*
X7655952Y-14333334D01*
X7641666Y-14347619D01*
X7627381Y-14333334D01*
X7641666Y-14319048D01*
X7641666Y-14347619D01*
X7941666Y-14347619D02*
X7770238Y-14347619D01*
X7855952Y-14347619D02*
X7855952Y-14047619D01*
X7827381Y-14090476D01*
X7798809Y-14119048D01*
X7770238Y-14133334D01*
X8127381Y-14047619D02*
X8155952Y-14047619D01*
X8184523Y-14061905D01*
X8198809Y-14076191D01*
X8213095Y-14104762D01*
X8227381Y-14161905D01*
X8227381Y-14233334D01*
X8213095Y-14290476D01*
X8198809Y-14319048D01*
X8184523Y-14333334D01*
X8155952Y-14347619D01*
X8127381Y-14347619D01*
X8098809Y-14333334D01*
X8084523Y-14319048D01*
X8070238Y-14290476D01*
X8055952Y-14233334D01*
X8055952Y-14161905D01*
X8070238Y-14104762D01*
X8084523Y-14076191D01*
X8098809Y-14061905D01*
X8127381Y-14047619D01*
X8341666Y-14076191D02*
X8355952Y-14061905D01*
X8384523Y-14047619D01*
X8455952Y-14047619D01*
X8484523Y-14061905D01*
X8498809Y-14076191D01*
X8513095Y-14104762D01*
X8513095Y-14133334D01*
X8498809Y-14176191D01*
X8327381Y-14347619D01*
X8513095Y-14347619D01*
X8627381Y-14047619D02*
X8627381Y-14104762D01*
X8741666Y-14047619D02*
X8741666Y-14104762D01*
X9184523Y-14461905D02*
X9170238Y-14447619D01*
X9141666Y-14404762D01*
X9127381Y-14376191D01*
X9113095Y-14333334D01*
X9098809Y-14261905D01*
X9098809Y-14204762D01*
X9113095Y-14133334D01*
X9127381Y-14090476D01*
X9141666Y-14061905D01*
X9170238Y-14019048D01*
X9184523Y-14004762D01*
X9284523Y-14076191D02*
X9298809Y-14061905D01*
X9327381Y-14047619D01*
X9398809Y-14047619D01*
X9427381Y-14061905D01*
X9441666Y-14076191D01*
X9455952Y-14104762D01*
X9455952Y-14133334D01*
X9441666Y-14176191D01*
X9270238Y-14347619D01*
X9455952Y-14347619D01*
X9813095Y-14347619D02*
X9813095Y-14047619D01*
X9941666Y-14347619D02*
X9941666Y-14190476D01*
X9927381Y-14161905D01*
X9898809Y-14147619D01*
X9855952Y-14147619D01*
X9827381Y-14161905D01*
X9813095Y-14176191D01*
X10127381Y-14347619D02*
X10098809Y-14333334D01*
X10084523Y-14319048D01*
X10070238Y-14290476D01*
X10070238Y-14204762D01*
X10084523Y-14176191D01*
X10098809Y-14161905D01*
X10127381Y-14147619D01*
X10170238Y-14147619D01*
X10198809Y-14161905D01*
X10213095Y-14176191D01*
X10227381Y-14204762D01*
X10227381Y-14290476D01*
X10213095Y-14319048D01*
X10198809Y-14333334D01*
X10170238Y-14347619D01*
X10127381Y-14347619D01*
X10398809Y-14347619D02*
X10370238Y-14333334D01*
X10355952Y-14304762D01*
X10355952Y-14047619D01*
X10627381Y-14333334D02*
X10598809Y-14347619D01*
X10541666Y-14347619D01*
X10513095Y-14333334D01*
X10498809Y-14304762D01*
X10498809Y-14190476D01*
X10513095Y-14161905D01*
X10541666Y-14147619D01*
X10598809Y-14147619D01*
X10627381Y-14161905D01*
X10641666Y-14190476D01*
X10641666Y-14219048D01*
X10498809Y-14247619D01*
X10755952Y-14333334D02*
X10784523Y-14347619D01*
X10841666Y-14347619D01*
X10870238Y-14333334D01*
X10884523Y-14304762D01*
X10884523Y-14290476D01*
X10870238Y-14261905D01*
X10841666Y-14247619D01*
X10798809Y-14247619D01*
X10770238Y-14233334D01*
X10755952Y-14204762D01*
X10755952Y-14190476D01*
X10770238Y-14161905D01*
X10798809Y-14147619D01*
X10841666Y-14147619D01*
X10870238Y-14161905D01*
X10984523Y-14461905D02*
X10998809Y-14447619D01*
X11027381Y-14404762D01*
X11041666Y-14376191D01*
X11055952Y-14333334D01*
X11070238Y-14261905D01*
X11070238Y-14204762D01*
X11055952Y-14133334D01*
X11041666Y-14090476D01*
X11027381Y-14061905D01*
X10998809Y-14019048D01*
X10984523Y-14004762D01*
X11527381Y-14461905D02*
X11513095Y-14447619D01*
X11484523Y-14404762D01*
X11470238Y-14376191D01*
X11455952Y-14333334D01*
X11441666Y-14261905D01*
X11441666Y-14204762D01*
X11455952Y-14133334D01*
X11470238Y-14090476D01*
X11484523Y-14061905D01*
X11513095Y-14019048D01*
X11527381Y-14004762D01*
X11641666Y-14147619D02*
X11641666Y-14347619D01*
X11641666Y-14176191D02*
X11655952Y-14161905D01*
X11684523Y-14147619D01*
X11727381Y-14147619D01*
X11755952Y-14161905D01*
X11770238Y-14190476D01*
X11770238Y-14347619D01*
X11955952Y-14347619D02*
X11927381Y-14333334D01*
X11913095Y-14319048D01*
X11898809Y-14290476D01*
X11898809Y-14204762D01*
X11913095Y-14176191D01*
X11927381Y-14161905D01*
X11955952Y-14147619D01*
X11998809Y-14147619D01*
X12027381Y-14161905D01*
X12041666Y-14176191D01*
X12055952Y-14204762D01*
X12055952Y-14290476D01*
X12041666Y-14319048D01*
X12027381Y-14333334D01*
X11998809Y-14347619D01*
X11955952Y-14347619D01*
X12141666Y-14147619D02*
X12255952Y-14147619D01*
X12184523Y-14047619D02*
X12184523Y-14304762D01*
X12198809Y-14333334D01*
X12227381Y-14347619D01*
X12255952Y-14347619D01*
X12584523Y-14147619D02*
X12584523Y-14447619D01*
X12584523Y-14161905D02*
X12613095Y-14147619D01*
X12670238Y-14147619D01*
X12698809Y-14161905D01*
X12713095Y-14176191D01*
X12727381Y-14204762D01*
X12727381Y-14290476D01*
X12713095Y-14319048D01*
X12698809Y-14333334D01*
X12670238Y-14347619D01*
X12613095Y-14347619D01*
X12584523Y-14333334D01*
X12898809Y-14347619D02*
X12870238Y-14333334D01*
X12855952Y-14304762D01*
X12855952Y-14047619D01*
X13141666Y-14347619D02*
X13141666Y-14190476D01*
X13127381Y-14161905D01*
X13098809Y-14147619D01*
X13041666Y-14147619D01*
X13013095Y-14161905D01*
X13141666Y-14333334D02*
X13113095Y-14347619D01*
X13041666Y-14347619D01*
X13013095Y-14333334D01*
X12998809Y-14304762D01*
X12998809Y-14276191D01*
X13013095Y-14247619D01*
X13041666Y-14233334D01*
X13113095Y-14233334D01*
X13141666Y-14219048D01*
X13241666Y-14147619D02*
X13355952Y-14147619D01*
X13284523Y-14047619D02*
X13284523Y-14304762D01*
X13298809Y-14333334D01*
X13327381Y-14347619D01*
X13355952Y-14347619D01*
X13570238Y-14333334D02*
X13541666Y-14347619D01*
X13484523Y-14347619D01*
X13455952Y-14333334D01*
X13441666Y-14304762D01*
X13441666Y-14190476D01*
X13455952Y-14161905D01*
X13484523Y-14147619D01*
X13541666Y-14147619D01*
X13570238Y-14161905D01*
X13584523Y-14190476D01*
X13584523Y-14219048D01*
X13441666Y-14247619D01*
X13841666Y-14347619D02*
X13841666Y-14047619D01*
X13841666Y-14333334D02*
X13813095Y-14347619D01*
X13755952Y-14347619D01*
X13727381Y-14333334D01*
X13713095Y-14319048D01*
X13698809Y-14290476D01*
X13698809Y-14204762D01*
X13713095Y-14176191D01*
X13727381Y-14161905D01*
X13755952Y-14147619D01*
X13813095Y-14147619D01*
X13841666Y-14161905D01*
X13955952Y-14461905D02*
X13970238Y-14447619D01*
X13998809Y-14404762D01*
X14013095Y-14376191D01*
X14027381Y-14333334D01*
X14041666Y-14261905D01*
X14041666Y-14204762D01*
X14027381Y-14133334D01*
X14013095Y-14090476D01*
X13998809Y-14061905D01*
X13970238Y-14019048D01*
X13955952Y-14004762D01*
M02*
