M48
; DRILL file {KiCad (5.1.9)-1} date 06/10/21 17:57:27
; FORMAT={-:-/ absolute / metric / decimal}
; #@! TF.CreationDate,2021-06-10T17:57:27+03:00
; #@! TF.GenerationSoftware,Kicad,Pcbnew,(5.1.9)-1
; #@! TF.FileFunction,Plated,1,2,PTH
FMAT,2
METRIC
T1C0.300
T2C0.800
T3C0.813
T4C0.900
T5C1.000
T6C1.100
T7C1.200
T8C1.300
T9C2.500
T10C3.200
%
G90
G05
T1
X50.482Y-76.898
X50.673Y-77.724
X51.689Y-77.597
X51.689Y-78.74
X52.705Y-78.486
X52.705Y-79.502
X53.721Y-79.375
X53.848Y-80.391
X54.65Y-64.389
X58.928Y-49.911
X64.77Y-55.245
X64.77Y-57.785
X65.405Y-54.61
X65.405Y-55.88
X65.405Y-57.15
X65.405Y-58.547
X66.04Y-53.975
X66.04Y-56.515
X67.31Y-66.294
X67.945Y-67.056
X68.58Y-66.294
X68.58Y-120.65
X69.215Y-67.056
X69.85Y-66.294
X70.485Y-67.056
X71.12Y-66.294
X71.374Y-51.435
X71.755Y-67.056
X74.105Y-61.277
X75.311Y-63.5
X77.025Y-69.088
X77.216Y-51.435
X79.248Y-53.975
X79.248Y-56.515
X79.502Y-64.516
X79.756Y-52.642
X80.01Y-54.61
X80.01Y-55.88
X80.01Y-57.15
X80.01Y-58.547
X80.264Y-63.119
X80.264Y-63.881
X80.899Y-55.245
X80.899Y-57.785
X83.312Y-68.961
X83.629Y-120.65
X84.074Y-65.405
X85.725Y-65.405
X86.36Y-64.77
X86.995Y-64.135
X87.122Y-69.088
X87.757Y-63.5
X89.916Y-69.469
X90.464Y-64.648
X90.464Y-65.41
X92.75Y-66.934
X93.512Y-66.934
X94.234Y-53.975
X94.869Y-65.024
X94.996Y-49.911
X94.996Y-50.673
X95.631Y-58.547
X97.028Y-68.961
X97.663Y-68.453
X98.044Y-57.023
X98.044Y-65.405
X98.425Y-68.072
X98.87Y-120.65
X99.441Y-48.387
X99.441Y-49.149
X99.441Y-49.911
X100.647Y-65.405
X106.87Y-65.659
X107.061Y-66.929
X112.966Y-66.929
X114.109Y-120.65
X116.11Y-55.213
X123.952Y-66.421
X127.903Y-59.069
X128.588Y-63.627
X129.413Y-120.65
X131.0Y-59.055
X144.463Y-120.65
X149.098Y-66.929
X152.337Y-52.451
X152.908Y-73.533
X155.956Y-52.451
X159.702Y-120.65
X170.815Y-46.101
X170.815Y-50.038
X172.212Y-120.65
X175.958Y-92.329
X175.958Y-96.393
X176.276Y-75.946
X176.276Y-76.835
X177.228Y-51.625
X177.609Y-122.047
X179.07Y-45.339
X179.07Y-48.641
X179.197Y-106.617
X180.657Y-55.88
X180.721Y-94.996
X182.88Y-75.501
X182.88Y-76.454
X184.277Y-89.281
X186.055Y-90.678
X187.706Y-100.203
X188.595Y-106.617
X189.611Y-49.911
X193.548Y-49.911
T2
X55.92Y-80.65
X55.92Y-88.27
X55.92Y-93.35
X55.92Y-98.43
X63.54Y-80.65
X63.54Y-88.27
X63.54Y-93.35
X63.54Y-98.43
X71.16Y-80.65
X71.16Y-88.27
X71.16Y-93.35
X71.16Y-98.43
X78.78Y-80.65
X78.78Y-88.27
X78.78Y-93.35
X78.78Y-98.43
X86.4Y-80.65
X86.4Y-88.27
X86.4Y-93.35
X86.4Y-98.43
X94.02Y-80.65
X94.02Y-88.27
X94.02Y-93.35
X94.02Y-98.43
X101.64Y-80.65
X101.64Y-88.27
X101.64Y-93.35
X101.64Y-98.43
X109.26Y-80.65
X109.26Y-88.27
X109.26Y-93.35
X109.26Y-98.43
X116.88Y-80.65
X116.88Y-88.27
X116.88Y-93.35
X116.88Y-98.43
X124.5Y-80.65
X124.5Y-88.27
X124.5Y-93.35
X124.5Y-98.43
X132.12Y-80.65
X132.12Y-88.27
X132.12Y-93.35
X132.12Y-98.43
X139.74Y-80.65
X139.74Y-88.27
X139.74Y-93.35
X139.74Y-98.43
X147.36Y-80.65
X147.36Y-88.27
X147.36Y-93.35
X147.36Y-98.43
X154.98Y-80.65
X154.98Y-88.27
X154.98Y-93.35
X154.98Y-98.43
X162.6Y-80.65
X162.6Y-88.27
X162.6Y-93.35
X162.6Y-98.43
X170.22Y-80.65
X170.22Y-88.27
X170.22Y-93.35
X170.22Y-98.43
T3
X176.403Y-113.284
X176.403Y-120.904
X181.483Y-113.284
X181.483Y-120.904
X185.928Y-113.284
X185.928Y-120.904
X191.008Y-113.284
X191.008Y-120.904
T4
X55.92Y-125.1
X59.92Y-125.1
X63.92Y-125.1
X71.16Y-125.1
X75.16Y-125.1
X79.16Y-125.1
X86.4Y-125.1
X90.4Y-125.1
X94.4Y-125.1
X101.64Y-125.1
X105.64Y-125.1
X109.64Y-125.1
X116.88Y-125.1
X120.88Y-125.1
X124.88Y-125.1
X132.12Y-125.1
X136.12Y-125.1
X140.12Y-125.1
X147.36Y-125.1
X151.36Y-125.1
X155.36Y-125.1
X162.6Y-125.1
X166.6Y-125.1
X170.6Y-125.1
X188.595Y-62.866
X188.595Y-66.866
X188.595Y-70.866
T5
X136.311Y-53.98
X136.311Y-56.52
X136.311Y-59.06
X136.311Y-61.6
X136.311Y-64.14
X136.311Y-66.68
X136.311Y-69.22
X143.931Y-53.98
X143.931Y-56.52
X143.931Y-59.06
X143.931Y-61.6
X143.931Y-64.14
X143.931Y-66.68
X143.931Y-69.22
T6
X186.944Y-56.515
X191.544Y-56.515
T7
X53.92Y-123.35
X53.92Y-129.35
X56.428Y-43.058
X58.46Y-107.32
X58.46Y-112.4
X58.968Y-43.058
X61.0Y-107.32
X61.0Y-112.4
X61.508Y-43.058
X63.54Y-107.32
X63.54Y-112.4
X64.048Y-43.058
X65.92Y-123.35
X65.92Y-129.35
X66.588Y-43.058
X69.128Y-43.058
X69.16Y-123.35
X69.16Y-129.35
X71.668Y-43.058
X73.7Y-107.32
X73.7Y-112.4
X74.208Y-43.058
X76.24Y-107.32
X76.24Y-112.4
X76.748Y-43.058
X78.78Y-107.32
X78.78Y-112.4
X79.288Y-43.058
X81.16Y-123.35
X81.16Y-129.35
X81.828Y-43.058
X84.368Y-43.058
X84.4Y-123.35
X84.4Y-129.35
X86.908Y-43.058
X88.94Y-107.32
X88.94Y-112.4
X89.448Y-43.058
X91.48Y-107.32
X91.48Y-112.4
X91.988Y-43.058
X94.02Y-107.32
X94.02Y-112.4
X94.528Y-43.058
X96.4Y-123.35
X96.4Y-129.35
X99.64Y-123.35
X99.64Y-129.35
X104.18Y-107.32
X104.18Y-112.4
X106.72Y-107.32
X106.72Y-112.4
X109.26Y-107.32
X109.26Y-112.4
X111.64Y-123.35
X111.64Y-129.35
X114.88Y-123.35
X114.88Y-129.35
X119.42Y-107.32
X119.42Y-112.4
X121.96Y-107.32
X121.96Y-112.4
X124.5Y-107.32
X124.5Y-112.4
X126.88Y-123.35
X126.88Y-129.35
X130.12Y-123.35
X130.12Y-129.35
X134.66Y-107.32
X134.66Y-112.4
X137.2Y-107.32
X137.2Y-112.4
X139.74Y-107.32
X139.74Y-112.4
X142.12Y-123.35
X142.12Y-129.35
X145.36Y-123.35
X145.36Y-129.35
X149.9Y-107.32
X149.9Y-112.4
X152.44Y-107.32
X152.44Y-112.4
X154.98Y-107.32
X154.98Y-112.4
X157.36Y-123.35
X157.36Y-129.35
X160.6Y-123.35
X160.6Y-129.35
X165.14Y-107.32
X165.14Y-112.4
X167.68Y-107.32
X167.68Y-112.4
X170.22Y-107.32
X170.22Y-112.4
X172.6Y-123.35
X172.6Y-129.35
X186.845Y-60.866
X186.845Y-72.866
X192.845Y-60.866
X192.845Y-72.866
T8
X159.639Y-43.688
X162.139Y-53.688
X164.639Y-43.688
T9
X50.929Y-43.058
X50.929Y-74.059
X125.927Y-74.059
X125.928Y-43.058
T10
X47.5Y-40.0
X47.5Y-130.0
X192.5Y-40.0
X192.5Y-130.0
T0
M30
