G04 #@! TF.GenerationSoftware,KiCad,Pcbnew,(5.1.9)-1*
G04 #@! TF.CreationDate,2021-06-10T17:57:30+03:00*
G04 #@! TF.ProjectId,OneWireReader,4f6e6557-6972-4655-9265-616465722e6b,rev?*
G04 #@! TF.SameCoordinates,Original*
G04 #@! TF.FileFunction,Copper,L1,Top*
G04 #@! TF.FilePolarity,Positive*
%FSLAX46Y46*%
G04 Gerber Fmt 4.6, Leading zero omitted, Abs format (unit mm)*
G04 Created by KiCad (PCBNEW (5.1.9)-1) date 2021-06-10 17:57:30*
%MOMM*%
%LPD*%
G01*
G04 APERTURE LIST*
G04 #@! TA.AperFunction,ComponentPad*
%ADD10C,2.100000*%
G04 #@! TD*
G04 #@! TA.AperFunction,ComponentPad*
%ADD11C,1.600000*%
G04 #@! TD*
G04 #@! TA.AperFunction,ComponentPad*
%ADD12R,1.600000X1.800000*%
G04 #@! TD*
G04 #@! TA.AperFunction,ComponentPad*
%ADD13C,2.340000*%
G04 #@! TD*
G04 #@! TA.AperFunction,SMDPad,CuDef*
%ADD14R,0.900000X0.400000*%
G04 #@! TD*
G04 #@! TA.AperFunction,SMDPad,CuDef*
%ADD15R,0.400000X0.900000*%
G04 #@! TD*
G04 #@! TA.AperFunction,SMDPad,CuDef*
%ADD16R,4.500000X2.000000*%
G04 #@! TD*
G04 #@! TA.AperFunction,SMDPad,CuDef*
%ADD17R,2.000000X1.500000*%
G04 #@! TD*
G04 #@! TA.AperFunction,SMDPad,CuDef*
%ADD18R,2.000000X3.800000*%
G04 #@! TD*
G04 #@! TA.AperFunction,SMDPad,CuDef*
%ADD19R,1.500000X2.000000*%
G04 #@! TD*
G04 #@! TA.AperFunction,SMDPad,CuDef*
%ADD20R,3.800000X2.000000*%
G04 #@! TD*
G04 #@! TA.AperFunction,ComponentPad*
%ADD21C,1.700000*%
G04 #@! TD*
G04 #@! TA.AperFunction,ComponentPad*
%ADD22C,2.000000*%
G04 #@! TD*
G04 #@! TA.AperFunction,ComponentPad*
%ADD23C,1.397000*%
G04 #@! TD*
G04 #@! TA.AperFunction,ComponentPad*
%ADD24O,2.000000X1.440000*%
G04 #@! TD*
G04 #@! TA.AperFunction,ComponentPad*
%ADD25R,2.000000X1.440000*%
G04 #@! TD*
G04 #@! TA.AperFunction,SMDPad,CuDef*
%ADD26R,2.510000X1.000000*%
G04 #@! TD*
G04 #@! TA.AperFunction,ComponentPad*
%ADD27C,3.000000*%
G04 #@! TD*
G04 #@! TA.AperFunction,ComponentPad*
%ADD28O,1.800000X2.600000*%
G04 #@! TD*
G04 #@! TA.AperFunction,ComponentPad*
%ADD29R,1.800000X2.600000*%
G04 #@! TD*
G04 #@! TA.AperFunction,ViaPad*
%ADD30C,3.400000*%
G04 #@! TD*
G04 #@! TA.AperFunction,ViaPad*
%ADD31C,0.600000*%
G04 #@! TD*
G04 #@! TA.AperFunction,Conductor*
%ADD32C,0.200000*%
G04 #@! TD*
G04 #@! TA.AperFunction,Conductor*
%ADD33C,0.600000*%
G04 #@! TD*
G04 #@! TA.AperFunction,Conductor*
%ADD34C,0.400000*%
G04 #@! TD*
G04 APERTURE END LIST*
D10*
X191544000Y-56515000D03*
G04 #@! TA.AperFunction,ComponentPad*
G36*
G01*
X185894000Y-57315000D02*
X185894000Y-55715000D01*
G75*
G02*
X186144000Y-55465000I250000J0D01*
G01*
X187744000Y-55465000D01*
G75*
G02*
X187994000Y-55715000I0J-250000D01*
G01*
X187994000Y-57315000D01*
G75*
G02*
X187744000Y-57565000I-250000J0D01*
G01*
X186144000Y-57565000D01*
G75*
G02*
X185894000Y-57315000I0J250000D01*
G01*
G37*
G04 #@! TD.AperFunction*
D11*
X162600000Y-93350000D03*
X162600000Y-98430000D03*
X162600000Y-88270000D03*
X170220000Y-80650000D03*
D12*
X162600000Y-80650000D03*
D11*
X170220000Y-98430000D03*
X170220000Y-93350000D03*
X170220000Y-88270000D03*
G04 #@! TA.AperFunction,SMDPad,CuDef*
G36*
G01*
X183528000Y-87620000D02*
X183528000Y-86370000D01*
G75*
G02*
X183778000Y-86120000I250000J0D01*
G01*
X184703000Y-86120000D01*
G75*
G02*
X184953000Y-86370000I0J-250000D01*
G01*
X184953000Y-87620000D01*
G75*
G02*
X184703000Y-87870000I-250000J0D01*
G01*
X183778000Y-87870000D01*
G75*
G02*
X183528000Y-87620000I0J250000D01*
G01*
G37*
G04 #@! TD.AperFunction*
G04 #@! TA.AperFunction,SMDPad,CuDef*
G36*
G01*
X180553000Y-87620000D02*
X180553000Y-86370000D01*
G75*
G02*
X180803000Y-86120000I250000J0D01*
G01*
X181728000Y-86120000D01*
G75*
G02*
X181978000Y-86370000I0J-250000D01*
G01*
X181978000Y-87620000D01*
G75*
G02*
X181728000Y-87870000I-250000J0D01*
G01*
X180803000Y-87870000D01*
G75*
G02*
X180553000Y-87620000I0J250000D01*
G01*
G37*
G04 #@! TD.AperFunction*
G04 #@! TA.AperFunction,SMDPad,CuDef*
G36*
G01*
X183528000Y-83175000D02*
X183528000Y-81925000D01*
G75*
G02*
X183778000Y-81675000I250000J0D01*
G01*
X184703000Y-81675000D01*
G75*
G02*
X184953000Y-81925000I0J-250000D01*
G01*
X184953000Y-83175000D01*
G75*
G02*
X184703000Y-83425000I-250000J0D01*
G01*
X183778000Y-83425000D01*
G75*
G02*
X183528000Y-83175000I0J250000D01*
G01*
G37*
G04 #@! TD.AperFunction*
G04 #@! TA.AperFunction,SMDPad,CuDef*
G36*
G01*
X180553000Y-83175000D02*
X180553000Y-81925000D01*
G75*
G02*
X180803000Y-81675000I250000J0D01*
G01*
X181728000Y-81675000D01*
G75*
G02*
X181978000Y-81925000I0J-250000D01*
G01*
X181978000Y-83175000D01*
G75*
G02*
X181728000Y-83425000I-250000J0D01*
G01*
X180803000Y-83425000D01*
G75*
G02*
X180553000Y-83175000I0J250000D01*
G01*
G37*
G04 #@! TD.AperFunction*
G04 #@! TA.AperFunction,SMDPad,CuDef*
G36*
G01*
X183401000Y-78730000D02*
X183401000Y-77480000D01*
G75*
G02*
X183651000Y-77230000I250000J0D01*
G01*
X184576000Y-77230000D01*
G75*
G02*
X184826000Y-77480000I0J-250000D01*
G01*
X184826000Y-78730000D01*
G75*
G02*
X184576000Y-78980000I-250000J0D01*
G01*
X183651000Y-78980000D01*
G75*
G02*
X183401000Y-78730000I0J250000D01*
G01*
G37*
G04 #@! TD.AperFunction*
G04 #@! TA.AperFunction,SMDPad,CuDef*
G36*
G01*
X180426000Y-78730000D02*
X180426000Y-77480000D01*
G75*
G02*
X180676000Y-77230000I250000J0D01*
G01*
X181601000Y-77230000D01*
G75*
G02*
X181851000Y-77480000I0J-250000D01*
G01*
X181851000Y-78730000D01*
G75*
G02*
X181601000Y-78980000I-250000J0D01*
G01*
X180676000Y-78980000D01*
G75*
G02*
X180426000Y-78730000I0J250000D01*
G01*
G37*
G04 #@! TD.AperFunction*
D13*
X159639000Y-43688000D03*
X162139000Y-53688000D03*
X164639000Y-43688000D03*
D14*
X77763000Y-47441000D03*
X77763000Y-48241000D03*
X77763000Y-49041000D03*
X77763000Y-49841000D03*
X79463000Y-47441000D03*
X79463000Y-49841000D03*
X79463000Y-48241000D03*
X79463000Y-49041000D03*
X99139000Y-50748000D03*
X99139000Y-51548000D03*
X99139000Y-52348000D03*
X99139000Y-53148000D03*
X100839000Y-50748000D03*
X100839000Y-53148000D03*
X100839000Y-51548000D03*
X100839000Y-52348000D03*
X167347000Y-75114000D03*
X167347000Y-74314000D03*
X167347000Y-73514000D03*
X167347000Y-72714000D03*
X165647000Y-75114000D03*
X165647000Y-72714000D03*
X165647000Y-74314000D03*
X165647000Y-73514000D03*
D15*
X56244000Y-62450000D03*
X57044000Y-62450000D03*
X57844000Y-62450000D03*
X58644000Y-62450000D03*
X56244000Y-60750000D03*
X58644000Y-60750000D03*
X57044000Y-60750000D03*
X57844000Y-60750000D03*
X61578000Y-62450000D03*
X62378000Y-62450000D03*
X63178000Y-62450000D03*
X63978000Y-62450000D03*
X61578000Y-60750000D03*
X63978000Y-60750000D03*
X62378000Y-60750000D03*
X63178000Y-60750000D03*
D14*
X100966000Y-60514000D03*
X100966000Y-59714000D03*
X100966000Y-58914000D03*
X100966000Y-58114000D03*
X99266000Y-60514000D03*
X99266000Y-58114000D03*
X99266000Y-59714000D03*
X99266000Y-58914000D03*
D15*
X120326000Y-62650000D03*
X119526000Y-62650000D03*
X118726000Y-62650000D03*
X117926000Y-62650000D03*
X120326000Y-64350000D03*
X117926000Y-64350000D03*
X119526000Y-64350000D03*
X118726000Y-64350000D03*
D16*
X80840000Y-72644000D03*
X89340000Y-72644000D03*
G04 #@! TA.AperFunction,SMDPad,CuDef*
G36*
G01*
X64660000Y-74115000D02*
X64960000Y-74115000D01*
G75*
G02*
X65110000Y-74265000I0J-150000D01*
G01*
X65110000Y-76015000D01*
G75*
G02*
X64960000Y-76165000I-150000J0D01*
G01*
X64660000Y-76165000D01*
G75*
G02*
X64510000Y-76015000I0J150000D01*
G01*
X64510000Y-74265000D01*
G75*
G02*
X64660000Y-74115000I150000J0D01*
G01*
G37*
G04 #@! TD.AperFunction*
G04 #@! TA.AperFunction,SMDPad,CuDef*
G36*
G01*
X63390000Y-74115000D02*
X63690000Y-74115000D01*
G75*
G02*
X63840000Y-74265000I0J-150000D01*
G01*
X63840000Y-76015000D01*
G75*
G02*
X63690000Y-76165000I-150000J0D01*
G01*
X63390000Y-76165000D01*
G75*
G02*
X63240000Y-76015000I0J150000D01*
G01*
X63240000Y-74265000D01*
G75*
G02*
X63390000Y-74115000I150000J0D01*
G01*
G37*
G04 #@! TD.AperFunction*
G04 #@! TA.AperFunction,SMDPad,CuDef*
G36*
G01*
X62120000Y-74115000D02*
X62420000Y-74115000D01*
G75*
G02*
X62570000Y-74265000I0J-150000D01*
G01*
X62570000Y-76015000D01*
G75*
G02*
X62420000Y-76165000I-150000J0D01*
G01*
X62120000Y-76165000D01*
G75*
G02*
X61970000Y-76015000I0J150000D01*
G01*
X61970000Y-74265000D01*
G75*
G02*
X62120000Y-74115000I150000J0D01*
G01*
G37*
G04 #@! TD.AperFunction*
G04 #@! TA.AperFunction,SMDPad,CuDef*
G36*
G01*
X60850000Y-74115000D02*
X61150000Y-74115000D01*
G75*
G02*
X61300000Y-74265000I0J-150000D01*
G01*
X61300000Y-76015000D01*
G75*
G02*
X61150000Y-76165000I-150000J0D01*
G01*
X60850000Y-76165000D01*
G75*
G02*
X60700000Y-76015000I0J150000D01*
G01*
X60700000Y-74265000D01*
G75*
G02*
X60850000Y-74115000I150000J0D01*
G01*
G37*
G04 #@! TD.AperFunction*
G04 #@! TA.AperFunction,SMDPad,CuDef*
G36*
G01*
X59580000Y-74115000D02*
X59880000Y-74115000D01*
G75*
G02*
X60030000Y-74265000I0J-150000D01*
G01*
X60030000Y-76015000D01*
G75*
G02*
X59880000Y-76165000I-150000J0D01*
G01*
X59580000Y-76165000D01*
G75*
G02*
X59430000Y-76015000I0J150000D01*
G01*
X59430000Y-74265000D01*
G75*
G02*
X59580000Y-74115000I150000J0D01*
G01*
G37*
G04 #@! TD.AperFunction*
G04 #@! TA.AperFunction,SMDPad,CuDef*
G36*
G01*
X58310000Y-74115000D02*
X58610000Y-74115000D01*
G75*
G02*
X58760000Y-74265000I0J-150000D01*
G01*
X58760000Y-76015000D01*
G75*
G02*
X58610000Y-76165000I-150000J0D01*
G01*
X58310000Y-76165000D01*
G75*
G02*
X58160000Y-76015000I0J150000D01*
G01*
X58160000Y-74265000D01*
G75*
G02*
X58310000Y-74115000I150000J0D01*
G01*
G37*
G04 #@! TD.AperFunction*
G04 #@! TA.AperFunction,SMDPad,CuDef*
G36*
G01*
X57040000Y-74115000D02*
X57340000Y-74115000D01*
G75*
G02*
X57490000Y-74265000I0J-150000D01*
G01*
X57490000Y-76015000D01*
G75*
G02*
X57340000Y-76165000I-150000J0D01*
G01*
X57040000Y-76165000D01*
G75*
G02*
X56890000Y-76015000I0J150000D01*
G01*
X56890000Y-74265000D01*
G75*
G02*
X57040000Y-74115000I150000J0D01*
G01*
G37*
G04 #@! TD.AperFunction*
G04 #@! TA.AperFunction,SMDPad,CuDef*
G36*
G01*
X55770000Y-74115000D02*
X56070000Y-74115000D01*
G75*
G02*
X56220000Y-74265000I0J-150000D01*
G01*
X56220000Y-76015000D01*
G75*
G02*
X56070000Y-76165000I-150000J0D01*
G01*
X55770000Y-76165000D01*
G75*
G02*
X55620000Y-76015000I0J150000D01*
G01*
X55620000Y-74265000D01*
G75*
G02*
X55770000Y-74115000I150000J0D01*
G01*
G37*
G04 #@! TD.AperFunction*
G04 #@! TA.AperFunction,SMDPad,CuDef*
G36*
G01*
X54500000Y-74115000D02*
X54800000Y-74115000D01*
G75*
G02*
X54950000Y-74265000I0J-150000D01*
G01*
X54950000Y-76015000D01*
G75*
G02*
X54800000Y-76165000I-150000J0D01*
G01*
X54500000Y-76165000D01*
G75*
G02*
X54350000Y-76015000I0J150000D01*
G01*
X54350000Y-74265000D01*
G75*
G02*
X54500000Y-74115000I150000J0D01*
G01*
G37*
G04 #@! TD.AperFunction*
G04 #@! TA.AperFunction,SMDPad,CuDef*
G36*
G01*
X54500000Y-64815000D02*
X54800000Y-64815000D01*
G75*
G02*
X54950000Y-64965000I0J-150000D01*
G01*
X54950000Y-66715000D01*
G75*
G02*
X54800000Y-66865000I-150000J0D01*
G01*
X54500000Y-66865000D01*
G75*
G02*
X54350000Y-66715000I0J150000D01*
G01*
X54350000Y-64965000D01*
G75*
G02*
X54500000Y-64815000I150000J0D01*
G01*
G37*
G04 #@! TD.AperFunction*
G04 #@! TA.AperFunction,SMDPad,CuDef*
G36*
G01*
X55770000Y-64815000D02*
X56070000Y-64815000D01*
G75*
G02*
X56220000Y-64965000I0J-150000D01*
G01*
X56220000Y-66715000D01*
G75*
G02*
X56070000Y-66865000I-150000J0D01*
G01*
X55770000Y-66865000D01*
G75*
G02*
X55620000Y-66715000I0J150000D01*
G01*
X55620000Y-64965000D01*
G75*
G02*
X55770000Y-64815000I150000J0D01*
G01*
G37*
G04 #@! TD.AperFunction*
G04 #@! TA.AperFunction,SMDPad,CuDef*
G36*
G01*
X57040000Y-64815000D02*
X57340000Y-64815000D01*
G75*
G02*
X57490000Y-64965000I0J-150000D01*
G01*
X57490000Y-66715000D01*
G75*
G02*
X57340000Y-66865000I-150000J0D01*
G01*
X57040000Y-66865000D01*
G75*
G02*
X56890000Y-66715000I0J150000D01*
G01*
X56890000Y-64965000D01*
G75*
G02*
X57040000Y-64815000I150000J0D01*
G01*
G37*
G04 #@! TD.AperFunction*
G04 #@! TA.AperFunction,SMDPad,CuDef*
G36*
G01*
X58310000Y-64815000D02*
X58610000Y-64815000D01*
G75*
G02*
X58760000Y-64965000I0J-150000D01*
G01*
X58760000Y-66715000D01*
G75*
G02*
X58610000Y-66865000I-150000J0D01*
G01*
X58310000Y-66865000D01*
G75*
G02*
X58160000Y-66715000I0J150000D01*
G01*
X58160000Y-64965000D01*
G75*
G02*
X58310000Y-64815000I150000J0D01*
G01*
G37*
G04 #@! TD.AperFunction*
G04 #@! TA.AperFunction,SMDPad,CuDef*
G36*
G01*
X59580000Y-64815000D02*
X59880000Y-64815000D01*
G75*
G02*
X60030000Y-64965000I0J-150000D01*
G01*
X60030000Y-66715000D01*
G75*
G02*
X59880000Y-66865000I-150000J0D01*
G01*
X59580000Y-66865000D01*
G75*
G02*
X59430000Y-66715000I0J150000D01*
G01*
X59430000Y-64965000D01*
G75*
G02*
X59580000Y-64815000I150000J0D01*
G01*
G37*
G04 #@! TD.AperFunction*
G04 #@! TA.AperFunction,SMDPad,CuDef*
G36*
G01*
X60850000Y-64815000D02*
X61150000Y-64815000D01*
G75*
G02*
X61300000Y-64965000I0J-150000D01*
G01*
X61300000Y-66715000D01*
G75*
G02*
X61150000Y-66865000I-150000J0D01*
G01*
X60850000Y-66865000D01*
G75*
G02*
X60700000Y-66715000I0J150000D01*
G01*
X60700000Y-64965000D01*
G75*
G02*
X60850000Y-64815000I150000J0D01*
G01*
G37*
G04 #@! TD.AperFunction*
G04 #@! TA.AperFunction,SMDPad,CuDef*
G36*
G01*
X62120000Y-64815000D02*
X62420000Y-64815000D01*
G75*
G02*
X62570000Y-64965000I0J-150000D01*
G01*
X62570000Y-66715000D01*
G75*
G02*
X62420000Y-66865000I-150000J0D01*
G01*
X62120000Y-66865000D01*
G75*
G02*
X61970000Y-66715000I0J150000D01*
G01*
X61970000Y-64965000D01*
G75*
G02*
X62120000Y-64815000I150000J0D01*
G01*
G37*
G04 #@! TD.AperFunction*
G04 #@! TA.AperFunction,SMDPad,CuDef*
G36*
G01*
X63390000Y-64815000D02*
X63690000Y-64815000D01*
G75*
G02*
X63840000Y-64965000I0J-150000D01*
G01*
X63840000Y-66715000D01*
G75*
G02*
X63690000Y-66865000I-150000J0D01*
G01*
X63390000Y-66865000D01*
G75*
G02*
X63240000Y-66715000I0J150000D01*
G01*
X63240000Y-64965000D01*
G75*
G02*
X63390000Y-64815000I150000J0D01*
G01*
G37*
G04 #@! TD.AperFunction*
G04 #@! TA.AperFunction,SMDPad,CuDef*
G36*
G01*
X64660000Y-64815000D02*
X64960000Y-64815000D01*
G75*
G02*
X65110000Y-64965000I0J-150000D01*
G01*
X65110000Y-66715000D01*
G75*
G02*
X64960000Y-66865000I-150000J0D01*
G01*
X64660000Y-66865000D01*
G75*
G02*
X64510000Y-66715000I0J150000D01*
G01*
X64510000Y-64965000D01*
G75*
G02*
X64660000Y-64815000I150000J0D01*
G01*
G37*
G04 #@! TD.AperFunction*
G04 #@! TA.AperFunction,SMDPad,CuDef*
G36*
G01*
X106270000Y-66784000D02*
X106270000Y-67084000D01*
G75*
G02*
X106120000Y-67234000I-150000J0D01*
G01*
X104370000Y-67234000D01*
G75*
G02*
X104220000Y-67084000I0J150000D01*
G01*
X104220000Y-66784000D01*
G75*
G02*
X104370000Y-66634000I150000J0D01*
G01*
X106120000Y-66634000D01*
G75*
G02*
X106270000Y-66784000I0J-150000D01*
G01*
G37*
G04 #@! TD.AperFunction*
G04 #@! TA.AperFunction,SMDPad,CuDef*
G36*
G01*
X106270000Y-65514000D02*
X106270000Y-65814000D01*
G75*
G02*
X106120000Y-65964000I-150000J0D01*
G01*
X104370000Y-65964000D01*
G75*
G02*
X104220000Y-65814000I0J150000D01*
G01*
X104220000Y-65514000D01*
G75*
G02*
X104370000Y-65364000I150000J0D01*
G01*
X106120000Y-65364000D01*
G75*
G02*
X106270000Y-65514000I0J-150000D01*
G01*
G37*
G04 #@! TD.AperFunction*
G04 #@! TA.AperFunction,SMDPad,CuDef*
G36*
G01*
X106270000Y-64244000D02*
X106270000Y-64544000D01*
G75*
G02*
X106120000Y-64694000I-150000J0D01*
G01*
X104370000Y-64694000D01*
G75*
G02*
X104220000Y-64544000I0J150000D01*
G01*
X104220000Y-64244000D01*
G75*
G02*
X104370000Y-64094000I150000J0D01*
G01*
X106120000Y-64094000D01*
G75*
G02*
X106270000Y-64244000I0J-150000D01*
G01*
G37*
G04 #@! TD.AperFunction*
G04 #@! TA.AperFunction,SMDPad,CuDef*
G36*
G01*
X106270000Y-62974000D02*
X106270000Y-63274000D01*
G75*
G02*
X106120000Y-63424000I-150000J0D01*
G01*
X104370000Y-63424000D01*
G75*
G02*
X104220000Y-63274000I0J150000D01*
G01*
X104220000Y-62974000D01*
G75*
G02*
X104370000Y-62824000I150000J0D01*
G01*
X106120000Y-62824000D01*
G75*
G02*
X106270000Y-62974000I0J-150000D01*
G01*
G37*
G04 #@! TD.AperFunction*
G04 #@! TA.AperFunction,SMDPad,CuDef*
G36*
G01*
X106270000Y-61704000D02*
X106270000Y-62004000D01*
G75*
G02*
X106120000Y-62154000I-150000J0D01*
G01*
X104370000Y-62154000D01*
G75*
G02*
X104220000Y-62004000I0J150000D01*
G01*
X104220000Y-61704000D01*
G75*
G02*
X104370000Y-61554000I150000J0D01*
G01*
X106120000Y-61554000D01*
G75*
G02*
X106270000Y-61704000I0J-150000D01*
G01*
G37*
G04 #@! TD.AperFunction*
G04 #@! TA.AperFunction,SMDPad,CuDef*
G36*
G01*
X106270000Y-60434000D02*
X106270000Y-60734000D01*
G75*
G02*
X106120000Y-60884000I-150000J0D01*
G01*
X104370000Y-60884000D01*
G75*
G02*
X104220000Y-60734000I0J150000D01*
G01*
X104220000Y-60434000D01*
G75*
G02*
X104370000Y-60284000I150000J0D01*
G01*
X106120000Y-60284000D01*
G75*
G02*
X106270000Y-60434000I0J-150000D01*
G01*
G37*
G04 #@! TD.AperFunction*
G04 #@! TA.AperFunction,SMDPad,CuDef*
G36*
G01*
X106270000Y-59164000D02*
X106270000Y-59464000D01*
G75*
G02*
X106120000Y-59614000I-150000J0D01*
G01*
X104370000Y-59614000D01*
G75*
G02*
X104220000Y-59464000I0J150000D01*
G01*
X104220000Y-59164000D01*
G75*
G02*
X104370000Y-59014000I150000J0D01*
G01*
X106120000Y-59014000D01*
G75*
G02*
X106270000Y-59164000I0J-150000D01*
G01*
G37*
G04 #@! TD.AperFunction*
G04 #@! TA.AperFunction,SMDPad,CuDef*
G36*
G01*
X106270000Y-57894000D02*
X106270000Y-58194000D01*
G75*
G02*
X106120000Y-58344000I-150000J0D01*
G01*
X104370000Y-58344000D01*
G75*
G02*
X104220000Y-58194000I0J150000D01*
G01*
X104220000Y-57894000D01*
G75*
G02*
X104370000Y-57744000I150000J0D01*
G01*
X106120000Y-57744000D01*
G75*
G02*
X106270000Y-57894000I0J-150000D01*
G01*
G37*
G04 #@! TD.AperFunction*
G04 #@! TA.AperFunction,SMDPad,CuDef*
G36*
G01*
X106270000Y-56624000D02*
X106270000Y-56924000D01*
G75*
G02*
X106120000Y-57074000I-150000J0D01*
G01*
X104370000Y-57074000D01*
G75*
G02*
X104220000Y-56924000I0J150000D01*
G01*
X104220000Y-56624000D01*
G75*
G02*
X104370000Y-56474000I150000J0D01*
G01*
X106120000Y-56474000D01*
G75*
G02*
X106270000Y-56624000I0J-150000D01*
G01*
G37*
G04 #@! TD.AperFunction*
G04 #@! TA.AperFunction,SMDPad,CuDef*
G36*
G01*
X106270000Y-55354000D02*
X106270000Y-55654000D01*
G75*
G02*
X106120000Y-55804000I-150000J0D01*
G01*
X104370000Y-55804000D01*
G75*
G02*
X104220000Y-55654000I0J150000D01*
G01*
X104220000Y-55354000D01*
G75*
G02*
X104370000Y-55204000I150000J0D01*
G01*
X106120000Y-55204000D01*
G75*
G02*
X106270000Y-55354000I0J-150000D01*
G01*
G37*
G04 #@! TD.AperFunction*
G04 #@! TA.AperFunction,SMDPad,CuDef*
G36*
G01*
X115570000Y-55354000D02*
X115570000Y-55654000D01*
G75*
G02*
X115420000Y-55804000I-150000J0D01*
G01*
X113670000Y-55804000D01*
G75*
G02*
X113520000Y-55654000I0J150000D01*
G01*
X113520000Y-55354000D01*
G75*
G02*
X113670000Y-55204000I150000J0D01*
G01*
X115420000Y-55204000D01*
G75*
G02*
X115570000Y-55354000I0J-150000D01*
G01*
G37*
G04 #@! TD.AperFunction*
G04 #@! TA.AperFunction,SMDPad,CuDef*
G36*
G01*
X115570000Y-56624000D02*
X115570000Y-56924000D01*
G75*
G02*
X115420000Y-57074000I-150000J0D01*
G01*
X113670000Y-57074000D01*
G75*
G02*
X113520000Y-56924000I0J150000D01*
G01*
X113520000Y-56624000D01*
G75*
G02*
X113670000Y-56474000I150000J0D01*
G01*
X115420000Y-56474000D01*
G75*
G02*
X115570000Y-56624000I0J-150000D01*
G01*
G37*
G04 #@! TD.AperFunction*
G04 #@! TA.AperFunction,SMDPad,CuDef*
G36*
G01*
X115570000Y-57894000D02*
X115570000Y-58194000D01*
G75*
G02*
X115420000Y-58344000I-150000J0D01*
G01*
X113670000Y-58344000D01*
G75*
G02*
X113520000Y-58194000I0J150000D01*
G01*
X113520000Y-57894000D01*
G75*
G02*
X113670000Y-57744000I150000J0D01*
G01*
X115420000Y-57744000D01*
G75*
G02*
X115570000Y-57894000I0J-150000D01*
G01*
G37*
G04 #@! TD.AperFunction*
G04 #@! TA.AperFunction,SMDPad,CuDef*
G36*
G01*
X115570000Y-59164000D02*
X115570000Y-59464000D01*
G75*
G02*
X115420000Y-59614000I-150000J0D01*
G01*
X113670000Y-59614000D01*
G75*
G02*
X113520000Y-59464000I0J150000D01*
G01*
X113520000Y-59164000D01*
G75*
G02*
X113670000Y-59014000I150000J0D01*
G01*
X115420000Y-59014000D01*
G75*
G02*
X115570000Y-59164000I0J-150000D01*
G01*
G37*
G04 #@! TD.AperFunction*
G04 #@! TA.AperFunction,SMDPad,CuDef*
G36*
G01*
X115570000Y-60434000D02*
X115570000Y-60734000D01*
G75*
G02*
X115420000Y-60884000I-150000J0D01*
G01*
X113670000Y-60884000D01*
G75*
G02*
X113520000Y-60734000I0J150000D01*
G01*
X113520000Y-60434000D01*
G75*
G02*
X113670000Y-60284000I150000J0D01*
G01*
X115420000Y-60284000D01*
G75*
G02*
X115570000Y-60434000I0J-150000D01*
G01*
G37*
G04 #@! TD.AperFunction*
G04 #@! TA.AperFunction,SMDPad,CuDef*
G36*
G01*
X115570000Y-61704000D02*
X115570000Y-62004000D01*
G75*
G02*
X115420000Y-62154000I-150000J0D01*
G01*
X113670000Y-62154000D01*
G75*
G02*
X113520000Y-62004000I0J150000D01*
G01*
X113520000Y-61704000D01*
G75*
G02*
X113670000Y-61554000I150000J0D01*
G01*
X115420000Y-61554000D01*
G75*
G02*
X115570000Y-61704000I0J-150000D01*
G01*
G37*
G04 #@! TD.AperFunction*
G04 #@! TA.AperFunction,SMDPad,CuDef*
G36*
G01*
X115570000Y-62974000D02*
X115570000Y-63274000D01*
G75*
G02*
X115420000Y-63424000I-150000J0D01*
G01*
X113670000Y-63424000D01*
G75*
G02*
X113520000Y-63274000I0J150000D01*
G01*
X113520000Y-62974000D01*
G75*
G02*
X113670000Y-62824000I150000J0D01*
G01*
X115420000Y-62824000D01*
G75*
G02*
X115570000Y-62974000I0J-150000D01*
G01*
G37*
G04 #@! TD.AperFunction*
G04 #@! TA.AperFunction,SMDPad,CuDef*
G36*
G01*
X115570000Y-64244000D02*
X115570000Y-64544000D01*
G75*
G02*
X115420000Y-64694000I-150000J0D01*
G01*
X113670000Y-64694000D01*
G75*
G02*
X113520000Y-64544000I0J150000D01*
G01*
X113520000Y-64244000D01*
G75*
G02*
X113670000Y-64094000I150000J0D01*
G01*
X115420000Y-64094000D01*
G75*
G02*
X115570000Y-64244000I0J-150000D01*
G01*
G37*
G04 #@! TD.AperFunction*
G04 #@! TA.AperFunction,SMDPad,CuDef*
G36*
G01*
X115570000Y-65514000D02*
X115570000Y-65814000D01*
G75*
G02*
X115420000Y-65964000I-150000J0D01*
G01*
X113670000Y-65964000D01*
G75*
G02*
X113520000Y-65814000I0J150000D01*
G01*
X113520000Y-65514000D01*
G75*
G02*
X113670000Y-65364000I150000J0D01*
G01*
X115420000Y-65364000D01*
G75*
G02*
X115570000Y-65514000I0J-150000D01*
G01*
G37*
G04 #@! TD.AperFunction*
G04 #@! TA.AperFunction,SMDPad,CuDef*
G36*
G01*
X115570000Y-66784000D02*
X115570000Y-67084000D01*
G75*
G02*
X115420000Y-67234000I-150000J0D01*
G01*
X113670000Y-67234000D01*
G75*
G02*
X113520000Y-67084000I0J150000D01*
G01*
X113520000Y-66784000D01*
G75*
G02*
X113670000Y-66634000I150000J0D01*
G01*
X115420000Y-66634000D01*
G75*
G02*
X115570000Y-66784000I0J-150000D01*
G01*
G37*
G04 #@! TD.AperFunction*
G04 #@! TA.AperFunction,SMDPad,CuDef*
G36*
G01*
X154703000Y-74911000D02*
X155003000Y-74911000D01*
G75*
G02*
X155153000Y-75061000I0J-150000D01*
G01*
X155153000Y-76711000D01*
G75*
G02*
X155003000Y-76861000I-150000J0D01*
G01*
X154703000Y-76861000D01*
G75*
G02*
X154553000Y-76711000I0J150000D01*
G01*
X154553000Y-75061000D01*
G75*
G02*
X154703000Y-74911000I150000J0D01*
G01*
G37*
G04 #@! TD.AperFunction*
G04 #@! TA.AperFunction,SMDPad,CuDef*
G36*
G01*
X153433000Y-74911000D02*
X153733000Y-74911000D01*
G75*
G02*
X153883000Y-75061000I0J-150000D01*
G01*
X153883000Y-76711000D01*
G75*
G02*
X153733000Y-76861000I-150000J0D01*
G01*
X153433000Y-76861000D01*
G75*
G02*
X153283000Y-76711000I0J150000D01*
G01*
X153283000Y-75061000D01*
G75*
G02*
X153433000Y-74911000I150000J0D01*
G01*
G37*
G04 #@! TD.AperFunction*
G04 #@! TA.AperFunction,SMDPad,CuDef*
G36*
G01*
X152163000Y-74911000D02*
X152463000Y-74911000D01*
G75*
G02*
X152613000Y-75061000I0J-150000D01*
G01*
X152613000Y-76711000D01*
G75*
G02*
X152463000Y-76861000I-150000J0D01*
G01*
X152163000Y-76861000D01*
G75*
G02*
X152013000Y-76711000I0J150000D01*
G01*
X152013000Y-75061000D01*
G75*
G02*
X152163000Y-74911000I150000J0D01*
G01*
G37*
G04 #@! TD.AperFunction*
G04 #@! TA.AperFunction,SMDPad,CuDef*
G36*
G01*
X150893000Y-74911000D02*
X151193000Y-74911000D01*
G75*
G02*
X151343000Y-75061000I0J-150000D01*
G01*
X151343000Y-76711000D01*
G75*
G02*
X151193000Y-76861000I-150000J0D01*
G01*
X150893000Y-76861000D01*
G75*
G02*
X150743000Y-76711000I0J150000D01*
G01*
X150743000Y-75061000D01*
G75*
G02*
X150893000Y-74911000I150000J0D01*
G01*
G37*
G04 #@! TD.AperFunction*
G04 #@! TA.AperFunction,SMDPad,CuDef*
G36*
G01*
X150893000Y-69961000D02*
X151193000Y-69961000D01*
G75*
G02*
X151343000Y-70111000I0J-150000D01*
G01*
X151343000Y-71761000D01*
G75*
G02*
X151193000Y-71911000I-150000J0D01*
G01*
X150893000Y-71911000D01*
G75*
G02*
X150743000Y-71761000I0J150000D01*
G01*
X150743000Y-70111000D01*
G75*
G02*
X150893000Y-69961000I150000J0D01*
G01*
G37*
G04 #@! TD.AperFunction*
G04 #@! TA.AperFunction,SMDPad,CuDef*
G36*
G01*
X152163000Y-69961000D02*
X152463000Y-69961000D01*
G75*
G02*
X152613000Y-70111000I0J-150000D01*
G01*
X152613000Y-71761000D01*
G75*
G02*
X152463000Y-71911000I-150000J0D01*
G01*
X152163000Y-71911000D01*
G75*
G02*
X152013000Y-71761000I0J150000D01*
G01*
X152013000Y-70111000D01*
G75*
G02*
X152163000Y-69961000I150000J0D01*
G01*
G37*
G04 #@! TD.AperFunction*
G04 #@! TA.AperFunction,SMDPad,CuDef*
G36*
G01*
X153433000Y-69961000D02*
X153733000Y-69961000D01*
G75*
G02*
X153883000Y-70111000I0J-150000D01*
G01*
X153883000Y-71761000D01*
G75*
G02*
X153733000Y-71911000I-150000J0D01*
G01*
X153433000Y-71911000D01*
G75*
G02*
X153283000Y-71761000I0J150000D01*
G01*
X153283000Y-70111000D01*
G75*
G02*
X153433000Y-69961000I150000J0D01*
G01*
G37*
G04 #@! TD.AperFunction*
G04 #@! TA.AperFunction,SMDPad,CuDef*
G36*
G01*
X154703000Y-69961000D02*
X155003000Y-69961000D01*
G75*
G02*
X155153000Y-70111000I0J-150000D01*
G01*
X155153000Y-71761000D01*
G75*
G02*
X155003000Y-71911000I-150000J0D01*
G01*
X154703000Y-71911000D01*
G75*
G02*
X154553000Y-71761000I0J150000D01*
G01*
X154553000Y-70111000D01*
G75*
G02*
X154703000Y-69961000I150000J0D01*
G01*
G37*
G04 #@! TD.AperFunction*
G04 #@! TA.AperFunction,SMDPad,CuDef*
G36*
G01*
X78307000Y-65337000D02*
X76857000Y-65337000D01*
G75*
G02*
X76782000Y-65262000I0J75000D01*
G01*
X76782000Y-65112000D01*
G75*
G02*
X76857000Y-65037000I75000J0D01*
G01*
X78307000Y-65037000D01*
G75*
G02*
X78382000Y-65112000I0J-75000D01*
G01*
X78382000Y-65262000D01*
G75*
G02*
X78307000Y-65337000I-75000J0D01*
G01*
G37*
G04 #@! TD.AperFunction*
G04 #@! TA.AperFunction,SMDPad,CuDef*
G36*
G01*
X78307000Y-64837000D02*
X76857000Y-64837000D01*
G75*
G02*
X76782000Y-64762000I0J75000D01*
G01*
X76782000Y-64612000D01*
G75*
G02*
X76857000Y-64537000I75000J0D01*
G01*
X78307000Y-64537000D01*
G75*
G02*
X78382000Y-64612000I0J-75000D01*
G01*
X78382000Y-64762000D01*
G75*
G02*
X78307000Y-64837000I-75000J0D01*
G01*
G37*
G04 #@! TD.AperFunction*
G04 #@! TA.AperFunction,SMDPad,CuDef*
G36*
G01*
X78307000Y-64337000D02*
X76857000Y-64337000D01*
G75*
G02*
X76782000Y-64262000I0J75000D01*
G01*
X76782000Y-64112000D01*
G75*
G02*
X76857000Y-64037000I75000J0D01*
G01*
X78307000Y-64037000D01*
G75*
G02*
X78382000Y-64112000I0J-75000D01*
G01*
X78382000Y-64262000D01*
G75*
G02*
X78307000Y-64337000I-75000J0D01*
G01*
G37*
G04 #@! TD.AperFunction*
G04 #@! TA.AperFunction,SMDPad,CuDef*
G36*
G01*
X78307000Y-63837000D02*
X76857000Y-63837000D01*
G75*
G02*
X76782000Y-63762000I0J75000D01*
G01*
X76782000Y-63612000D01*
G75*
G02*
X76857000Y-63537000I75000J0D01*
G01*
X78307000Y-63537000D01*
G75*
G02*
X78382000Y-63612000I0J-75000D01*
G01*
X78382000Y-63762000D01*
G75*
G02*
X78307000Y-63837000I-75000J0D01*
G01*
G37*
G04 #@! TD.AperFunction*
G04 #@! TA.AperFunction,SMDPad,CuDef*
G36*
G01*
X78307000Y-63337000D02*
X76857000Y-63337000D01*
G75*
G02*
X76782000Y-63262000I0J75000D01*
G01*
X76782000Y-63112000D01*
G75*
G02*
X76857000Y-63037000I75000J0D01*
G01*
X78307000Y-63037000D01*
G75*
G02*
X78382000Y-63112000I0J-75000D01*
G01*
X78382000Y-63262000D01*
G75*
G02*
X78307000Y-63337000I-75000J0D01*
G01*
G37*
G04 #@! TD.AperFunction*
G04 #@! TA.AperFunction,SMDPad,CuDef*
G36*
G01*
X78307000Y-62837000D02*
X76857000Y-62837000D01*
G75*
G02*
X76782000Y-62762000I0J75000D01*
G01*
X76782000Y-62612000D01*
G75*
G02*
X76857000Y-62537000I75000J0D01*
G01*
X78307000Y-62537000D01*
G75*
G02*
X78382000Y-62612000I0J-75000D01*
G01*
X78382000Y-62762000D01*
G75*
G02*
X78307000Y-62837000I-75000J0D01*
G01*
G37*
G04 #@! TD.AperFunction*
G04 #@! TA.AperFunction,SMDPad,CuDef*
G36*
G01*
X78307000Y-62337000D02*
X76857000Y-62337000D01*
G75*
G02*
X76782000Y-62262000I0J75000D01*
G01*
X76782000Y-62112000D01*
G75*
G02*
X76857000Y-62037000I75000J0D01*
G01*
X78307000Y-62037000D01*
G75*
G02*
X78382000Y-62112000I0J-75000D01*
G01*
X78382000Y-62262000D01*
G75*
G02*
X78307000Y-62337000I-75000J0D01*
G01*
G37*
G04 #@! TD.AperFunction*
G04 #@! TA.AperFunction,SMDPad,CuDef*
G36*
G01*
X78307000Y-61837000D02*
X76857000Y-61837000D01*
G75*
G02*
X76782000Y-61762000I0J75000D01*
G01*
X76782000Y-61612000D01*
G75*
G02*
X76857000Y-61537000I75000J0D01*
G01*
X78307000Y-61537000D01*
G75*
G02*
X78382000Y-61612000I0J-75000D01*
G01*
X78382000Y-61762000D01*
G75*
G02*
X78307000Y-61837000I-75000J0D01*
G01*
G37*
G04 #@! TD.AperFunction*
G04 #@! TA.AperFunction,SMDPad,CuDef*
G36*
G01*
X78307000Y-61337000D02*
X76857000Y-61337000D01*
G75*
G02*
X76782000Y-61262000I0J75000D01*
G01*
X76782000Y-61112000D01*
G75*
G02*
X76857000Y-61037000I75000J0D01*
G01*
X78307000Y-61037000D01*
G75*
G02*
X78382000Y-61112000I0J-75000D01*
G01*
X78382000Y-61262000D01*
G75*
G02*
X78307000Y-61337000I-75000J0D01*
G01*
G37*
G04 #@! TD.AperFunction*
G04 #@! TA.AperFunction,SMDPad,CuDef*
G36*
G01*
X78307000Y-60837000D02*
X76857000Y-60837000D01*
G75*
G02*
X76782000Y-60762000I0J75000D01*
G01*
X76782000Y-60612000D01*
G75*
G02*
X76857000Y-60537000I75000J0D01*
G01*
X78307000Y-60537000D01*
G75*
G02*
X78382000Y-60612000I0J-75000D01*
G01*
X78382000Y-60762000D01*
G75*
G02*
X78307000Y-60837000I-75000J0D01*
G01*
G37*
G04 #@! TD.AperFunction*
G04 #@! TA.AperFunction,SMDPad,CuDef*
G36*
G01*
X78307000Y-60337000D02*
X76857000Y-60337000D01*
G75*
G02*
X76782000Y-60262000I0J75000D01*
G01*
X76782000Y-60112000D01*
G75*
G02*
X76857000Y-60037000I75000J0D01*
G01*
X78307000Y-60037000D01*
G75*
G02*
X78382000Y-60112000I0J-75000D01*
G01*
X78382000Y-60262000D01*
G75*
G02*
X78307000Y-60337000I-75000J0D01*
G01*
G37*
G04 #@! TD.AperFunction*
G04 #@! TA.AperFunction,SMDPad,CuDef*
G36*
G01*
X78307000Y-59837000D02*
X76857000Y-59837000D01*
G75*
G02*
X76782000Y-59762000I0J75000D01*
G01*
X76782000Y-59612000D01*
G75*
G02*
X76857000Y-59537000I75000J0D01*
G01*
X78307000Y-59537000D01*
G75*
G02*
X78382000Y-59612000I0J-75000D01*
G01*
X78382000Y-59762000D01*
G75*
G02*
X78307000Y-59837000I-75000J0D01*
G01*
G37*
G04 #@! TD.AperFunction*
G04 #@! TA.AperFunction,SMDPad,CuDef*
G36*
G01*
X78307000Y-59337000D02*
X76857000Y-59337000D01*
G75*
G02*
X76782000Y-59262000I0J75000D01*
G01*
X76782000Y-59112000D01*
G75*
G02*
X76857000Y-59037000I75000J0D01*
G01*
X78307000Y-59037000D01*
G75*
G02*
X78382000Y-59112000I0J-75000D01*
G01*
X78382000Y-59262000D01*
G75*
G02*
X78307000Y-59337000I-75000J0D01*
G01*
G37*
G04 #@! TD.AperFunction*
G04 #@! TA.AperFunction,SMDPad,CuDef*
G36*
G01*
X78307000Y-58837000D02*
X76857000Y-58837000D01*
G75*
G02*
X76782000Y-58762000I0J75000D01*
G01*
X76782000Y-58612000D01*
G75*
G02*
X76857000Y-58537000I75000J0D01*
G01*
X78307000Y-58537000D01*
G75*
G02*
X78382000Y-58612000I0J-75000D01*
G01*
X78382000Y-58762000D01*
G75*
G02*
X78307000Y-58837000I-75000J0D01*
G01*
G37*
G04 #@! TD.AperFunction*
G04 #@! TA.AperFunction,SMDPad,CuDef*
G36*
G01*
X78307000Y-58337000D02*
X76857000Y-58337000D01*
G75*
G02*
X76782000Y-58262000I0J75000D01*
G01*
X76782000Y-58112000D01*
G75*
G02*
X76857000Y-58037000I75000J0D01*
G01*
X78307000Y-58037000D01*
G75*
G02*
X78382000Y-58112000I0J-75000D01*
G01*
X78382000Y-58262000D01*
G75*
G02*
X78307000Y-58337000I-75000J0D01*
G01*
G37*
G04 #@! TD.AperFunction*
G04 #@! TA.AperFunction,SMDPad,CuDef*
G36*
G01*
X78307000Y-57837000D02*
X76857000Y-57837000D01*
G75*
G02*
X76782000Y-57762000I0J75000D01*
G01*
X76782000Y-57612000D01*
G75*
G02*
X76857000Y-57537000I75000J0D01*
G01*
X78307000Y-57537000D01*
G75*
G02*
X78382000Y-57612000I0J-75000D01*
G01*
X78382000Y-57762000D01*
G75*
G02*
X78307000Y-57837000I-75000J0D01*
G01*
G37*
G04 #@! TD.AperFunction*
G04 #@! TA.AperFunction,SMDPad,CuDef*
G36*
G01*
X78307000Y-57337000D02*
X76857000Y-57337000D01*
G75*
G02*
X76782000Y-57262000I0J75000D01*
G01*
X76782000Y-57112000D01*
G75*
G02*
X76857000Y-57037000I75000J0D01*
G01*
X78307000Y-57037000D01*
G75*
G02*
X78382000Y-57112000I0J-75000D01*
G01*
X78382000Y-57262000D01*
G75*
G02*
X78307000Y-57337000I-75000J0D01*
G01*
G37*
G04 #@! TD.AperFunction*
G04 #@! TA.AperFunction,SMDPad,CuDef*
G36*
G01*
X78307000Y-56837000D02*
X76857000Y-56837000D01*
G75*
G02*
X76782000Y-56762000I0J75000D01*
G01*
X76782000Y-56612000D01*
G75*
G02*
X76857000Y-56537000I75000J0D01*
G01*
X78307000Y-56537000D01*
G75*
G02*
X78382000Y-56612000I0J-75000D01*
G01*
X78382000Y-56762000D01*
G75*
G02*
X78307000Y-56837000I-75000J0D01*
G01*
G37*
G04 #@! TD.AperFunction*
G04 #@! TA.AperFunction,SMDPad,CuDef*
G36*
G01*
X78307000Y-56337000D02*
X76857000Y-56337000D01*
G75*
G02*
X76782000Y-56262000I0J75000D01*
G01*
X76782000Y-56112000D01*
G75*
G02*
X76857000Y-56037000I75000J0D01*
G01*
X78307000Y-56037000D01*
G75*
G02*
X78382000Y-56112000I0J-75000D01*
G01*
X78382000Y-56262000D01*
G75*
G02*
X78307000Y-56337000I-75000J0D01*
G01*
G37*
G04 #@! TD.AperFunction*
G04 #@! TA.AperFunction,SMDPad,CuDef*
G36*
G01*
X78307000Y-55837000D02*
X76857000Y-55837000D01*
G75*
G02*
X76782000Y-55762000I0J75000D01*
G01*
X76782000Y-55612000D01*
G75*
G02*
X76857000Y-55537000I75000J0D01*
G01*
X78307000Y-55537000D01*
G75*
G02*
X78382000Y-55612000I0J-75000D01*
G01*
X78382000Y-55762000D01*
G75*
G02*
X78307000Y-55837000I-75000J0D01*
G01*
G37*
G04 #@! TD.AperFunction*
G04 #@! TA.AperFunction,SMDPad,CuDef*
G36*
G01*
X78307000Y-55337000D02*
X76857000Y-55337000D01*
G75*
G02*
X76782000Y-55262000I0J75000D01*
G01*
X76782000Y-55112000D01*
G75*
G02*
X76857000Y-55037000I75000J0D01*
G01*
X78307000Y-55037000D01*
G75*
G02*
X78382000Y-55112000I0J-75000D01*
G01*
X78382000Y-55262000D01*
G75*
G02*
X78307000Y-55337000I-75000J0D01*
G01*
G37*
G04 #@! TD.AperFunction*
G04 #@! TA.AperFunction,SMDPad,CuDef*
G36*
G01*
X78307000Y-54837000D02*
X76857000Y-54837000D01*
G75*
G02*
X76782000Y-54762000I0J75000D01*
G01*
X76782000Y-54612000D01*
G75*
G02*
X76857000Y-54537000I75000J0D01*
G01*
X78307000Y-54537000D01*
G75*
G02*
X78382000Y-54612000I0J-75000D01*
G01*
X78382000Y-54762000D01*
G75*
G02*
X78307000Y-54837000I-75000J0D01*
G01*
G37*
G04 #@! TD.AperFunction*
G04 #@! TA.AperFunction,SMDPad,CuDef*
G36*
G01*
X78307000Y-54337000D02*
X76857000Y-54337000D01*
G75*
G02*
X76782000Y-54262000I0J75000D01*
G01*
X76782000Y-54112000D01*
G75*
G02*
X76857000Y-54037000I75000J0D01*
G01*
X78307000Y-54037000D01*
G75*
G02*
X78382000Y-54112000I0J-75000D01*
G01*
X78382000Y-54262000D01*
G75*
G02*
X78307000Y-54337000I-75000J0D01*
G01*
G37*
G04 #@! TD.AperFunction*
G04 #@! TA.AperFunction,SMDPad,CuDef*
G36*
G01*
X78307000Y-53837000D02*
X76857000Y-53837000D01*
G75*
G02*
X76782000Y-53762000I0J75000D01*
G01*
X76782000Y-53612000D01*
G75*
G02*
X76857000Y-53537000I75000J0D01*
G01*
X78307000Y-53537000D01*
G75*
G02*
X78382000Y-53612000I0J-75000D01*
G01*
X78382000Y-53762000D01*
G75*
G02*
X78307000Y-53837000I-75000J0D01*
G01*
G37*
G04 #@! TD.AperFunction*
G04 #@! TA.AperFunction,SMDPad,CuDef*
G36*
G01*
X78307000Y-53337000D02*
X76857000Y-53337000D01*
G75*
G02*
X76782000Y-53262000I0J75000D01*
G01*
X76782000Y-53112000D01*
G75*
G02*
X76857000Y-53037000I75000J0D01*
G01*
X78307000Y-53037000D01*
G75*
G02*
X78382000Y-53112000I0J-75000D01*
G01*
X78382000Y-53262000D01*
G75*
G02*
X78307000Y-53337000I-75000J0D01*
G01*
G37*
G04 #@! TD.AperFunction*
G04 #@! TA.AperFunction,SMDPad,CuDef*
G36*
G01*
X79332000Y-52312000D02*
X79182000Y-52312000D01*
G75*
G02*
X79107000Y-52237000I0J75000D01*
G01*
X79107000Y-50787000D01*
G75*
G02*
X79182000Y-50712000I75000J0D01*
G01*
X79332000Y-50712000D01*
G75*
G02*
X79407000Y-50787000I0J-75000D01*
G01*
X79407000Y-52237000D01*
G75*
G02*
X79332000Y-52312000I-75000J0D01*
G01*
G37*
G04 #@! TD.AperFunction*
G04 #@! TA.AperFunction,SMDPad,CuDef*
G36*
G01*
X79832000Y-52312000D02*
X79682000Y-52312000D01*
G75*
G02*
X79607000Y-52237000I0J75000D01*
G01*
X79607000Y-50787000D01*
G75*
G02*
X79682000Y-50712000I75000J0D01*
G01*
X79832000Y-50712000D01*
G75*
G02*
X79907000Y-50787000I0J-75000D01*
G01*
X79907000Y-52237000D01*
G75*
G02*
X79832000Y-52312000I-75000J0D01*
G01*
G37*
G04 #@! TD.AperFunction*
G04 #@! TA.AperFunction,SMDPad,CuDef*
G36*
G01*
X80332000Y-52312000D02*
X80182000Y-52312000D01*
G75*
G02*
X80107000Y-52237000I0J75000D01*
G01*
X80107000Y-50787000D01*
G75*
G02*
X80182000Y-50712000I75000J0D01*
G01*
X80332000Y-50712000D01*
G75*
G02*
X80407000Y-50787000I0J-75000D01*
G01*
X80407000Y-52237000D01*
G75*
G02*
X80332000Y-52312000I-75000J0D01*
G01*
G37*
G04 #@! TD.AperFunction*
G04 #@! TA.AperFunction,SMDPad,CuDef*
G36*
G01*
X80832000Y-52312000D02*
X80682000Y-52312000D01*
G75*
G02*
X80607000Y-52237000I0J75000D01*
G01*
X80607000Y-50787000D01*
G75*
G02*
X80682000Y-50712000I75000J0D01*
G01*
X80832000Y-50712000D01*
G75*
G02*
X80907000Y-50787000I0J-75000D01*
G01*
X80907000Y-52237000D01*
G75*
G02*
X80832000Y-52312000I-75000J0D01*
G01*
G37*
G04 #@! TD.AperFunction*
G04 #@! TA.AperFunction,SMDPad,CuDef*
G36*
G01*
X81332000Y-52312000D02*
X81182000Y-52312000D01*
G75*
G02*
X81107000Y-52237000I0J75000D01*
G01*
X81107000Y-50787000D01*
G75*
G02*
X81182000Y-50712000I75000J0D01*
G01*
X81332000Y-50712000D01*
G75*
G02*
X81407000Y-50787000I0J-75000D01*
G01*
X81407000Y-52237000D01*
G75*
G02*
X81332000Y-52312000I-75000J0D01*
G01*
G37*
G04 #@! TD.AperFunction*
G04 #@! TA.AperFunction,SMDPad,CuDef*
G36*
G01*
X81832000Y-52312000D02*
X81682000Y-52312000D01*
G75*
G02*
X81607000Y-52237000I0J75000D01*
G01*
X81607000Y-50787000D01*
G75*
G02*
X81682000Y-50712000I75000J0D01*
G01*
X81832000Y-50712000D01*
G75*
G02*
X81907000Y-50787000I0J-75000D01*
G01*
X81907000Y-52237000D01*
G75*
G02*
X81832000Y-52312000I-75000J0D01*
G01*
G37*
G04 #@! TD.AperFunction*
G04 #@! TA.AperFunction,SMDPad,CuDef*
G36*
G01*
X82332000Y-52312000D02*
X82182000Y-52312000D01*
G75*
G02*
X82107000Y-52237000I0J75000D01*
G01*
X82107000Y-50787000D01*
G75*
G02*
X82182000Y-50712000I75000J0D01*
G01*
X82332000Y-50712000D01*
G75*
G02*
X82407000Y-50787000I0J-75000D01*
G01*
X82407000Y-52237000D01*
G75*
G02*
X82332000Y-52312000I-75000J0D01*
G01*
G37*
G04 #@! TD.AperFunction*
G04 #@! TA.AperFunction,SMDPad,CuDef*
G36*
G01*
X82832000Y-52312000D02*
X82682000Y-52312000D01*
G75*
G02*
X82607000Y-52237000I0J75000D01*
G01*
X82607000Y-50787000D01*
G75*
G02*
X82682000Y-50712000I75000J0D01*
G01*
X82832000Y-50712000D01*
G75*
G02*
X82907000Y-50787000I0J-75000D01*
G01*
X82907000Y-52237000D01*
G75*
G02*
X82832000Y-52312000I-75000J0D01*
G01*
G37*
G04 #@! TD.AperFunction*
G04 #@! TA.AperFunction,SMDPad,CuDef*
G36*
G01*
X83332000Y-52312000D02*
X83182000Y-52312000D01*
G75*
G02*
X83107000Y-52237000I0J75000D01*
G01*
X83107000Y-50787000D01*
G75*
G02*
X83182000Y-50712000I75000J0D01*
G01*
X83332000Y-50712000D01*
G75*
G02*
X83407000Y-50787000I0J-75000D01*
G01*
X83407000Y-52237000D01*
G75*
G02*
X83332000Y-52312000I-75000J0D01*
G01*
G37*
G04 #@! TD.AperFunction*
G04 #@! TA.AperFunction,SMDPad,CuDef*
G36*
G01*
X83832000Y-52312000D02*
X83682000Y-52312000D01*
G75*
G02*
X83607000Y-52237000I0J75000D01*
G01*
X83607000Y-50787000D01*
G75*
G02*
X83682000Y-50712000I75000J0D01*
G01*
X83832000Y-50712000D01*
G75*
G02*
X83907000Y-50787000I0J-75000D01*
G01*
X83907000Y-52237000D01*
G75*
G02*
X83832000Y-52312000I-75000J0D01*
G01*
G37*
G04 #@! TD.AperFunction*
G04 #@! TA.AperFunction,SMDPad,CuDef*
G36*
G01*
X84332000Y-52312000D02*
X84182000Y-52312000D01*
G75*
G02*
X84107000Y-52237000I0J75000D01*
G01*
X84107000Y-50787000D01*
G75*
G02*
X84182000Y-50712000I75000J0D01*
G01*
X84332000Y-50712000D01*
G75*
G02*
X84407000Y-50787000I0J-75000D01*
G01*
X84407000Y-52237000D01*
G75*
G02*
X84332000Y-52312000I-75000J0D01*
G01*
G37*
G04 #@! TD.AperFunction*
G04 #@! TA.AperFunction,SMDPad,CuDef*
G36*
G01*
X84832000Y-52312000D02*
X84682000Y-52312000D01*
G75*
G02*
X84607000Y-52237000I0J75000D01*
G01*
X84607000Y-50787000D01*
G75*
G02*
X84682000Y-50712000I75000J0D01*
G01*
X84832000Y-50712000D01*
G75*
G02*
X84907000Y-50787000I0J-75000D01*
G01*
X84907000Y-52237000D01*
G75*
G02*
X84832000Y-52312000I-75000J0D01*
G01*
G37*
G04 #@! TD.AperFunction*
G04 #@! TA.AperFunction,SMDPad,CuDef*
G36*
G01*
X85332000Y-52312000D02*
X85182000Y-52312000D01*
G75*
G02*
X85107000Y-52237000I0J75000D01*
G01*
X85107000Y-50787000D01*
G75*
G02*
X85182000Y-50712000I75000J0D01*
G01*
X85332000Y-50712000D01*
G75*
G02*
X85407000Y-50787000I0J-75000D01*
G01*
X85407000Y-52237000D01*
G75*
G02*
X85332000Y-52312000I-75000J0D01*
G01*
G37*
G04 #@! TD.AperFunction*
G04 #@! TA.AperFunction,SMDPad,CuDef*
G36*
G01*
X85832000Y-52312000D02*
X85682000Y-52312000D01*
G75*
G02*
X85607000Y-52237000I0J75000D01*
G01*
X85607000Y-50787000D01*
G75*
G02*
X85682000Y-50712000I75000J0D01*
G01*
X85832000Y-50712000D01*
G75*
G02*
X85907000Y-50787000I0J-75000D01*
G01*
X85907000Y-52237000D01*
G75*
G02*
X85832000Y-52312000I-75000J0D01*
G01*
G37*
G04 #@! TD.AperFunction*
G04 #@! TA.AperFunction,SMDPad,CuDef*
G36*
G01*
X86332000Y-52312000D02*
X86182000Y-52312000D01*
G75*
G02*
X86107000Y-52237000I0J75000D01*
G01*
X86107000Y-50787000D01*
G75*
G02*
X86182000Y-50712000I75000J0D01*
G01*
X86332000Y-50712000D01*
G75*
G02*
X86407000Y-50787000I0J-75000D01*
G01*
X86407000Y-52237000D01*
G75*
G02*
X86332000Y-52312000I-75000J0D01*
G01*
G37*
G04 #@! TD.AperFunction*
G04 #@! TA.AperFunction,SMDPad,CuDef*
G36*
G01*
X86832000Y-52312000D02*
X86682000Y-52312000D01*
G75*
G02*
X86607000Y-52237000I0J75000D01*
G01*
X86607000Y-50787000D01*
G75*
G02*
X86682000Y-50712000I75000J0D01*
G01*
X86832000Y-50712000D01*
G75*
G02*
X86907000Y-50787000I0J-75000D01*
G01*
X86907000Y-52237000D01*
G75*
G02*
X86832000Y-52312000I-75000J0D01*
G01*
G37*
G04 #@! TD.AperFunction*
G04 #@! TA.AperFunction,SMDPad,CuDef*
G36*
G01*
X87332000Y-52312000D02*
X87182000Y-52312000D01*
G75*
G02*
X87107000Y-52237000I0J75000D01*
G01*
X87107000Y-50787000D01*
G75*
G02*
X87182000Y-50712000I75000J0D01*
G01*
X87332000Y-50712000D01*
G75*
G02*
X87407000Y-50787000I0J-75000D01*
G01*
X87407000Y-52237000D01*
G75*
G02*
X87332000Y-52312000I-75000J0D01*
G01*
G37*
G04 #@! TD.AperFunction*
G04 #@! TA.AperFunction,SMDPad,CuDef*
G36*
G01*
X87832000Y-52312000D02*
X87682000Y-52312000D01*
G75*
G02*
X87607000Y-52237000I0J75000D01*
G01*
X87607000Y-50787000D01*
G75*
G02*
X87682000Y-50712000I75000J0D01*
G01*
X87832000Y-50712000D01*
G75*
G02*
X87907000Y-50787000I0J-75000D01*
G01*
X87907000Y-52237000D01*
G75*
G02*
X87832000Y-52312000I-75000J0D01*
G01*
G37*
G04 #@! TD.AperFunction*
G04 #@! TA.AperFunction,SMDPad,CuDef*
G36*
G01*
X88332000Y-52312000D02*
X88182000Y-52312000D01*
G75*
G02*
X88107000Y-52237000I0J75000D01*
G01*
X88107000Y-50787000D01*
G75*
G02*
X88182000Y-50712000I75000J0D01*
G01*
X88332000Y-50712000D01*
G75*
G02*
X88407000Y-50787000I0J-75000D01*
G01*
X88407000Y-52237000D01*
G75*
G02*
X88332000Y-52312000I-75000J0D01*
G01*
G37*
G04 #@! TD.AperFunction*
G04 #@! TA.AperFunction,SMDPad,CuDef*
G36*
G01*
X88832000Y-52312000D02*
X88682000Y-52312000D01*
G75*
G02*
X88607000Y-52237000I0J75000D01*
G01*
X88607000Y-50787000D01*
G75*
G02*
X88682000Y-50712000I75000J0D01*
G01*
X88832000Y-50712000D01*
G75*
G02*
X88907000Y-50787000I0J-75000D01*
G01*
X88907000Y-52237000D01*
G75*
G02*
X88832000Y-52312000I-75000J0D01*
G01*
G37*
G04 #@! TD.AperFunction*
G04 #@! TA.AperFunction,SMDPad,CuDef*
G36*
G01*
X89332000Y-52312000D02*
X89182000Y-52312000D01*
G75*
G02*
X89107000Y-52237000I0J75000D01*
G01*
X89107000Y-50787000D01*
G75*
G02*
X89182000Y-50712000I75000J0D01*
G01*
X89332000Y-50712000D01*
G75*
G02*
X89407000Y-50787000I0J-75000D01*
G01*
X89407000Y-52237000D01*
G75*
G02*
X89332000Y-52312000I-75000J0D01*
G01*
G37*
G04 #@! TD.AperFunction*
G04 #@! TA.AperFunction,SMDPad,CuDef*
G36*
G01*
X89832000Y-52312000D02*
X89682000Y-52312000D01*
G75*
G02*
X89607000Y-52237000I0J75000D01*
G01*
X89607000Y-50787000D01*
G75*
G02*
X89682000Y-50712000I75000J0D01*
G01*
X89832000Y-50712000D01*
G75*
G02*
X89907000Y-50787000I0J-75000D01*
G01*
X89907000Y-52237000D01*
G75*
G02*
X89832000Y-52312000I-75000J0D01*
G01*
G37*
G04 #@! TD.AperFunction*
G04 #@! TA.AperFunction,SMDPad,CuDef*
G36*
G01*
X90332000Y-52312000D02*
X90182000Y-52312000D01*
G75*
G02*
X90107000Y-52237000I0J75000D01*
G01*
X90107000Y-50787000D01*
G75*
G02*
X90182000Y-50712000I75000J0D01*
G01*
X90332000Y-50712000D01*
G75*
G02*
X90407000Y-50787000I0J-75000D01*
G01*
X90407000Y-52237000D01*
G75*
G02*
X90332000Y-52312000I-75000J0D01*
G01*
G37*
G04 #@! TD.AperFunction*
G04 #@! TA.AperFunction,SMDPad,CuDef*
G36*
G01*
X90832000Y-52312000D02*
X90682000Y-52312000D01*
G75*
G02*
X90607000Y-52237000I0J75000D01*
G01*
X90607000Y-50787000D01*
G75*
G02*
X90682000Y-50712000I75000J0D01*
G01*
X90832000Y-50712000D01*
G75*
G02*
X90907000Y-50787000I0J-75000D01*
G01*
X90907000Y-52237000D01*
G75*
G02*
X90832000Y-52312000I-75000J0D01*
G01*
G37*
G04 #@! TD.AperFunction*
G04 #@! TA.AperFunction,SMDPad,CuDef*
G36*
G01*
X91332000Y-52312000D02*
X91182000Y-52312000D01*
G75*
G02*
X91107000Y-52237000I0J75000D01*
G01*
X91107000Y-50787000D01*
G75*
G02*
X91182000Y-50712000I75000J0D01*
G01*
X91332000Y-50712000D01*
G75*
G02*
X91407000Y-50787000I0J-75000D01*
G01*
X91407000Y-52237000D01*
G75*
G02*
X91332000Y-52312000I-75000J0D01*
G01*
G37*
G04 #@! TD.AperFunction*
G04 #@! TA.AperFunction,SMDPad,CuDef*
G36*
G01*
X93657000Y-53337000D02*
X92207000Y-53337000D01*
G75*
G02*
X92132000Y-53262000I0J75000D01*
G01*
X92132000Y-53112000D01*
G75*
G02*
X92207000Y-53037000I75000J0D01*
G01*
X93657000Y-53037000D01*
G75*
G02*
X93732000Y-53112000I0J-75000D01*
G01*
X93732000Y-53262000D01*
G75*
G02*
X93657000Y-53337000I-75000J0D01*
G01*
G37*
G04 #@! TD.AperFunction*
G04 #@! TA.AperFunction,SMDPad,CuDef*
G36*
G01*
X93657000Y-53837000D02*
X92207000Y-53837000D01*
G75*
G02*
X92132000Y-53762000I0J75000D01*
G01*
X92132000Y-53612000D01*
G75*
G02*
X92207000Y-53537000I75000J0D01*
G01*
X93657000Y-53537000D01*
G75*
G02*
X93732000Y-53612000I0J-75000D01*
G01*
X93732000Y-53762000D01*
G75*
G02*
X93657000Y-53837000I-75000J0D01*
G01*
G37*
G04 #@! TD.AperFunction*
G04 #@! TA.AperFunction,SMDPad,CuDef*
G36*
G01*
X93657000Y-54337000D02*
X92207000Y-54337000D01*
G75*
G02*
X92132000Y-54262000I0J75000D01*
G01*
X92132000Y-54112000D01*
G75*
G02*
X92207000Y-54037000I75000J0D01*
G01*
X93657000Y-54037000D01*
G75*
G02*
X93732000Y-54112000I0J-75000D01*
G01*
X93732000Y-54262000D01*
G75*
G02*
X93657000Y-54337000I-75000J0D01*
G01*
G37*
G04 #@! TD.AperFunction*
G04 #@! TA.AperFunction,SMDPad,CuDef*
G36*
G01*
X93657000Y-54837000D02*
X92207000Y-54837000D01*
G75*
G02*
X92132000Y-54762000I0J75000D01*
G01*
X92132000Y-54612000D01*
G75*
G02*
X92207000Y-54537000I75000J0D01*
G01*
X93657000Y-54537000D01*
G75*
G02*
X93732000Y-54612000I0J-75000D01*
G01*
X93732000Y-54762000D01*
G75*
G02*
X93657000Y-54837000I-75000J0D01*
G01*
G37*
G04 #@! TD.AperFunction*
G04 #@! TA.AperFunction,SMDPad,CuDef*
G36*
G01*
X93657000Y-55337000D02*
X92207000Y-55337000D01*
G75*
G02*
X92132000Y-55262000I0J75000D01*
G01*
X92132000Y-55112000D01*
G75*
G02*
X92207000Y-55037000I75000J0D01*
G01*
X93657000Y-55037000D01*
G75*
G02*
X93732000Y-55112000I0J-75000D01*
G01*
X93732000Y-55262000D01*
G75*
G02*
X93657000Y-55337000I-75000J0D01*
G01*
G37*
G04 #@! TD.AperFunction*
G04 #@! TA.AperFunction,SMDPad,CuDef*
G36*
G01*
X93657000Y-55837000D02*
X92207000Y-55837000D01*
G75*
G02*
X92132000Y-55762000I0J75000D01*
G01*
X92132000Y-55612000D01*
G75*
G02*
X92207000Y-55537000I75000J0D01*
G01*
X93657000Y-55537000D01*
G75*
G02*
X93732000Y-55612000I0J-75000D01*
G01*
X93732000Y-55762000D01*
G75*
G02*
X93657000Y-55837000I-75000J0D01*
G01*
G37*
G04 #@! TD.AperFunction*
G04 #@! TA.AperFunction,SMDPad,CuDef*
G36*
G01*
X93657000Y-56337000D02*
X92207000Y-56337000D01*
G75*
G02*
X92132000Y-56262000I0J75000D01*
G01*
X92132000Y-56112000D01*
G75*
G02*
X92207000Y-56037000I75000J0D01*
G01*
X93657000Y-56037000D01*
G75*
G02*
X93732000Y-56112000I0J-75000D01*
G01*
X93732000Y-56262000D01*
G75*
G02*
X93657000Y-56337000I-75000J0D01*
G01*
G37*
G04 #@! TD.AperFunction*
G04 #@! TA.AperFunction,SMDPad,CuDef*
G36*
G01*
X93657000Y-56837000D02*
X92207000Y-56837000D01*
G75*
G02*
X92132000Y-56762000I0J75000D01*
G01*
X92132000Y-56612000D01*
G75*
G02*
X92207000Y-56537000I75000J0D01*
G01*
X93657000Y-56537000D01*
G75*
G02*
X93732000Y-56612000I0J-75000D01*
G01*
X93732000Y-56762000D01*
G75*
G02*
X93657000Y-56837000I-75000J0D01*
G01*
G37*
G04 #@! TD.AperFunction*
G04 #@! TA.AperFunction,SMDPad,CuDef*
G36*
G01*
X93657000Y-57337000D02*
X92207000Y-57337000D01*
G75*
G02*
X92132000Y-57262000I0J75000D01*
G01*
X92132000Y-57112000D01*
G75*
G02*
X92207000Y-57037000I75000J0D01*
G01*
X93657000Y-57037000D01*
G75*
G02*
X93732000Y-57112000I0J-75000D01*
G01*
X93732000Y-57262000D01*
G75*
G02*
X93657000Y-57337000I-75000J0D01*
G01*
G37*
G04 #@! TD.AperFunction*
G04 #@! TA.AperFunction,SMDPad,CuDef*
G36*
G01*
X93657000Y-57837000D02*
X92207000Y-57837000D01*
G75*
G02*
X92132000Y-57762000I0J75000D01*
G01*
X92132000Y-57612000D01*
G75*
G02*
X92207000Y-57537000I75000J0D01*
G01*
X93657000Y-57537000D01*
G75*
G02*
X93732000Y-57612000I0J-75000D01*
G01*
X93732000Y-57762000D01*
G75*
G02*
X93657000Y-57837000I-75000J0D01*
G01*
G37*
G04 #@! TD.AperFunction*
G04 #@! TA.AperFunction,SMDPad,CuDef*
G36*
G01*
X93657000Y-58337000D02*
X92207000Y-58337000D01*
G75*
G02*
X92132000Y-58262000I0J75000D01*
G01*
X92132000Y-58112000D01*
G75*
G02*
X92207000Y-58037000I75000J0D01*
G01*
X93657000Y-58037000D01*
G75*
G02*
X93732000Y-58112000I0J-75000D01*
G01*
X93732000Y-58262000D01*
G75*
G02*
X93657000Y-58337000I-75000J0D01*
G01*
G37*
G04 #@! TD.AperFunction*
G04 #@! TA.AperFunction,SMDPad,CuDef*
G36*
G01*
X93657000Y-58837000D02*
X92207000Y-58837000D01*
G75*
G02*
X92132000Y-58762000I0J75000D01*
G01*
X92132000Y-58612000D01*
G75*
G02*
X92207000Y-58537000I75000J0D01*
G01*
X93657000Y-58537000D01*
G75*
G02*
X93732000Y-58612000I0J-75000D01*
G01*
X93732000Y-58762000D01*
G75*
G02*
X93657000Y-58837000I-75000J0D01*
G01*
G37*
G04 #@! TD.AperFunction*
G04 #@! TA.AperFunction,SMDPad,CuDef*
G36*
G01*
X93657000Y-59337000D02*
X92207000Y-59337000D01*
G75*
G02*
X92132000Y-59262000I0J75000D01*
G01*
X92132000Y-59112000D01*
G75*
G02*
X92207000Y-59037000I75000J0D01*
G01*
X93657000Y-59037000D01*
G75*
G02*
X93732000Y-59112000I0J-75000D01*
G01*
X93732000Y-59262000D01*
G75*
G02*
X93657000Y-59337000I-75000J0D01*
G01*
G37*
G04 #@! TD.AperFunction*
G04 #@! TA.AperFunction,SMDPad,CuDef*
G36*
G01*
X93657000Y-59837000D02*
X92207000Y-59837000D01*
G75*
G02*
X92132000Y-59762000I0J75000D01*
G01*
X92132000Y-59612000D01*
G75*
G02*
X92207000Y-59537000I75000J0D01*
G01*
X93657000Y-59537000D01*
G75*
G02*
X93732000Y-59612000I0J-75000D01*
G01*
X93732000Y-59762000D01*
G75*
G02*
X93657000Y-59837000I-75000J0D01*
G01*
G37*
G04 #@! TD.AperFunction*
G04 #@! TA.AperFunction,SMDPad,CuDef*
G36*
G01*
X93657000Y-60337000D02*
X92207000Y-60337000D01*
G75*
G02*
X92132000Y-60262000I0J75000D01*
G01*
X92132000Y-60112000D01*
G75*
G02*
X92207000Y-60037000I75000J0D01*
G01*
X93657000Y-60037000D01*
G75*
G02*
X93732000Y-60112000I0J-75000D01*
G01*
X93732000Y-60262000D01*
G75*
G02*
X93657000Y-60337000I-75000J0D01*
G01*
G37*
G04 #@! TD.AperFunction*
G04 #@! TA.AperFunction,SMDPad,CuDef*
G36*
G01*
X93657000Y-60837000D02*
X92207000Y-60837000D01*
G75*
G02*
X92132000Y-60762000I0J75000D01*
G01*
X92132000Y-60612000D01*
G75*
G02*
X92207000Y-60537000I75000J0D01*
G01*
X93657000Y-60537000D01*
G75*
G02*
X93732000Y-60612000I0J-75000D01*
G01*
X93732000Y-60762000D01*
G75*
G02*
X93657000Y-60837000I-75000J0D01*
G01*
G37*
G04 #@! TD.AperFunction*
G04 #@! TA.AperFunction,SMDPad,CuDef*
G36*
G01*
X93657000Y-61337000D02*
X92207000Y-61337000D01*
G75*
G02*
X92132000Y-61262000I0J75000D01*
G01*
X92132000Y-61112000D01*
G75*
G02*
X92207000Y-61037000I75000J0D01*
G01*
X93657000Y-61037000D01*
G75*
G02*
X93732000Y-61112000I0J-75000D01*
G01*
X93732000Y-61262000D01*
G75*
G02*
X93657000Y-61337000I-75000J0D01*
G01*
G37*
G04 #@! TD.AperFunction*
G04 #@! TA.AperFunction,SMDPad,CuDef*
G36*
G01*
X93657000Y-61837000D02*
X92207000Y-61837000D01*
G75*
G02*
X92132000Y-61762000I0J75000D01*
G01*
X92132000Y-61612000D01*
G75*
G02*
X92207000Y-61537000I75000J0D01*
G01*
X93657000Y-61537000D01*
G75*
G02*
X93732000Y-61612000I0J-75000D01*
G01*
X93732000Y-61762000D01*
G75*
G02*
X93657000Y-61837000I-75000J0D01*
G01*
G37*
G04 #@! TD.AperFunction*
G04 #@! TA.AperFunction,SMDPad,CuDef*
G36*
G01*
X93657000Y-62337000D02*
X92207000Y-62337000D01*
G75*
G02*
X92132000Y-62262000I0J75000D01*
G01*
X92132000Y-62112000D01*
G75*
G02*
X92207000Y-62037000I75000J0D01*
G01*
X93657000Y-62037000D01*
G75*
G02*
X93732000Y-62112000I0J-75000D01*
G01*
X93732000Y-62262000D01*
G75*
G02*
X93657000Y-62337000I-75000J0D01*
G01*
G37*
G04 #@! TD.AperFunction*
G04 #@! TA.AperFunction,SMDPad,CuDef*
G36*
G01*
X93657000Y-62837000D02*
X92207000Y-62837000D01*
G75*
G02*
X92132000Y-62762000I0J75000D01*
G01*
X92132000Y-62612000D01*
G75*
G02*
X92207000Y-62537000I75000J0D01*
G01*
X93657000Y-62537000D01*
G75*
G02*
X93732000Y-62612000I0J-75000D01*
G01*
X93732000Y-62762000D01*
G75*
G02*
X93657000Y-62837000I-75000J0D01*
G01*
G37*
G04 #@! TD.AperFunction*
G04 #@! TA.AperFunction,SMDPad,CuDef*
G36*
G01*
X93657000Y-63337000D02*
X92207000Y-63337000D01*
G75*
G02*
X92132000Y-63262000I0J75000D01*
G01*
X92132000Y-63112000D01*
G75*
G02*
X92207000Y-63037000I75000J0D01*
G01*
X93657000Y-63037000D01*
G75*
G02*
X93732000Y-63112000I0J-75000D01*
G01*
X93732000Y-63262000D01*
G75*
G02*
X93657000Y-63337000I-75000J0D01*
G01*
G37*
G04 #@! TD.AperFunction*
G04 #@! TA.AperFunction,SMDPad,CuDef*
G36*
G01*
X93657000Y-63837000D02*
X92207000Y-63837000D01*
G75*
G02*
X92132000Y-63762000I0J75000D01*
G01*
X92132000Y-63612000D01*
G75*
G02*
X92207000Y-63537000I75000J0D01*
G01*
X93657000Y-63537000D01*
G75*
G02*
X93732000Y-63612000I0J-75000D01*
G01*
X93732000Y-63762000D01*
G75*
G02*
X93657000Y-63837000I-75000J0D01*
G01*
G37*
G04 #@! TD.AperFunction*
G04 #@! TA.AperFunction,SMDPad,CuDef*
G36*
G01*
X93657000Y-64337000D02*
X92207000Y-64337000D01*
G75*
G02*
X92132000Y-64262000I0J75000D01*
G01*
X92132000Y-64112000D01*
G75*
G02*
X92207000Y-64037000I75000J0D01*
G01*
X93657000Y-64037000D01*
G75*
G02*
X93732000Y-64112000I0J-75000D01*
G01*
X93732000Y-64262000D01*
G75*
G02*
X93657000Y-64337000I-75000J0D01*
G01*
G37*
G04 #@! TD.AperFunction*
G04 #@! TA.AperFunction,SMDPad,CuDef*
G36*
G01*
X93657000Y-64837000D02*
X92207000Y-64837000D01*
G75*
G02*
X92132000Y-64762000I0J75000D01*
G01*
X92132000Y-64612000D01*
G75*
G02*
X92207000Y-64537000I75000J0D01*
G01*
X93657000Y-64537000D01*
G75*
G02*
X93732000Y-64612000I0J-75000D01*
G01*
X93732000Y-64762000D01*
G75*
G02*
X93657000Y-64837000I-75000J0D01*
G01*
G37*
G04 #@! TD.AperFunction*
G04 #@! TA.AperFunction,SMDPad,CuDef*
G36*
G01*
X93657000Y-65337000D02*
X92207000Y-65337000D01*
G75*
G02*
X92132000Y-65262000I0J75000D01*
G01*
X92132000Y-65112000D01*
G75*
G02*
X92207000Y-65037000I75000J0D01*
G01*
X93657000Y-65037000D01*
G75*
G02*
X93732000Y-65112000I0J-75000D01*
G01*
X93732000Y-65262000D01*
G75*
G02*
X93657000Y-65337000I-75000J0D01*
G01*
G37*
G04 #@! TD.AperFunction*
G04 #@! TA.AperFunction,SMDPad,CuDef*
G36*
G01*
X91332000Y-67662000D02*
X91182000Y-67662000D01*
G75*
G02*
X91107000Y-67587000I0J75000D01*
G01*
X91107000Y-66137000D01*
G75*
G02*
X91182000Y-66062000I75000J0D01*
G01*
X91332000Y-66062000D01*
G75*
G02*
X91407000Y-66137000I0J-75000D01*
G01*
X91407000Y-67587000D01*
G75*
G02*
X91332000Y-67662000I-75000J0D01*
G01*
G37*
G04 #@! TD.AperFunction*
G04 #@! TA.AperFunction,SMDPad,CuDef*
G36*
G01*
X90832000Y-67662000D02*
X90682000Y-67662000D01*
G75*
G02*
X90607000Y-67587000I0J75000D01*
G01*
X90607000Y-66137000D01*
G75*
G02*
X90682000Y-66062000I75000J0D01*
G01*
X90832000Y-66062000D01*
G75*
G02*
X90907000Y-66137000I0J-75000D01*
G01*
X90907000Y-67587000D01*
G75*
G02*
X90832000Y-67662000I-75000J0D01*
G01*
G37*
G04 #@! TD.AperFunction*
G04 #@! TA.AperFunction,SMDPad,CuDef*
G36*
G01*
X90332000Y-67662000D02*
X90182000Y-67662000D01*
G75*
G02*
X90107000Y-67587000I0J75000D01*
G01*
X90107000Y-66137000D01*
G75*
G02*
X90182000Y-66062000I75000J0D01*
G01*
X90332000Y-66062000D01*
G75*
G02*
X90407000Y-66137000I0J-75000D01*
G01*
X90407000Y-67587000D01*
G75*
G02*
X90332000Y-67662000I-75000J0D01*
G01*
G37*
G04 #@! TD.AperFunction*
G04 #@! TA.AperFunction,SMDPad,CuDef*
G36*
G01*
X89832000Y-67662000D02*
X89682000Y-67662000D01*
G75*
G02*
X89607000Y-67587000I0J75000D01*
G01*
X89607000Y-66137000D01*
G75*
G02*
X89682000Y-66062000I75000J0D01*
G01*
X89832000Y-66062000D01*
G75*
G02*
X89907000Y-66137000I0J-75000D01*
G01*
X89907000Y-67587000D01*
G75*
G02*
X89832000Y-67662000I-75000J0D01*
G01*
G37*
G04 #@! TD.AperFunction*
G04 #@! TA.AperFunction,SMDPad,CuDef*
G36*
G01*
X89332000Y-67662000D02*
X89182000Y-67662000D01*
G75*
G02*
X89107000Y-67587000I0J75000D01*
G01*
X89107000Y-66137000D01*
G75*
G02*
X89182000Y-66062000I75000J0D01*
G01*
X89332000Y-66062000D01*
G75*
G02*
X89407000Y-66137000I0J-75000D01*
G01*
X89407000Y-67587000D01*
G75*
G02*
X89332000Y-67662000I-75000J0D01*
G01*
G37*
G04 #@! TD.AperFunction*
G04 #@! TA.AperFunction,SMDPad,CuDef*
G36*
G01*
X88832000Y-67662000D02*
X88682000Y-67662000D01*
G75*
G02*
X88607000Y-67587000I0J75000D01*
G01*
X88607000Y-66137000D01*
G75*
G02*
X88682000Y-66062000I75000J0D01*
G01*
X88832000Y-66062000D01*
G75*
G02*
X88907000Y-66137000I0J-75000D01*
G01*
X88907000Y-67587000D01*
G75*
G02*
X88832000Y-67662000I-75000J0D01*
G01*
G37*
G04 #@! TD.AperFunction*
G04 #@! TA.AperFunction,SMDPad,CuDef*
G36*
G01*
X88332000Y-67662000D02*
X88182000Y-67662000D01*
G75*
G02*
X88107000Y-67587000I0J75000D01*
G01*
X88107000Y-66137000D01*
G75*
G02*
X88182000Y-66062000I75000J0D01*
G01*
X88332000Y-66062000D01*
G75*
G02*
X88407000Y-66137000I0J-75000D01*
G01*
X88407000Y-67587000D01*
G75*
G02*
X88332000Y-67662000I-75000J0D01*
G01*
G37*
G04 #@! TD.AperFunction*
G04 #@! TA.AperFunction,SMDPad,CuDef*
G36*
G01*
X87832000Y-67662000D02*
X87682000Y-67662000D01*
G75*
G02*
X87607000Y-67587000I0J75000D01*
G01*
X87607000Y-66137000D01*
G75*
G02*
X87682000Y-66062000I75000J0D01*
G01*
X87832000Y-66062000D01*
G75*
G02*
X87907000Y-66137000I0J-75000D01*
G01*
X87907000Y-67587000D01*
G75*
G02*
X87832000Y-67662000I-75000J0D01*
G01*
G37*
G04 #@! TD.AperFunction*
G04 #@! TA.AperFunction,SMDPad,CuDef*
G36*
G01*
X87332000Y-67662000D02*
X87182000Y-67662000D01*
G75*
G02*
X87107000Y-67587000I0J75000D01*
G01*
X87107000Y-66137000D01*
G75*
G02*
X87182000Y-66062000I75000J0D01*
G01*
X87332000Y-66062000D01*
G75*
G02*
X87407000Y-66137000I0J-75000D01*
G01*
X87407000Y-67587000D01*
G75*
G02*
X87332000Y-67662000I-75000J0D01*
G01*
G37*
G04 #@! TD.AperFunction*
G04 #@! TA.AperFunction,SMDPad,CuDef*
G36*
G01*
X86832000Y-67662000D02*
X86682000Y-67662000D01*
G75*
G02*
X86607000Y-67587000I0J75000D01*
G01*
X86607000Y-66137000D01*
G75*
G02*
X86682000Y-66062000I75000J0D01*
G01*
X86832000Y-66062000D01*
G75*
G02*
X86907000Y-66137000I0J-75000D01*
G01*
X86907000Y-67587000D01*
G75*
G02*
X86832000Y-67662000I-75000J0D01*
G01*
G37*
G04 #@! TD.AperFunction*
G04 #@! TA.AperFunction,SMDPad,CuDef*
G36*
G01*
X86332000Y-67662000D02*
X86182000Y-67662000D01*
G75*
G02*
X86107000Y-67587000I0J75000D01*
G01*
X86107000Y-66137000D01*
G75*
G02*
X86182000Y-66062000I75000J0D01*
G01*
X86332000Y-66062000D01*
G75*
G02*
X86407000Y-66137000I0J-75000D01*
G01*
X86407000Y-67587000D01*
G75*
G02*
X86332000Y-67662000I-75000J0D01*
G01*
G37*
G04 #@! TD.AperFunction*
G04 #@! TA.AperFunction,SMDPad,CuDef*
G36*
G01*
X85832000Y-67662000D02*
X85682000Y-67662000D01*
G75*
G02*
X85607000Y-67587000I0J75000D01*
G01*
X85607000Y-66137000D01*
G75*
G02*
X85682000Y-66062000I75000J0D01*
G01*
X85832000Y-66062000D01*
G75*
G02*
X85907000Y-66137000I0J-75000D01*
G01*
X85907000Y-67587000D01*
G75*
G02*
X85832000Y-67662000I-75000J0D01*
G01*
G37*
G04 #@! TD.AperFunction*
G04 #@! TA.AperFunction,SMDPad,CuDef*
G36*
G01*
X85332000Y-67662000D02*
X85182000Y-67662000D01*
G75*
G02*
X85107000Y-67587000I0J75000D01*
G01*
X85107000Y-66137000D01*
G75*
G02*
X85182000Y-66062000I75000J0D01*
G01*
X85332000Y-66062000D01*
G75*
G02*
X85407000Y-66137000I0J-75000D01*
G01*
X85407000Y-67587000D01*
G75*
G02*
X85332000Y-67662000I-75000J0D01*
G01*
G37*
G04 #@! TD.AperFunction*
G04 #@! TA.AperFunction,SMDPad,CuDef*
G36*
G01*
X84832000Y-67662000D02*
X84682000Y-67662000D01*
G75*
G02*
X84607000Y-67587000I0J75000D01*
G01*
X84607000Y-66137000D01*
G75*
G02*
X84682000Y-66062000I75000J0D01*
G01*
X84832000Y-66062000D01*
G75*
G02*
X84907000Y-66137000I0J-75000D01*
G01*
X84907000Y-67587000D01*
G75*
G02*
X84832000Y-67662000I-75000J0D01*
G01*
G37*
G04 #@! TD.AperFunction*
G04 #@! TA.AperFunction,SMDPad,CuDef*
G36*
G01*
X84332000Y-67662000D02*
X84182000Y-67662000D01*
G75*
G02*
X84107000Y-67587000I0J75000D01*
G01*
X84107000Y-66137000D01*
G75*
G02*
X84182000Y-66062000I75000J0D01*
G01*
X84332000Y-66062000D01*
G75*
G02*
X84407000Y-66137000I0J-75000D01*
G01*
X84407000Y-67587000D01*
G75*
G02*
X84332000Y-67662000I-75000J0D01*
G01*
G37*
G04 #@! TD.AperFunction*
G04 #@! TA.AperFunction,SMDPad,CuDef*
G36*
G01*
X83832000Y-67662000D02*
X83682000Y-67662000D01*
G75*
G02*
X83607000Y-67587000I0J75000D01*
G01*
X83607000Y-66137000D01*
G75*
G02*
X83682000Y-66062000I75000J0D01*
G01*
X83832000Y-66062000D01*
G75*
G02*
X83907000Y-66137000I0J-75000D01*
G01*
X83907000Y-67587000D01*
G75*
G02*
X83832000Y-67662000I-75000J0D01*
G01*
G37*
G04 #@! TD.AperFunction*
G04 #@! TA.AperFunction,SMDPad,CuDef*
G36*
G01*
X83332000Y-67662000D02*
X83182000Y-67662000D01*
G75*
G02*
X83107000Y-67587000I0J75000D01*
G01*
X83107000Y-66137000D01*
G75*
G02*
X83182000Y-66062000I75000J0D01*
G01*
X83332000Y-66062000D01*
G75*
G02*
X83407000Y-66137000I0J-75000D01*
G01*
X83407000Y-67587000D01*
G75*
G02*
X83332000Y-67662000I-75000J0D01*
G01*
G37*
G04 #@! TD.AperFunction*
G04 #@! TA.AperFunction,SMDPad,CuDef*
G36*
G01*
X82832000Y-67662000D02*
X82682000Y-67662000D01*
G75*
G02*
X82607000Y-67587000I0J75000D01*
G01*
X82607000Y-66137000D01*
G75*
G02*
X82682000Y-66062000I75000J0D01*
G01*
X82832000Y-66062000D01*
G75*
G02*
X82907000Y-66137000I0J-75000D01*
G01*
X82907000Y-67587000D01*
G75*
G02*
X82832000Y-67662000I-75000J0D01*
G01*
G37*
G04 #@! TD.AperFunction*
G04 #@! TA.AperFunction,SMDPad,CuDef*
G36*
G01*
X82332000Y-67662000D02*
X82182000Y-67662000D01*
G75*
G02*
X82107000Y-67587000I0J75000D01*
G01*
X82107000Y-66137000D01*
G75*
G02*
X82182000Y-66062000I75000J0D01*
G01*
X82332000Y-66062000D01*
G75*
G02*
X82407000Y-66137000I0J-75000D01*
G01*
X82407000Y-67587000D01*
G75*
G02*
X82332000Y-67662000I-75000J0D01*
G01*
G37*
G04 #@! TD.AperFunction*
G04 #@! TA.AperFunction,SMDPad,CuDef*
G36*
G01*
X81832000Y-67662000D02*
X81682000Y-67662000D01*
G75*
G02*
X81607000Y-67587000I0J75000D01*
G01*
X81607000Y-66137000D01*
G75*
G02*
X81682000Y-66062000I75000J0D01*
G01*
X81832000Y-66062000D01*
G75*
G02*
X81907000Y-66137000I0J-75000D01*
G01*
X81907000Y-67587000D01*
G75*
G02*
X81832000Y-67662000I-75000J0D01*
G01*
G37*
G04 #@! TD.AperFunction*
G04 #@! TA.AperFunction,SMDPad,CuDef*
G36*
G01*
X81332000Y-67662000D02*
X81182000Y-67662000D01*
G75*
G02*
X81107000Y-67587000I0J75000D01*
G01*
X81107000Y-66137000D01*
G75*
G02*
X81182000Y-66062000I75000J0D01*
G01*
X81332000Y-66062000D01*
G75*
G02*
X81407000Y-66137000I0J-75000D01*
G01*
X81407000Y-67587000D01*
G75*
G02*
X81332000Y-67662000I-75000J0D01*
G01*
G37*
G04 #@! TD.AperFunction*
G04 #@! TA.AperFunction,SMDPad,CuDef*
G36*
G01*
X80832000Y-67662000D02*
X80682000Y-67662000D01*
G75*
G02*
X80607000Y-67587000I0J75000D01*
G01*
X80607000Y-66137000D01*
G75*
G02*
X80682000Y-66062000I75000J0D01*
G01*
X80832000Y-66062000D01*
G75*
G02*
X80907000Y-66137000I0J-75000D01*
G01*
X80907000Y-67587000D01*
G75*
G02*
X80832000Y-67662000I-75000J0D01*
G01*
G37*
G04 #@! TD.AperFunction*
G04 #@! TA.AperFunction,SMDPad,CuDef*
G36*
G01*
X80332000Y-67662000D02*
X80182000Y-67662000D01*
G75*
G02*
X80107000Y-67587000I0J75000D01*
G01*
X80107000Y-66137000D01*
G75*
G02*
X80182000Y-66062000I75000J0D01*
G01*
X80332000Y-66062000D01*
G75*
G02*
X80407000Y-66137000I0J-75000D01*
G01*
X80407000Y-67587000D01*
G75*
G02*
X80332000Y-67662000I-75000J0D01*
G01*
G37*
G04 #@! TD.AperFunction*
G04 #@! TA.AperFunction,SMDPad,CuDef*
G36*
G01*
X79832000Y-67662000D02*
X79682000Y-67662000D01*
G75*
G02*
X79607000Y-67587000I0J75000D01*
G01*
X79607000Y-66137000D01*
G75*
G02*
X79682000Y-66062000I75000J0D01*
G01*
X79832000Y-66062000D01*
G75*
G02*
X79907000Y-66137000I0J-75000D01*
G01*
X79907000Y-67587000D01*
G75*
G02*
X79832000Y-67662000I-75000J0D01*
G01*
G37*
G04 #@! TD.AperFunction*
G04 #@! TA.AperFunction,SMDPad,CuDef*
G36*
G01*
X79332000Y-67662000D02*
X79182000Y-67662000D01*
G75*
G02*
X79107000Y-67587000I0J75000D01*
G01*
X79107000Y-66137000D01*
G75*
G02*
X79182000Y-66062000I75000J0D01*
G01*
X79332000Y-66062000D01*
G75*
G02*
X79407000Y-66137000I0J-75000D01*
G01*
X79407000Y-67587000D01*
G75*
G02*
X79332000Y-67662000I-75000J0D01*
G01*
G37*
G04 #@! TD.AperFunction*
D17*
X129388000Y-59069000D03*
X129388000Y-54469000D03*
X129388000Y-56769000D03*
D18*
X123088000Y-56769000D03*
D19*
X176770000Y-49886000D03*
X181370000Y-49886000D03*
X179070000Y-49886000D03*
D20*
X179070000Y-43586000D03*
G04 #@! TA.AperFunction,SMDPad,CuDef*
G36*
G01*
X180236000Y-97687000D02*
X179936000Y-97687000D01*
G75*
G02*
X179786000Y-97537000I0J150000D01*
G01*
X179786000Y-95887000D01*
G75*
G02*
X179936000Y-95737000I150000J0D01*
G01*
X180236000Y-95737000D01*
G75*
G02*
X180386000Y-95887000I0J-150000D01*
G01*
X180386000Y-97537000D01*
G75*
G02*
X180236000Y-97687000I-150000J0D01*
G01*
G37*
G04 #@! TD.AperFunction*
G04 #@! TA.AperFunction,SMDPad,CuDef*
G36*
G01*
X181506000Y-97687000D02*
X181206000Y-97687000D01*
G75*
G02*
X181056000Y-97537000I0J150000D01*
G01*
X181056000Y-95887000D01*
G75*
G02*
X181206000Y-95737000I150000J0D01*
G01*
X181506000Y-95737000D01*
G75*
G02*
X181656000Y-95887000I0J-150000D01*
G01*
X181656000Y-97537000D01*
G75*
G02*
X181506000Y-97687000I-150000J0D01*
G01*
G37*
G04 #@! TD.AperFunction*
G04 #@! TA.AperFunction,SMDPad,CuDef*
G36*
G01*
X182776000Y-97687000D02*
X182476000Y-97687000D01*
G75*
G02*
X182326000Y-97537000I0J150000D01*
G01*
X182326000Y-95887000D01*
G75*
G02*
X182476000Y-95737000I150000J0D01*
G01*
X182776000Y-95737000D01*
G75*
G02*
X182926000Y-95887000I0J-150000D01*
G01*
X182926000Y-97537000D01*
G75*
G02*
X182776000Y-97687000I-150000J0D01*
G01*
G37*
G04 #@! TD.AperFunction*
G04 #@! TA.AperFunction,SMDPad,CuDef*
G36*
G01*
X184046000Y-97687000D02*
X183746000Y-97687000D01*
G75*
G02*
X183596000Y-97537000I0J150000D01*
G01*
X183596000Y-95887000D01*
G75*
G02*
X183746000Y-95737000I150000J0D01*
G01*
X184046000Y-95737000D01*
G75*
G02*
X184196000Y-95887000I0J-150000D01*
G01*
X184196000Y-97537000D01*
G75*
G02*
X184046000Y-97687000I-150000J0D01*
G01*
G37*
G04 #@! TD.AperFunction*
G04 #@! TA.AperFunction,SMDPad,CuDef*
G36*
G01*
X185316000Y-97687000D02*
X185016000Y-97687000D01*
G75*
G02*
X184866000Y-97537000I0J150000D01*
G01*
X184866000Y-95887000D01*
G75*
G02*
X185016000Y-95737000I150000J0D01*
G01*
X185316000Y-95737000D01*
G75*
G02*
X185466000Y-95887000I0J-150000D01*
G01*
X185466000Y-97537000D01*
G75*
G02*
X185316000Y-97687000I-150000J0D01*
G01*
G37*
G04 #@! TD.AperFunction*
G04 #@! TA.AperFunction,SMDPad,CuDef*
G36*
G01*
X186586000Y-97687000D02*
X186286000Y-97687000D01*
G75*
G02*
X186136000Y-97537000I0J150000D01*
G01*
X186136000Y-95887000D01*
G75*
G02*
X186286000Y-95737000I150000J0D01*
G01*
X186586000Y-95737000D01*
G75*
G02*
X186736000Y-95887000I0J-150000D01*
G01*
X186736000Y-97537000D01*
G75*
G02*
X186586000Y-97687000I-150000J0D01*
G01*
G37*
G04 #@! TD.AperFunction*
G04 #@! TA.AperFunction,SMDPad,CuDef*
G36*
G01*
X187856000Y-97687000D02*
X187556000Y-97687000D01*
G75*
G02*
X187406000Y-97537000I0J150000D01*
G01*
X187406000Y-95887000D01*
G75*
G02*
X187556000Y-95737000I150000J0D01*
G01*
X187856000Y-95737000D01*
G75*
G02*
X188006000Y-95887000I0J-150000D01*
G01*
X188006000Y-97537000D01*
G75*
G02*
X187856000Y-97687000I-150000J0D01*
G01*
G37*
G04 #@! TD.AperFunction*
G04 #@! TA.AperFunction,SMDPad,CuDef*
G36*
G01*
X187856000Y-102637000D02*
X187556000Y-102637000D01*
G75*
G02*
X187406000Y-102487000I0J150000D01*
G01*
X187406000Y-100837000D01*
G75*
G02*
X187556000Y-100687000I150000J0D01*
G01*
X187856000Y-100687000D01*
G75*
G02*
X188006000Y-100837000I0J-150000D01*
G01*
X188006000Y-102487000D01*
G75*
G02*
X187856000Y-102637000I-150000J0D01*
G01*
G37*
G04 #@! TD.AperFunction*
G04 #@! TA.AperFunction,SMDPad,CuDef*
G36*
G01*
X186586000Y-102637000D02*
X186286000Y-102637000D01*
G75*
G02*
X186136000Y-102487000I0J150000D01*
G01*
X186136000Y-100837000D01*
G75*
G02*
X186286000Y-100687000I150000J0D01*
G01*
X186586000Y-100687000D01*
G75*
G02*
X186736000Y-100837000I0J-150000D01*
G01*
X186736000Y-102487000D01*
G75*
G02*
X186586000Y-102637000I-150000J0D01*
G01*
G37*
G04 #@! TD.AperFunction*
G04 #@! TA.AperFunction,SMDPad,CuDef*
G36*
G01*
X185316000Y-102637000D02*
X185016000Y-102637000D01*
G75*
G02*
X184866000Y-102487000I0J150000D01*
G01*
X184866000Y-100837000D01*
G75*
G02*
X185016000Y-100687000I150000J0D01*
G01*
X185316000Y-100687000D01*
G75*
G02*
X185466000Y-100837000I0J-150000D01*
G01*
X185466000Y-102487000D01*
G75*
G02*
X185316000Y-102637000I-150000J0D01*
G01*
G37*
G04 #@! TD.AperFunction*
G04 #@! TA.AperFunction,SMDPad,CuDef*
G36*
G01*
X184046000Y-102637000D02*
X183746000Y-102637000D01*
G75*
G02*
X183596000Y-102487000I0J150000D01*
G01*
X183596000Y-100837000D01*
G75*
G02*
X183746000Y-100687000I150000J0D01*
G01*
X184046000Y-100687000D01*
G75*
G02*
X184196000Y-100837000I0J-150000D01*
G01*
X184196000Y-102487000D01*
G75*
G02*
X184046000Y-102637000I-150000J0D01*
G01*
G37*
G04 #@! TD.AperFunction*
G04 #@! TA.AperFunction,SMDPad,CuDef*
G36*
G01*
X182776000Y-102637000D02*
X182476000Y-102637000D01*
G75*
G02*
X182326000Y-102487000I0J150000D01*
G01*
X182326000Y-100837000D01*
G75*
G02*
X182476000Y-100687000I150000J0D01*
G01*
X182776000Y-100687000D01*
G75*
G02*
X182926000Y-100837000I0J-150000D01*
G01*
X182926000Y-102487000D01*
G75*
G02*
X182776000Y-102637000I-150000J0D01*
G01*
G37*
G04 #@! TD.AperFunction*
G04 #@! TA.AperFunction,SMDPad,CuDef*
G36*
G01*
X181506000Y-102637000D02*
X181206000Y-102637000D01*
G75*
G02*
X181056000Y-102487000I0J150000D01*
G01*
X181056000Y-100837000D01*
G75*
G02*
X181206000Y-100687000I150000J0D01*
G01*
X181506000Y-100687000D01*
G75*
G02*
X181656000Y-100837000I0J-150000D01*
G01*
X181656000Y-102487000D01*
G75*
G02*
X181506000Y-102637000I-150000J0D01*
G01*
G37*
G04 #@! TD.AperFunction*
G04 #@! TA.AperFunction,SMDPad,CuDef*
G36*
G01*
X180236000Y-102637000D02*
X179936000Y-102637000D01*
G75*
G02*
X179786000Y-102487000I0J150000D01*
G01*
X179786000Y-100837000D01*
G75*
G02*
X179936000Y-100687000I150000J0D01*
G01*
X180236000Y-100687000D01*
G75*
G02*
X180386000Y-100837000I0J-150000D01*
G01*
X180386000Y-102487000D01*
G75*
G02*
X180236000Y-102637000I-150000J0D01*
G01*
G37*
G04 #@! TD.AperFunction*
D21*
X188595000Y-62866000D03*
X188595000Y-66866000D03*
X188595000Y-70866000D03*
D22*
X192845000Y-72866000D03*
X192845000Y-60866000D03*
X186845000Y-60866000D03*
X186845000Y-72866000D03*
D21*
X170600000Y-125100000D03*
X166600000Y-125100000D03*
X162600000Y-125100000D03*
D22*
X160600000Y-129350000D03*
X172600000Y-129350000D03*
X172600000Y-123350000D03*
X160600000Y-123350000D03*
D21*
X155360000Y-125100000D03*
X151360000Y-125100000D03*
X147360000Y-125100000D03*
D22*
X145360000Y-129350000D03*
X157360000Y-129350000D03*
X157360000Y-123350000D03*
X145360000Y-123350000D03*
D21*
X140120000Y-125100000D03*
X136120000Y-125100000D03*
X132120000Y-125100000D03*
D22*
X130120000Y-129350000D03*
X142120000Y-129350000D03*
X142120000Y-123350000D03*
X130120000Y-123350000D03*
D21*
X124880000Y-125100000D03*
X120880000Y-125100000D03*
X116880000Y-125100000D03*
D22*
X114880000Y-129350000D03*
X126880000Y-129350000D03*
X126880000Y-123350000D03*
X114880000Y-123350000D03*
D21*
X109640000Y-125100000D03*
X105640000Y-125100000D03*
X101640000Y-125100000D03*
D22*
X99640000Y-129350000D03*
X111640000Y-129350000D03*
X111640000Y-123350000D03*
X99640000Y-123350000D03*
D21*
X94400000Y-125100000D03*
X90400000Y-125100000D03*
X86400000Y-125100000D03*
D22*
X84400000Y-129350000D03*
X96400000Y-129350000D03*
X96400000Y-123350000D03*
X84400000Y-123350000D03*
D21*
X79160000Y-125100000D03*
X75160000Y-125100000D03*
X71160000Y-125100000D03*
D22*
X69160000Y-129350000D03*
X81160000Y-129350000D03*
X81160000Y-123350000D03*
X69160000Y-123350000D03*
D21*
X63920000Y-125100000D03*
X59920000Y-125100000D03*
X55920000Y-125100000D03*
D22*
X53920000Y-129350000D03*
X65920000Y-129350000D03*
X65920000Y-123350000D03*
X53920000Y-123350000D03*
D23*
X185928000Y-113284000D03*
X191008000Y-113284000D03*
X185928000Y-120904000D03*
X191008000Y-120904000D03*
X181483000Y-120904000D03*
X176403000Y-120904000D03*
X181483000Y-113284000D03*
X176403000Y-113284000D03*
G04 #@! TA.AperFunction,SMDPad,CuDef*
G36*
G01*
X120088500Y-53541500D02*
X121338500Y-53541500D01*
G75*
G02*
X121588500Y-53791500I0J-250000D01*
G01*
X121588500Y-54591500D01*
G75*
G02*
X121338500Y-54841500I-250000J0D01*
G01*
X120088500Y-54841500D01*
G75*
G02*
X119838500Y-54591500I0J250000D01*
G01*
X119838500Y-53791500D01*
G75*
G02*
X120088500Y-53541500I250000J0D01*
G01*
G37*
G04 #@! TD.AperFunction*
G04 #@! TA.AperFunction,SMDPad,CuDef*
G36*
G01*
X120088500Y-50441500D02*
X121338500Y-50441500D01*
G75*
G02*
X121588500Y-50691500I0J-250000D01*
G01*
X121588500Y-51491500D01*
G75*
G02*
X121338500Y-51741500I-250000J0D01*
G01*
X120088500Y-51741500D01*
G75*
G02*
X119838500Y-51491500I0J250000D01*
G01*
X119838500Y-50691500D01*
G75*
G02*
X120088500Y-50441500I250000J0D01*
G01*
G37*
G04 #@! TD.AperFunction*
G04 #@! TA.AperFunction,SMDPad,CuDef*
G36*
G01*
X72273000Y-63765000D02*
X73523000Y-63765000D01*
G75*
G02*
X73773000Y-64015000I0J-250000D01*
G01*
X73773000Y-64815000D01*
G75*
G02*
X73523000Y-65065000I-250000J0D01*
G01*
X72273000Y-65065000D01*
G75*
G02*
X72023000Y-64815000I0J250000D01*
G01*
X72023000Y-64015000D01*
G75*
G02*
X72273000Y-63765000I250000J0D01*
G01*
G37*
G04 #@! TD.AperFunction*
G04 #@! TA.AperFunction,SMDPad,CuDef*
G36*
G01*
X72273000Y-60665000D02*
X73523000Y-60665000D01*
G75*
G02*
X73773000Y-60915000I0J-250000D01*
G01*
X73773000Y-61715000D01*
G75*
G02*
X73523000Y-61965000I-250000J0D01*
G01*
X72273000Y-61965000D01*
G75*
G02*
X72023000Y-61715000I0J250000D01*
G01*
X72023000Y-60915000D01*
G75*
G02*
X72273000Y-60665000I250000J0D01*
G01*
G37*
G04 #@! TD.AperFunction*
G04 #@! TA.AperFunction,SMDPad,CuDef*
G36*
G01*
X149723000Y-72125000D02*
X148473000Y-72125000D01*
G75*
G02*
X148223000Y-71875000I0J250000D01*
G01*
X148223000Y-71075000D01*
G75*
G02*
X148473000Y-70825000I250000J0D01*
G01*
X149723000Y-70825000D01*
G75*
G02*
X149973000Y-71075000I0J-250000D01*
G01*
X149973000Y-71875000D01*
G75*
G02*
X149723000Y-72125000I-250000J0D01*
G01*
G37*
G04 #@! TD.AperFunction*
G04 #@! TA.AperFunction,SMDPad,CuDef*
G36*
G01*
X149723000Y-75225000D02*
X148473000Y-75225000D01*
G75*
G02*
X148223000Y-74975000I0J250000D01*
G01*
X148223000Y-74175000D01*
G75*
G02*
X148473000Y-73925000I250000J0D01*
G01*
X149723000Y-73925000D01*
G75*
G02*
X149973000Y-74175000I0J-250000D01*
G01*
X149973000Y-74975000D01*
G75*
G02*
X149723000Y-75225000I-250000J0D01*
G01*
G37*
G04 #@! TD.AperFunction*
G04 #@! TA.AperFunction,SMDPad,CuDef*
G36*
G01*
X154062000Y-68824000D02*
X154062000Y-67574000D01*
G75*
G02*
X154312000Y-67324000I250000J0D01*
G01*
X155112000Y-67324000D01*
G75*
G02*
X155362000Y-67574000I0J-250000D01*
G01*
X155362000Y-68824000D01*
G75*
G02*
X155112000Y-69074000I-250000J0D01*
G01*
X154312000Y-69074000D01*
G75*
G02*
X154062000Y-68824000I0J250000D01*
G01*
G37*
G04 #@! TD.AperFunction*
G04 #@! TA.AperFunction,SMDPad,CuDef*
G36*
G01*
X150962000Y-68824000D02*
X150962000Y-67574000D01*
G75*
G02*
X151212000Y-67324000I250000J0D01*
G01*
X152012000Y-67324000D01*
G75*
G02*
X152262000Y-67574000I0J-250000D01*
G01*
X152262000Y-68824000D01*
G75*
G02*
X152012000Y-69074000I-250000J0D01*
G01*
X151212000Y-69074000D01*
G75*
G02*
X150962000Y-68824000I0J250000D01*
G01*
G37*
G04 #@! TD.AperFunction*
G04 #@! TA.AperFunction,SMDPad,CuDef*
G36*
G01*
X187081000Y-93102000D02*
X188331000Y-93102000D01*
G75*
G02*
X188581000Y-93352000I0J-250000D01*
G01*
X188581000Y-94152000D01*
G75*
G02*
X188331000Y-94402000I-250000J0D01*
G01*
X187081000Y-94402000D01*
G75*
G02*
X186831000Y-94152000I0J250000D01*
G01*
X186831000Y-93352000D01*
G75*
G02*
X187081000Y-93102000I250000J0D01*
G01*
G37*
G04 #@! TD.AperFunction*
G04 #@! TA.AperFunction,SMDPad,CuDef*
G36*
G01*
X187081000Y-90002000D02*
X188331000Y-90002000D01*
G75*
G02*
X188581000Y-90252000I0J-250000D01*
G01*
X188581000Y-91052000D01*
G75*
G02*
X188331000Y-91302000I-250000J0D01*
G01*
X187081000Y-91302000D01*
G75*
G02*
X186831000Y-91052000I0J250000D01*
G01*
X186831000Y-90252000D01*
G75*
G02*
X187081000Y-90002000I250000J0D01*
G01*
G37*
G04 #@! TD.AperFunction*
G04 #@! TA.AperFunction,SMDPad,CuDef*
G36*
G01*
X183652000Y-93229000D02*
X184902000Y-93229000D01*
G75*
G02*
X185152000Y-93479000I0J-250000D01*
G01*
X185152000Y-94279000D01*
G75*
G02*
X184902000Y-94529000I-250000J0D01*
G01*
X183652000Y-94529000D01*
G75*
G02*
X183402000Y-94279000I0J250000D01*
G01*
X183402000Y-93479000D01*
G75*
G02*
X183652000Y-93229000I250000J0D01*
G01*
G37*
G04 #@! TD.AperFunction*
G04 #@! TA.AperFunction,SMDPad,CuDef*
G36*
G01*
X183652000Y-90129000D02*
X184902000Y-90129000D01*
G75*
G02*
X185152000Y-90379000I0J-250000D01*
G01*
X185152000Y-91179000D01*
G75*
G02*
X184902000Y-91429000I-250000J0D01*
G01*
X183652000Y-91429000D01*
G75*
G02*
X183402000Y-91179000I0J250000D01*
G01*
X183402000Y-90379000D01*
G75*
G02*
X183652000Y-90129000I250000J0D01*
G01*
G37*
G04 #@! TD.AperFunction*
G04 #@! TA.AperFunction,SMDPad,CuDef*
G36*
G01*
X172985000Y-121275000D02*
X172985000Y-120025000D01*
G75*
G02*
X173235000Y-119775000I250000J0D01*
G01*
X174035000Y-119775000D01*
G75*
G02*
X174285000Y-120025000I0J-250000D01*
G01*
X174285000Y-121275000D01*
G75*
G02*
X174035000Y-121525000I-250000J0D01*
G01*
X173235000Y-121525000D01*
G75*
G02*
X172985000Y-121275000I0J250000D01*
G01*
G37*
G04 #@! TD.AperFunction*
G04 #@! TA.AperFunction,SMDPad,CuDef*
G36*
G01*
X169885000Y-121275000D02*
X169885000Y-120025000D01*
G75*
G02*
X170135000Y-119775000I250000J0D01*
G01*
X170935000Y-119775000D01*
G75*
G02*
X171185000Y-120025000I0J-250000D01*
G01*
X171185000Y-121275000D01*
G75*
G02*
X170935000Y-121525000I-250000J0D01*
G01*
X170135000Y-121525000D01*
G75*
G02*
X169885000Y-121275000I0J250000D01*
G01*
G37*
G04 #@! TD.AperFunction*
G04 #@! TA.AperFunction,SMDPad,CuDef*
G36*
G01*
X155945000Y-120025000D02*
X155945000Y-121275000D01*
G75*
G02*
X155695000Y-121525000I-250000J0D01*
G01*
X154895000Y-121525000D01*
G75*
G02*
X154645000Y-121275000I0J250000D01*
G01*
X154645000Y-120025000D01*
G75*
G02*
X154895000Y-119775000I250000J0D01*
G01*
X155695000Y-119775000D01*
G75*
G02*
X155945000Y-120025000I0J-250000D01*
G01*
G37*
G04 #@! TD.AperFunction*
G04 #@! TA.AperFunction,SMDPad,CuDef*
G36*
G01*
X159045000Y-120025000D02*
X159045000Y-121275000D01*
G75*
G02*
X158795000Y-121525000I-250000J0D01*
G01*
X157995000Y-121525000D01*
G75*
G02*
X157745000Y-121275000I0J250000D01*
G01*
X157745000Y-120025000D01*
G75*
G02*
X157995000Y-119775000I250000J0D01*
G01*
X158795000Y-119775000D01*
G75*
G02*
X159045000Y-120025000I0J-250000D01*
G01*
G37*
G04 #@! TD.AperFunction*
G04 #@! TA.AperFunction,SMDPad,CuDef*
G36*
G01*
X142505000Y-121275000D02*
X142505000Y-120025000D01*
G75*
G02*
X142755000Y-119775000I250000J0D01*
G01*
X143555000Y-119775000D01*
G75*
G02*
X143805000Y-120025000I0J-250000D01*
G01*
X143805000Y-121275000D01*
G75*
G02*
X143555000Y-121525000I-250000J0D01*
G01*
X142755000Y-121525000D01*
G75*
G02*
X142505000Y-121275000I0J250000D01*
G01*
G37*
G04 #@! TD.AperFunction*
G04 #@! TA.AperFunction,SMDPad,CuDef*
G36*
G01*
X139405000Y-121275000D02*
X139405000Y-120025000D01*
G75*
G02*
X139655000Y-119775000I250000J0D01*
G01*
X140455000Y-119775000D01*
G75*
G02*
X140705000Y-120025000I0J-250000D01*
G01*
X140705000Y-121275000D01*
G75*
G02*
X140455000Y-121525000I-250000J0D01*
G01*
X139655000Y-121525000D01*
G75*
G02*
X139405000Y-121275000I0J250000D01*
G01*
G37*
G04 #@! TD.AperFunction*
G04 #@! TA.AperFunction,SMDPad,CuDef*
G36*
G01*
X127392000Y-121275000D02*
X127392000Y-120025000D01*
G75*
G02*
X127642000Y-119775000I250000J0D01*
G01*
X128442000Y-119775000D01*
G75*
G02*
X128692000Y-120025000I0J-250000D01*
G01*
X128692000Y-121275000D01*
G75*
G02*
X128442000Y-121525000I-250000J0D01*
G01*
X127642000Y-121525000D01*
G75*
G02*
X127392000Y-121275000I0J250000D01*
G01*
G37*
G04 #@! TD.AperFunction*
G04 #@! TA.AperFunction,SMDPad,CuDef*
G36*
G01*
X124292000Y-121275000D02*
X124292000Y-120025000D01*
G75*
G02*
X124542000Y-119775000I250000J0D01*
G01*
X125342000Y-119775000D01*
G75*
G02*
X125592000Y-120025000I0J-250000D01*
G01*
X125592000Y-121275000D01*
G75*
G02*
X125342000Y-121525000I-250000J0D01*
G01*
X124542000Y-121525000D01*
G75*
G02*
X124292000Y-121275000I0J250000D01*
G01*
G37*
G04 #@! TD.AperFunction*
G04 #@! TA.AperFunction,SMDPad,CuDef*
G36*
G01*
X186553000Y-106034000D02*
X185303000Y-106034000D01*
G75*
G02*
X185053000Y-105784000I0J250000D01*
G01*
X185053000Y-104984000D01*
G75*
G02*
X185303000Y-104734000I250000J0D01*
G01*
X186553000Y-104734000D01*
G75*
G02*
X186803000Y-104984000I0J-250000D01*
G01*
X186803000Y-105784000D01*
G75*
G02*
X186553000Y-106034000I-250000J0D01*
G01*
G37*
G04 #@! TD.AperFunction*
G04 #@! TA.AperFunction,SMDPad,CuDef*
G36*
G01*
X186553000Y-109134000D02*
X185303000Y-109134000D01*
G75*
G02*
X185053000Y-108884000I0J250000D01*
G01*
X185053000Y-108084000D01*
G75*
G02*
X185303000Y-107834000I250000J0D01*
G01*
X186553000Y-107834000D01*
G75*
G02*
X186803000Y-108084000I0J-250000D01*
G01*
X186803000Y-108884000D01*
G75*
G02*
X186553000Y-109134000I-250000J0D01*
G01*
G37*
G04 #@! TD.AperFunction*
G04 #@! TA.AperFunction,SMDPad,CuDef*
G36*
G01*
X182362000Y-106034000D02*
X181112000Y-106034000D01*
G75*
G02*
X180862000Y-105784000I0J250000D01*
G01*
X180862000Y-104984000D01*
G75*
G02*
X181112000Y-104734000I250000J0D01*
G01*
X182362000Y-104734000D01*
G75*
G02*
X182612000Y-104984000I0J-250000D01*
G01*
X182612000Y-105784000D01*
G75*
G02*
X182362000Y-106034000I-250000J0D01*
G01*
G37*
G04 #@! TD.AperFunction*
G04 #@! TA.AperFunction,SMDPad,CuDef*
G36*
G01*
X182362000Y-109134000D02*
X181112000Y-109134000D01*
G75*
G02*
X180862000Y-108884000I0J250000D01*
G01*
X180862000Y-108084000D01*
G75*
G02*
X181112000Y-107834000I250000J0D01*
G01*
X182362000Y-107834000D01*
G75*
G02*
X182612000Y-108084000I0J-250000D01*
G01*
X182612000Y-108884000D01*
G75*
G02*
X182362000Y-109134000I-250000J0D01*
G01*
G37*
G04 #@! TD.AperFunction*
G04 #@! TA.AperFunction,SMDPad,CuDef*
G36*
G01*
X112152000Y-121275000D02*
X112152000Y-120025000D01*
G75*
G02*
X112402000Y-119775000I250000J0D01*
G01*
X113202000Y-119775000D01*
G75*
G02*
X113452000Y-120025000I0J-250000D01*
G01*
X113452000Y-121275000D01*
G75*
G02*
X113202000Y-121525000I-250000J0D01*
G01*
X112402000Y-121525000D01*
G75*
G02*
X112152000Y-121275000I0J250000D01*
G01*
G37*
G04 #@! TD.AperFunction*
G04 #@! TA.AperFunction,SMDPad,CuDef*
G36*
G01*
X109052000Y-121275000D02*
X109052000Y-120025000D01*
G75*
G02*
X109302000Y-119775000I250000J0D01*
G01*
X110102000Y-119775000D01*
G75*
G02*
X110352000Y-120025000I0J-250000D01*
G01*
X110352000Y-121275000D01*
G75*
G02*
X110102000Y-121525000I-250000J0D01*
G01*
X109302000Y-121525000D01*
G75*
G02*
X109052000Y-121275000I0J250000D01*
G01*
G37*
G04 #@! TD.AperFunction*
G04 #@! TA.AperFunction,SMDPad,CuDef*
G36*
G01*
X96912000Y-121275000D02*
X96912000Y-120025000D01*
G75*
G02*
X97162000Y-119775000I250000J0D01*
G01*
X97962000Y-119775000D01*
G75*
G02*
X98212000Y-120025000I0J-250000D01*
G01*
X98212000Y-121275000D01*
G75*
G02*
X97962000Y-121525000I-250000J0D01*
G01*
X97162000Y-121525000D01*
G75*
G02*
X96912000Y-121275000I0J250000D01*
G01*
G37*
G04 #@! TD.AperFunction*
G04 #@! TA.AperFunction,SMDPad,CuDef*
G36*
G01*
X93812000Y-121275000D02*
X93812000Y-120025000D01*
G75*
G02*
X94062000Y-119775000I250000J0D01*
G01*
X94862000Y-119775000D01*
G75*
G02*
X95112000Y-120025000I0J-250000D01*
G01*
X95112000Y-121275000D01*
G75*
G02*
X94862000Y-121525000I-250000J0D01*
G01*
X94062000Y-121525000D01*
G75*
G02*
X93812000Y-121275000I0J250000D01*
G01*
G37*
G04 #@! TD.AperFunction*
G04 #@! TA.AperFunction,SMDPad,CuDef*
G36*
G01*
X81672000Y-121275000D02*
X81672000Y-120025000D01*
G75*
G02*
X81922000Y-119775000I250000J0D01*
G01*
X82722000Y-119775000D01*
G75*
G02*
X82972000Y-120025000I0J-250000D01*
G01*
X82972000Y-121275000D01*
G75*
G02*
X82722000Y-121525000I-250000J0D01*
G01*
X81922000Y-121525000D01*
G75*
G02*
X81672000Y-121275000I0J250000D01*
G01*
G37*
G04 #@! TD.AperFunction*
G04 #@! TA.AperFunction,SMDPad,CuDef*
G36*
G01*
X78572000Y-121275000D02*
X78572000Y-120025000D01*
G75*
G02*
X78822000Y-119775000I250000J0D01*
G01*
X79622000Y-119775000D01*
G75*
G02*
X79872000Y-120025000I0J-250000D01*
G01*
X79872000Y-121275000D01*
G75*
G02*
X79622000Y-121525000I-250000J0D01*
G01*
X78822000Y-121525000D01*
G75*
G02*
X78572000Y-121275000I0J250000D01*
G01*
G37*
G04 #@! TD.AperFunction*
G04 #@! TA.AperFunction,SMDPad,CuDef*
G36*
G01*
X66432000Y-121275000D02*
X66432000Y-120025000D01*
G75*
G02*
X66682000Y-119775000I250000J0D01*
G01*
X67482000Y-119775000D01*
G75*
G02*
X67732000Y-120025000I0J-250000D01*
G01*
X67732000Y-121275000D01*
G75*
G02*
X67482000Y-121525000I-250000J0D01*
G01*
X66682000Y-121525000D01*
G75*
G02*
X66432000Y-121275000I0J250000D01*
G01*
G37*
G04 #@! TD.AperFunction*
G04 #@! TA.AperFunction,SMDPad,CuDef*
G36*
G01*
X63332000Y-121275000D02*
X63332000Y-120025000D01*
G75*
G02*
X63582000Y-119775000I250000J0D01*
G01*
X64382000Y-119775000D01*
G75*
G02*
X64632000Y-120025000I0J-250000D01*
G01*
X64632000Y-121275000D01*
G75*
G02*
X64382000Y-121525000I-250000J0D01*
G01*
X63582000Y-121525000D01*
G75*
G02*
X63332000Y-121275000I0J250000D01*
G01*
G37*
G04 #@! TD.AperFunction*
G04 #@! TA.AperFunction,SMDPad,CuDef*
G36*
G01*
X185303000Y-125614000D02*
X186553000Y-125614000D01*
G75*
G02*
X186803000Y-125864000I0J-250000D01*
G01*
X186803000Y-126664000D01*
G75*
G02*
X186553000Y-126914000I-250000J0D01*
G01*
X185303000Y-126914000D01*
G75*
G02*
X185053000Y-126664000I0J250000D01*
G01*
X185053000Y-125864000D01*
G75*
G02*
X185303000Y-125614000I250000J0D01*
G01*
G37*
G04 #@! TD.AperFunction*
G04 #@! TA.AperFunction,SMDPad,CuDef*
G36*
G01*
X185303000Y-122514000D02*
X186553000Y-122514000D01*
G75*
G02*
X186803000Y-122764000I0J-250000D01*
G01*
X186803000Y-123564000D01*
G75*
G02*
X186553000Y-123814000I-250000J0D01*
G01*
X185303000Y-123814000D01*
G75*
G02*
X185053000Y-123564000I0J250000D01*
G01*
X185053000Y-122764000D01*
G75*
G02*
X185303000Y-122514000I250000J0D01*
G01*
G37*
G04 #@! TD.AperFunction*
G04 #@! TA.AperFunction,SMDPad,CuDef*
G36*
G01*
X180858000Y-125614000D02*
X182108000Y-125614000D01*
G75*
G02*
X182358000Y-125864000I0J-250000D01*
G01*
X182358000Y-126664000D01*
G75*
G02*
X182108000Y-126914000I-250000J0D01*
G01*
X180858000Y-126914000D01*
G75*
G02*
X180608000Y-126664000I0J250000D01*
G01*
X180608000Y-125864000D01*
G75*
G02*
X180858000Y-125614000I250000J0D01*
G01*
G37*
G04 #@! TD.AperFunction*
G04 #@! TA.AperFunction,SMDPad,CuDef*
G36*
G01*
X180858000Y-122514000D02*
X182108000Y-122514000D01*
G75*
G02*
X182358000Y-122764000I0J-250000D01*
G01*
X182358000Y-123564000D01*
G75*
G02*
X182108000Y-123814000I-250000J0D01*
G01*
X180858000Y-123814000D01*
G75*
G02*
X180608000Y-123564000I0J250000D01*
G01*
X180608000Y-122764000D01*
G75*
G02*
X180858000Y-122514000I250000J0D01*
G01*
G37*
G04 #@! TD.AperFunction*
D11*
X147360000Y-93350000D03*
X147360000Y-98430000D03*
X147360000Y-88270000D03*
X154980000Y-80650000D03*
D12*
X147360000Y-80650000D03*
D11*
X154980000Y-98430000D03*
X154980000Y-93350000D03*
X154980000Y-88270000D03*
X132120000Y-93350000D03*
X132120000Y-98430000D03*
X132120000Y-88270000D03*
X139740000Y-80650000D03*
D12*
X132120000Y-80650000D03*
D11*
X139740000Y-98430000D03*
X139740000Y-93350000D03*
X139740000Y-88270000D03*
X116880000Y-93350000D03*
X116880000Y-98430000D03*
X116880000Y-88270000D03*
X124500000Y-80650000D03*
D12*
X116880000Y-80650000D03*
D11*
X124500000Y-98430000D03*
X124500000Y-93350000D03*
X124500000Y-88270000D03*
X101640000Y-93350000D03*
X101640000Y-98430000D03*
X101640000Y-88270000D03*
X109260000Y-80650000D03*
D12*
X101640000Y-80650000D03*
D11*
X109260000Y-98430000D03*
X109260000Y-93350000D03*
X109260000Y-88270000D03*
X86400000Y-93350000D03*
X86400000Y-98430000D03*
X86400000Y-88270000D03*
X94020000Y-80650000D03*
D12*
X86400000Y-80650000D03*
D11*
X94020000Y-98430000D03*
X94020000Y-93350000D03*
X94020000Y-88270000D03*
X71160000Y-93350000D03*
X71160000Y-98430000D03*
X71160000Y-88270000D03*
X78780000Y-80650000D03*
D12*
X71160000Y-80650000D03*
D11*
X78780000Y-98430000D03*
X78780000Y-93350000D03*
X78780000Y-88270000D03*
X55920000Y-93350000D03*
X55920000Y-98430000D03*
X55920000Y-88270000D03*
X63540000Y-80650000D03*
D12*
X55920000Y-80650000D03*
D11*
X63540000Y-98430000D03*
X63540000Y-93350000D03*
X63540000Y-88270000D03*
D24*
X143931000Y-69220000D03*
X136311000Y-69220000D03*
X143931000Y-66680000D03*
X136311000Y-66680000D03*
X143931000Y-64140000D03*
X136311000Y-64140000D03*
X143931000Y-61600000D03*
X136311000Y-61600000D03*
X143931000Y-59060000D03*
X136311000Y-59060000D03*
X143931000Y-56520000D03*
X136311000Y-56520000D03*
X143931000Y-53980000D03*
D25*
X136311000Y-53980000D03*
G04 #@! TA.AperFunction,ComponentPad*
G36*
G01*
X171220000Y-106320000D02*
X171220000Y-108320000D01*
G75*
G02*
X170720000Y-108820000I-500000J0D01*
G01*
X169720000Y-108820000D01*
G75*
G02*
X169220000Y-108320000I0J500000D01*
G01*
X169220000Y-106320000D01*
G75*
G02*
X169720000Y-105820000I500000J0D01*
G01*
X170720000Y-105820000D01*
G75*
G02*
X171220000Y-106320000I0J-500000D01*
G01*
G37*
G04 #@! TD.AperFunction*
G04 #@! TA.AperFunction,ComponentPad*
G36*
G01*
X166140000Y-106320000D02*
X166140000Y-108320000D01*
G75*
G02*
X165640000Y-108820000I-500000J0D01*
G01*
X164640000Y-108820000D01*
G75*
G02*
X164140000Y-108320000I0J500000D01*
G01*
X164140000Y-106320000D01*
G75*
G02*
X164640000Y-105820000I500000J0D01*
G01*
X165640000Y-105820000D01*
G75*
G02*
X166140000Y-106320000I0J-500000D01*
G01*
G37*
G04 #@! TD.AperFunction*
G04 #@! TA.AperFunction,ComponentPad*
G36*
G01*
X168680000Y-106320000D02*
X168680000Y-108320000D01*
G75*
G02*
X168180000Y-108820000I-500000J0D01*
G01*
X167180000Y-108820000D01*
G75*
G02*
X166680000Y-108320000I0J500000D01*
G01*
X166680000Y-106320000D01*
G75*
G02*
X167180000Y-105820000I500000J0D01*
G01*
X168180000Y-105820000D01*
G75*
G02*
X168680000Y-106320000I0J-500000D01*
G01*
G37*
G04 #@! TD.AperFunction*
G04 #@! TA.AperFunction,ComponentPad*
G36*
G01*
X166140000Y-111400000D02*
X166140000Y-113400000D01*
G75*
G02*
X165640000Y-113900000I-500000J0D01*
G01*
X164640000Y-113900000D01*
G75*
G02*
X164140000Y-113400000I0J500000D01*
G01*
X164140000Y-111400000D01*
G75*
G02*
X164640000Y-110900000I500000J0D01*
G01*
X165640000Y-110900000D01*
G75*
G02*
X166140000Y-111400000I0J-500000D01*
G01*
G37*
G04 #@! TD.AperFunction*
G04 #@! TA.AperFunction,ComponentPad*
G36*
G01*
X168680000Y-111400000D02*
X168680000Y-113400000D01*
G75*
G02*
X168180000Y-113900000I-500000J0D01*
G01*
X167180000Y-113900000D01*
G75*
G02*
X166680000Y-113400000I0J500000D01*
G01*
X166680000Y-111400000D01*
G75*
G02*
X167180000Y-110900000I500000J0D01*
G01*
X168180000Y-110900000D01*
G75*
G02*
X168680000Y-111400000I0J-500000D01*
G01*
G37*
G04 #@! TD.AperFunction*
G04 #@! TA.AperFunction,ComponentPad*
G36*
G01*
X171220000Y-111400000D02*
X171220000Y-113400000D01*
G75*
G02*
X170720000Y-113900000I-500000J0D01*
G01*
X169720000Y-113900000D01*
G75*
G02*
X169220000Y-113400000I0J500000D01*
G01*
X169220000Y-111400000D01*
G75*
G02*
X169720000Y-110900000I500000J0D01*
G01*
X170720000Y-110900000D01*
G75*
G02*
X171220000Y-111400000I0J-500000D01*
G01*
G37*
G04 #@! TD.AperFunction*
G04 #@! TA.AperFunction,ComponentPad*
G36*
G01*
X155980000Y-106320000D02*
X155980000Y-108320000D01*
G75*
G02*
X155480000Y-108820000I-500000J0D01*
G01*
X154480000Y-108820000D01*
G75*
G02*
X153980000Y-108320000I0J500000D01*
G01*
X153980000Y-106320000D01*
G75*
G02*
X154480000Y-105820000I500000J0D01*
G01*
X155480000Y-105820000D01*
G75*
G02*
X155980000Y-106320000I0J-500000D01*
G01*
G37*
G04 #@! TD.AperFunction*
G04 #@! TA.AperFunction,ComponentPad*
G36*
G01*
X150900000Y-106320000D02*
X150900000Y-108320000D01*
G75*
G02*
X150400000Y-108820000I-500000J0D01*
G01*
X149400000Y-108820000D01*
G75*
G02*
X148900000Y-108320000I0J500000D01*
G01*
X148900000Y-106320000D01*
G75*
G02*
X149400000Y-105820000I500000J0D01*
G01*
X150400000Y-105820000D01*
G75*
G02*
X150900000Y-106320000I0J-500000D01*
G01*
G37*
G04 #@! TD.AperFunction*
G04 #@! TA.AperFunction,ComponentPad*
G36*
G01*
X153440000Y-106320000D02*
X153440000Y-108320000D01*
G75*
G02*
X152940000Y-108820000I-500000J0D01*
G01*
X151940000Y-108820000D01*
G75*
G02*
X151440000Y-108320000I0J500000D01*
G01*
X151440000Y-106320000D01*
G75*
G02*
X151940000Y-105820000I500000J0D01*
G01*
X152940000Y-105820000D01*
G75*
G02*
X153440000Y-106320000I0J-500000D01*
G01*
G37*
G04 #@! TD.AperFunction*
G04 #@! TA.AperFunction,ComponentPad*
G36*
G01*
X150900000Y-111400000D02*
X150900000Y-113400000D01*
G75*
G02*
X150400000Y-113900000I-500000J0D01*
G01*
X149400000Y-113900000D01*
G75*
G02*
X148900000Y-113400000I0J500000D01*
G01*
X148900000Y-111400000D01*
G75*
G02*
X149400000Y-110900000I500000J0D01*
G01*
X150400000Y-110900000D01*
G75*
G02*
X150900000Y-111400000I0J-500000D01*
G01*
G37*
G04 #@! TD.AperFunction*
G04 #@! TA.AperFunction,ComponentPad*
G36*
G01*
X153440000Y-111400000D02*
X153440000Y-113400000D01*
G75*
G02*
X152940000Y-113900000I-500000J0D01*
G01*
X151940000Y-113900000D01*
G75*
G02*
X151440000Y-113400000I0J500000D01*
G01*
X151440000Y-111400000D01*
G75*
G02*
X151940000Y-110900000I500000J0D01*
G01*
X152940000Y-110900000D01*
G75*
G02*
X153440000Y-111400000I0J-500000D01*
G01*
G37*
G04 #@! TD.AperFunction*
G04 #@! TA.AperFunction,ComponentPad*
G36*
G01*
X155980000Y-111400000D02*
X155980000Y-113400000D01*
G75*
G02*
X155480000Y-113900000I-500000J0D01*
G01*
X154480000Y-113900000D01*
G75*
G02*
X153980000Y-113400000I0J500000D01*
G01*
X153980000Y-111400000D01*
G75*
G02*
X154480000Y-110900000I500000J0D01*
G01*
X155480000Y-110900000D01*
G75*
G02*
X155980000Y-111400000I0J-500000D01*
G01*
G37*
G04 #@! TD.AperFunction*
G04 #@! TA.AperFunction,ComponentPad*
G36*
G01*
X140740000Y-106320000D02*
X140740000Y-108320000D01*
G75*
G02*
X140240000Y-108820000I-500000J0D01*
G01*
X139240000Y-108820000D01*
G75*
G02*
X138740000Y-108320000I0J500000D01*
G01*
X138740000Y-106320000D01*
G75*
G02*
X139240000Y-105820000I500000J0D01*
G01*
X140240000Y-105820000D01*
G75*
G02*
X140740000Y-106320000I0J-500000D01*
G01*
G37*
G04 #@! TD.AperFunction*
G04 #@! TA.AperFunction,ComponentPad*
G36*
G01*
X135660000Y-106320000D02*
X135660000Y-108320000D01*
G75*
G02*
X135160000Y-108820000I-500000J0D01*
G01*
X134160000Y-108820000D01*
G75*
G02*
X133660000Y-108320000I0J500000D01*
G01*
X133660000Y-106320000D01*
G75*
G02*
X134160000Y-105820000I500000J0D01*
G01*
X135160000Y-105820000D01*
G75*
G02*
X135660000Y-106320000I0J-500000D01*
G01*
G37*
G04 #@! TD.AperFunction*
G04 #@! TA.AperFunction,ComponentPad*
G36*
G01*
X138200000Y-106320000D02*
X138200000Y-108320000D01*
G75*
G02*
X137700000Y-108820000I-500000J0D01*
G01*
X136700000Y-108820000D01*
G75*
G02*
X136200000Y-108320000I0J500000D01*
G01*
X136200000Y-106320000D01*
G75*
G02*
X136700000Y-105820000I500000J0D01*
G01*
X137700000Y-105820000D01*
G75*
G02*
X138200000Y-106320000I0J-500000D01*
G01*
G37*
G04 #@! TD.AperFunction*
G04 #@! TA.AperFunction,ComponentPad*
G36*
G01*
X135660000Y-111400000D02*
X135660000Y-113400000D01*
G75*
G02*
X135160000Y-113900000I-500000J0D01*
G01*
X134160000Y-113900000D01*
G75*
G02*
X133660000Y-113400000I0J500000D01*
G01*
X133660000Y-111400000D01*
G75*
G02*
X134160000Y-110900000I500000J0D01*
G01*
X135160000Y-110900000D01*
G75*
G02*
X135660000Y-111400000I0J-500000D01*
G01*
G37*
G04 #@! TD.AperFunction*
G04 #@! TA.AperFunction,ComponentPad*
G36*
G01*
X138200000Y-111400000D02*
X138200000Y-113400000D01*
G75*
G02*
X137700000Y-113900000I-500000J0D01*
G01*
X136700000Y-113900000D01*
G75*
G02*
X136200000Y-113400000I0J500000D01*
G01*
X136200000Y-111400000D01*
G75*
G02*
X136700000Y-110900000I500000J0D01*
G01*
X137700000Y-110900000D01*
G75*
G02*
X138200000Y-111400000I0J-500000D01*
G01*
G37*
G04 #@! TD.AperFunction*
G04 #@! TA.AperFunction,ComponentPad*
G36*
G01*
X140740000Y-111400000D02*
X140740000Y-113400000D01*
G75*
G02*
X140240000Y-113900000I-500000J0D01*
G01*
X139240000Y-113900000D01*
G75*
G02*
X138740000Y-113400000I0J500000D01*
G01*
X138740000Y-111400000D01*
G75*
G02*
X139240000Y-110900000I500000J0D01*
G01*
X140240000Y-110900000D01*
G75*
G02*
X140740000Y-111400000I0J-500000D01*
G01*
G37*
G04 #@! TD.AperFunction*
G04 #@! TA.AperFunction,ComponentPad*
G36*
G01*
X125500000Y-106320000D02*
X125500000Y-108320000D01*
G75*
G02*
X125000000Y-108820000I-500000J0D01*
G01*
X124000000Y-108820000D01*
G75*
G02*
X123500000Y-108320000I0J500000D01*
G01*
X123500000Y-106320000D01*
G75*
G02*
X124000000Y-105820000I500000J0D01*
G01*
X125000000Y-105820000D01*
G75*
G02*
X125500000Y-106320000I0J-500000D01*
G01*
G37*
G04 #@! TD.AperFunction*
G04 #@! TA.AperFunction,ComponentPad*
G36*
G01*
X120420000Y-106320000D02*
X120420000Y-108320000D01*
G75*
G02*
X119920000Y-108820000I-500000J0D01*
G01*
X118920000Y-108820000D01*
G75*
G02*
X118420000Y-108320000I0J500000D01*
G01*
X118420000Y-106320000D01*
G75*
G02*
X118920000Y-105820000I500000J0D01*
G01*
X119920000Y-105820000D01*
G75*
G02*
X120420000Y-106320000I0J-500000D01*
G01*
G37*
G04 #@! TD.AperFunction*
G04 #@! TA.AperFunction,ComponentPad*
G36*
G01*
X122960000Y-106320000D02*
X122960000Y-108320000D01*
G75*
G02*
X122460000Y-108820000I-500000J0D01*
G01*
X121460000Y-108820000D01*
G75*
G02*
X120960000Y-108320000I0J500000D01*
G01*
X120960000Y-106320000D01*
G75*
G02*
X121460000Y-105820000I500000J0D01*
G01*
X122460000Y-105820000D01*
G75*
G02*
X122960000Y-106320000I0J-500000D01*
G01*
G37*
G04 #@! TD.AperFunction*
G04 #@! TA.AperFunction,ComponentPad*
G36*
G01*
X120420000Y-111400000D02*
X120420000Y-113400000D01*
G75*
G02*
X119920000Y-113900000I-500000J0D01*
G01*
X118920000Y-113900000D01*
G75*
G02*
X118420000Y-113400000I0J500000D01*
G01*
X118420000Y-111400000D01*
G75*
G02*
X118920000Y-110900000I500000J0D01*
G01*
X119920000Y-110900000D01*
G75*
G02*
X120420000Y-111400000I0J-500000D01*
G01*
G37*
G04 #@! TD.AperFunction*
G04 #@! TA.AperFunction,ComponentPad*
G36*
G01*
X122960000Y-111400000D02*
X122960000Y-113400000D01*
G75*
G02*
X122460000Y-113900000I-500000J0D01*
G01*
X121460000Y-113900000D01*
G75*
G02*
X120960000Y-113400000I0J500000D01*
G01*
X120960000Y-111400000D01*
G75*
G02*
X121460000Y-110900000I500000J0D01*
G01*
X122460000Y-110900000D01*
G75*
G02*
X122960000Y-111400000I0J-500000D01*
G01*
G37*
G04 #@! TD.AperFunction*
G04 #@! TA.AperFunction,ComponentPad*
G36*
G01*
X125500000Y-111400000D02*
X125500000Y-113400000D01*
G75*
G02*
X125000000Y-113900000I-500000J0D01*
G01*
X124000000Y-113900000D01*
G75*
G02*
X123500000Y-113400000I0J500000D01*
G01*
X123500000Y-111400000D01*
G75*
G02*
X124000000Y-110900000I500000J0D01*
G01*
X125000000Y-110900000D01*
G75*
G02*
X125500000Y-111400000I0J-500000D01*
G01*
G37*
G04 #@! TD.AperFunction*
G04 #@! TA.AperFunction,ComponentPad*
G36*
G01*
X110260000Y-106320000D02*
X110260000Y-108320000D01*
G75*
G02*
X109760000Y-108820000I-500000J0D01*
G01*
X108760000Y-108820000D01*
G75*
G02*
X108260000Y-108320000I0J500000D01*
G01*
X108260000Y-106320000D01*
G75*
G02*
X108760000Y-105820000I500000J0D01*
G01*
X109760000Y-105820000D01*
G75*
G02*
X110260000Y-106320000I0J-500000D01*
G01*
G37*
G04 #@! TD.AperFunction*
G04 #@! TA.AperFunction,ComponentPad*
G36*
G01*
X105180000Y-106320000D02*
X105180000Y-108320000D01*
G75*
G02*
X104680000Y-108820000I-500000J0D01*
G01*
X103680000Y-108820000D01*
G75*
G02*
X103180000Y-108320000I0J500000D01*
G01*
X103180000Y-106320000D01*
G75*
G02*
X103680000Y-105820000I500000J0D01*
G01*
X104680000Y-105820000D01*
G75*
G02*
X105180000Y-106320000I0J-500000D01*
G01*
G37*
G04 #@! TD.AperFunction*
G04 #@! TA.AperFunction,ComponentPad*
G36*
G01*
X107720000Y-106320000D02*
X107720000Y-108320000D01*
G75*
G02*
X107220000Y-108820000I-500000J0D01*
G01*
X106220000Y-108820000D01*
G75*
G02*
X105720000Y-108320000I0J500000D01*
G01*
X105720000Y-106320000D01*
G75*
G02*
X106220000Y-105820000I500000J0D01*
G01*
X107220000Y-105820000D01*
G75*
G02*
X107720000Y-106320000I0J-500000D01*
G01*
G37*
G04 #@! TD.AperFunction*
G04 #@! TA.AperFunction,ComponentPad*
G36*
G01*
X105180000Y-111400000D02*
X105180000Y-113400000D01*
G75*
G02*
X104680000Y-113900000I-500000J0D01*
G01*
X103680000Y-113900000D01*
G75*
G02*
X103180000Y-113400000I0J500000D01*
G01*
X103180000Y-111400000D01*
G75*
G02*
X103680000Y-110900000I500000J0D01*
G01*
X104680000Y-110900000D01*
G75*
G02*
X105180000Y-111400000I0J-500000D01*
G01*
G37*
G04 #@! TD.AperFunction*
G04 #@! TA.AperFunction,ComponentPad*
G36*
G01*
X107720000Y-111400000D02*
X107720000Y-113400000D01*
G75*
G02*
X107220000Y-113900000I-500000J0D01*
G01*
X106220000Y-113900000D01*
G75*
G02*
X105720000Y-113400000I0J500000D01*
G01*
X105720000Y-111400000D01*
G75*
G02*
X106220000Y-110900000I500000J0D01*
G01*
X107220000Y-110900000D01*
G75*
G02*
X107720000Y-111400000I0J-500000D01*
G01*
G37*
G04 #@! TD.AperFunction*
G04 #@! TA.AperFunction,ComponentPad*
G36*
G01*
X110260000Y-111400000D02*
X110260000Y-113400000D01*
G75*
G02*
X109760000Y-113900000I-500000J0D01*
G01*
X108760000Y-113900000D01*
G75*
G02*
X108260000Y-113400000I0J500000D01*
G01*
X108260000Y-111400000D01*
G75*
G02*
X108760000Y-110900000I500000J0D01*
G01*
X109760000Y-110900000D01*
G75*
G02*
X110260000Y-111400000I0J-500000D01*
G01*
G37*
G04 #@! TD.AperFunction*
G04 #@! TA.AperFunction,ComponentPad*
G36*
G01*
X95020000Y-106320000D02*
X95020000Y-108320000D01*
G75*
G02*
X94520000Y-108820000I-500000J0D01*
G01*
X93520000Y-108820000D01*
G75*
G02*
X93020000Y-108320000I0J500000D01*
G01*
X93020000Y-106320000D01*
G75*
G02*
X93520000Y-105820000I500000J0D01*
G01*
X94520000Y-105820000D01*
G75*
G02*
X95020000Y-106320000I0J-500000D01*
G01*
G37*
G04 #@! TD.AperFunction*
G04 #@! TA.AperFunction,ComponentPad*
G36*
G01*
X89940000Y-106320000D02*
X89940000Y-108320000D01*
G75*
G02*
X89440000Y-108820000I-500000J0D01*
G01*
X88440000Y-108820000D01*
G75*
G02*
X87940000Y-108320000I0J500000D01*
G01*
X87940000Y-106320000D01*
G75*
G02*
X88440000Y-105820000I500000J0D01*
G01*
X89440000Y-105820000D01*
G75*
G02*
X89940000Y-106320000I0J-500000D01*
G01*
G37*
G04 #@! TD.AperFunction*
G04 #@! TA.AperFunction,ComponentPad*
G36*
G01*
X92480000Y-106320000D02*
X92480000Y-108320000D01*
G75*
G02*
X91980000Y-108820000I-500000J0D01*
G01*
X90980000Y-108820000D01*
G75*
G02*
X90480000Y-108320000I0J500000D01*
G01*
X90480000Y-106320000D01*
G75*
G02*
X90980000Y-105820000I500000J0D01*
G01*
X91980000Y-105820000D01*
G75*
G02*
X92480000Y-106320000I0J-500000D01*
G01*
G37*
G04 #@! TD.AperFunction*
G04 #@! TA.AperFunction,ComponentPad*
G36*
G01*
X89940000Y-111400000D02*
X89940000Y-113400000D01*
G75*
G02*
X89440000Y-113900000I-500000J0D01*
G01*
X88440000Y-113900000D01*
G75*
G02*
X87940000Y-113400000I0J500000D01*
G01*
X87940000Y-111400000D01*
G75*
G02*
X88440000Y-110900000I500000J0D01*
G01*
X89440000Y-110900000D01*
G75*
G02*
X89940000Y-111400000I0J-500000D01*
G01*
G37*
G04 #@! TD.AperFunction*
G04 #@! TA.AperFunction,ComponentPad*
G36*
G01*
X92480000Y-111400000D02*
X92480000Y-113400000D01*
G75*
G02*
X91980000Y-113900000I-500000J0D01*
G01*
X90980000Y-113900000D01*
G75*
G02*
X90480000Y-113400000I0J500000D01*
G01*
X90480000Y-111400000D01*
G75*
G02*
X90980000Y-110900000I500000J0D01*
G01*
X91980000Y-110900000D01*
G75*
G02*
X92480000Y-111400000I0J-500000D01*
G01*
G37*
G04 #@! TD.AperFunction*
G04 #@! TA.AperFunction,ComponentPad*
G36*
G01*
X95020000Y-111400000D02*
X95020000Y-113400000D01*
G75*
G02*
X94520000Y-113900000I-500000J0D01*
G01*
X93520000Y-113900000D01*
G75*
G02*
X93020000Y-113400000I0J500000D01*
G01*
X93020000Y-111400000D01*
G75*
G02*
X93520000Y-110900000I500000J0D01*
G01*
X94520000Y-110900000D01*
G75*
G02*
X95020000Y-111400000I0J-500000D01*
G01*
G37*
G04 #@! TD.AperFunction*
D26*
X154182000Y-52451000D03*
X154182000Y-47371000D03*
X150872000Y-49911000D03*
X150872000Y-44831000D03*
G04 #@! TA.AperFunction,ComponentPad*
G36*
G01*
X79780000Y-106320000D02*
X79780000Y-108320000D01*
G75*
G02*
X79280000Y-108820000I-500000J0D01*
G01*
X78280000Y-108820000D01*
G75*
G02*
X77780000Y-108320000I0J500000D01*
G01*
X77780000Y-106320000D01*
G75*
G02*
X78280000Y-105820000I500000J0D01*
G01*
X79280000Y-105820000D01*
G75*
G02*
X79780000Y-106320000I0J-500000D01*
G01*
G37*
G04 #@! TD.AperFunction*
G04 #@! TA.AperFunction,ComponentPad*
G36*
G01*
X74700000Y-106320000D02*
X74700000Y-108320000D01*
G75*
G02*
X74200000Y-108820000I-500000J0D01*
G01*
X73200000Y-108820000D01*
G75*
G02*
X72700000Y-108320000I0J500000D01*
G01*
X72700000Y-106320000D01*
G75*
G02*
X73200000Y-105820000I500000J0D01*
G01*
X74200000Y-105820000D01*
G75*
G02*
X74700000Y-106320000I0J-500000D01*
G01*
G37*
G04 #@! TD.AperFunction*
G04 #@! TA.AperFunction,ComponentPad*
G36*
G01*
X77240000Y-106320000D02*
X77240000Y-108320000D01*
G75*
G02*
X76740000Y-108820000I-500000J0D01*
G01*
X75740000Y-108820000D01*
G75*
G02*
X75240000Y-108320000I0J500000D01*
G01*
X75240000Y-106320000D01*
G75*
G02*
X75740000Y-105820000I500000J0D01*
G01*
X76740000Y-105820000D01*
G75*
G02*
X77240000Y-106320000I0J-500000D01*
G01*
G37*
G04 #@! TD.AperFunction*
G04 #@! TA.AperFunction,ComponentPad*
G36*
G01*
X74700000Y-111400000D02*
X74700000Y-113400000D01*
G75*
G02*
X74200000Y-113900000I-500000J0D01*
G01*
X73200000Y-113900000D01*
G75*
G02*
X72700000Y-113400000I0J500000D01*
G01*
X72700000Y-111400000D01*
G75*
G02*
X73200000Y-110900000I500000J0D01*
G01*
X74200000Y-110900000D01*
G75*
G02*
X74700000Y-111400000I0J-500000D01*
G01*
G37*
G04 #@! TD.AperFunction*
G04 #@! TA.AperFunction,ComponentPad*
G36*
G01*
X77240000Y-111400000D02*
X77240000Y-113400000D01*
G75*
G02*
X76740000Y-113900000I-500000J0D01*
G01*
X75740000Y-113900000D01*
G75*
G02*
X75240000Y-113400000I0J500000D01*
G01*
X75240000Y-111400000D01*
G75*
G02*
X75740000Y-110900000I500000J0D01*
G01*
X76740000Y-110900000D01*
G75*
G02*
X77240000Y-111400000I0J-500000D01*
G01*
G37*
G04 #@! TD.AperFunction*
G04 #@! TA.AperFunction,ComponentPad*
G36*
G01*
X79780000Y-111400000D02*
X79780000Y-113400000D01*
G75*
G02*
X79280000Y-113900000I-500000J0D01*
G01*
X78280000Y-113900000D01*
G75*
G02*
X77780000Y-113400000I0J500000D01*
G01*
X77780000Y-111400000D01*
G75*
G02*
X78280000Y-110900000I500000J0D01*
G01*
X79280000Y-110900000D01*
G75*
G02*
X79780000Y-111400000I0J-500000D01*
G01*
G37*
G04 #@! TD.AperFunction*
G04 #@! TA.AperFunction,ComponentPad*
G36*
G01*
X64540000Y-106320000D02*
X64540000Y-108320000D01*
G75*
G02*
X64040000Y-108820000I-500000J0D01*
G01*
X63040000Y-108820000D01*
G75*
G02*
X62540000Y-108320000I0J500000D01*
G01*
X62540000Y-106320000D01*
G75*
G02*
X63040000Y-105820000I500000J0D01*
G01*
X64040000Y-105820000D01*
G75*
G02*
X64540000Y-106320000I0J-500000D01*
G01*
G37*
G04 #@! TD.AperFunction*
G04 #@! TA.AperFunction,ComponentPad*
G36*
G01*
X59460000Y-106320000D02*
X59460000Y-108320000D01*
G75*
G02*
X58960000Y-108820000I-500000J0D01*
G01*
X57960000Y-108820000D01*
G75*
G02*
X57460000Y-108320000I0J500000D01*
G01*
X57460000Y-106320000D01*
G75*
G02*
X57960000Y-105820000I500000J0D01*
G01*
X58960000Y-105820000D01*
G75*
G02*
X59460000Y-106320000I0J-500000D01*
G01*
G37*
G04 #@! TD.AperFunction*
G04 #@! TA.AperFunction,ComponentPad*
G36*
G01*
X62000000Y-106320000D02*
X62000000Y-108320000D01*
G75*
G02*
X61500000Y-108820000I-500000J0D01*
G01*
X60500000Y-108820000D01*
G75*
G02*
X60000000Y-108320000I0J500000D01*
G01*
X60000000Y-106320000D01*
G75*
G02*
X60500000Y-105820000I500000J0D01*
G01*
X61500000Y-105820000D01*
G75*
G02*
X62000000Y-106320000I0J-500000D01*
G01*
G37*
G04 #@! TD.AperFunction*
G04 #@! TA.AperFunction,ComponentPad*
G36*
G01*
X59460000Y-111400000D02*
X59460000Y-113400000D01*
G75*
G02*
X58960000Y-113900000I-500000J0D01*
G01*
X57960000Y-113900000D01*
G75*
G02*
X57460000Y-113400000I0J500000D01*
G01*
X57460000Y-111400000D01*
G75*
G02*
X57960000Y-110900000I500000J0D01*
G01*
X58960000Y-110900000D01*
G75*
G02*
X59460000Y-111400000I0J-500000D01*
G01*
G37*
G04 #@! TD.AperFunction*
G04 #@! TA.AperFunction,ComponentPad*
G36*
G01*
X62000000Y-111400000D02*
X62000000Y-113400000D01*
G75*
G02*
X61500000Y-113900000I-500000J0D01*
G01*
X60500000Y-113900000D01*
G75*
G02*
X60000000Y-113400000I0J500000D01*
G01*
X60000000Y-111400000D01*
G75*
G02*
X60500000Y-110900000I500000J0D01*
G01*
X61500000Y-110900000D01*
G75*
G02*
X62000000Y-111400000I0J-500000D01*
G01*
G37*
G04 #@! TD.AperFunction*
G04 #@! TA.AperFunction,ComponentPad*
G36*
G01*
X64540000Y-111400000D02*
X64540000Y-113400000D01*
G75*
G02*
X64040000Y-113900000I-500000J0D01*
G01*
X63040000Y-113900000D01*
G75*
G02*
X62540000Y-113400000I0J500000D01*
G01*
X62540000Y-111400000D01*
G75*
G02*
X63040000Y-110900000I500000J0D01*
G01*
X64040000Y-110900000D01*
G75*
G02*
X64540000Y-111400000I0J-500000D01*
G01*
G37*
G04 #@! TD.AperFunction*
D27*
X125928000Y-43058000D03*
X125927480Y-74058700D03*
X50928900Y-74058700D03*
X50928900Y-43058000D03*
D28*
X94528000Y-43058000D03*
X91988000Y-43058000D03*
X89448000Y-43058000D03*
X86908000Y-43058000D03*
X84368000Y-43058000D03*
X81828000Y-43058000D03*
X79288000Y-43058000D03*
X76748000Y-43058000D03*
X74208000Y-43058000D03*
X71668000Y-43058000D03*
X69128000Y-43058000D03*
X66588000Y-43058000D03*
X64048000Y-43058000D03*
X61508000Y-43058000D03*
X58968000Y-43058000D03*
D29*
X56428000Y-43058000D03*
G04 #@! TA.AperFunction,SMDPad,CuDef*
G36*
G01*
X94162001Y-70987000D02*
X92861999Y-70987000D01*
G75*
G02*
X92612000Y-70737001I0J249999D01*
G01*
X92612000Y-69911999D01*
G75*
G02*
X92861999Y-69662000I249999J0D01*
G01*
X94162001Y-69662000D01*
G75*
G02*
X94412000Y-69911999I0J-249999D01*
G01*
X94412000Y-70737001D01*
G75*
G02*
X94162001Y-70987000I-249999J0D01*
G01*
G37*
G04 #@! TD.AperFunction*
G04 #@! TA.AperFunction,SMDPad,CuDef*
G36*
G01*
X94162001Y-74112000D02*
X92861999Y-74112000D01*
G75*
G02*
X92612000Y-73862001I0J249999D01*
G01*
X92612000Y-73036999D01*
G75*
G02*
X92861999Y-72787000I249999J0D01*
G01*
X94162001Y-72787000D01*
G75*
G02*
X94412000Y-73036999I0J-249999D01*
G01*
X94412000Y-73862001D01*
G75*
G02*
X94162001Y-74112000I-249999J0D01*
G01*
G37*
G04 #@! TD.AperFunction*
G04 #@! TA.AperFunction,SMDPad,CuDef*
G36*
G01*
X170265000Y-46547000D02*
X171365000Y-46547000D01*
G75*
G02*
X171615000Y-46797000I0J-250000D01*
G01*
X171615000Y-49297000D01*
G75*
G02*
X171365000Y-49547000I-250000J0D01*
G01*
X170265000Y-49547000D01*
G75*
G02*
X170015000Y-49297000I0J250000D01*
G01*
X170015000Y-46797000D01*
G75*
G02*
X170265000Y-46547000I250000J0D01*
G01*
G37*
G04 #@! TD.AperFunction*
G04 #@! TA.AperFunction,SMDPad,CuDef*
G36*
G01*
X170265000Y-42147000D02*
X171365000Y-42147000D01*
G75*
G02*
X171615000Y-42397000I0J-250000D01*
G01*
X171615000Y-44897000D01*
G75*
G02*
X171365000Y-45147000I-250000J0D01*
G01*
X170265000Y-45147000D01*
G75*
G02*
X170015000Y-44897000I0J250000D01*
G01*
X170015000Y-42397000D01*
G75*
G02*
X170265000Y-42147000I250000J0D01*
G01*
G37*
G04 #@! TD.AperFunction*
G04 #@! TA.AperFunction,SMDPad,CuDef*
G36*
G01*
X175408500Y-92838500D02*
X176508500Y-92838500D01*
G75*
G02*
X176758500Y-93088500I0J-250000D01*
G01*
X176758500Y-95588500D01*
G75*
G02*
X176508500Y-95838500I-250000J0D01*
G01*
X175408500Y-95838500D01*
G75*
G02*
X175158500Y-95588500I0J250000D01*
G01*
X175158500Y-93088500D01*
G75*
G02*
X175408500Y-92838500I250000J0D01*
G01*
G37*
G04 #@! TD.AperFunction*
G04 #@! TA.AperFunction,SMDPad,CuDef*
G36*
G01*
X175408500Y-88438500D02*
X176508500Y-88438500D01*
G75*
G02*
X176758500Y-88688500I0J-250000D01*
G01*
X176758500Y-91188500D01*
G75*
G02*
X176508500Y-91438500I-250000J0D01*
G01*
X175408500Y-91438500D01*
G75*
G02*
X175158500Y-91188500I0J250000D01*
G01*
X175158500Y-88688500D01*
G75*
G02*
X175408500Y-88438500I250000J0D01*
G01*
G37*
G04 #@! TD.AperFunction*
G04 #@! TA.AperFunction,SMDPad,CuDef*
G36*
G01*
X127065000Y-65447000D02*
X127065000Y-64347000D01*
G75*
G02*
X127315000Y-64097000I250000J0D01*
G01*
X129815000Y-64097000D01*
G75*
G02*
X130065000Y-64347000I0J-250000D01*
G01*
X130065000Y-65447000D01*
G75*
G02*
X129815000Y-65697000I-250000J0D01*
G01*
X127315000Y-65697000D01*
G75*
G02*
X127065000Y-65447000I0J250000D01*
G01*
G37*
G04 #@! TD.AperFunction*
G04 #@! TA.AperFunction,SMDPad,CuDef*
G36*
G01*
X122665000Y-65447000D02*
X122665000Y-64347000D01*
G75*
G02*
X122915000Y-64097000I250000J0D01*
G01*
X125415000Y-64097000D01*
G75*
G02*
X125665000Y-64347000I0J-250000D01*
G01*
X125665000Y-65447000D01*
G75*
G02*
X125415000Y-65697000I-250000J0D01*
G01*
X122915000Y-65697000D01*
G75*
G02*
X122665000Y-65447000I0J250000D01*
G01*
G37*
G04 #@! TD.AperFunction*
G04 #@! TA.AperFunction,SMDPad,CuDef*
G36*
G01*
X77271001Y-71114000D02*
X75970999Y-71114000D01*
G75*
G02*
X75721000Y-70864001I0J249999D01*
G01*
X75721000Y-70038999D01*
G75*
G02*
X75970999Y-69789000I249999J0D01*
G01*
X77271001Y-69789000D01*
G75*
G02*
X77521000Y-70038999I0J-249999D01*
G01*
X77521000Y-70864001D01*
G75*
G02*
X77271001Y-71114000I-249999J0D01*
G01*
G37*
G04 #@! TD.AperFunction*
G04 #@! TA.AperFunction,SMDPad,CuDef*
G36*
G01*
X77271001Y-74239000D02*
X75970999Y-74239000D01*
G75*
G02*
X75721000Y-73989001I0J249999D01*
G01*
X75721000Y-73163999D01*
G75*
G02*
X75970999Y-72914000I249999J0D01*
G01*
X77271001Y-72914000D01*
G75*
G02*
X77521000Y-73163999I0J-249999D01*
G01*
X77521000Y-73989001D01*
G75*
G02*
X77271001Y-74239000I-249999J0D01*
G01*
G37*
G04 #@! TD.AperFunction*
G04 #@! TA.AperFunction,SMDPad,CuDef*
G36*
G01*
X79364000Y-68310999D02*
X79364000Y-69611001D01*
G75*
G02*
X79114001Y-69861000I-249999J0D01*
G01*
X78288999Y-69861000D01*
G75*
G02*
X78039000Y-69611001I0J249999D01*
G01*
X78039000Y-68310999D01*
G75*
G02*
X78288999Y-68061000I249999J0D01*
G01*
X79114001Y-68061000D01*
G75*
G02*
X79364000Y-68310999I0J-249999D01*
G01*
G37*
G04 #@! TD.AperFunction*
G04 #@! TA.AperFunction,SMDPad,CuDef*
G36*
G01*
X82489000Y-68310999D02*
X82489000Y-69611001D01*
G75*
G02*
X82239001Y-69861000I-249999J0D01*
G01*
X81413999Y-69861000D01*
G75*
G02*
X81164000Y-69611001I0J249999D01*
G01*
X81164000Y-68310999D01*
G75*
G02*
X81413999Y-68061000I249999J0D01*
G01*
X82239001Y-68061000D01*
G75*
G02*
X82489000Y-68310999I0J-249999D01*
G01*
G37*
G04 #@! TD.AperFunction*
G04 #@! TA.AperFunction,SMDPad,CuDef*
G36*
G01*
X89016000Y-68437999D02*
X89016000Y-69738001D01*
G75*
G02*
X88766001Y-69988000I-249999J0D01*
G01*
X87940999Y-69988000D01*
G75*
G02*
X87691000Y-69738001I0J249999D01*
G01*
X87691000Y-68437999D01*
G75*
G02*
X87940999Y-68188000I249999J0D01*
G01*
X88766001Y-68188000D01*
G75*
G02*
X89016000Y-68437999I0J-249999D01*
G01*
G37*
G04 #@! TD.AperFunction*
G04 #@! TA.AperFunction,SMDPad,CuDef*
G36*
G01*
X92141000Y-68437999D02*
X92141000Y-69738001D01*
G75*
G02*
X91891001Y-69988000I-249999J0D01*
G01*
X91065999Y-69988000D01*
G75*
G02*
X90816000Y-69738001I0J249999D01*
G01*
X90816000Y-68437999D01*
G75*
G02*
X91065999Y-68188000I249999J0D01*
G01*
X91891001Y-68188000D01*
G75*
G02*
X92141000Y-68437999I0J-249999D01*
G01*
G37*
G04 #@! TD.AperFunction*
G04 #@! TA.AperFunction,SMDPad,CuDef*
G36*
G01*
X58277999Y-48080500D02*
X59578001Y-48080500D01*
G75*
G02*
X59828000Y-48330499I0J-249999D01*
G01*
X59828000Y-49155501D01*
G75*
G02*
X59578001Y-49405500I-249999J0D01*
G01*
X58277999Y-49405500D01*
G75*
G02*
X58028000Y-49155501I0J249999D01*
G01*
X58028000Y-48330499D01*
G75*
G02*
X58277999Y-48080500I249999J0D01*
G01*
G37*
G04 #@! TD.AperFunction*
G04 #@! TA.AperFunction,SMDPad,CuDef*
G36*
G01*
X58277999Y-44955500D02*
X59578001Y-44955500D01*
G75*
G02*
X59828000Y-45205499I0J-249999D01*
G01*
X59828000Y-46030501D01*
G75*
G02*
X59578001Y-46280500I-249999J0D01*
G01*
X58277999Y-46280500D01*
G75*
G02*
X58028000Y-46030501I0J249999D01*
G01*
X58028000Y-45205499D01*
G75*
G02*
X58277999Y-44955500I249999J0D01*
G01*
G37*
G04 #@! TD.AperFunction*
G04 #@! TA.AperFunction,SMDPad,CuDef*
G36*
G01*
X116443999Y-53605000D02*
X117744001Y-53605000D01*
G75*
G02*
X117994000Y-53854999I0J-249999D01*
G01*
X117994000Y-54680001D01*
G75*
G02*
X117744001Y-54930000I-249999J0D01*
G01*
X116443999Y-54930000D01*
G75*
G02*
X116194000Y-54680001I0J249999D01*
G01*
X116194000Y-53854999D01*
G75*
G02*
X116443999Y-53605000I249999J0D01*
G01*
G37*
G04 #@! TD.AperFunction*
G04 #@! TA.AperFunction,SMDPad,CuDef*
G36*
G01*
X116443999Y-50480000D02*
X117744001Y-50480000D01*
G75*
G02*
X117994000Y-50729999I0J-249999D01*
G01*
X117994000Y-51555001D01*
G75*
G02*
X117744001Y-51805000I-249999J0D01*
G01*
X116443999Y-51805000D01*
G75*
G02*
X116194000Y-51555001I0J249999D01*
G01*
X116194000Y-50729999D01*
G75*
G02*
X116443999Y-50480000I249999J0D01*
G01*
G37*
G04 #@! TD.AperFunction*
G04 #@! TA.AperFunction,SMDPad,CuDef*
G36*
G01*
X178259501Y-123814000D02*
X176959499Y-123814000D01*
G75*
G02*
X176709500Y-123564001I0J249999D01*
G01*
X176709500Y-122738999D01*
G75*
G02*
X176959499Y-122489000I249999J0D01*
G01*
X178259501Y-122489000D01*
G75*
G02*
X178509500Y-122738999I0J-249999D01*
G01*
X178509500Y-123564001D01*
G75*
G02*
X178259501Y-123814000I-249999J0D01*
G01*
G37*
G04 #@! TD.AperFunction*
G04 #@! TA.AperFunction,SMDPad,CuDef*
G36*
G01*
X178259501Y-126939000D02*
X176959499Y-126939000D01*
G75*
G02*
X176709500Y-126689001I0J249999D01*
G01*
X176709500Y-125863999D01*
G75*
G02*
X176959499Y-125614000I249999J0D01*
G01*
X178259501Y-125614000D01*
G75*
G02*
X178509500Y-125863999I0J-249999D01*
G01*
X178509500Y-126689001D01*
G75*
G02*
X178259501Y-126939000I-249999J0D01*
G01*
G37*
G04 #@! TD.AperFunction*
G04 #@! TA.AperFunction,SMDPad,CuDef*
G36*
G01*
X178170000Y-52689999D02*
X178170000Y-53990001D01*
G75*
G02*
X177920001Y-54240000I-249999J0D01*
G01*
X177094999Y-54240000D01*
G75*
G02*
X176845000Y-53990001I0J249999D01*
G01*
X176845000Y-52689999D01*
G75*
G02*
X177094999Y-52440000I249999J0D01*
G01*
X177920001Y-52440000D01*
G75*
G02*
X178170000Y-52689999I0J-249999D01*
G01*
G37*
G04 #@! TD.AperFunction*
G04 #@! TA.AperFunction,SMDPad,CuDef*
G36*
G01*
X181295000Y-52689999D02*
X181295000Y-53990001D01*
G75*
G02*
X181045001Y-54240000I-249999J0D01*
G01*
X180219999Y-54240000D01*
G75*
G02*
X179970000Y-53990001I0J249999D01*
G01*
X179970000Y-52689999D01*
G75*
G02*
X180219999Y-52440000I249999J0D01*
G01*
X181045001Y-52440000D01*
G75*
G02*
X181295000Y-52689999I0J-249999D01*
G01*
G37*
G04 #@! TD.AperFunction*
G04 #@! TA.AperFunction,SMDPad,CuDef*
G36*
G01*
X98944000Y-66055001D02*
X98944000Y-64754999D01*
G75*
G02*
X99193999Y-64505000I249999J0D01*
G01*
X100019001Y-64505000D01*
G75*
G02*
X100269000Y-64754999I0J-249999D01*
G01*
X100269000Y-66055001D01*
G75*
G02*
X100019001Y-66305000I-249999J0D01*
G01*
X99193999Y-66305000D01*
G75*
G02*
X98944000Y-66055001I0J249999D01*
G01*
G37*
G04 #@! TD.AperFunction*
G04 #@! TA.AperFunction,SMDPad,CuDef*
G36*
G01*
X95819000Y-66055001D02*
X95819000Y-64754999D01*
G75*
G02*
X96068999Y-64505000I249999J0D01*
G01*
X96894001Y-64505000D01*
G75*
G02*
X97144000Y-64754999I0J-249999D01*
G01*
X97144000Y-66055001D01*
G75*
G02*
X96894001Y-66305000I-249999J0D01*
G01*
X96068999Y-66305000D01*
G75*
G02*
X95819000Y-66055001I0J249999D01*
G01*
G37*
G04 #@! TD.AperFunction*
G04 #@! TA.AperFunction,SMDPad,CuDef*
G36*
G01*
X94980999Y-56780000D02*
X96281001Y-56780000D01*
G75*
G02*
X96531000Y-57029999I0J-249999D01*
G01*
X96531000Y-57855001D01*
G75*
G02*
X96281001Y-58105000I-249999J0D01*
G01*
X94980999Y-58105000D01*
G75*
G02*
X94731000Y-57855001I0J249999D01*
G01*
X94731000Y-57029999D01*
G75*
G02*
X94980999Y-56780000I249999J0D01*
G01*
G37*
G04 #@! TD.AperFunction*
G04 #@! TA.AperFunction,SMDPad,CuDef*
G36*
G01*
X94980999Y-53655000D02*
X96281001Y-53655000D01*
G75*
G02*
X96531000Y-53904999I0J-249999D01*
G01*
X96531000Y-54730001D01*
G75*
G02*
X96281001Y-54980000I-249999J0D01*
G01*
X94980999Y-54980000D01*
G75*
G02*
X94731000Y-54730001I0J249999D01*
G01*
X94731000Y-53904999D01*
G75*
G02*
X94980999Y-53655000I249999J0D01*
G01*
G37*
G04 #@! TD.AperFunction*
G04 #@! TA.AperFunction,SMDPad,CuDef*
G36*
G01*
X180070999Y-93229000D02*
X181371001Y-93229000D01*
G75*
G02*
X181621000Y-93478999I0J-249999D01*
G01*
X181621000Y-94304001D01*
G75*
G02*
X181371001Y-94554000I-249999J0D01*
G01*
X180070999Y-94554000D01*
G75*
G02*
X179821000Y-94304001I0J249999D01*
G01*
X179821000Y-93478999D01*
G75*
G02*
X180070999Y-93229000I249999J0D01*
G01*
G37*
G04 #@! TD.AperFunction*
G04 #@! TA.AperFunction,SMDPad,CuDef*
G36*
G01*
X180070999Y-90104000D02*
X181371001Y-90104000D01*
G75*
G02*
X181621000Y-90353999I0J-249999D01*
G01*
X181621000Y-91179001D01*
G75*
G02*
X181371001Y-91429000I-249999J0D01*
G01*
X180070999Y-91429000D01*
G75*
G02*
X179821000Y-91179001I0J249999D01*
G01*
X179821000Y-90353999D01*
G75*
G02*
X180070999Y-90104000I249999J0D01*
G01*
G37*
G04 #@! TD.AperFunction*
G04 #@! TA.AperFunction,SMDPad,CuDef*
G36*
G01*
X190057000Y-50461000D02*
X190057000Y-49361000D01*
G75*
G02*
X190307000Y-49111000I250000J0D01*
G01*
X192807000Y-49111000D01*
G75*
G02*
X193057000Y-49361000I0J-250000D01*
G01*
X193057000Y-50461000D01*
G75*
G02*
X192807000Y-50711000I-250000J0D01*
G01*
X190307000Y-50711000D01*
G75*
G02*
X190057000Y-50461000I0J250000D01*
G01*
G37*
G04 #@! TD.AperFunction*
G04 #@! TA.AperFunction,SMDPad,CuDef*
G36*
G01*
X185657000Y-50461000D02*
X185657000Y-49361000D01*
G75*
G02*
X185907000Y-49111000I250000J0D01*
G01*
X188407000Y-49111000D01*
G75*
G02*
X188657000Y-49361000I0J-250000D01*
G01*
X188657000Y-50461000D01*
G75*
G02*
X188407000Y-50711000I-250000J0D01*
G01*
X185907000Y-50711000D01*
G75*
G02*
X185657000Y-50461000I0J250000D01*
G01*
G37*
G04 #@! TD.AperFunction*
G04 #@! TA.AperFunction,SMDPad,CuDef*
G36*
G01*
X75961001Y-61965000D02*
X74660999Y-61965000D01*
G75*
G02*
X74411000Y-61715001I0J249999D01*
G01*
X74411000Y-60889999D01*
G75*
G02*
X74660999Y-60640000I249999J0D01*
G01*
X75961001Y-60640000D01*
G75*
G02*
X76211000Y-60889999I0J-249999D01*
G01*
X76211000Y-61715001D01*
G75*
G02*
X75961001Y-61965000I-249999J0D01*
G01*
G37*
G04 #@! TD.AperFunction*
G04 #@! TA.AperFunction,SMDPad,CuDef*
G36*
G01*
X75961001Y-65090000D02*
X74660999Y-65090000D01*
G75*
G02*
X74411000Y-64840001I0J249999D01*
G01*
X74411000Y-64014999D01*
G75*
G02*
X74660999Y-63765000I249999J0D01*
G01*
X75961001Y-63765000D01*
G75*
G02*
X76211000Y-64014999I0J-249999D01*
G01*
X76211000Y-64840001D01*
G75*
G02*
X75961001Y-65090000I-249999J0D01*
G01*
G37*
G04 #@! TD.AperFunction*
G04 #@! TA.AperFunction,SMDPad,CuDef*
G36*
G01*
X73268000Y-50784999D02*
X73268000Y-52085001D01*
G75*
G02*
X73018001Y-52335000I-249999J0D01*
G01*
X72192999Y-52335000D01*
G75*
G02*
X71943000Y-52085001I0J249999D01*
G01*
X71943000Y-50784999D01*
G75*
G02*
X72192999Y-50535000I249999J0D01*
G01*
X73018001Y-50535000D01*
G75*
G02*
X73268000Y-50784999I0J-249999D01*
G01*
G37*
G04 #@! TD.AperFunction*
G04 #@! TA.AperFunction,SMDPad,CuDef*
G36*
G01*
X76393000Y-50784999D02*
X76393000Y-52085001D01*
G75*
G02*
X76143001Y-52335000I-249999J0D01*
G01*
X75317999Y-52335000D01*
G75*
G02*
X75068000Y-52085001I0J249999D01*
G01*
X75068000Y-50784999D01*
G75*
G02*
X75317999Y-50535000I249999J0D01*
G01*
X76143001Y-50535000D01*
G75*
G02*
X76393000Y-50784999I0J-249999D01*
G01*
G37*
G04 #@! TD.AperFunction*
G04 #@! TA.AperFunction,SMDPad,CuDef*
G36*
G01*
X187944999Y-107834000D02*
X189245001Y-107834000D01*
G75*
G02*
X189495000Y-108083999I0J-249999D01*
G01*
X189495000Y-108909001D01*
G75*
G02*
X189245001Y-109159000I-249999J0D01*
G01*
X187944999Y-109159000D01*
G75*
G02*
X187695000Y-108909001I0J249999D01*
G01*
X187695000Y-108083999D01*
G75*
G02*
X187944999Y-107834000I249999J0D01*
G01*
G37*
G04 #@! TD.AperFunction*
G04 #@! TA.AperFunction,SMDPad,CuDef*
G36*
G01*
X187944999Y-104709000D02*
X189245001Y-104709000D01*
G75*
G02*
X189495000Y-104958999I0J-249999D01*
G01*
X189495000Y-105784001D01*
G75*
G02*
X189245001Y-106034000I-249999J0D01*
G01*
X187944999Y-106034000D01*
G75*
G02*
X187695000Y-105784001I0J249999D01*
G01*
X187695000Y-104958999D01*
G75*
G02*
X187944999Y-104709000I249999J0D01*
G01*
G37*
G04 #@! TD.AperFunction*
G04 #@! TA.AperFunction,SMDPad,CuDef*
G36*
G01*
X178546999Y-107834000D02*
X179847001Y-107834000D01*
G75*
G02*
X180097000Y-108083999I0J-249999D01*
G01*
X180097000Y-108909001D01*
G75*
G02*
X179847001Y-109159000I-249999J0D01*
G01*
X178546999Y-109159000D01*
G75*
G02*
X178297000Y-108909001I0J249999D01*
G01*
X178297000Y-108083999D01*
G75*
G02*
X178546999Y-107834000I249999J0D01*
G01*
G37*
G04 #@! TD.AperFunction*
G04 #@! TA.AperFunction,SMDPad,CuDef*
G36*
G01*
X178546999Y-104709000D02*
X179847001Y-104709000D01*
G75*
G02*
X180097000Y-104958999I0J-249999D01*
G01*
X180097000Y-105784001D01*
G75*
G02*
X179847001Y-106034000I-249999J0D01*
G01*
X178546999Y-106034000D01*
G75*
G02*
X178297000Y-105784001I0J249999D01*
G01*
X178297000Y-104958999D01*
G75*
G02*
X178546999Y-104709000I249999J0D01*
G01*
G37*
G04 #@! TD.AperFunction*
D30*
X47500000Y-40000000D03*
X47500000Y-130000000D03*
X192500000Y-130000000D03*
X192500000Y-40000000D03*
D31*
X84074000Y-65405000D03*
X79502000Y-64516000D03*
X87122000Y-69088000D03*
X116109750Y-55213250D03*
X112966500Y-66929000D03*
X106870500Y-65659000D03*
X95631000Y-58547000D03*
X94234000Y-53975000D03*
X79756000Y-52641500D03*
X74104500Y-61277500D03*
X71374000Y-51435000D03*
X58928000Y-49911000D03*
X54650000Y-64389000D03*
X77025500Y-69088000D03*
X94869000Y-65024000D03*
X100647500Y-65405000D03*
X152908000Y-73533000D03*
X131000500Y-59055000D03*
X127903000Y-59069000D03*
X128587500Y-63627000D03*
X152336500Y-52451000D03*
X155956000Y-52451000D03*
X170815000Y-50038000D03*
X170815000Y-46101000D03*
X177228500Y-51625500D03*
X193548000Y-49911000D03*
X189611000Y-49911000D03*
X187706000Y-100203000D03*
X175958500Y-92329000D03*
X175958500Y-96393000D03*
X180721000Y-94996000D03*
X179197000Y-106616500D03*
X188595000Y-106616500D03*
X177609500Y-122047000D03*
X83312000Y-68961000D03*
X77216000Y-51435000D03*
X75311000Y-63500000D03*
X98044000Y-65405000D03*
X89916000Y-69469000D03*
X98044000Y-57023000D03*
X123952000Y-66421000D03*
X68580000Y-120650000D03*
X172212000Y-120650000D03*
X159702500Y-120650000D03*
X144462500Y-120650000D03*
X129413000Y-120650000D03*
X114109500Y-120650000D03*
X98869500Y-120650000D03*
X83629500Y-120650000D03*
X149098000Y-66929000D03*
X107061000Y-66929000D03*
X179070000Y-45339000D03*
X179070000Y-48641000D03*
X180657500Y-55880000D03*
X85725000Y-65405000D03*
X99441000Y-49911000D03*
X94996000Y-50673000D03*
X99441000Y-49149000D03*
X94996000Y-49911000D03*
X99441000Y-48387000D03*
X90464000Y-65410000D03*
X92750000Y-66934000D03*
X90464000Y-64648000D03*
X93512000Y-66934000D03*
X80264000Y-63119000D03*
X184277000Y-89281000D03*
X176276000Y-75946000D03*
X182880000Y-75501500D03*
X80264000Y-63881000D03*
X186055000Y-90678000D03*
X176276000Y-76835000D03*
X182880000Y-76454000D03*
X80899000Y-57785000D03*
X64770000Y-57785000D03*
X80010000Y-58547000D03*
X65405000Y-58547000D03*
X80899000Y-55245000D03*
X64770000Y-55245000D03*
X80010000Y-55880000D03*
X65405000Y-55880000D03*
X97663000Y-68453000D03*
X86995000Y-64135000D03*
X98425000Y-68072000D03*
X87757000Y-63500000D03*
X50482500Y-76898500D03*
X67310000Y-66294000D03*
X50673000Y-77724000D03*
X67945000Y-67056000D03*
X51689000Y-77597000D03*
X68580000Y-66294000D03*
X51689000Y-78740000D03*
X69215000Y-67056000D03*
X52705000Y-78486000D03*
X69850000Y-66294000D03*
X52705000Y-79502000D03*
X70485000Y-67056000D03*
X53721000Y-79375000D03*
X71120000Y-66294000D03*
X53848000Y-80391000D03*
X71755000Y-67056000D03*
X79248000Y-56515000D03*
X66040000Y-56515000D03*
X80010000Y-57150000D03*
X65405000Y-57150000D03*
X79248000Y-53975000D03*
X66040000Y-53975000D03*
X80010000Y-54610000D03*
X65405000Y-54610000D03*
X97028000Y-68961000D03*
X86360000Y-64770000D03*
D32*
X181991000Y-108458000D02*
X179070000Y-108458000D01*
X182626000Y-101662000D02*
X182626000Y-103124000D01*
X182626000Y-103124000D02*
X183388000Y-103886000D01*
X183388000Y-103886000D02*
X183388000Y-108077000D01*
X183388000Y-108077000D02*
X183007000Y-108458000D01*
X183007000Y-108458000D02*
X181610000Y-108458000D01*
X88257000Y-66862000D02*
X88257000Y-69334000D01*
X88757000Y-66862000D02*
X88757000Y-67770500D01*
X88757000Y-67770500D02*
X88519000Y-68008500D01*
X88519000Y-68008500D02*
X88519000Y-69151500D01*
D33*
X92646500Y-70929500D02*
X93281500Y-70294500D01*
X88773000Y-70929500D02*
X92646500Y-70929500D01*
X93281500Y-70294500D02*
X93599000Y-70294500D01*
X88353500Y-70510000D02*
X88773000Y-70929500D01*
X88353500Y-69088000D02*
X88353500Y-70510000D01*
D32*
X84074000Y-65405000D02*
X83757000Y-65722000D01*
X83757000Y-65722000D02*
X83757000Y-66862000D01*
X78911000Y-64687000D02*
X77582000Y-64687000D01*
X79082000Y-64516000D02*
X78911000Y-64687000D01*
X79502000Y-64516000D02*
X79082000Y-64516000D01*
D33*
X88353500Y-69088000D02*
X87122000Y-69088000D01*
X114545000Y-55504000D02*
X115819000Y-55504000D01*
X115819000Y-55504000D02*
X116109750Y-55213250D01*
X116109750Y-55213250D02*
X117030500Y-54292500D01*
X112971500Y-66934000D02*
X112966500Y-66929000D01*
X114545000Y-66934000D02*
X112971500Y-66934000D01*
X106865500Y-65664000D02*
X106870500Y-65659000D01*
X105245000Y-65664000D02*
X106865500Y-65664000D01*
X95631000Y-57442500D02*
X95631000Y-58547000D01*
D32*
X93946000Y-53687000D02*
X94234000Y-53975000D01*
X92932000Y-53687000D02*
X93946000Y-53687000D01*
X79757000Y-52640500D02*
X79756000Y-52641500D01*
X79757000Y-51512000D02*
X79757000Y-52640500D01*
D33*
X74079500Y-61302500D02*
X74104500Y-61277500D01*
X75311000Y-61302500D02*
X74079500Y-61302500D01*
X74079500Y-61302500D02*
X72923000Y-61302500D01*
X72605500Y-51435000D02*
X71374000Y-51435000D01*
X58928000Y-48743000D02*
X58928000Y-49911000D01*
X54650000Y-65840000D02*
X54650000Y-64389000D01*
X76581000Y-69532500D02*
X76581000Y-70485000D01*
X77152500Y-68961000D02*
X77025500Y-69088000D01*
X78701500Y-68961000D02*
X77152500Y-68961000D01*
X77025500Y-69088000D02*
X76581000Y-69532500D01*
D32*
X94532000Y-64687000D02*
X94869000Y-65024000D01*
X92932000Y-64687000D02*
X94532000Y-64687000D01*
D33*
X99606500Y-65405000D02*
X100647500Y-65405000D01*
D34*
X152313000Y-72938000D02*
X152313000Y-70936000D01*
X153583000Y-75886000D02*
X153583000Y-74208000D01*
X153583000Y-75886000D02*
X153583000Y-77319500D01*
X153583000Y-77319500D02*
X153733500Y-77470000D01*
X153733500Y-77470000D02*
X154749500Y-77470000D01*
X154749500Y-77470000D02*
X154813000Y-77406500D01*
X154813000Y-77406500D02*
X154813000Y-75882500D01*
X153583000Y-74208000D02*
X152908000Y-73533000D01*
X152908000Y-73533000D02*
X152313000Y-72938000D01*
D33*
X130986500Y-59069000D02*
X131000500Y-59055000D01*
X129388000Y-59069000D02*
X130986500Y-59069000D01*
X129388000Y-59069000D02*
X127903000Y-59069000D01*
X128565000Y-63649500D02*
X128587500Y-63627000D01*
X128565000Y-64897000D02*
X128565000Y-63649500D01*
X154182000Y-52451000D02*
X152336500Y-52451000D01*
X154182000Y-52451000D02*
X155956000Y-52451000D01*
X170815000Y-48047000D02*
X170815000Y-50038000D01*
X170815000Y-48047000D02*
X170815000Y-46101000D01*
X176770000Y-51167000D02*
X176770000Y-49886000D01*
X177507500Y-53340000D02*
X177507500Y-51904500D01*
X177507500Y-51904500D02*
X177228500Y-51625500D01*
X177228500Y-51625500D02*
X176770000Y-51167000D01*
X191557000Y-49911000D02*
X193548000Y-49911000D01*
X191557000Y-49911000D02*
X189611000Y-49911000D01*
X187706000Y-101662000D02*
X187706000Y-100203000D01*
X175958500Y-94338500D02*
X175958500Y-92329000D01*
X175958500Y-94338500D02*
X175958500Y-96393000D01*
X180721000Y-93891500D02*
X180721000Y-94996000D01*
X179197000Y-105371500D02*
X179197000Y-106616500D01*
X188595000Y-105371500D02*
X188595000Y-106616500D01*
X177609500Y-123151500D02*
X177609500Y-122047000D01*
X136311000Y-61600000D02*
X130180000Y-61600000D01*
X130180000Y-61600000D02*
X129286000Y-60706000D01*
X129286000Y-60706000D02*
X129286000Y-59182000D01*
D32*
X185928000Y-108484000D02*
X188696000Y-108484000D01*
X184594500Y-107251500D02*
X185864500Y-108521500D01*
X184594500Y-104648000D02*
X184594500Y-107251500D01*
X185801000Y-103441500D02*
X184594500Y-104648000D01*
X185801000Y-98742500D02*
X185801000Y-103441500D01*
X186436000Y-98107500D02*
X185801000Y-98742500D01*
X186436000Y-96712000D02*
X186436000Y-98107500D01*
D34*
X55920000Y-88270000D02*
X59857000Y-88270000D01*
X59857000Y-88270000D02*
X61508000Y-89921000D01*
X71160000Y-89794000D02*
X71033000Y-89921000D01*
X71160000Y-88270000D02*
X71160000Y-89794000D01*
X61508000Y-89921000D02*
X71033000Y-89921000D01*
X86400000Y-88270000D02*
X86400000Y-89921000D01*
X71033000Y-89921000D02*
X86400000Y-89921000D01*
X101640000Y-88270000D02*
X101640000Y-89921000D01*
X86400000Y-89921000D02*
X101640000Y-89921000D01*
X116880000Y-89794000D02*
X116753000Y-89921000D01*
X116880000Y-88270000D02*
X116880000Y-89794000D01*
X101640000Y-89921000D02*
X116753000Y-89921000D01*
X132120000Y-88270000D02*
X132120000Y-89921000D01*
X116753000Y-89921000D02*
X132120000Y-89921000D01*
X147360000Y-89794000D02*
X147487000Y-89921000D01*
X147360000Y-88270000D02*
X147360000Y-89794000D01*
X132120000Y-89921000D02*
X147487000Y-89921000D01*
D33*
X149098000Y-71348000D02*
X149098000Y-66929000D01*
X149098000Y-66929000D02*
X149606000Y-66421000D01*
X149606000Y-66421000D02*
X154305000Y-66421000D01*
X154305000Y-66421000D02*
X154813000Y-66929000D01*
X154813000Y-66929000D02*
X154813000Y-71374000D01*
D34*
X81757000Y-66862000D02*
X81757000Y-65501000D01*
X81443000Y-65187000D02*
X81757000Y-65501000D01*
X77582000Y-65187000D02*
X81443000Y-65187000D01*
X81757000Y-68041000D02*
X81757000Y-66862000D01*
X81757000Y-68041000D02*
X81757000Y-69057000D01*
X84257000Y-68397000D02*
X83693000Y-68961000D01*
X84257000Y-66862000D02*
X84257000Y-68397000D01*
X75565000Y-64389000D02*
X75311000Y-64389000D01*
X76363000Y-65187000D02*
X75565000Y-64389000D01*
X77582000Y-65187000D02*
X76363000Y-65187000D01*
X92932000Y-53187000D02*
X94462000Y-53187000D01*
X94462000Y-53187000D02*
X95631000Y-54356000D01*
X96647000Y-65278000D02*
X96647000Y-65405000D01*
X95556000Y-64187000D02*
X96647000Y-65278000D01*
X92932000Y-64187000D02*
X95556000Y-64187000D01*
D33*
X96481500Y-65405000D02*
X96481500Y-65620500D01*
D34*
X90805000Y-68199000D02*
X91440000Y-68834000D01*
D32*
X89757000Y-66008000D02*
X89757000Y-66862000D01*
X89662000Y-65913000D02*
X89757000Y-66008000D01*
X89344500Y-65913000D02*
X89662000Y-65913000D01*
X89257000Y-66000500D02*
X89344500Y-65913000D01*
X89257000Y-66862000D02*
X89257000Y-66000500D01*
D34*
X89757000Y-66862000D02*
X89757000Y-67913000D01*
X89757000Y-67913000D02*
X89979500Y-68135500D01*
X90741500Y-68135500D02*
X90805000Y-68199000D01*
X89979500Y-68135500D02*
X90741500Y-68135500D01*
X147487000Y-89921000D02*
X160523000Y-89921000D01*
X160523000Y-89921000D02*
X160949000Y-89921000D01*
X184277000Y-86995000D02*
X184277000Y-78105000D01*
X83693000Y-68961000D02*
X83312000Y-68961000D01*
X83312000Y-68961000D02*
X81788000Y-68961000D01*
X75730500Y-51435000D02*
X77216000Y-51435000D01*
X77216000Y-51435000D02*
X79121000Y-51435000D01*
D33*
X75311000Y-63500000D02*
X75311000Y-64389000D01*
X96481500Y-65405000D02*
X98044000Y-65405000D01*
X90678000Y-69088000D02*
X90297000Y-69469000D01*
X90297000Y-69469000D02*
X89916000Y-69469000D01*
X91478500Y-69088000D02*
X90678000Y-69088000D01*
X98044000Y-56769000D02*
X95631000Y-54356000D01*
X98044000Y-57023000D02*
X98044000Y-56769000D01*
X123952000Y-66421000D02*
X123952000Y-64897000D01*
X123952000Y-64897000D02*
X123952000Y-61595000D01*
X123952000Y-61595000D02*
X123063000Y-60706000D01*
X123063000Y-60706000D02*
X123063000Y-56515000D01*
D32*
X67082000Y-120650000D02*
X68580000Y-120650000D01*
X185928000Y-126264000D02*
X175730500Y-126264000D01*
X175730500Y-126264000D02*
X174879000Y-125412500D01*
X174879000Y-125412500D02*
X174879000Y-121793000D01*
X173736000Y-120650000D02*
X174879000Y-121793000D01*
X172212000Y-120650000D02*
X173736000Y-120650000D01*
X158395000Y-120650000D02*
X159702500Y-120650000D01*
X143155000Y-120650000D02*
X144462500Y-120650000D01*
X128042000Y-120650000D02*
X129413000Y-120650000D01*
X112802000Y-120650000D02*
X114109500Y-120650000D01*
X97562000Y-120650000D02*
X98869500Y-120650000D01*
X82322000Y-120650000D02*
X83629500Y-120650000D01*
D34*
X184150000Y-57721500D02*
X184150000Y-78232000D01*
X183388000Y-56959500D02*
X184150000Y-57721500D01*
X147701000Y-56134000D02*
X148526500Y-56959500D01*
X147701000Y-52705000D02*
X147701000Y-56134000D01*
X148526500Y-56959500D02*
X183388000Y-56959500D01*
X147066000Y-52070000D02*
X147701000Y-52705000D01*
X132143500Y-52451000D02*
X132524500Y-52070000D01*
X132143500Y-56007000D02*
X132143500Y-52451000D01*
X131381500Y-56769000D02*
X132143500Y-56007000D01*
X132524500Y-52070000D02*
X147066000Y-52070000D01*
X123088000Y-56769000D02*
X131381500Y-56769000D01*
X162600000Y-89759000D02*
X162438000Y-89921000D01*
X162600000Y-88270000D02*
X162600000Y-89759000D01*
X160523000Y-89921000D02*
X162438000Y-89921000D01*
X175890000Y-89921000D02*
X175895000Y-89916000D01*
X162438000Y-89921000D02*
X175890000Y-89921000D01*
X175958500Y-89938500D02*
X177759000Y-89938500D01*
X177759000Y-89938500D02*
X178625500Y-90805000D01*
X178625500Y-90805000D02*
X180911500Y-90805000D01*
X180911500Y-90805000D02*
X184213500Y-87503000D01*
X184213500Y-87503000D02*
X184213500Y-86804500D01*
X180086000Y-96712000D02*
X180086000Y-95948500D01*
X178625500Y-94488000D02*
X178625500Y-90805000D01*
X180086000Y-95948500D02*
X178625500Y-94488000D01*
X173635000Y-120650000D02*
X174879000Y-119406000D01*
X174879000Y-119406000D02*
X174879000Y-112077500D01*
X174879000Y-112077500D02*
X176403000Y-110553500D01*
X176403000Y-110553500D02*
X176403000Y-100457000D01*
X176403000Y-100457000D02*
X177355500Y-99504500D01*
X177355500Y-99504500D02*
X179133500Y-99504500D01*
X179133500Y-99504500D02*
X180086000Y-98552000D01*
X180086000Y-98552000D02*
X180086000Y-96520000D01*
X123063000Y-56197500D02*
X123063000Y-56832500D01*
X121057000Y-54191500D02*
X123063000Y-56197500D01*
X120713500Y-54191500D02*
X121057000Y-54191500D01*
D33*
X188595000Y-62866000D02*
X189103000Y-62358000D01*
X189103000Y-62358000D02*
X189103000Y-51181000D01*
X189103000Y-51181000D02*
X187833000Y-49911000D01*
X187833000Y-49911000D02*
X181356000Y-49911000D01*
X148844000Y-51689000D02*
X148844000Y-55118000D01*
X148209000Y-51054000D02*
X148844000Y-51689000D01*
X130048000Y-51054000D02*
X148209000Y-51054000D01*
X148844000Y-55118000D02*
X149479000Y-55753000D01*
X129388000Y-51714000D02*
X130048000Y-51054000D01*
X129388000Y-54469000D02*
X129388000Y-51714000D01*
X181370000Y-49886000D02*
X181370000Y-48401000D01*
X181370000Y-48401000D02*
X180594000Y-47625000D01*
X180594000Y-47625000D02*
X173609000Y-47625000D01*
X173609000Y-47625000D02*
X172974000Y-48260000D01*
X172974000Y-54991000D02*
X172212000Y-55753000D01*
X172974000Y-48260000D02*
X172974000Y-54991000D01*
X149479000Y-55753000D02*
X172212000Y-55753000D01*
X147360000Y-82428000D02*
X147487000Y-82555000D01*
X147360000Y-80650000D02*
X147360000Y-82428000D01*
X132120000Y-80650000D02*
X132120000Y-82428000D01*
X132120000Y-82428000D02*
X132247000Y-82555000D01*
X132247000Y-82555000D02*
X147487000Y-82555000D01*
X116880000Y-82428000D02*
X116753000Y-82555000D01*
X116880000Y-80650000D02*
X116880000Y-82428000D01*
X116753000Y-82555000D02*
X132247000Y-82555000D01*
X101640000Y-80650000D02*
X101640000Y-82555000D01*
X101640000Y-82555000D02*
X116753000Y-82555000D01*
X86400000Y-82428000D02*
X86273000Y-82555000D01*
X86400000Y-80650000D02*
X86400000Y-82428000D01*
X86273000Y-82555000D02*
X101640000Y-82555000D01*
X71160000Y-82301000D02*
X70906000Y-82555000D01*
X71160000Y-80650000D02*
X71160000Y-82301000D01*
X70906000Y-82555000D02*
X86273000Y-82555000D01*
X159171000Y-80650000D02*
X162600000Y-80650000D01*
X157266000Y-82555000D02*
X159171000Y-80650000D01*
X147487000Y-82555000D02*
X157266000Y-82555000D01*
X61381000Y-82555000D02*
X70906000Y-82555000D01*
X59476000Y-80650000D02*
X61381000Y-82555000D01*
X55920000Y-80650000D02*
X59476000Y-80650000D01*
X55920000Y-80431000D02*
X53467000Y-77978000D01*
X55920000Y-80650000D02*
X55920000Y-80431000D01*
X58968000Y-43058000D02*
X58968000Y-45426000D01*
X58968000Y-45426000D02*
X58039000Y-46355000D01*
X54356000Y-46355000D02*
X53467000Y-47244000D01*
X58039000Y-46355000D02*
X54356000Y-46355000D01*
X53467000Y-77978000D02*
X53467000Y-47244000D01*
X164639000Y-43688000D02*
X179070000Y-43688000D01*
X179070000Y-49886000D02*
X179070000Y-51562000D01*
X179070000Y-51562000D02*
X180594000Y-53086000D01*
D34*
X107056000Y-66934000D02*
X107061000Y-66929000D01*
X105245000Y-66934000D02*
X107056000Y-66934000D01*
D33*
X179070000Y-43586000D02*
X179070000Y-45339000D01*
X179070000Y-48641000D02*
X179070000Y-49720500D01*
X180657500Y-55880000D02*
X180657500Y-53340000D01*
D32*
X85757000Y-66862000D02*
X85757000Y-65405000D01*
X150749000Y-49911000D02*
X151003000Y-50165000D01*
X123317000Y-49911000D02*
X150749000Y-49911000D01*
X122110500Y-51117500D02*
X123317000Y-49911000D01*
X115189000Y-51117500D02*
X122110500Y-51117500D01*
X113982500Y-49911000D02*
X115189000Y-51117500D01*
X99441000Y-49911000D02*
X113982500Y-49911000D01*
X84757000Y-66862000D02*
X84757000Y-70609000D01*
X84757000Y-70609000D02*
X83352000Y-72014000D01*
X83352000Y-72014000D02*
X80558000Y-72014000D01*
X80753000Y-71887000D02*
X79542000Y-71887000D01*
X79542000Y-71887000D02*
X77891000Y-73538000D01*
X77891000Y-73538000D02*
X76494000Y-73538000D01*
X85257000Y-66862000D02*
X85257000Y-70744000D01*
X85257000Y-70744000D02*
X86527000Y-72014000D01*
X86527000Y-72014000D02*
X89194000Y-72014000D01*
X92115000Y-73538000D02*
X93385000Y-73538000D01*
X90464000Y-71887000D02*
X92115000Y-73538000D01*
X89253000Y-71887000D02*
X90464000Y-71887000D01*
X167347000Y-72714000D02*
X174441000Y-72714000D01*
X174441000Y-72714000D02*
X175514000Y-73787000D01*
X175514000Y-73787000D02*
X175514000Y-77343000D01*
X175514000Y-77343000D02*
X176276000Y-78105000D01*
X176276000Y-78105000D02*
X181102000Y-78105000D01*
X167347000Y-73514000D02*
X174098000Y-73514000D01*
X174098000Y-73514000D02*
X174752000Y-74168000D01*
X174752000Y-74168000D02*
X174752000Y-81788000D01*
X174752000Y-81788000D02*
X175641000Y-82677000D01*
X175641000Y-82677000D02*
X181229000Y-82677000D01*
X175260000Y-86995000D02*
X181265500Y-86995000D01*
X173990000Y-85725000D02*
X175260000Y-86995000D01*
X173990000Y-74803000D02*
X173990000Y-85725000D01*
X173501000Y-74314000D02*
X173990000Y-74803000D01*
X167347000Y-74314000D02*
X173501000Y-74314000D01*
X162139000Y-53688000D02*
X157828000Y-53688000D01*
X157828000Y-53688000D02*
X156591000Y-52451000D01*
X156591000Y-52451000D02*
X156591000Y-42291000D01*
X156591000Y-42291000D02*
X155067000Y-40767000D01*
X155067000Y-40767000D02*
X62230000Y-40767000D01*
X62230000Y-40767000D02*
X61468000Y-41529000D01*
X61468000Y-41529000D02*
X61468000Y-43180000D01*
D34*
X55920000Y-98430000D02*
X59222000Y-98430000D01*
X63540000Y-101605000D02*
X63540000Y-107447000D01*
X65445000Y-99700000D02*
X63540000Y-101605000D01*
X65445000Y-97414000D02*
X65445000Y-99700000D01*
X64429000Y-96398000D02*
X65445000Y-97414000D01*
X61254000Y-96398000D02*
X64429000Y-96398000D01*
X59222000Y-98430000D02*
X61254000Y-96398000D01*
X63540000Y-107320000D02*
X63540000Y-112527000D01*
X63540000Y-98430000D02*
X61000000Y-100970000D01*
X61000000Y-100970000D02*
X61000000Y-107447000D01*
X61000000Y-107320000D02*
X61000000Y-112527000D01*
X71160000Y-98430000D02*
X74462000Y-98430000D01*
X74462000Y-98430000D02*
X76494000Y-96398000D01*
X79669000Y-96398000D02*
X80685000Y-97414000D01*
X80685000Y-99700000D02*
X78780000Y-101605000D01*
X80685000Y-97414000D02*
X80685000Y-99700000D01*
X78780000Y-101605000D02*
X78780000Y-107447000D01*
X76494000Y-96398000D02*
X79669000Y-96398000D01*
X78780000Y-107320000D02*
X78780000Y-112400000D01*
X78780000Y-98430000D02*
X76240000Y-100970000D01*
X76240000Y-100970000D02*
X76240000Y-107447000D01*
X76240000Y-107447000D02*
X76240000Y-107320000D01*
X76240000Y-107320000D02*
X76240000Y-112527000D01*
D33*
X188595000Y-66866000D02*
X189674000Y-66866000D01*
X189674000Y-66866000D02*
X190627000Y-65913000D01*
X190627000Y-65913000D02*
X190627000Y-59817000D01*
X190627000Y-59817000D02*
X191516000Y-58928000D01*
X191516000Y-58928000D02*
X191516000Y-56515000D01*
D32*
X77582000Y-53187000D02*
X91212000Y-53187000D01*
X93726000Y-50673000D02*
X94996000Y-50673000D01*
X91212000Y-53187000D02*
X93726000Y-50673000D01*
X154051000Y-47371000D02*
X154305000Y-47625000D01*
X132080000Y-47371000D02*
X154051000Y-47371000D01*
X130302000Y-49149000D02*
X132080000Y-47371000D01*
X99441000Y-49149000D02*
X130302000Y-49149000D01*
X80757000Y-51512000D02*
X80757000Y-50307000D01*
X80757000Y-50307000D02*
X80757000Y-50180000D01*
X80757000Y-50180000D02*
X81026000Y-49911000D01*
X81026000Y-49911000D02*
X94996000Y-49911000D01*
X150622000Y-44831000D02*
X150876000Y-45085000D01*
X132969000Y-44831000D02*
X150622000Y-44831000D01*
X129413000Y-48387000D02*
X132969000Y-44831000D01*
X99441000Y-48387000D02*
X129413000Y-48387000D01*
D34*
X86400000Y-98430000D02*
X89702000Y-98430000D01*
X89702000Y-98430000D02*
X91734000Y-96398000D01*
X94909000Y-96398000D02*
X95925000Y-97414000D01*
X95925000Y-99700000D02*
X94020000Y-101605000D01*
X95925000Y-97414000D02*
X95925000Y-99700000D01*
X94020000Y-101605000D02*
X94020000Y-107447000D01*
X91734000Y-96398000D02*
X94909000Y-96398000D01*
X94020000Y-107320000D02*
X94020000Y-112400000D01*
X94020000Y-98430000D02*
X91480000Y-100970000D01*
X91480000Y-100970000D02*
X91480000Y-107320000D01*
X91480000Y-107320000D02*
X91480000Y-112527000D01*
X101640000Y-98430000D02*
X104942000Y-98430000D01*
X104942000Y-98430000D02*
X106974000Y-96398000D01*
X110149000Y-96398000D02*
X111165000Y-97414000D01*
X111165000Y-99700000D02*
X109260000Y-101605000D01*
X111165000Y-97414000D02*
X111165000Y-99700000D01*
X109260000Y-101605000D02*
X109260000Y-107447000D01*
X106974000Y-96398000D02*
X110149000Y-96398000D01*
X109260000Y-107320000D02*
X109260000Y-112400000D01*
X109260000Y-98430000D02*
X106720000Y-100970000D01*
X106720000Y-100970000D02*
X106720000Y-107320000D01*
X106720000Y-107320000D02*
X106720000Y-112527000D01*
X116880000Y-98430000D02*
X120182000Y-98430000D01*
X120182000Y-98430000D02*
X122214000Y-96398000D01*
X125389000Y-96398000D02*
X126405000Y-97414000D01*
X126405000Y-99700000D02*
X124500000Y-101605000D01*
X126405000Y-97414000D02*
X126405000Y-99700000D01*
X124500000Y-101605000D02*
X124500000Y-107447000D01*
X122214000Y-96398000D02*
X125389000Y-96398000D01*
X124500000Y-107320000D02*
X124500000Y-112400000D01*
X124500000Y-98430000D02*
X121960000Y-100970000D01*
X121960000Y-100970000D02*
X121960000Y-107320000D01*
X121960000Y-107320000D02*
X121960000Y-112400000D01*
X132120000Y-98430000D02*
X135422000Y-98430000D01*
X135422000Y-98430000D02*
X137454000Y-96398000D01*
X140629000Y-96398000D02*
X141645000Y-97414000D01*
X141645000Y-99700000D02*
X139740000Y-101605000D01*
X141645000Y-97414000D02*
X141645000Y-99700000D01*
X139740000Y-101605000D02*
X139740000Y-107447000D01*
X137454000Y-96398000D02*
X140629000Y-96398000D01*
X139740000Y-107320000D02*
X139740000Y-112400000D01*
X139740000Y-98430000D02*
X137200000Y-100970000D01*
X137200000Y-100970000D02*
X137200000Y-107447000D01*
X137200000Y-107320000D02*
X137200000Y-112654000D01*
X147360000Y-98430000D02*
X150662000Y-98430000D01*
X150662000Y-98430000D02*
X152694000Y-96398000D01*
X155869000Y-96398000D02*
X156885000Y-97414000D01*
X156885000Y-99700000D02*
X154980000Y-101605000D01*
X156885000Y-97414000D02*
X156885000Y-99700000D01*
X154980000Y-101605000D02*
X154980000Y-107447000D01*
X152694000Y-96398000D02*
X155869000Y-96398000D01*
X154980000Y-107320000D02*
X154980000Y-112400000D01*
X154980000Y-98430000D02*
X152440000Y-100970000D01*
X152440000Y-100970000D02*
X152440000Y-107320000D01*
X152440000Y-107320000D02*
X152440000Y-112400000D01*
X162600000Y-98430000D02*
X165902000Y-98430000D01*
X165902000Y-98430000D02*
X167934000Y-96398000D01*
X171109000Y-96398000D02*
X172125000Y-97414000D01*
X172125000Y-99700000D02*
X170220000Y-101605000D01*
X172125000Y-97414000D02*
X172125000Y-99700000D01*
X170220000Y-101605000D02*
X170220000Y-107447000D01*
X167934000Y-96398000D02*
X171109000Y-96398000D01*
X170220000Y-107320000D02*
X170220000Y-112400000D01*
X170220000Y-98430000D02*
X167680000Y-100970000D01*
X167680000Y-100970000D02*
X167680000Y-112654000D01*
D32*
X89448000Y-65410000D02*
X90464000Y-65410000D01*
X89067000Y-65029000D02*
X89448000Y-65410000D01*
X89067000Y-62108000D02*
X89067000Y-65029000D01*
X88646000Y-61687000D02*
X89067000Y-62108000D01*
X77582000Y-61687000D02*
X88646000Y-61687000D01*
X145582000Y-69220000D02*
X143804000Y-69220000D01*
X146217000Y-69855000D02*
X145582000Y-69220000D01*
X146217000Y-73157000D02*
X146217000Y-69855000D01*
X147609000Y-74549000D02*
X146217000Y-73157000D01*
X150749000Y-74549000D02*
X147609000Y-74549000D01*
X151043000Y-74843000D02*
X150749000Y-74549000D01*
X151043000Y-75886000D02*
X151043000Y-74843000D01*
X129667000Y-70866000D02*
X130048000Y-71247000D01*
X122301000Y-70866000D02*
X129667000Y-70866000D01*
X121793000Y-73279000D02*
X121793000Y-71374000D01*
X121793000Y-71374000D02*
X122301000Y-70866000D01*
X95631000Y-73152000D02*
X96266000Y-73787000D01*
X96266000Y-73787000D02*
X121285000Y-73787000D01*
X95631000Y-69469000D02*
X95631000Y-73152000D01*
X121285000Y-73787000D02*
X121793000Y-73279000D01*
X94874000Y-68712000D02*
X95631000Y-69469000D01*
X93131000Y-68712000D02*
X94874000Y-68712000D01*
X92750000Y-68331000D02*
X93131000Y-68712000D01*
X130048000Y-71247000D02*
X130048000Y-73152000D01*
X92750000Y-66934000D02*
X92750000Y-68331000D01*
X130048000Y-73152000D02*
X130683000Y-73787000D01*
X130683000Y-73787000D02*
X140081000Y-73787000D01*
X140081000Y-73787000D02*
X140629000Y-73239000D01*
X140629000Y-73239000D02*
X140629000Y-69664500D01*
X140629000Y-69664500D02*
X141073500Y-69220000D01*
X141073500Y-69220000D02*
X143931000Y-69220000D01*
X147106000Y-67569000D02*
X146217000Y-66680000D01*
X147106000Y-72522000D02*
X147106000Y-67569000D01*
X147741000Y-73157000D02*
X147106000Y-72522000D01*
X151043000Y-72522000D02*
X150408000Y-73157000D01*
X150408000Y-73157000D02*
X147741000Y-73157000D01*
X151043000Y-70936000D02*
X151043000Y-72522000D01*
X144947000Y-66680000D02*
X143931000Y-66680000D01*
X146217000Y-66680000D02*
X144947000Y-66680000D01*
X89829000Y-64648000D02*
X90464000Y-64648000D01*
X89575000Y-64394000D02*
X89829000Y-64648000D01*
X89575000Y-61727000D02*
X89575000Y-64394000D01*
X89035000Y-61187000D02*
X89575000Y-61727000D01*
X77582000Y-61187000D02*
X89035000Y-61187000D01*
X130683000Y-70993000D02*
X130683000Y-72771000D01*
X121158000Y-70612000D02*
X121539000Y-70231000D01*
X121158000Y-72898000D02*
X121158000Y-70612000D01*
X93766000Y-68204000D02*
X95382000Y-68204000D01*
X120904000Y-73152000D02*
X121158000Y-72898000D01*
X96901000Y-73152000D02*
X120904000Y-73152000D01*
X96266000Y-72517000D02*
X96901000Y-73152000D01*
X129921000Y-70231000D02*
X130683000Y-70993000D01*
X140375000Y-66680000D02*
X144947000Y-66680000D01*
X95382000Y-68204000D02*
X96266000Y-69088000D01*
X121539000Y-70231000D02*
X129921000Y-70231000D01*
X139994000Y-72731000D02*
X139994000Y-67061000D01*
X96266000Y-69088000D02*
X96266000Y-72517000D01*
X93512000Y-67950000D02*
X93766000Y-68204000D01*
X93512000Y-66934000D02*
X93512000Y-67950000D01*
X131064000Y-73152000D02*
X139573000Y-73152000D01*
X130683000Y-72771000D02*
X131064000Y-73152000D01*
X139573000Y-73152000D02*
X139994000Y-72731000D01*
X139994000Y-67061000D02*
X140375000Y-66680000D01*
X151612000Y-68860000D02*
X151612000Y-68199000D01*
X151043000Y-69429000D02*
X151612000Y-68860000D01*
X151043000Y-70936000D02*
X151043000Y-69429000D01*
D34*
X64810000Y-75140000D02*
X64810000Y-79380000D01*
X64810000Y-79380000D02*
X63540000Y-80650000D01*
X63540000Y-88270000D02*
X65064000Y-86746000D01*
X163997000Y-86746000D02*
X165521000Y-88270000D01*
X165521000Y-88270000D02*
X170347000Y-88270000D01*
X170347000Y-88270000D02*
X172633000Y-85984000D01*
X172633000Y-85984000D02*
X172633000Y-78491000D01*
X172633000Y-78491000D02*
X171617000Y-77475000D01*
X171617000Y-77475000D02*
X157774000Y-77475000D01*
X157774000Y-77475000D02*
X156885000Y-76586000D01*
X156885000Y-76586000D02*
X156885000Y-74046000D01*
X156885000Y-74046000D02*
X156123000Y-73284000D01*
X156123000Y-73284000D02*
X154091000Y-73284000D01*
X154091000Y-73284000D02*
X153583000Y-72776000D01*
X153583000Y-72776000D02*
X153583000Y-70871000D01*
X78780000Y-88270000D02*
X78780000Y-86746000D01*
X65064000Y-86746000D02*
X78780000Y-86746000D01*
X94020000Y-86873000D02*
X93893000Y-86746000D01*
X94020000Y-88270000D02*
X94020000Y-86873000D01*
X78780000Y-86746000D02*
X93893000Y-86746000D01*
X109260000Y-88270000D02*
X109260000Y-86746000D01*
X93893000Y-86746000D02*
X109260000Y-86746000D01*
X124500000Y-86873000D02*
X124627000Y-86746000D01*
X124500000Y-88270000D02*
X124500000Y-86873000D01*
X109260000Y-86746000D02*
X124627000Y-86746000D01*
X139740000Y-86873000D02*
X139867000Y-86746000D01*
X139740000Y-88270000D02*
X139740000Y-86873000D01*
X124627000Y-86746000D02*
X139867000Y-86746000D01*
X154980000Y-88270000D02*
X154980000Y-86746000D01*
X154980000Y-86746000D02*
X163997000Y-86746000D01*
X139867000Y-86746000D02*
X154980000Y-86746000D01*
X72979000Y-78913000D02*
X74716000Y-80650000D01*
X67864000Y-78913000D02*
X72979000Y-78913000D01*
X66548000Y-73914000D02*
X66548000Y-77597000D01*
X66548000Y-77597000D02*
X67864000Y-78913000D01*
X63921000Y-73411000D02*
X66045000Y-73411000D01*
X74716000Y-80650000D02*
X78780000Y-80650000D01*
X63540000Y-73792000D02*
X63921000Y-73411000D01*
X66045000Y-73411000D02*
X66548000Y-73914000D01*
X63540000Y-75140000D02*
X63540000Y-73792000D01*
X93639000Y-78999000D02*
X94020000Y-79380000D01*
X74081000Y-78999000D02*
X93639000Y-78999000D01*
X73106000Y-78024000D02*
X74081000Y-78999000D01*
X68499000Y-78024000D02*
X73106000Y-78024000D01*
X67310000Y-76835000D02*
X68499000Y-78024000D01*
X67310000Y-73279000D02*
X67310000Y-76835000D01*
X66680000Y-72649000D02*
X67310000Y-73279000D01*
X62606000Y-72649000D02*
X66680000Y-72649000D01*
X94020000Y-79380000D02*
X94020000Y-80650000D01*
X62270000Y-72985000D02*
X62606000Y-72649000D01*
X62270000Y-75140000D02*
X62270000Y-72985000D01*
X95285000Y-78232000D02*
X96179000Y-79126000D01*
X96179000Y-79126000D02*
X107609000Y-79126000D01*
X74457000Y-78232000D02*
X95285000Y-78232000D01*
X73360000Y-77135000D02*
X74457000Y-78232000D01*
X109133000Y-80650000D02*
X109260000Y-80650000D01*
X69007000Y-77135000D02*
X73360000Y-77135000D01*
X68072000Y-76200000D02*
X69007000Y-77135000D01*
X68072000Y-72517000D02*
X68072000Y-76200000D01*
X67442000Y-71887000D02*
X68072000Y-72517000D01*
X107609000Y-79126000D02*
X109133000Y-80650000D01*
X61463000Y-71887000D02*
X67442000Y-71887000D01*
X61000000Y-72350000D02*
X61463000Y-71887000D01*
X61000000Y-75140000D02*
X61000000Y-72350000D01*
X122976000Y-79126000D02*
X124627000Y-80777000D01*
X60193000Y-71125000D02*
X68204000Y-71125000D01*
X59730000Y-75140000D02*
X59730000Y-71588000D01*
X68204000Y-71125000D02*
X68961000Y-71882000D01*
X68961000Y-71882000D02*
X68961000Y-75311000D01*
X68961000Y-75311000D02*
X69991250Y-76341250D01*
X74774500Y-77470000D02*
X95539000Y-77470000D01*
X69991250Y-76341250D02*
X73645750Y-76341250D01*
X108752000Y-78364000D02*
X109514000Y-79126000D01*
X95539000Y-77470000D02*
X96433000Y-78364000D01*
X73645750Y-76341250D02*
X74774500Y-77470000D01*
X96433000Y-78364000D02*
X108752000Y-78364000D01*
X59730000Y-71588000D02*
X60193000Y-71125000D01*
X109514000Y-79126000D02*
X122976000Y-79126000D01*
X138089000Y-78999000D02*
X139740000Y-80650000D01*
X124754000Y-78999000D02*
X138089000Y-78999000D01*
X58460000Y-75140000D02*
X58460000Y-70826000D01*
X96750500Y-77475000D02*
X109006000Y-77475000D01*
X58923000Y-70363000D02*
X68966000Y-70363000D01*
X68966000Y-70363000D02*
X69850000Y-71247000D01*
X69850000Y-71247000D02*
X69850000Y-74549000D01*
X109895000Y-78364000D02*
X124119000Y-78364000D01*
X109006000Y-77475000D02*
X109895000Y-78364000D01*
X69850000Y-74549000D02*
X70785000Y-75484000D01*
X70785000Y-75484000D02*
X73868000Y-75484000D01*
X73868000Y-75484000D02*
X75092000Y-76708000D01*
X58460000Y-70826000D02*
X58923000Y-70363000D01*
X75092000Y-76708000D02*
X95983500Y-76708000D01*
X124119000Y-78364000D02*
X124754000Y-78999000D01*
X95983500Y-76708000D02*
X96750500Y-77475000D01*
X139613000Y-79126000D02*
X153329000Y-79126000D01*
X138724000Y-78237000D02*
X139613000Y-79126000D01*
X125262000Y-78237000D02*
X138724000Y-78237000D01*
X57190000Y-70191000D02*
X57780000Y-69601000D01*
X109387000Y-76586000D02*
X110403000Y-77602000D01*
X69728000Y-69601000D02*
X70612000Y-70485000D01*
X70612000Y-73660000D02*
X71674000Y-74722000D01*
X97068000Y-76586000D02*
X109387000Y-76586000D01*
X70612000Y-70485000D02*
X70612000Y-73660000D01*
X153329000Y-79126000D02*
X154980000Y-80777000D01*
X57190000Y-75140000D02*
X57190000Y-70191000D01*
X71674000Y-74722000D02*
X74122000Y-74722000D01*
X124627000Y-77602000D02*
X125262000Y-78237000D01*
X74122000Y-74722000D02*
X75346000Y-75946000D01*
X75346000Y-75946000D02*
X96428000Y-75946000D01*
X57780000Y-69601000D02*
X69728000Y-69601000D01*
X96428000Y-75946000D02*
X97068000Y-76586000D01*
X110403000Y-77602000D02*
X124627000Y-77602000D01*
X155829000Y-79121000D02*
X168656000Y-79121000D01*
X155067000Y-78359000D02*
X155829000Y-79121000D01*
X140208000Y-78359000D02*
X155067000Y-78359000D01*
X139319000Y-77470000D02*
X140208000Y-78359000D01*
X125095000Y-76835000D02*
X125730000Y-77470000D01*
X55920000Y-75140000D02*
X55920000Y-69683000D01*
X75755500Y-75184000D02*
X97028000Y-75184000D01*
X55920000Y-69683000D02*
X56896000Y-68707000D01*
X56896000Y-68707000D02*
X70358000Y-68707000D01*
X70358000Y-68707000D02*
X71501000Y-69850000D01*
X125730000Y-77470000D02*
X139319000Y-77470000D01*
X97028000Y-75184000D02*
X97663000Y-75819000D01*
X97663000Y-75819000D02*
X109855000Y-75819000D01*
X109855000Y-75819000D02*
X110871000Y-76835000D01*
X168656000Y-79121000D02*
X170307000Y-80772000D01*
X71501000Y-69850000D02*
X71501000Y-73152000D01*
X71501000Y-73152000D02*
X72263000Y-73914000D01*
X72263000Y-73914000D02*
X74485500Y-73914000D01*
X74485500Y-73914000D02*
X75755500Y-75184000D01*
X110871000Y-76835000D02*
X125095000Y-76835000D01*
D32*
X181483000Y-120904000D02*
X181483000Y-113157000D01*
X181483000Y-120904000D02*
X181483000Y-123317000D01*
X180086000Y-101662000D02*
X180086000Y-102997000D01*
X180086000Y-102997000D02*
X179324000Y-103759000D01*
X179324000Y-103759000D02*
X177927000Y-103759000D01*
X177927000Y-103759000D02*
X177292000Y-104394000D01*
X177292000Y-104394000D02*
X177292000Y-110363000D01*
X177292000Y-110363000D02*
X177800000Y-110871000D01*
X177800000Y-110871000D02*
X180721000Y-110871000D01*
X180721000Y-110871000D02*
X181483000Y-111633000D01*
X181483000Y-111633000D02*
X181483000Y-113284000D01*
X185928000Y-120904000D02*
X185928000Y-112903000D01*
X185928000Y-120904000D02*
X185928000Y-123063000D01*
X185166000Y-101662000D02*
X185166000Y-103505000D01*
X185166000Y-103505000D02*
X184150000Y-104521000D01*
X184150000Y-104521000D02*
X184150000Y-111506000D01*
X184150000Y-111506000D02*
X185928000Y-113284000D01*
X63920000Y-125100000D02*
X63920000Y-120611000D01*
X79160000Y-125100000D02*
X79160000Y-120562000D01*
X94400000Y-125100000D02*
X94400000Y-120738000D01*
X109640000Y-125100000D02*
X109640000Y-120611000D01*
X181356000Y-101662000D02*
X181356000Y-103632000D01*
X181356000Y-103632000D02*
X181737000Y-104013000D01*
X181737000Y-104013000D02*
X181737000Y-105283000D01*
X186436000Y-101662000D02*
X186436000Y-103505000D01*
X186436000Y-103505000D02*
X185928000Y-104013000D01*
X185928000Y-104013000D02*
X185928000Y-105410000D01*
X124880000Y-125100000D02*
X124880000Y-120484000D01*
X140120000Y-125100000D02*
X140120000Y-120484000D01*
X155360000Y-125100000D02*
X155360000Y-120435000D01*
X170600000Y-125100000D02*
X170600000Y-120435000D01*
X183896000Y-101662000D02*
X183896000Y-98742500D01*
X183896000Y-98742500D02*
X184531000Y-98107500D01*
X184531000Y-98107500D02*
X184531000Y-95377000D01*
X184531000Y-95377000D02*
X184213500Y-95059500D01*
X184213500Y-95059500D02*
X184213500Y-93853000D01*
X77582000Y-63687000D02*
X78553000Y-63687000D01*
X78553000Y-63687000D02*
X79121000Y-63119000D01*
X79121000Y-63119000D02*
X80264000Y-63119000D01*
X184277000Y-90779000D02*
X184277000Y-89281000D01*
X176276000Y-75946000D02*
X176720500Y-75501500D01*
X176720500Y-75501500D02*
X182880000Y-75501500D01*
X187706000Y-96712000D02*
X187706000Y-93853000D01*
X77582000Y-64187000D02*
X78815000Y-64187000D01*
X79121000Y-63881000D02*
X80264000Y-63881000D01*
X78815000Y-64187000D02*
X79121000Y-63881000D01*
X186081000Y-90652000D02*
X186055000Y-90678000D01*
X187706000Y-90652000D02*
X186081000Y-90652000D01*
X176276000Y-76835000D02*
X176339500Y-76835000D01*
X176339500Y-76835000D02*
X177165000Y-76009500D01*
X182435500Y-76009500D02*
X182880000Y-76454000D01*
X177165000Y-76009500D02*
X182435500Y-76009500D01*
X77582000Y-62187000D02*
X76624000Y-62187000D01*
X76624000Y-62187000D02*
X75946000Y-62865000D01*
X75946000Y-62865000D02*
X73279000Y-62865000D01*
X73279000Y-62865000D02*
X72898000Y-63246000D01*
X72898000Y-63246000D02*
X72898000Y-64516000D01*
X95981000Y-62687000D02*
X92932000Y-62687000D01*
X96560000Y-59822000D02*
X96560000Y-62108000D01*
X97468000Y-58914000D02*
X96560000Y-59822000D01*
X96560000Y-62108000D02*
X95981000Y-62687000D01*
X99266000Y-58914000D02*
X97468000Y-58914000D01*
X95592000Y-62187000D02*
X92932000Y-62187000D01*
X96052000Y-61727000D02*
X95592000Y-62187000D01*
X96052000Y-59314000D02*
X96052000Y-61727000D01*
X97252000Y-58114000D02*
X96052000Y-59314000D01*
X99266000Y-58114000D02*
X97252000Y-58114000D01*
X89175000Y-58187000D02*
X92932000Y-58187000D01*
X88773000Y-57785000D02*
X89175000Y-58187000D01*
X80899000Y-57785000D02*
X88773000Y-57785000D01*
X63754000Y-57785000D02*
X63178000Y-58361000D01*
X64770000Y-57785000D02*
X63754000Y-57785000D01*
X63178000Y-58361000D02*
X63178000Y-60750000D01*
X92932000Y-58687000D02*
X88786000Y-58687000D01*
X88646000Y-58547000D02*
X80010000Y-58547000D01*
X88786000Y-58687000D02*
X88646000Y-58547000D01*
X63978000Y-58958000D02*
X63978000Y-60750000D01*
X64389000Y-58547000D02*
X63978000Y-58958000D01*
X65405000Y-58547000D02*
X64389000Y-58547000D01*
X92932000Y-56187000D02*
X90858000Y-56187000D01*
X89916000Y-55245000D02*
X80899000Y-55245000D01*
X90858000Y-56187000D02*
X89916000Y-55245000D01*
X57844000Y-55948000D02*
X57844000Y-60750000D01*
X58547000Y-55245000D02*
X57844000Y-55948000D01*
X64770000Y-55245000D02*
X58547000Y-55245000D01*
X92932000Y-56687000D02*
X90469000Y-56687000D01*
X89662000Y-55880000D02*
X81915000Y-55880000D01*
X90469000Y-56687000D02*
X89662000Y-55880000D01*
X81915000Y-55880000D02*
X80010000Y-55880000D01*
X58674000Y-56388000D02*
X58674000Y-60833000D01*
X59182000Y-55880000D02*
X58674000Y-56388000D01*
X65405000Y-55880000D02*
X59182000Y-55880000D01*
X165647000Y-73514000D02*
X159620000Y-73514000D01*
X159620000Y-73514000D02*
X159258000Y-73152000D01*
X97663000Y-68453000D02*
X97663000Y-69850000D01*
X97663000Y-69850000D02*
X97663000Y-69723000D01*
X83185000Y-64135000D02*
X82757000Y-64563000D01*
X82757000Y-64563000D02*
X82757000Y-66862000D01*
X86995000Y-64135000D02*
X83185000Y-64135000D01*
X159258000Y-73152000D02*
X159258000Y-68834000D01*
X159258000Y-68834000D02*
X159258000Y-67564000D01*
X158750000Y-64897000D02*
X159258000Y-65405000D01*
X150368000Y-64897000D02*
X158750000Y-64897000D01*
X149987000Y-64516000D02*
X150368000Y-64897000D01*
X149606000Y-62865000D02*
X149987000Y-63246000D01*
X139065000Y-62865000D02*
X149606000Y-62865000D01*
X138684000Y-63246000D02*
X139065000Y-62865000D01*
X97663000Y-69850000D02*
X97663000Y-71501000D01*
X97663000Y-71501000D02*
X97917000Y-71755000D01*
X133731000Y-68453000D02*
X133731000Y-66040000D01*
X134366000Y-65405000D02*
X138303000Y-65405000D01*
X159258000Y-65405000D02*
X159258000Y-68834000D01*
X149987000Y-63246000D02*
X149987000Y-64516000D01*
X119507000Y-71501000D02*
X119507000Y-69723000D01*
X133731000Y-66040000D02*
X134366000Y-65405000D01*
X119507000Y-69723000D02*
X120269000Y-68961000D01*
X97917000Y-71755000D02*
X119253000Y-71755000D01*
X119253000Y-71755000D02*
X119507000Y-71501000D01*
X138303000Y-65405000D02*
X138684000Y-65024000D01*
X120269000Y-68961000D02*
X133223000Y-68961000D01*
X133223000Y-68961000D02*
X133731000Y-68453000D01*
X138684000Y-65024000D02*
X138684000Y-63246000D01*
X165647000Y-72714000D02*
X160471000Y-72714000D01*
X160471000Y-72714000D02*
X160147000Y-72390000D01*
X98425000Y-68072000D02*
X98425000Y-69850000D01*
X98425000Y-69850000D02*
X98425000Y-69723000D01*
X87757000Y-63500000D02*
X82804000Y-63500000D01*
X82804000Y-63500000D02*
X82257000Y-64047000D01*
X82257000Y-64047000D02*
X82257000Y-66862000D01*
X160147000Y-72390000D02*
X160147000Y-68326000D01*
X160147000Y-68326000D02*
X160147000Y-66929000D01*
X151003000Y-64389000D02*
X159639000Y-64389000D01*
X159639000Y-64389000D02*
X160147000Y-64897000D01*
X150622000Y-60960000D02*
X150622000Y-64008000D01*
X150114000Y-60452000D02*
X150622000Y-60960000D01*
X138176000Y-60896500D02*
X138620500Y-60452000D01*
X138620500Y-60452000D02*
X150114000Y-60452000D01*
X98425000Y-69850000D02*
X98425000Y-70866000D01*
X98425000Y-70866000D02*
X98679000Y-71120000D01*
X118618000Y-71120000D02*
X118872000Y-70866000D01*
X118872000Y-68834000D02*
X119507000Y-68199000D01*
X98679000Y-71120000D02*
X118618000Y-71120000D01*
X118872000Y-70866000D02*
X118872000Y-68834000D01*
X119507000Y-68199000D02*
X132588000Y-68199000D01*
X132588000Y-68199000D02*
X132842000Y-67945000D01*
X133413500Y-62865000D02*
X137668000Y-62865000D01*
X132842000Y-67945000D02*
X132842000Y-63436500D01*
X160147000Y-64897000D02*
X160147000Y-68326000D01*
X150622000Y-64008000D02*
X151003000Y-64389000D01*
X132842000Y-63436500D02*
X133413500Y-62865000D01*
X137668000Y-62865000D02*
X138176000Y-62357000D01*
X138176000Y-62357000D02*
X138176000Y-60896500D01*
X109987000Y-61854000D02*
X114594000Y-61854000D01*
X109133000Y-61000000D02*
X109987000Y-61854000D01*
X109133000Y-53380000D02*
X109133000Y-61000000D01*
X108101000Y-52348000D02*
X109133000Y-53380000D01*
X100839000Y-52348000D02*
X108101000Y-52348000D01*
X107285000Y-53148000D02*
X100839000Y-53148000D01*
X108371000Y-54234000D02*
X107285000Y-53148000D01*
X108371000Y-63667000D02*
X108371000Y-54234000D01*
X109098000Y-64394000D02*
X108371000Y-63667000D01*
X114545000Y-64394000D02*
X109098000Y-64394000D01*
X67310000Y-56388000D02*
X68011000Y-55687000D01*
X68011000Y-55687000D02*
X77582000Y-55687000D01*
X67310000Y-66294000D02*
X67310000Y-56388000D01*
X59920000Y-119102000D02*
X59920000Y-125100000D01*
X58674000Y-117856000D02*
X59920000Y-119102000D01*
X51181000Y-117856000D02*
X58674000Y-117856000D01*
X50038000Y-77343000D02*
X50038000Y-116713000D01*
X50038000Y-116713000D02*
X51181000Y-117856000D01*
X50482500Y-76898500D02*
X50038000Y-77343000D01*
X68654000Y-56187000D02*
X77582000Y-56187000D01*
X67945000Y-56896000D02*
X68654000Y-56187000D01*
X67945000Y-67056000D02*
X67945000Y-56896000D01*
X75160000Y-118594000D02*
X75160000Y-125100000D01*
X74041000Y-117475000D02*
X75160000Y-118594000D01*
X50546000Y-116332000D02*
X51689000Y-117475000D01*
X50546000Y-77851000D02*
X50546000Y-116332000D01*
X51689000Y-117475000D02*
X74041000Y-117475000D01*
X50673000Y-77724000D02*
X50546000Y-77851000D01*
X69297000Y-56687000D02*
X77582000Y-56687000D01*
X68580000Y-57404000D02*
X69297000Y-56687000D01*
X68580000Y-66294000D02*
X68580000Y-57404000D01*
X90400000Y-117959000D02*
X90400000Y-125100000D01*
X52197000Y-117094000D02*
X89535000Y-117094000D01*
X89535000Y-117094000D02*
X90400000Y-117959000D01*
X51054000Y-115951000D02*
X52197000Y-117094000D01*
X51054000Y-78232000D02*
X51054000Y-115951000D01*
X51689000Y-77597000D02*
X51054000Y-78232000D01*
X69813000Y-57187000D02*
X77582000Y-57187000D01*
X69215000Y-67056000D02*
X69215000Y-57785000D01*
X69215000Y-57785000D02*
X69813000Y-57187000D01*
X105640000Y-117578000D02*
X105640000Y-125100000D01*
X104775000Y-116713000D02*
X105640000Y-117578000D01*
X52705000Y-116713000D02*
X104775000Y-116713000D01*
X51562000Y-115570000D02*
X52705000Y-116713000D01*
X51562000Y-78867000D02*
X51562000Y-115570000D01*
X51689000Y-78740000D02*
X51562000Y-78867000D01*
X70456000Y-57687000D02*
X77582000Y-57687000D01*
X69850000Y-66294000D02*
X69850000Y-58293000D01*
X69850000Y-58293000D02*
X70456000Y-57687000D01*
X120880000Y-117324000D02*
X120880000Y-125100000D01*
X119888000Y-116332000D02*
X120880000Y-117324000D01*
X52070000Y-115316000D02*
X53086000Y-116332000D01*
X53086000Y-116332000D02*
X119888000Y-116332000D01*
X52070000Y-79121000D02*
X52070000Y-115316000D01*
X52705000Y-78486000D02*
X52070000Y-79121000D01*
X70485000Y-58801000D02*
X71099000Y-58187000D01*
X71099000Y-58187000D02*
X77582000Y-58187000D01*
X70485000Y-67056000D02*
X70485000Y-58801000D01*
X135255000Y-115951000D02*
X136120000Y-116816000D01*
X53594000Y-115951000D02*
X135255000Y-115951000D01*
X52578000Y-114935000D02*
X53594000Y-115951000D01*
X52578000Y-79629000D02*
X52578000Y-114935000D01*
X136120000Y-116816000D02*
X136120000Y-125100000D01*
X52705000Y-79502000D02*
X52578000Y-79629000D01*
X71120000Y-66294000D02*
X71120000Y-59309000D01*
X71742000Y-58687000D02*
X77582000Y-58687000D01*
X71120000Y-59309000D02*
X71742000Y-58687000D01*
X151360000Y-116562000D02*
X151360000Y-125100000D01*
X150368000Y-115570000D02*
X151360000Y-116562000D01*
X54102000Y-115570000D02*
X150368000Y-115570000D01*
X53086000Y-114554000D02*
X54102000Y-115570000D01*
X53086000Y-80010000D02*
X53086000Y-114554000D01*
X53721000Y-79375000D02*
X53086000Y-80010000D01*
X72258000Y-59187000D02*
X77582000Y-59187000D01*
X71755000Y-59690000D02*
X72258000Y-59187000D01*
X71755000Y-67056000D02*
X71755000Y-59690000D01*
X53594000Y-114300000D02*
X53594000Y-80645000D01*
X54483000Y-115189000D02*
X53594000Y-114300000D01*
X165608000Y-115189000D02*
X54483000Y-115189000D01*
X53594000Y-80645000D02*
X53848000Y-80391000D01*
X166600000Y-116181000D02*
X165608000Y-115189000D01*
X166600000Y-125100000D02*
X166600000Y-116181000D01*
X89408000Y-45720000D02*
X89408000Y-43053000D01*
X89789000Y-46101000D02*
X89408000Y-45720000D01*
X98044000Y-46101000D02*
X89789000Y-46101000D01*
X98425000Y-46482000D02*
X98044000Y-46101000D01*
X98425000Y-50546000D02*
X98425000Y-46482000D01*
X98627000Y-50748000D02*
X98425000Y-50546000D01*
X99139000Y-50748000D02*
X98627000Y-50748000D01*
X97409000Y-46609000D02*
X87249000Y-46609000D01*
X97917000Y-47117000D02*
X97409000Y-46609000D01*
X97917000Y-51181000D02*
X97917000Y-47117000D01*
X98284000Y-51548000D02*
X97917000Y-51181000D01*
X86868000Y-46228000D02*
X86868000Y-43053000D01*
X87249000Y-46609000D02*
X86868000Y-46228000D01*
X99139000Y-51548000D02*
X98284000Y-51548000D01*
X84328000Y-46418500D02*
X84328000Y-43053000D01*
X85026500Y-47117000D02*
X84328000Y-46418500D01*
X97409000Y-47625000D02*
X96901000Y-47117000D01*
X97409000Y-51689000D02*
X97409000Y-47625000D01*
X98068000Y-52348000D02*
X97409000Y-51689000D01*
X96901000Y-47117000D02*
X85026500Y-47117000D01*
X99139000Y-52348000D02*
X98068000Y-52348000D01*
X81828000Y-46649000D02*
X81828000Y-43058000D01*
X82804000Y-47625000D02*
X81828000Y-46649000D01*
X96393000Y-47625000D02*
X82804000Y-47625000D01*
X96774000Y-48006000D02*
X96393000Y-47625000D01*
X96774000Y-51816000D02*
X96774000Y-48006000D01*
X98106000Y-53148000D02*
X96774000Y-51816000D01*
X99139000Y-53148000D02*
X98106000Y-53148000D01*
X69088000Y-47625000D02*
X69088000Y-43053000D01*
X69704000Y-48241000D02*
X69088000Y-47625000D01*
X77763000Y-48241000D02*
X69704000Y-48241000D01*
X64008000Y-48895000D02*
X64008000Y-43053000D01*
X64954000Y-49841000D02*
X64008000Y-48895000D01*
X77763000Y-49841000D02*
X64954000Y-49841000D01*
X119507000Y-58039000D02*
X114554000Y-58039000D01*
X120326000Y-58858000D02*
X119507000Y-58039000D01*
X120326000Y-62650000D02*
X120326000Y-58858000D01*
X118745000Y-60579000D02*
X114427000Y-60579000D01*
X119526000Y-61360000D02*
X118745000Y-60579000D01*
X119526000Y-62650000D02*
X119526000Y-61360000D01*
X94143000Y-65187000D02*
X92932000Y-65187000D01*
X95758000Y-66802000D02*
X94143000Y-65187000D01*
X102235000Y-66802000D02*
X95758000Y-66802000D01*
X102489000Y-67564000D02*
X102489000Y-67056000D01*
X116586000Y-67564000D02*
X116332000Y-67818000D01*
X116586000Y-63754000D02*
X116586000Y-67564000D01*
X102743000Y-67818000D02*
X102489000Y-67564000D01*
X116332000Y-67818000D02*
X102743000Y-67818000D01*
X116840000Y-63500000D02*
X116586000Y-63754000D01*
X120015000Y-63500000D02*
X116840000Y-63500000D01*
X120326000Y-63811000D02*
X120015000Y-63500000D01*
X102489000Y-67056000D02*
X102235000Y-66802000D01*
X120326000Y-64350000D02*
X120326000Y-63811000D01*
X91257000Y-65969000D02*
X91257000Y-66862000D01*
X119526000Y-64350000D02*
X119526000Y-65132000D01*
X117221000Y-65532000D02*
X117221000Y-67945000D01*
X119526000Y-65132000D02*
X119380000Y-65278000D01*
X119380000Y-65278000D02*
X117475000Y-65278000D01*
X117221000Y-67945000D02*
X116840000Y-68326000D01*
X116840000Y-68326000D02*
X102108000Y-68326000D01*
X91440000Y-65786000D02*
X91257000Y-65969000D01*
X102108000Y-68326000D02*
X101854000Y-68072000D01*
X93980000Y-65786000D02*
X91440000Y-65786000D01*
X101854000Y-68072000D02*
X101854000Y-67564000D01*
X101854000Y-67564000D02*
X101600000Y-67310000D01*
X95504000Y-67310000D02*
X93980000Y-65786000D01*
X117475000Y-65278000D02*
X117221000Y-65532000D01*
X101600000Y-67310000D02*
X95504000Y-67310000D01*
X100966000Y-60514000D02*
X101951000Y-60514000D01*
X101951000Y-60514000D02*
X102910000Y-61473000D01*
X102910000Y-61473000D02*
X102910000Y-62489000D01*
X102910000Y-62489000D02*
X103545000Y-63124000D01*
X103545000Y-63124000D02*
X105196000Y-63124000D01*
X100966000Y-59714000D02*
X102548000Y-59714000D01*
X102548000Y-59714000D02*
X103418000Y-60584000D01*
X103418000Y-60584000D02*
X105196000Y-60584000D01*
X100966000Y-58914000D02*
X102548000Y-58914000D01*
X102548000Y-58914000D02*
X103418000Y-58044000D01*
X103418000Y-58044000D02*
X105196000Y-58044000D01*
X100966000Y-58114000D02*
X102332000Y-58114000D01*
X102332000Y-58114000D02*
X102910000Y-57536000D01*
X102910000Y-57536000D02*
X102910000Y-56012000D01*
X102910000Y-56012000D02*
X103418000Y-55504000D01*
X103418000Y-55504000D02*
X105323000Y-55504000D01*
X92932000Y-63687000D02*
X96632000Y-63687000D01*
X96632000Y-63687000D02*
X97703000Y-62616000D01*
X98281000Y-60514000D02*
X97703000Y-61092000D01*
X99266000Y-60514000D02*
X98281000Y-60514000D01*
X97703000Y-62616000D02*
X97703000Y-61092000D01*
X97703000Y-59695000D02*
X99354000Y-59695000D01*
X96370000Y-63187000D02*
X97195000Y-62362000D01*
X97195000Y-60203000D02*
X97703000Y-59695000D01*
X97195000Y-62362000D02*
X97195000Y-60203000D01*
X92932000Y-63187000D02*
X96370000Y-63187000D01*
X61595000Y-64008000D02*
X61595000Y-62357000D01*
X61000000Y-64603000D02*
X61595000Y-64008000D01*
X61000000Y-65840000D02*
X61000000Y-64603000D01*
X62230000Y-64262000D02*
X62230000Y-65786000D01*
X62378000Y-64114000D02*
X62230000Y-64262000D01*
X62378000Y-62450000D02*
X62378000Y-64114000D01*
X63500000Y-64262000D02*
X63500000Y-66040000D01*
X63178000Y-63940000D02*
X63500000Y-64262000D01*
X63178000Y-62450000D02*
X63178000Y-63940000D01*
X64770000Y-64643000D02*
X64770000Y-65913000D01*
X63978000Y-63851000D02*
X64770000Y-64643000D01*
X63978000Y-62450000D02*
X63978000Y-63851000D01*
X92932000Y-57187000D02*
X90080000Y-57187000D01*
X90080000Y-57187000D02*
X89408000Y-56515000D01*
X89408000Y-56515000D02*
X79248000Y-56515000D01*
X62357000Y-56515000D02*
X61595000Y-57277000D01*
X61595000Y-57277000D02*
X61595000Y-60833000D01*
X66040000Y-56515000D02*
X62357000Y-56515000D01*
X92932000Y-57687000D02*
X89691000Y-57687000D01*
X89691000Y-57687000D02*
X89154000Y-57150000D01*
X89154000Y-57150000D02*
X80010000Y-57150000D01*
X62357000Y-57658000D02*
X62357000Y-60833000D01*
X65405000Y-57150000D02*
X62865000Y-57150000D01*
X62865000Y-57150000D02*
X62357000Y-57658000D01*
X56261000Y-64008000D02*
X56261000Y-62357000D01*
X55920000Y-64349000D02*
X56261000Y-64008000D01*
X55920000Y-65840000D02*
X55920000Y-64349000D01*
X57150000Y-64135000D02*
X57150000Y-66040000D01*
X57044000Y-64029000D02*
X57150000Y-64135000D01*
X57044000Y-62450000D02*
X57044000Y-64029000D01*
X58460000Y-65840000D02*
X58460000Y-64937000D01*
X58420000Y-64516000D02*
X58420000Y-65913000D01*
X57844000Y-63940000D02*
X58420000Y-64516000D01*
X57844000Y-62450000D02*
X57844000Y-63940000D01*
X58674000Y-63881000D02*
X58674000Y-62357000D01*
X59730000Y-64937000D02*
X58674000Y-63881000D01*
X59730000Y-65840000D02*
X59730000Y-64937000D01*
X90424000Y-53975000D02*
X79248000Y-53975000D01*
X91636000Y-55187000D02*
X90424000Y-53975000D01*
X92932000Y-55187000D02*
X91636000Y-55187000D01*
X56261000Y-54864000D02*
X56261000Y-60833000D01*
X57150000Y-53975000D02*
X56261000Y-54864000D01*
X66040000Y-53975000D02*
X57150000Y-53975000D01*
X92932000Y-55687000D02*
X91247000Y-55687000D01*
X90170000Y-54610000D02*
X80010000Y-54610000D01*
X91247000Y-55687000D02*
X90170000Y-54610000D01*
X57023000Y-55499000D02*
X57023000Y-60833000D01*
X57912000Y-54610000D02*
X57023000Y-55499000D01*
X65405000Y-54610000D02*
X57912000Y-54610000D01*
X165647000Y-74314000D02*
X158896000Y-74314000D01*
X158896000Y-74314000D02*
X158369000Y-73787000D01*
X97028000Y-68961000D02*
X97028000Y-70104000D01*
X97028000Y-70104000D02*
X97028000Y-69723000D01*
X83693000Y-64770000D02*
X83257000Y-65206000D01*
X86360000Y-64770000D02*
X83693000Y-64770000D01*
X83257000Y-65206000D02*
X83257000Y-66862000D01*
X148082000Y-65405000D02*
X158115000Y-65405000D01*
X148336000Y-65405000D02*
X148082000Y-65405000D01*
X158115000Y-65405000D02*
X158369000Y-65659000D01*
X158369000Y-68453000D02*
X158369000Y-68326000D01*
X158369000Y-65659000D02*
X158369000Y-68453000D01*
X158369000Y-73787000D02*
X158369000Y-68453000D01*
X139700000Y-65405000D02*
X148082000Y-65405000D01*
X139382500Y-65722500D02*
X139700000Y-65405000D01*
X97028000Y-70104000D02*
X97028000Y-72136000D01*
X120015000Y-72517000D02*
X120396000Y-72136000D01*
X97028000Y-72136000D02*
X97409000Y-72517000D01*
X120396000Y-72136000D02*
X120396000Y-70104000D01*
X97409000Y-72517000D02*
X120015000Y-72517000D01*
X139382500Y-67564000D02*
X139382500Y-65722500D01*
X120904000Y-69596000D02*
X133858000Y-69596000D01*
X120396000Y-70104000D02*
X120904000Y-69596000D01*
X133858000Y-69596000D02*
X134366000Y-69088000D01*
X134366000Y-69088000D02*
X134366000Y-68453000D01*
X134366000Y-68453000D02*
X134874000Y-67945000D01*
X134874000Y-67945000D02*
X139001500Y-67945000D01*
X139001500Y-67945000D02*
X139382500Y-67564000D01*
X110911000Y-56047000D02*
X111638000Y-56774000D01*
X110911000Y-51856000D02*
X110911000Y-56047000D01*
X111638000Y-56774000D02*
X114594000Y-56774000D01*
X109803000Y-50748000D02*
X110911000Y-51856000D01*
X100839000Y-50748000D02*
X109803000Y-50748000D01*
X110876000Y-59314000D02*
X114594000Y-59314000D01*
X110022000Y-58460000D02*
X110876000Y-59314000D01*
X110022000Y-52618000D02*
X110022000Y-58460000D01*
X108952000Y-51548000D02*
X110022000Y-52618000D01*
X100839000Y-51548000D02*
X108952000Y-51548000D01*
X80581500Y-48958500D02*
X80581500Y-49593500D01*
X80772000Y-48768000D02*
X80581500Y-48958500D01*
X95250000Y-48768000D02*
X80772000Y-48768000D01*
X95631000Y-49149000D02*
X95250000Y-48768000D01*
X95631000Y-52324000D02*
X95631000Y-49149000D01*
X80334000Y-49841000D02*
X79463000Y-49841000D01*
X97663000Y-54356000D02*
X95631000Y-52324000D01*
X106426000Y-54356000D02*
X97663000Y-54356000D01*
X106934000Y-54864000D02*
X106426000Y-54356000D01*
X106934000Y-56515000D02*
X106934000Y-54864000D01*
X80581500Y-49593500D02*
X80334000Y-49841000D01*
X106675000Y-56774000D02*
X106934000Y-56515000D01*
X105245000Y-56774000D02*
X106675000Y-56774000D01*
X95885000Y-48260000D02*
X96266000Y-48641000D01*
X96266000Y-48641000D02*
X96266000Y-52197000D01*
X96266000Y-52197000D02*
X97917000Y-53848000D01*
X97917000Y-53848000D02*
X106680000Y-53848000D01*
X106680000Y-53848000D02*
X107569000Y-54737000D01*
X107569000Y-54737000D02*
X107569000Y-58801000D01*
X107056000Y-59314000D02*
X107315000Y-59055000D01*
X105245000Y-59314000D02*
X107056000Y-59314000D01*
X107569000Y-58801000D02*
X107315000Y-59055000D01*
X82550000Y-48260000D02*
X95885000Y-48260000D01*
X82550000Y-48260000D02*
X79502000Y-48260000D01*
M02*
