G04 #@! TF.GenerationSoftware,KiCad,Pcbnew,(5.1.9)-1*
G04 #@! TF.CreationDate,2021-06-10T17:57:30+03:00*
G04 #@! TF.ProjectId,OneWireReader,4f6e6557-6972-4655-9265-616465722e6b,rev?*
G04 #@! TF.SameCoordinates,Original*
G04 #@! TF.FileFunction,Soldermask,Bot*
G04 #@! TF.FilePolarity,Negative*
%FSLAX46Y46*%
G04 Gerber Fmt 4.6, Leading zero omitted, Abs format (unit mm)*
G04 Created by KiCad (PCBNEW (5.1.9)-1) date 2021-06-10 17:57:30*
%MOMM*%
%LPD*%
G01*
G04 APERTURE LIST*
%ADD10C,2.600000*%
%ADD11C,2.100000*%
%ADD12C,1.600000*%
%ADD13R,1.600000X1.800000*%
%ADD14C,2.340000*%
%ADD15C,1.700000*%
%ADD16C,2.000000*%
%ADD17C,1.397000*%
%ADD18O,2.000000X1.440000*%
%ADD19R,2.000000X1.440000*%
%ADD20C,3.000000*%
%ADD21O,1.800000X2.600000*%
%ADD22R,1.800000X2.600000*%
G04 APERTURE END LIST*
D10*
X191544000Y-43915000D03*
X186944000Y-43915000D03*
D11*
X191544000Y-56515000D03*
G36*
G01*
X185894000Y-57315000D02*
X185894000Y-55715000D01*
G75*
G02*
X186144000Y-55465000I250000J0D01*
G01*
X187744000Y-55465000D01*
G75*
G02*
X187994000Y-55715000I0J-250000D01*
G01*
X187994000Y-57315000D01*
G75*
G02*
X187744000Y-57565000I-250000J0D01*
G01*
X186144000Y-57565000D01*
G75*
G02*
X185894000Y-57315000I0J250000D01*
G01*
G37*
D12*
X162600000Y-93350000D03*
X162600000Y-98430000D03*
X162600000Y-88270000D03*
X170220000Y-80650000D03*
D13*
X162600000Y-80650000D03*
D12*
X170220000Y-98430000D03*
X170220000Y-93350000D03*
X170220000Y-88270000D03*
D14*
X159639000Y-43688000D03*
X162139000Y-53688000D03*
X164639000Y-43688000D03*
D15*
X188595000Y-62866000D03*
X188595000Y-66866000D03*
X188595000Y-70866000D03*
D16*
X192845000Y-72866000D03*
X192845000Y-60866000D03*
X186845000Y-60866000D03*
X186845000Y-72866000D03*
D15*
X170600000Y-125100000D03*
X166600000Y-125100000D03*
X162600000Y-125100000D03*
D16*
X160600000Y-129350000D03*
X172600000Y-129350000D03*
X172600000Y-123350000D03*
X160600000Y-123350000D03*
D15*
X155360000Y-125100000D03*
X151360000Y-125100000D03*
X147360000Y-125100000D03*
D16*
X145360000Y-129350000D03*
X157360000Y-129350000D03*
X157360000Y-123350000D03*
X145360000Y-123350000D03*
D15*
X140120000Y-125100000D03*
X136120000Y-125100000D03*
X132120000Y-125100000D03*
D16*
X130120000Y-129350000D03*
X142120000Y-129350000D03*
X142120000Y-123350000D03*
X130120000Y-123350000D03*
D15*
X124880000Y-125100000D03*
X120880000Y-125100000D03*
X116880000Y-125100000D03*
D16*
X114880000Y-129350000D03*
X126880000Y-129350000D03*
X126880000Y-123350000D03*
X114880000Y-123350000D03*
D15*
X109640000Y-125100000D03*
X105640000Y-125100000D03*
X101640000Y-125100000D03*
D16*
X99640000Y-129350000D03*
X111640000Y-129350000D03*
X111640000Y-123350000D03*
X99640000Y-123350000D03*
D15*
X94400000Y-125100000D03*
X90400000Y-125100000D03*
X86400000Y-125100000D03*
D16*
X84400000Y-129350000D03*
X96400000Y-129350000D03*
X96400000Y-123350000D03*
X84400000Y-123350000D03*
D15*
X79160000Y-125100000D03*
X75160000Y-125100000D03*
X71160000Y-125100000D03*
D16*
X69160000Y-129350000D03*
X81160000Y-129350000D03*
X81160000Y-123350000D03*
X69160000Y-123350000D03*
D15*
X63920000Y-125100000D03*
X59920000Y-125100000D03*
X55920000Y-125100000D03*
D16*
X53920000Y-129350000D03*
X65920000Y-129350000D03*
X65920000Y-123350000D03*
X53920000Y-123350000D03*
D17*
X185928000Y-113284000D03*
X191008000Y-113284000D03*
X185928000Y-120904000D03*
X191008000Y-120904000D03*
X181483000Y-120904000D03*
X176403000Y-120904000D03*
X181483000Y-113284000D03*
X176403000Y-113284000D03*
D12*
X147360000Y-93350000D03*
X147360000Y-98430000D03*
X147360000Y-88270000D03*
X154980000Y-80650000D03*
D13*
X147360000Y-80650000D03*
D12*
X154980000Y-98430000D03*
X154980000Y-93350000D03*
X154980000Y-88270000D03*
X132120000Y-93350000D03*
X132120000Y-98430000D03*
X132120000Y-88270000D03*
X139740000Y-80650000D03*
D13*
X132120000Y-80650000D03*
D12*
X139740000Y-98430000D03*
X139740000Y-93350000D03*
X139740000Y-88270000D03*
X116880000Y-93350000D03*
X116880000Y-98430000D03*
X116880000Y-88270000D03*
X124500000Y-80650000D03*
D13*
X116880000Y-80650000D03*
D12*
X124500000Y-98430000D03*
X124500000Y-93350000D03*
X124500000Y-88270000D03*
X101640000Y-93350000D03*
X101640000Y-98430000D03*
X101640000Y-88270000D03*
X109260000Y-80650000D03*
D13*
X101640000Y-80650000D03*
D12*
X109260000Y-98430000D03*
X109260000Y-93350000D03*
X109260000Y-88270000D03*
X86400000Y-93350000D03*
X86400000Y-98430000D03*
X86400000Y-88270000D03*
X94020000Y-80650000D03*
D13*
X86400000Y-80650000D03*
D12*
X94020000Y-98430000D03*
X94020000Y-93350000D03*
X94020000Y-88270000D03*
X71160000Y-93350000D03*
X71160000Y-98430000D03*
X71160000Y-88270000D03*
X78780000Y-80650000D03*
D13*
X71160000Y-80650000D03*
D12*
X78780000Y-98430000D03*
X78780000Y-93350000D03*
X78780000Y-88270000D03*
X55920000Y-93350000D03*
X55920000Y-98430000D03*
X55920000Y-88270000D03*
X63540000Y-80650000D03*
D13*
X55920000Y-80650000D03*
D12*
X63540000Y-98430000D03*
X63540000Y-93350000D03*
X63540000Y-88270000D03*
D18*
X143931000Y-69220000D03*
X136311000Y-69220000D03*
X143931000Y-66680000D03*
X136311000Y-66680000D03*
X143931000Y-64140000D03*
X136311000Y-64140000D03*
X143931000Y-61600000D03*
X136311000Y-61600000D03*
X143931000Y-59060000D03*
X136311000Y-59060000D03*
X143931000Y-56520000D03*
X136311000Y-56520000D03*
X143931000Y-53980000D03*
D19*
X136311000Y-53980000D03*
G36*
G01*
X171220000Y-106320000D02*
X171220000Y-108320000D01*
G75*
G02*
X170720000Y-108820000I-500000J0D01*
G01*
X169720000Y-108820000D01*
G75*
G02*
X169220000Y-108320000I0J500000D01*
G01*
X169220000Y-106320000D01*
G75*
G02*
X169720000Y-105820000I500000J0D01*
G01*
X170720000Y-105820000D01*
G75*
G02*
X171220000Y-106320000I0J-500000D01*
G01*
G37*
G36*
G01*
X166140000Y-106320000D02*
X166140000Y-108320000D01*
G75*
G02*
X165640000Y-108820000I-500000J0D01*
G01*
X164640000Y-108820000D01*
G75*
G02*
X164140000Y-108320000I0J500000D01*
G01*
X164140000Y-106320000D01*
G75*
G02*
X164640000Y-105820000I500000J0D01*
G01*
X165640000Y-105820000D01*
G75*
G02*
X166140000Y-106320000I0J-500000D01*
G01*
G37*
G36*
G01*
X168680000Y-106320000D02*
X168680000Y-108320000D01*
G75*
G02*
X168180000Y-108820000I-500000J0D01*
G01*
X167180000Y-108820000D01*
G75*
G02*
X166680000Y-108320000I0J500000D01*
G01*
X166680000Y-106320000D01*
G75*
G02*
X167180000Y-105820000I500000J0D01*
G01*
X168180000Y-105820000D01*
G75*
G02*
X168680000Y-106320000I0J-500000D01*
G01*
G37*
G36*
G01*
X166140000Y-111400000D02*
X166140000Y-113400000D01*
G75*
G02*
X165640000Y-113900000I-500000J0D01*
G01*
X164640000Y-113900000D01*
G75*
G02*
X164140000Y-113400000I0J500000D01*
G01*
X164140000Y-111400000D01*
G75*
G02*
X164640000Y-110900000I500000J0D01*
G01*
X165640000Y-110900000D01*
G75*
G02*
X166140000Y-111400000I0J-500000D01*
G01*
G37*
G36*
G01*
X168680000Y-111400000D02*
X168680000Y-113400000D01*
G75*
G02*
X168180000Y-113900000I-500000J0D01*
G01*
X167180000Y-113900000D01*
G75*
G02*
X166680000Y-113400000I0J500000D01*
G01*
X166680000Y-111400000D01*
G75*
G02*
X167180000Y-110900000I500000J0D01*
G01*
X168180000Y-110900000D01*
G75*
G02*
X168680000Y-111400000I0J-500000D01*
G01*
G37*
G36*
G01*
X171220000Y-111400000D02*
X171220000Y-113400000D01*
G75*
G02*
X170720000Y-113900000I-500000J0D01*
G01*
X169720000Y-113900000D01*
G75*
G02*
X169220000Y-113400000I0J500000D01*
G01*
X169220000Y-111400000D01*
G75*
G02*
X169720000Y-110900000I500000J0D01*
G01*
X170720000Y-110900000D01*
G75*
G02*
X171220000Y-111400000I0J-500000D01*
G01*
G37*
G36*
G01*
X155980000Y-106320000D02*
X155980000Y-108320000D01*
G75*
G02*
X155480000Y-108820000I-500000J0D01*
G01*
X154480000Y-108820000D01*
G75*
G02*
X153980000Y-108320000I0J500000D01*
G01*
X153980000Y-106320000D01*
G75*
G02*
X154480000Y-105820000I500000J0D01*
G01*
X155480000Y-105820000D01*
G75*
G02*
X155980000Y-106320000I0J-500000D01*
G01*
G37*
G36*
G01*
X150900000Y-106320000D02*
X150900000Y-108320000D01*
G75*
G02*
X150400000Y-108820000I-500000J0D01*
G01*
X149400000Y-108820000D01*
G75*
G02*
X148900000Y-108320000I0J500000D01*
G01*
X148900000Y-106320000D01*
G75*
G02*
X149400000Y-105820000I500000J0D01*
G01*
X150400000Y-105820000D01*
G75*
G02*
X150900000Y-106320000I0J-500000D01*
G01*
G37*
G36*
G01*
X153440000Y-106320000D02*
X153440000Y-108320000D01*
G75*
G02*
X152940000Y-108820000I-500000J0D01*
G01*
X151940000Y-108820000D01*
G75*
G02*
X151440000Y-108320000I0J500000D01*
G01*
X151440000Y-106320000D01*
G75*
G02*
X151940000Y-105820000I500000J0D01*
G01*
X152940000Y-105820000D01*
G75*
G02*
X153440000Y-106320000I0J-500000D01*
G01*
G37*
G36*
G01*
X150900000Y-111400000D02*
X150900000Y-113400000D01*
G75*
G02*
X150400000Y-113900000I-500000J0D01*
G01*
X149400000Y-113900000D01*
G75*
G02*
X148900000Y-113400000I0J500000D01*
G01*
X148900000Y-111400000D01*
G75*
G02*
X149400000Y-110900000I500000J0D01*
G01*
X150400000Y-110900000D01*
G75*
G02*
X150900000Y-111400000I0J-500000D01*
G01*
G37*
G36*
G01*
X153440000Y-111400000D02*
X153440000Y-113400000D01*
G75*
G02*
X152940000Y-113900000I-500000J0D01*
G01*
X151940000Y-113900000D01*
G75*
G02*
X151440000Y-113400000I0J500000D01*
G01*
X151440000Y-111400000D01*
G75*
G02*
X151940000Y-110900000I500000J0D01*
G01*
X152940000Y-110900000D01*
G75*
G02*
X153440000Y-111400000I0J-500000D01*
G01*
G37*
G36*
G01*
X155980000Y-111400000D02*
X155980000Y-113400000D01*
G75*
G02*
X155480000Y-113900000I-500000J0D01*
G01*
X154480000Y-113900000D01*
G75*
G02*
X153980000Y-113400000I0J500000D01*
G01*
X153980000Y-111400000D01*
G75*
G02*
X154480000Y-110900000I500000J0D01*
G01*
X155480000Y-110900000D01*
G75*
G02*
X155980000Y-111400000I0J-500000D01*
G01*
G37*
G36*
G01*
X140740000Y-106320000D02*
X140740000Y-108320000D01*
G75*
G02*
X140240000Y-108820000I-500000J0D01*
G01*
X139240000Y-108820000D01*
G75*
G02*
X138740000Y-108320000I0J500000D01*
G01*
X138740000Y-106320000D01*
G75*
G02*
X139240000Y-105820000I500000J0D01*
G01*
X140240000Y-105820000D01*
G75*
G02*
X140740000Y-106320000I0J-500000D01*
G01*
G37*
G36*
G01*
X135660000Y-106320000D02*
X135660000Y-108320000D01*
G75*
G02*
X135160000Y-108820000I-500000J0D01*
G01*
X134160000Y-108820000D01*
G75*
G02*
X133660000Y-108320000I0J500000D01*
G01*
X133660000Y-106320000D01*
G75*
G02*
X134160000Y-105820000I500000J0D01*
G01*
X135160000Y-105820000D01*
G75*
G02*
X135660000Y-106320000I0J-500000D01*
G01*
G37*
G36*
G01*
X138200000Y-106320000D02*
X138200000Y-108320000D01*
G75*
G02*
X137700000Y-108820000I-500000J0D01*
G01*
X136700000Y-108820000D01*
G75*
G02*
X136200000Y-108320000I0J500000D01*
G01*
X136200000Y-106320000D01*
G75*
G02*
X136700000Y-105820000I500000J0D01*
G01*
X137700000Y-105820000D01*
G75*
G02*
X138200000Y-106320000I0J-500000D01*
G01*
G37*
G36*
G01*
X135660000Y-111400000D02*
X135660000Y-113400000D01*
G75*
G02*
X135160000Y-113900000I-500000J0D01*
G01*
X134160000Y-113900000D01*
G75*
G02*
X133660000Y-113400000I0J500000D01*
G01*
X133660000Y-111400000D01*
G75*
G02*
X134160000Y-110900000I500000J0D01*
G01*
X135160000Y-110900000D01*
G75*
G02*
X135660000Y-111400000I0J-500000D01*
G01*
G37*
G36*
G01*
X138200000Y-111400000D02*
X138200000Y-113400000D01*
G75*
G02*
X137700000Y-113900000I-500000J0D01*
G01*
X136700000Y-113900000D01*
G75*
G02*
X136200000Y-113400000I0J500000D01*
G01*
X136200000Y-111400000D01*
G75*
G02*
X136700000Y-110900000I500000J0D01*
G01*
X137700000Y-110900000D01*
G75*
G02*
X138200000Y-111400000I0J-500000D01*
G01*
G37*
G36*
G01*
X140740000Y-111400000D02*
X140740000Y-113400000D01*
G75*
G02*
X140240000Y-113900000I-500000J0D01*
G01*
X139240000Y-113900000D01*
G75*
G02*
X138740000Y-113400000I0J500000D01*
G01*
X138740000Y-111400000D01*
G75*
G02*
X139240000Y-110900000I500000J0D01*
G01*
X140240000Y-110900000D01*
G75*
G02*
X140740000Y-111400000I0J-500000D01*
G01*
G37*
G36*
G01*
X125500000Y-106320000D02*
X125500000Y-108320000D01*
G75*
G02*
X125000000Y-108820000I-500000J0D01*
G01*
X124000000Y-108820000D01*
G75*
G02*
X123500000Y-108320000I0J500000D01*
G01*
X123500000Y-106320000D01*
G75*
G02*
X124000000Y-105820000I500000J0D01*
G01*
X125000000Y-105820000D01*
G75*
G02*
X125500000Y-106320000I0J-500000D01*
G01*
G37*
G36*
G01*
X120420000Y-106320000D02*
X120420000Y-108320000D01*
G75*
G02*
X119920000Y-108820000I-500000J0D01*
G01*
X118920000Y-108820000D01*
G75*
G02*
X118420000Y-108320000I0J500000D01*
G01*
X118420000Y-106320000D01*
G75*
G02*
X118920000Y-105820000I500000J0D01*
G01*
X119920000Y-105820000D01*
G75*
G02*
X120420000Y-106320000I0J-500000D01*
G01*
G37*
G36*
G01*
X122960000Y-106320000D02*
X122960000Y-108320000D01*
G75*
G02*
X122460000Y-108820000I-500000J0D01*
G01*
X121460000Y-108820000D01*
G75*
G02*
X120960000Y-108320000I0J500000D01*
G01*
X120960000Y-106320000D01*
G75*
G02*
X121460000Y-105820000I500000J0D01*
G01*
X122460000Y-105820000D01*
G75*
G02*
X122960000Y-106320000I0J-500000D01*
G01*
G37*
G36*
G01*
X120420000Y-111400000D02*
X120420000Y-113400000D01*
G75*
G02*
X119920000Y-113900000I-500000J0D01*
G01*
X118920000Y-113900000D01*
G75*
G02*
X118420000Y-113400000I0J500000D01*
G01*
X118420000Y-111400000D01*
G75*
G02*
X118920000Y-110900000I500000J0D01*
G01*
X119920000Y-110900000D01*
G75*
G02*
X120420000Y-111400000I0J-500000D01*
G01*
G37*
G36*
G01*
X122960000Y-111400000D02*
X122960000Y-113400000D01*
G75*
G02*
X122460000Y-113900000I-500000J0D01*
G01*
X121460000Y-113900000D01*
G75*
G02*
X120960000Y-113400000I0J500000D01*
G01*
X120960000Y-111400000D01*
G75*
G02*
X121460000Y-110900000I500000J0D01*
G01*
X122460000Y-110900000D01*
G75*
G02*
X122960000Y-111400000I0J-500000D01*
G01*
G37*
G36*
G01*
X125500000Y-111400000D02*
X125500000Y-113400000D01*
G75*
G02*
X125000000Y-113900000I-500000J0D01*
G01*
X124000000Y-113900000D01*
G75*
G02*
X123500000Y-113400000I0J500000D01*
G01*
X123500000Y-111400000D01*
G75*
G02*
X124000000Y-110900000I500000J0D01*
G01*
X125000000Y-110900000D01*
G75*
G02*
X125500000Y-111400000I0J-500000D01*
G01*
G37*
G36*
G01*
X110260000Y-106320000D02*
X110260000Y-108320000D01*
G75*
G02*
X109760000Y-108820000I-500000J0D01*
G01*
X108760000Y-108820000D01*
G75*
G02*
X108260000Y-108320000I0J500000D01*
G01*
X108260000Y-106320000D01*
G75*
G02*
X108760000Y-105820000I500000J0D01*
G01*
X109760000Y-105820000D01*
G75*
G02*
X110260000Y-106320000I0J-500000D01*
G01*
G37*
G36*
G01*
X105180000Y-106320000D02*
X105180000Y-108320000D01*
G75*
G02*
X104680000Y-108820000I-500000J0D01*
G01*
X103680000Y-108820000D01*
G75*
G02*
X103180000Y-108320000I0J500000D01*
G01*
X103180000Y-106320000D01*
G75*
G02*
X103680000Y-105820000I500000J0D01*
G01*
X104680000Y-105820000D01*
G75*
G02*
X105180000Y-106320000I0J-500000D01*
G01*
G37*
G36*
G01*
X107720000Y-106320000D02*
X107720000Y-108320000D01*
G75*
G02*
X107220000Y-108820000I-500000J0D01*
G01*
X106220000Y-108820000D01*
G75*
G02*
X105720000Y-108320000I0J500000D01*
G01*
X105720000Y-106320000D01*
G75*
G02*
X106220000Y-105820000I500000J0D01*
G01*
X107220000Y-105820000D01*
G75*
G02*
X107720000Y-106320000I0J-500000D01*
G01*
G37*
G36*
G01*
X105180000Y-111400000D02*
X105180000Y-113400000D01*
G75*
G02*
X104680000Y-113900000I-500000J0D01*
G01*
X103680000Y-113900000D01*
G75*
G02*
X103180000Y-113400000I0J500000D01*
G01*
X103180000Y-111400000D01*
G75*
G02*
X103680000Y-110900000I500000J0D01*
G01*
X104680000Y-110900000D01*
G75*
G02*
X105180000Y-111400000I0J-500000D01*
G01*
G37*
G36*
G01*
X107720000Y-111400000D02*
X107720000Y-113400000D01*
G75*
G02*
X107220000Y-113900000I-500000J0D01*
G01*
X106220000Y-113900000D01*
G75*
G02*
X105720000Y-113400000I0J500000D01*
G01*
X105720000Y-111400000D01*
G75*
G02*
X106220000Y-110900000I500000J0D01*
G01*
X107220000Y-110900000D01*
G75*
G02*
X107720000Y-111400000I0J-500000D01*
G01*
G37*
G36*
G01*
X110260000Y-111400000D02*
X110260000Y-113400000D01*
G75*
G02*
X109760000Y-113900000I-500000J0D01*
G01*
X108760000Y-113900000D01*
G75*
G02*
X108260000Y-113400000I0J500000D01*
G01*
X108260000Y-111400000D01*
G75*
G02*
X108760000Y-110900000I500000J0D01*
G01*
X109760000Y-110900000D01*
G75*
G02*
X110260000Y-111400000I0J-500000D01*
G01*
G37*
G36*
G01*
X95020000Y-106320000D02*
X95020000Y-108320000D01*
G75*
G02*
X94520000Y-108820000I-500000J0D01*
G01*
X93520000Y-108820000D01*
G75*
G02*
X93020000Y-108320000I0J500000D01*
G01*
X93020000Y-106320000D01*
G75*
G02*
X93520000Y-105820000I500000J0D01*
G01*
X94520000Y-105820000D01*
G75*
G02*
X95020000Y-106320000I0J-500000D01*
G01*
G37*
G36*
G01*
X89940000Y-106320000D02*
X89940000Y-108320000D01*
G75*
G02*
X89440000Y-108820000I-500000J0D01*
G01*
X88440000Y-108820000D01*
G75*
G02*
X87940000Y-108320000I0J500000D01*
G01*
X87940000Y-106320000D01*
G75*
G02*
X88440000Y-105820000I500000J0D01*
G01*
X89440000Y-105820000D01*
G75*
G02*
X89940000Y-106320000I0J-500000D01*
G01*
G37*
G36*
G01*
X92480000Y-106320000D02*
X92480000Y-108320000D01*
G75*
G02*
X91980000Y-108820000I-500000J0D01*
G01*
X90980000Y-108820000D01*
G75*
G02*
X90480000Y-108320000I0J500000D01*
G01*
X90480000Y-106320000D01*
G75*
G02*
X90980000Y-105820000I500000J0D01*
G01*
X91980000Y-105820000D01*
G75*
G02*
X92480000Y-106320000I0J-500000D01*
G01*
G37*
G36*
G01*
X89940000Y-111400000D02*
X89940000Y-113400000D01*
G75*
G02*
X89440000Y-113900000I-500000J0D01*
G01*
X88440000Y-113900000D01*
G75*
G02*
X87940000Y-113400000I0J500000D01*
G01*
X87940000Y-111400000D01*
G75*
G02*
X88440000Y-110900000I500000J0D01*
G01*
X89440000Y-110900000D01*
G75*
G02*
X89940000Y-111400000I0J-500000D01*
G01*
G37*
G36*
G01*
X92480000Y-111400000D02*
X92480000Y-113400000D01*
G75*
G02*
X91980000Y-113900000I-500000J0D01*
G01*
X90980000Y-113900000D01*
G75*
G02*
X90480000Y-113400000I0J500000D01*
G01*
X90480000Y-111400000D01*
G75*
G02*
X90980000Y-110900000I500000J0D01*
G01*
X91980000Y-110900000D01*
G75*
G02*
X92480000Y-111400000I0J-500000D01*
G01*
G37*
G36*
G01*
X95020000Y-111400000D02*
X95020000Y-113400000D01*
G75*
G02*
X94520000Y-113900000I-500000J0D01*
G01*
X93520000Y-113900000D01*
G75*
G02*
X93020000Y-113400000I0J500000D01*
G01*
X93020000Y-111400000D01*
G75*
G02*
X93520000Y-110900000I500000J0D01*
G01*
X94520000Y-110900000D01*
G75*
G02*
X95020000Y-111400000I0J-500000D01*
G01*
G37*
G36*
G01*
X79780000Y-106320000D02*
X79780000Y-108320000D01*
G75*
G02*
X79280000Y-108820000I-500000J0D01*
G01*
X78280000Y-108820000D01*
G75*
G02*
X77780000Y-108320000I0J500000D01*
G01*
X77780000Y-106320000D01*
G75*
G02*
X78280000Y-105820000I500000J0D01*
G01*
X79280000Y-105820000D01*
G75*
G02*
X79780000Y-106320000I0J-500000D01*
G01*
G37*
G36*
G01*
X74700000Y-106320000D02*
X74700000Y-108320000D01*
G75*
G02*
X74200000Y-108820000I-500000J0D01*
G01*
X73200000Y-108820000D01*
G75*
G02*
X72700000Y-108320000I0J500000D01*
G01*
X72700000Y-106320000D01*
G75*
G02*
X73200000Y-105820000I500000J0D01*
G01*
X74200000Y-105820000D01*
G75*
G02*
X74700000Y-106320000I0J-500000D01*
G01*
G37*
G36*
G01*
X77240000Y-106320000D02*
X77240000Y-108320000D01*
G75*
G02*
X76740000Y-108820000I-500000J0D01*
G01*
X75740000Y-108820000D01*
G75*
G02*
X75240000Y-108320000I0J500000D01*
G01*
X75240000Y-106320000D01*
G75*
G02*
X75740000Y-105820000I500000J0D01*
G01*
X76740000Y-105820000D01*
G75*
G02*
X77240000Y-106320000I0J-500000D01*
G01*
G37*
G36*
G01*
X74700000Y-111400000D02*
X74700000Y-113400000D01*
G75*
G02*
X74200000Y-113900000I-500000J0D01*
G01*
X73200000Y-113900000D01*
G75*
G02*
X72700000Y-113400000I0J500000D01*
G01*
X72700000Y-111400000D01*
G75*
G02*
X73200000Y-110900000I500000J0D01*
G01*
X74200000Y-110900000D01*
G75*
G02*
X74700000Y-111400000I0J-500000D01*
G01*
G37*
G36*
G01*
X77240000Y-111400000D02*
X77240000Y-113400000D01*
G75*
G02*
X76740000Y-113900000I-500000J0D01*
G01*
X75740000Y-113900000D01*
G75*
G02*
X75240000Y-113400000I0J500000D01*
G01*
X75240000Y-111400000D01*
G75*
G02*
X75740000Y-110900000I500000J0D01*
G01*
X76740000Y-110900000D01*
G75*
G02*
X77240000Y-111400000I0J-500000D01*
G01*
G37*
G36*
G01*
X79780000Y-111400000D02*
X79780000Y-113400000D01*
G75*
G02*
X79280000Y-113900000I-500000J0D01*
G01*
X78280000Y-113900000D01*
G75*
G02*
X77780000Y-113400000I0J500000D01*
G01*
X77780000Y-111400000D01*
G75*
G02*
X78280000Y-110900000I500000J0D01*
G01*
X79280000Y-110900000D01*
G75*
G02*
X79780000Y-111400000I0J-500000D01*
G01*
G37*
G36*
G01*
X64540000Y-106320000D02*
X64540000Y-108320000D01*
G75*
G02*
X64040000Y-108820000I-500000J0D01*
G01*
X63040000Y-108820000D01*
G75*
G02*
X62540000Y-108320000I0J500000D01*
G01*
X62540000Y-106320000D01*
G75*
G02*
X63040000Y-105820000I500000J0D01*
G01*
X64040000Y-105820000D01*
G75*
G02*
X64540000Y-106320000I0J-500000D01*
G01*
G37*
G36*
G01*
X59460000Y-106320000D02*
X59460000Y-108320000D01*
G75*
G02*
X58960000Y-108820000I-500000J0D01*
G01*
X57960000Y-108820000D01*
G75*
G02*
X57460000Y-108320000I0J500000D01*
G01*
X57460000Y-106320000D01*
G75*
G02*
X57960000Y-105820000I500000J0D01*
G01*
X58960000Y-105820000D01*
G75*
G02*
X59460000Y-106320000I0J-500000D01*
G01*
G37*
G36*
G01*
X62000000Y-106320000D02*
X62000000Y-108320000D01*
G75*
G02*
X61500000Y-108820000I-500000J0D01*
G01*
X60500000Y-108820000D01*
G75*
G02*
X60000000Y-108320000I0J500000D01*
G01*
X60000000Y-106320000D01*
G75*
G02*
X60500000Y-105820000I500000J0D01*
G01*
X61500000Y-105820000D01*
G75*
G02*
X62000000Y-106320000I0J-500000D01*
G01*
G37*
G36*
G01*
X59460000Y-111400000D02*
X59460000Y-113400000D01*
G75*
G02*
X58960000Y-113900000I-500000J0D01*
G01*
X57960000Y-113900000D01*
G75*
G02*
X57460000Y-113400000I0J500000D01*
G01*
X57460000Y-111400000D01*
G75*
G02*
X57960000Y-110900000I500000J0D01*
G01*
X58960000Y-110900000D01*
G75*
G02*
X59460000Y-111400000I0J-500000D01*
G01*
G37*
G36*
G01*
X62000000Y-111400000D02*
X62000000Y-113400000D01*
G75*
G02*
X61500000Y-113900000I-500000J0D01*
G01*
X60500000Y-113900000D01*
G75*
G02*
X60000000Y-113400000I0J500000D01*
G01*
X60000000Y-111400000D01*
G75*
G02*
X60500000Y-110900000I500000J0D01*
G01*
X61500000Y-110900000D01*
G75*
G02*
X62000000Y-111400000I0J-500000D01*
G01*
G37*
G36*
G01*
X64540000Y-111400000D02*
X64540000Y-113400000D01*
G75*
G02*
X64040000Y-113900000I-500000J0D01*
G01*
X63040000Y-113900000D01*
G75*
G02*
X62540000Y-113400000I0J500000D01*
G01*
X62540000Y-111400000D01*
G75*
G02*
X63040000Y-110900000I500000J0D01*
G01*
X64040000Y-110900000D01*
G75*
G02*
X64540000Y-111400000I0J-500000D01*
G01*
G37*
D20*
X125928000Y-43058000D03*
X125927480Y-74058700D03*
X50928900Y-74058700D03*
X50928900Y-43058000D03*
D21*
X94528000Y-43058000D03*
X91988000Y-43058000D03*
X89448000Y-43058000D03*
X86908000Y-43058000D03*
X84368000Y-43058000D03*
X81828000Y-43058000D03*
X79288000Y-43058000D03*
X76748000Y-43058000D03*
X74208000Y-43058000D03*
X71668000Y-43058000D03*
X69128000Y-43058000D03*
X66588000Y-43058000D03*
X64048000Y-43058000D03*
X61508000Y-43058000D03*
X58968000Y-43058000D03*
D22*
X56428000Y-43058000D03*
M02*
