%FSLAX45Y45*%
G04 Gerber Fmt 4.5, Leading zero omitted, Abs format (unit mm)*
G04 Created by KiCad (PCBNEW (5.1.9)-1) date 2021-06-10 17:57:28*
%MOMM*%
%LPD*%
G01*
G04 APERTURE LIST*
%TA.AperFunction,Profile*%
%ADD10C,0.038100*%
%TD*%
%ADD11C,0.200000*%
%ADD12C,0.300000*%
G04 APERTURE END LIST*
D10*
X4500000Y-13250000D02*
X19500000Y-13250000D01*
X19500000Y-3750000D02*
X19500000Y-13250000D01*
X4500000Y-3750000D02*
X19500000Y-3750000D01*
X4500000Y-13250000D02*
X4500000Y-3750000D01*
D11*
X5033250Y-7674850D02*
X5063250Y-7704850D01*
X5063250Y-7674850D02*
X5033250Y-7704850D01*
X5052300Y-7757400D02*
X5082300Y-7787400D01*
X5082300Y-7757400D02*
X5052300Y-7787400D01*
X5153900Y-7744700D02*
X5183900Y-7774700D01*
X5183900Y-7744700D02*
X5153900Y-7774700D01*
X5153900Y-7859000D02*
X5183900Y-7889000D01*
X5183900Y-7859000D02*
X5153900Y-7889000D01*
X5255500Y-7833600D02*
X5285500Y-7863600D01*
X5285500Y-7833600D02*
X5255500Y-7863600D01*
X5255500Y-7935200D02*
X5285500Y-7965200D01*
X5285500Y-7935200D02*
X5255500Y-7965200D01*
X5357100Y-7922500D02*
X5387100Y-7952500D01*
X5387100Y-7922500D02*
X5357100Y-7952500D01*
X5369800Y-8024100D02*
X5399800Y-8054100D01*
X5399800Y-8024100D02*
X5369800Y-8054100D01*
X5450000Y-6423900D02*
X5480000Y-6453900D01*
X5480000Y-6423900D02*
X5450000Y-6453900D01*
X5877800Y-4976100D02*
X5907800Y-5006100D01*
X5907800Y-4976100D02*
X5877800Y-5006100D01*
X6462000Y-5509500D02*
X6492000Y-5539500D01*
X6492000Y-5509500D02*
X6462000Y-5539500D01*
X6462000Y-5763500D02*
X6492000Y-5793500D01*
X6492000Y-5763500D02*
X6462000Y-5793500D01*
X6525500Y-5446000D02*
X6555500Y-5476000D01*
X6555500Y-5446000D02*
X6525500Y-5476000D01*
X6525500Y-5573000D02*
X6555500Y-5603000D01*
X6555500Y-5573000D02*
X6525500Y-5603000D01*
X6525500Y-5700000D02*
X6555500Y-5730000D01*
X6555500Y-5700000D02*
X6525500Y-5730000D01*
X6525500Y-5839700D02*
X6555500Y-5869700D01*
X6555500Y-5839700D02*
X6525500Y-5869700D01*
X6589000Y-5382500D02*
X6619000Y-5412500D01*
X6619000Y-5382500D02*
X6589000Y-5412500D01*
X6589000Y-5636500D02*
X6619000Y-5666500D01*
X6619000Y-5636500D02*
X6589000Y-5666500D01*
X6716000Y-6614400D02*
X6746000Y-6644400D01*
X6746000Y-6614400D02*
X6716000Y-6644400D01*
X6779500Y-6690600D02*
X6809500Y-6720600D01*
X6809500Y-6690600D02*
X6779500Y-6720600D01*
X6843000Y-6614400D02*
X6873000Y-6644400D01*
X6873000Y-6614400D02*
X6843000Y-6644400D01*
X6843000Y-12050000D02*
X6873000Y-12080000D01*
X6873000Y-12050000D02*
X6843000Y-12080000D01*
X6906500Y-6690600D02*
X6936500Y-6720600D01*
X6936500Y-6690600D02*
X6906500Y-6720600D01*
X6970000Y-6614400D02*
X7000000Y-6644400D01*
X7000000Y-6614400D02*
X6970000Y-6644400D01*
X7033500Y-6690600D02*
X7063500Y-6720600D01*
X7063500Y-6690600D02*
X7033500Y-6720600D01*
X7097000Y-6614400D02*
X7127000Y-6644400D01*
X7127000Y-6614400D02*
X7097000Y-6644400D01*
X7122400Y-5128500D02*
X7152400Y-5158500D01*
X7152400Y-5128500D02*
X7122400Y-5158500D01*
X7160500Y-6690600D02*
X7190500Y-6720600D01*
X7190500Y-6690600D02*
X7160500Y-6720600D01*
X7395450Y-6112750D02*
X7425450Y-6142750D01*
X7425450Y-6112750D02*
X7395450Y-6142750D01*
X7516100Y-6335000D02*
X7546100Y-6365000D01*
X7546100Y-6335000D02*
X7516100Y-6365000D01*
X7687550Y-6893800D02*
X7717550Y-6923800D01*
X7717550Y-6893800D02*
X7687550Y-6923800D01*
X7706600Y-5128500D02*
X7736600Y-5158500D01*
X7736600Y-5128500D02*
X7706600Y-5158500D01*
X7909800Y-5382500D02*
X7939800Y-5412500D01*
X7939800Y-5382500D02*
X7909800Y-5412500D01*
X7909800Y-5636500D02*
X7939800Y-5666500D01*
X7939800Y-5636500D02*
X7909800Y-5666500D01*
X7935200Y-6436600D02*
X7965200Y-6466600D01*
X7965200Y-6436600D02*
X7935200Y-6466600D01*
X7960600Y-5249150D02*
X7990600Y-5279150D01*
X7990600Y-5249150D02*
X7960600Y-5279150D01*
X7986000Y-5446000D02*
X8016000Y-5476000D01*
X8016000Y-5446000D02*
X7986000Y-5476000D01*
X7986000Y-5573000D02*
X8016000Y-5603000D01*
X8016000Y-5573000D02*
X7986000Y-5603000D01*
X7986000Y-5700000D02*
X8016000Y-5730000D01*
X8016000Y-5700000D02*
X7986000Y-5730000D01*
X7986000Y-5839700D02*
X8016000Y-5869700D01*
X8016000Y-5839700D02*
X7986000Y-5869700D01*
X8011400Y-6296900D02*
X8041400Y-6326900D01*
X8041400Y-6296900D02*
X8011400Y-6326900D01*
X8011400Y-6373100D02*
X8041400Y-6403100D01*
X8041400Y-6373100D02*
X8011400Y-6403100D01*
X8074900Y-5509500D02*
X8104900Y-5539500D01*
X8104900Y-5509500D02*
X8074900Y-5539500D01*
X8074900Y-5763500D02*
X8104900Y-5793500D01*
X8104900Y-5763500D02*
X8074900Y-5793500D01*
X8316200Y-6881100D02*
X8346200Y-6911100D01*
X8346200Y-6881100D02*
X8316200Y-6911100D01*
X8347950Y-12050000D02*
X8377950Y-12080000D01*
X8377950Y-12050000D02*
X8347950Y-12080000D01*
X8392400Y-6525500D02*
X8422400Y-6555500D01*
X8422400Y-6525500D02*
X8392400Y-6555500D01*
X8557500Y-6525500D02*
X8587500Y-6555500D01*
X8587500Y-6525500D02*
X8557500Y-6555500D01*
X8621000Y-6462000D02*
X8651000Y-6492000D01*
X8651000Y-6462000D02*
X8621000Y-6492000D01*
X8684500Y-6398500D02*
X8714500Y-6428500D01*
X8714500Y-6398500D02*
X8684500Y-6428500D01*
X8697200Y-6893800D02*
X8727200Y-6923800D01*
X8727200Y-6893800D02*
X8697200Y-6923800D01*
X8760700Y-6335000D02*
X8790700Y-6365000D01*
X8790700Y-6335000D02*
X8760700Y-6365000D01*
X8976600Y-6931900D02*
X9006600Y-6961900D01*
X9006600Y-6931900D02*
X8976600Y-6961900D01*
X9031400Y-6449800D02*
X9061400Y-6479800D01*
X9061400Y-6449800D02*
X9031400Y-6479800D01*
X9031400Y-6526000D02*
X9061400Y-6556000D01*
X9061400Y-6526000D02*
X9031400Y-6556000D01*
X9260000Y-6678400D02*
X9290000Y-6708400D01*
X9290000Y-6678400D02*
X9260000Y-6708400D01*
X9336200Y-6678400D02*
X9366200Y-6708400D01*
X9366200Y-6678400D02*
X9336200Y-6708400D01*
X9408400Y-5382500D02*
X9438400Y-5412500D01*
X9438400Y-5382500D02*
X9408400Y-5412500D01*
X9471900Y-6487400D02*
X9501900Y-6517400D01*
X9501900Y-6487400D02*
X9471900Y-6517400D01*
X9484600Y-4976100D02*
X9514600Y-5006100D01*
X9514600Y-4976100D02*
X9484600Y-5006100D01*
X9484600Y-5052300D02*
X9514600Y-5082300D01*
X9514600Y-5052300D02*
X9484600Y-5082300D01*
X9548100Y-5839700D02*
X9578100Y-5869700D01*
X9578100Y-5839700D02*
X9548100Y-5869700D01*
X9687800Y-6881100D02*
X9717800Y-6911100D01*
X9717800Y-6881100D02*
X9687800Y-6911100D01*
X9751300Y-6830300D02*
X9781300Y-6860300D01*
X9781300Y-6830300D02*
X9751300Y-6860300D01*
X9789400Y-5687300D02*
X9819400Y-5717300D01*
X9819400Y-5687300D02*
X9789400Y-5717300D01*
X9789400Y-6525500D02*
X9819400Y-6555500D01*
X9819400Y-6525500D02*
X9789400Y-6555500D01*
X9827500Y-6792200D02*
X9857500Y-6822200D01*
X9857500Y-6792200D02*
X9827500Y-6822200D01*
X9871950Y-12050000D02*
X9901950Y-12080000D01*
X9901950Y-12050000D02*
X9871950Y-12080000D01*
X9929100Y-4823700D02*
X9959100Y-4853700D01*
X9959100Y-4823700D02*
X9929100Y-4853700D01*
X9929100Y-4899900D02*
X9959100Y-4929900D01*
X9959100Y-4899900D02*
X9929100Y-4929900D01*
X9929100Y-4976100D02*
X9959100Y-5006100D01*
X9959100Y-4976100D02*
X9929100Y-5006100D01*
X10049750Y-6525500D02*
X10079750Y-6555500D01*
X10079750Y-6525500D02*
X10049750Y-6555500D01*
X10672050Y-6550900D02*
X10702050Y-6580900D01*
X10702050Y-6550900D02*
X10672050Y-6580900D01*
X10691100Y-6677900D02*
X10721100Y-6707900D01*
X10721100Y-6677900D02*
X10691100Y-6707900D01*
X11281650Y-6677900D02*
X11311650Y-6707900D01*
X11311650Y-6677900D02*
X11281650Y-6707900D01*
X11395950Y-12050000D02*
X11425950Y-12080000D01*
X11425950Y-12050000D02*
X11395950Y-12080000D01*
X11595975Y-5506325D02*
X11625975Y-5536325D01*
X11625975Y-5506325D02*
X11595975Y-5536325D01*
X12380200Y-6627100D02*
X12410200Y-6657100D01*
X12410200Y-6627100D02*
X12380200Y-6657100D01*
X12775300Y-5891900D02*
X12805300Y-5921900D01*
X12805300Y-5891900D02*
X12775300Y-5921900D01*
X12843750Y-6347700D02*
X12873750Y-6377700D01*
X12873750Y-6347700D02*
X12843750Y-6377700D01*
X12926300Y-12050000D02*
X12956300Y-12080000D01*
X12956300Y-12050000D02*
X12926300Y-12080000D01*
X13085050Y-5890500D02*
X13115050Y-5920500D01*
X13115050Y-5890500D02*
X13085050Y-5920500D01*
X14431250Y-12050000D02*
X14461250Y-12080000D01*
X14461250Y-12050000D02*
X14431250Y-12080000D01*
X14894800Y-6677900D02*
X14924800Y-6707900D01*
X14924800Y-6677900D02*
X14894800Y-6707900D01*
X15218650Y-5230100D02*
X15248650Y-5260100D01*
X15248650Y-5230100D02*
X15218650Y-5260100D01*
X15275800Y-7338300D02*
X15305800Y-7368300D01*
X15305800Y-7338300D02*
X15275800Y-7368300D01*
X15580600Y-5230100D02*
X15610600Y-5260100D01*
X15610600Y-5230100D02*
X15580600Y-5260100D01*
X15955250Y-12050000D02*
X15985250Y-12080000D01*
X15985250Y-12050000D02*
X15955250Y-12080000D01*
X17066500Y-4595100D02*
X17096500Y-4625100D01*
X17096500Y-4595100D02*
X17066500Y-4625100D01*
X17066500Y-4988800D02*
X17096500Y-5018800D01*
X17096500Y-4988800D02*
X17066500Y-5018800D01*
X17206200Y-12050000D02*
X17236200Y-12080000D01*
X17236200Y-12050000D02*
X17206200Y-12080000D01*
X17580850Y-9217900D02*
X17610850Y-9247900D01*
X17610850Y-9217900D02*
X17580850Y-9247900D01*
X17580850Y-9624300D02*
X17610850Y-9654300D01*
X17610850Y-9624300D02*
X17580850Y-9654300D01*
X17612600Y-7579600D02*
X17642600Y-7609600D01*
X17642600Y-7579600D02*
X17612600Y-7609600D01*
X17612600Y-7668500D02*
X17642600Y-7698500D01*
X17642600Y-7668500D02*
X17612600Y-7698500D01*
X17707850Y-5147550D02*
X17737850Y-5177550D01*
X17737850Y-5147550D02*
X17707850Y-5177550D01*
X17745950Y-12189700D02*
X17775950Y-12219700D01*
X17775950Y-12189700D02*
X17745950Y-12219700D01*
X17892000Y-4518900D02*
X17922000Y-4548900D01*
X17922000Y-4518900D02*
X17892000Y-4548900D01*
X17892000Y-4849100D02*
X17922000Y-4879100D01*
X17922000Y-4849100D02*
X17892000Y-4879100D01*
X17904700Y-10646650D02*
X17934700Y-10676650D01*
X17934700Y-10646650D02*
X17904700Y-10676650D01*
X18050750Y-5573000D02*
X18080750Y-5603000D01*
X18080750Y-5573000D02*
X18050750Y-5603000D01*
X18057100Y-9484600D02*
X18087100Y-9514600D01*
X18087100Y-9484600D02*
X18057100Y-9514600D01*
X18273000Y-7535150D02*
X18303000Y-7565150D01*
X18303000Y-7535150D02*
X18273000Y-7565150D01*
X18273000Y-7630400D02*
X18303000Y-7660400D01*
X18303000Y-7630400D02*
X18273000Y-7660400D01*
X18412700Y-8913100D02*
X18442700Y-8943100D01*
X18442700Y-8913100D02*
X18412700Y-8943100D01*
X18590500Y-9052800D02*
X18620500Y-9082800D01*
X18620500Y-9052800D02*
X18590500Y-9082800D01*
X18755600Y-10005300D02*
X18785600Y-10035300D01*
X18785600Y-10005300D02*
X18755600Y-10035300D01*
X18844500Y-10646650D02*
X18874500Y-10676650D01*
X18874500Y-10646650D02*
X18844500Y-10676650D01*
X18946100Y-4976100D02*
X18976100Y-5006100D01*
X18976100Y-4976100D02*
X18946100Y-5006100D01*
X19339800Y-4976100D02*
X19369800Y-5006100D01*
X19369800Y-4976100D02*
X19339800Y-5006100D01*
X5632000Y-8065000D02*
G75*
G03*
X5632000Y-8065000I-40000J0D01*
G01*
X5632000Y-8827000D02*
G75*
G03*
X5632000Y-8827000I-40000J0D01*
G01*
X5632000Y-9335000D02*
G75*
G03*
X5632000Y-9335000I-40000J0D01*
G01*
X5632000Y-9843000D02*
G75*
G03*
X5632000Y-9843000I-40000J0D01*
G01*
X6394000Y-8065000D02*
G75*
G03*
X6394000Y-8065000I-40000J0D01*
G01*
X6394000Y-8827000D02*
G75*
G03*
X6394000Y-8827000I-40000J0D01*
G01*
X6394000Y-9335000D02*
G75*
G03*
X6394000Y-9335000I-40000J0D01*
G01*
X6394000Y-9843000D02*
G75*
G03*
X6394000Y-9843000I-40000J0D01*
G01*
X7156000Y-8065000D02*
G75*
G03*
X7156000Y-8065000I-40000J0D01*
G01*
X7156000Y-8827000D02*
G75*
G03*
X7156000Y-8827000I-40000J0D01*
G01*
X7156000Y-9335000D02*
G75*
G03*
X7156000Y-9335000I-40000J0D01*
G01*
X7156000Y-9843000D02*
G75*
G03*
X7156000Y-9843000I-40000J0D01*
G01*
X7918000Y-8065000D02*
G75*
G03*
X7918000Y-8065000I-40000J0D01*
G01*
X7918000Y-8827000D02*
G75*
G03*
X7918000Y-8827000I-40000J0D01*
G01*
X7918000Y-9335000D02*
G75*
G03*
X7918000Y-9335000I-40000J0D01*
G01*
X7918000Y-9843000D02*
G75*
G03*
X7918000Y-9843000I-40000J0D01*
G01*
X8680000Y-8065000D02*
G75*
G03*
X8680000Y-8065000I-40000J0D01*
G01*
X8680000Y-8827000D02*
G75*
G03*
X8680000Y-8827000I-40000J0D01*
G01*
X8680000Y-9335000D02*
G75*
G03*
X8680000Y-9335000I-40000J0D01*
G01*
X8680000Y-9843000D02*
G75*
G03*
X8680000Y-9843000I-40000J0D01*
G01*
X9442000Y-8065000D02*
G75*
G03*
X9442000Y-8065000I-40000J0D01*
G01*
X9442000Y-8827000D02*
G75*
G03*
X9442000Y-8827000I-40000J0D01*
G01*
X9442000Y-9335000D02*
G75*
G03*
X9442000Y-9335000I-40000J0D01*
G01*
X9442000Y-9843000D02*
G75*
G03*
X9442000Y-9843000I-40000J0D01*
G01*
X10204000Y-8065000D02*
G75*
G03*
X10204000Y-8065000I-40000J0D01*
G01*
X10204000Y-8827000D02*
G75*
G03*
X10204000Y-8827000I-40000J0D01*
G01*
X10204000Y-9335000D02*
G75*
G03*
X10204000Y-9335000I-40000J0D01*
G01*
X10204000Y-9843000D02*
G75*
G03*
X10204000Y-9843000I-40000J0D01*
G01*
X10966000Y-8065000D02*
G75*
G03*
X10966000Y-8065000I-40000J0D01*
G01*
X10966000Y-8827000D02*
G75*
G03*
X10966000Y-8827000I-40000J0D01*
G01*
X10966000Y-9335000D02*
G75*
G03*
X10966000Y-9335000I-40000J0D01*
G01*
X10966000Y-9843000D02*
G75*
G03*
X10966000Y-9843000I-40000J0D01*
G01*
X11728000Y-8065000D02*
G75*
G03*
X11728000Y-8065000I-40000J0D01*
G01*
X11728000Y-8827000D02*
G75*
G03*
X11728000Y-8827000I-40000J0D01*
G01*
X11728000Y-9335000D02*
G75*
G03*
X11728000Y-9335000I-40000J0D01*
G01*
X11728000Y-9843000D02*
G75*
G03*
X11728000Y-9843000I-40000J0D01*
G01*
X12490000Y-8065000D02*
G75*
G03*
X12490000Y-8065000I-40000J0D01*
G01*
X12490000Y-8827000D02*
G75*
G03*
X12490000Y-8827000I-40000J0D01*
G01*
X12490000Y-9335000D02*
G75*
G03*
X12490000Y-9335000I-40000J0D01*
G01*
X12490000Y-9843000D02*
G75*
G03*
X12490000Y-9843000I-40000J0D01*
G01*
X13252000Y-8065000D02*
G75*
G03*
X13252000Y-8065000I-40000J0D01*
G01*
X13252000Y-8827000D02*
G75*
G03*
X13252000Y-8827000I-40000J0D01*
G01*
X13252000Y-9335000D02*
G75*
G03*
X13252000Y-9335000I-40000J0D01*
G01*
X13252000Y-9843000D02*
G75*
G03*
X13252000Y-9843000I-40000J0D01*
G01*
X14014000Y-8065000D02*
G75*
G03*
X14014000Y-8065000I-40000J0D01*
G01*
X14014000Y-8827000D02*
G75*
G03*
X14014000Y-8827000I-40000J0D01*
G01*
X14014000Y-9335000D02*
G75*
G03*
X14014000Y-9335000I-40000J0D01*
G01*
X14014000Y-9843000D02*
G75*
G03*
X14014000Y-9843000I-40000J0D01*
G01*
X14776000Y-8065000D02*
G75*
G03*
X14776000Y-8065000I-40000J0D01*
G01*
X14776000Y-8827000D02*
G75*
G03*
X14776000Y-8827000I-40000J0D01*
G01*
X14776000Y-9335000D02*
G75*
G03*
X14776000Y-9335000I-40000J0D01*
G01*
X14776000Y-9843000D02*
G75*
G03*
X14776000Y-9843000I-40000J0D01*
G01*
X15538000Y-8065000D02*
G75*
G03*
X15538000Y-8065000I-40000J0D01*
G01*
X15538000Y-8827000D02*
G75*
G03*
X15538000Y-8827000I-40000J0D01*
G01*
X15538000Y-9335000D02*
G75*
G03*
X15538000Y-9335000I-40000J0D01*
G01*
X15538000Y-9843000D02*
G75*
G03*
X15538000Y-9843000I-40000J0D01*
G01*
X16300000Y-8065000D02*
G75*
G03*
X16300000Y-8065000I-40000J0D01*
G01*
X16300000Y-8827000D02*
G75*
G03*
X16300000Y-8827000I-40000J0D01*
G01*
X16300000Y-9335000D02*
G75*
G03*
X16300000Y-9335000I-40000J0D01*
G01*
X16300000Y-9843000D02*
G75*
G03*
X16300000Y-9843000I-40000J0D01*
G01*
X17062000Y-8065000D02*
G75*
G03*
X17062000Y-8065000I-40000J0D01*
G01*
X17062000Y-8827000D02*
G75*
G03*
X17062000Y-8827000I-40000J0D01*
G01*
X17062000Y-9335000D02*
G75*
G03*
X17062000Y-9335000I-40000J0D01*
G01*
X17062000Y-9843000D02*
G75*
G03*
X17062000Y-9843000I-40000J0D01*
G01*
X17640300Y-11287760D02*
X17640300Y-11369040D01*
X17599660Y-11328400D02*
X17680940Y-11328400D01*
X17640300Y-12049760D02*
X17640300Y-12131040D01*
X17599660Y-12090400D02*
X17680940Y-12090400D01*
X18148300Y-11287760D02*
X18148300Y-11369040D01*
X18107660Y-11328400D02*
X18188940Y-11328400D01*
X18148300Y-12049760D02*
X18148300Y-12131040D01*
X18107660Y-12090400D02*
X18188940Y-12090400D01*
X18592800Y-11287760D02*
X18592800Y-11369040D01*
X18552160Y-11328400D02*
X18633440Y-11328400D01*
X18592800Y-12049760D02*
X18592800Y-12131040D01*
X18552160Y-12090400D02*
X18633440Y-12090400D01*
X19100800Y-11287760D02*
X19100800Y-11369040D01*
X19060160Y-11328400D02*
X19141440Y-11328400D01*
X19100800Y-12049760D02*
X19100800Y-12131040D01*
X19060160Y-12090400D02*
X19141440Y-12090400D01*
X5623820Y-12541820D02*
X5623820Y-12478180D01*
X5560180Y-12478180D01*
X5560180Y-12541820D01*
X5623820Y-12541820D01*
X6023820Y-12541820D02*
X6023820Y-12478180D01*
X5960180Y-12478180D01*
X5960180Y-12541820D01*
X6023820Y-12541820D01*
X6423820Y-12541820D02*
X6423820Y-12478180D01*
X6360180Y-12478180D01*
X6360180Y-12541820D01*
X6423820Y-12541820D01*
X7147820Y-12541820D02*
X7147820Y-12478180D01*
X7084180Y-12478180D01*
X7084180Y-12541820D01*
X7147820Y-12541820D01*
X7547820Y-12541820D02*
X7547820Y-12478180D01*
X7484180Y-12478180D01*
X7484180Y-12541820D01*
X7547820Y-12541820D01*
X7947820Y-12541820D02*
X7947820Y-12478180D01*
X7884180Y-12478180D01*
X7884180Y-12541820D01*
X7947820Y-12541820D01*
X8671820Y-12541820D02*
X8671820Y-12478180D01*
X8608180Y-12478180D01*
X8608180Y-12541820D01*
X8671820Y-12541820D01*
X9071820Y-12541820D02*
X9071820Y-12478180D01*
X9008180Y-12478180D01*
X9008180Y-12541820D01*
X9071820Y-12541820D01*
X9471820Y-12541820D02*
X9471820Y-12478180D01*
X9408180Y-12478180D01*
X9408180Y-12541820D01*
X9471820Y-12541820D01*
X10195820Y-12541820D02*
X10195820Y-12478180D01*
X10132180Y-12478180D01*
X10132180Y-12541820D01*
X10195820Y-12541820D01*
X10595820Y-12541820D02*
X10595820Y-12478180D01*
X10532180Y-12478180D01*
X10532180Y-12541820D01*
X10595820Y-12541820D01*
X10995820Y-12541820D02*
X10995820Y-12478180D01*
X10932180Y-12478180D01*
X10932180Y-12541820D01*
X10995820Y-12541820D01*
X11719820Y-12541820D02*
X11719820Y-12478180D01*
X11656180Y-12478180D01*
X11656180Y-12541820D01*
X11719820Y-12541820D01*
X12119820Y-12541820D02*
X12119820Y-12478180D01*
X12056180Y-12478180D01*
X12056180Y-12541820D01*
X12119820Y-12541820D01*
X12519820Y-12541820D02*
X12519820Y-12478180D01*
X12456180Y-12478180D01*
X12456180Y-12541820D01*
X12519820Y-12541820D01*
X13243820Y-12541820D02*
X13243820Y-12478180D01*
X13180180Y-12478180D01*
X13180180Y-12541820D01*
X13243820Y-12541820D01*
X13643820Y-12541820D02*
X13643820Y-12478180D01*
X13580180Y-12478180D01*
X13580180Y-12541820D01*
X13643820Y-12541820D01*
X14043820Y-12541820D02*
X14043820Y-12478180D01*
X13980180Y-12478180D01*
X13980180Y-12541820D01*
X14043820Y-12541820D01*
X14767820Y-12541820D02*
X14767820Y-12478180D01*
X14704180Y-12478180D01*
X14704180Y-12541820D01*
X14767820Y-12541820D01*
X15167820Y-12541820D02*
X15167820Y-12478180D01*
X15104180Y-12478180D01*
X15104180Y-12541820D01*
X15167820Y-12541820D01*
X15567820Y-12541820D02*
X15567820Y-12478180D01*
X15504180Y-12478180D01*
X15504180Y-12541820D01*
X15567820Y-12541820D01*
X16291820Y-12541820D02*
X16291820Y-12478180D01*
X16228180Y-12478180D01*
X16228180Y-12541820D01*
X16291820Y-12541820D01*
X16691820Y-12541820D02*
X16691820Y-12478180D01*
X16628180Y-12478180D01*
X16628180Y-12541820D01*
X16691820Y-12541820D01*
X17091820Y-12541820D02*
X17091820Y-12478180D01*
X17028180Y-12478180D01*
X17028180Y-12541820D01*
X17091820Y-12541820D01*
X18891320Y-6318420D02*
X18891320Y-6254780D01*
X18827680Y-6254780D01*
X18827680Y-6318420D01*
X18891320Y-6318420D01*
X18891320Y-6718420D02*
X18891320Y-6654780D01*
X18827680Y-6654780D01*
X18827680Y-6718420D01*
X18891320Y-6718420D01*
X18891320Y-7118420D02*
X18891320Y-7054780D01*
X18827680Y-7054780D01*
X18827680Y-7118420D01*
X18891320Y-7118420D01*
X13631100Y-5448000D02*
X13681100Y-5398000D01*
X13631100Y-5348000D01*
X13581100Y-5398000D01*
X13631100Y-5448000D01*
X13631100Y-5702000D02*
X13681100Y-5652000D01*
X13631100Y-5602000D01*
X13581100Y-5652000D01*
X13631100Y-5702000D01*
X13631100Y-5956000D02*
X13681100Y-5906000D01*
X13631100Y-5856000D01*
X13581100Y-5906000D01*
X13631100Y-5956000D01*
X13631100Y-6210000D02*
X13681100Y-6160000D01*
X13631100Y-6110000D01*
X13581100Y-6160000D01*
X13631100Y-6210000D01*
X13631100Y-6464000D02*
X13681100Y-6414000D01*
X13631100Y-6364000D01*
X13581100Y-6414000D01*
X13631100Y-6464000D01*
X13631100Y-6718000D02*
X13681100Y-6668000D01*
X13631100Y-6618000D01*
X13581100Y-6668000D01*
X13631100Y-6718000D01*
X13631100Y-6972000D02*
X13681100Y-6922000D01*
X13631100Y-6872000D01*
X13581100Y-6922000D01*
X13631100Y-6972000D01*
X14393100Y-5448000D02*
X14443100Y-5398000D01*
X14393100Y-5348000D01*
X14343100Y-5398000D01*
X14393100Y-5448000D01*
X14393100Y-5702000D02*
X14443100Y-5652000D01*
X14393100Y-5602000D01*
X14343100Y-5652000D01*
X14393100Y-5702000D01*
X14393100Y-5956000D02*
X14443100Y-5906000D01*
X14393100Y-5856000D01*
X14343100Y-5906000D01*
X14393100Y-5956000D01*
X14393100Y-6210000D02*
X14443100Y-6160000D01*
X14393100Y-6110000D01*
X14343100Y-6160000D01*
X14393100Y-6210000D01*
X14393100Y-6464000D02*
X14443100Y-6414000D01*
X14393100Y-6364000D01*
X14343100Y-6414000D01*
X14393100Y-6464000D01*
X14393100Y-6718000D02*
X14443100Y-6668000D01*
X14393100Y-6618000D01*
X14343100Y-6668000D01*
X14393100Y-6718000D01*
X14393100Y-6972000D02*
X14443100Y-6922000D01*
X14393100Y-6872000D01*
X14343100Y-6922000D01*
X14393100Y-6972000D01*
X18639400Y-5596500D02*
X18749400Y-5706500D01*
X18749400Y-5596500D02*
X18639400Y-5706500D01*
X18749400Y-5651500D02*
G75*
G03*
X18749400Y-5651500I-55000J0D01*
G01*
X19099400Y-5596500D02*
X19209400Y-5706500D01*
X19209400Y-5596500D02*
X19099400Y-5706500D01*
X19209400Y-5651500D02*
G75*
G03*
X19209400Y-5651500I-55000J0D01*
G01*
X5332000Y-12275000D02*
X5452000Y-12395000D01*
X5452000Y-12275000D02*
X5332000Y-12395000D01*
X5392000Y-12275000D02*
X5392000Y-12395000D01*
X5332000Y-12335000D02*
X5452000Y-12335000D01*
X5332000Y-12875000D02*
X5452000Y-12995000D01*
X5452000Y-12875000D02*
X5332000Y-12995000D01*
X5392000Y-12875000D02*
X5392000Y-12995000D01*
X5332000Y-12935000D02*
X5452000Y-12935000D01*
X5582800Y-4245800D02*
X5702800Y-4365800D01*
X5702800Y-4245800D02*
X5582800Y-4365800D01*
X5642800Y-4245800D02*
X5642800Y-4365800D01*
X5582800Y-4305800D02*
X5702800Y-4305800D01*
X5786000Y-10672000D02*
X5906000Y-10792000D01*
X5906000Y-10672000D02*
X5786000Y-10792000D01*
X5846000Y-10672000D02*
X5846000Y-10792000D01*
X5786000Y-10732000D02*
X5906000Y-10732000D01*
X5786000Y-11180000D02*
X5906000Y-11300000D01*
X5906000Y-11180000D02*
X5786000Y-11300000D01*
X5846000Y-11180000D02*
X5846000Y-11300000D01*
X5786000Y-11240000D02*
X5906000Y-11240000D01*
X5836800Y-4245800D02*
X5956800Y-4365800D01*
X5956800Y-4245800D02*
X5836800Y-4365800D01*
X5896800Y-4245800D02*
X5896800Y-4365800D01*
X5836800Y-4305800D02*
X5956800Y-4305800D01*
X6040000Y-10672000D02*
X6160000Y-10792000D01*
X6160000Y-10672000D02*
X6040000Y-10792000D01*
X6100000Y-10672000D02*
X6100000Y-10792000D01*
X6040000Y-10732000D02*
X6160000Y-10732000D01*
X6040000Y-11180000D02*
X6160000Y-11300000D01*
X6160000Y-11180000D02*
X6040000Y-11300000D01*
X6100000Y-11180000D02*
X6100000Y-11300000D01*
X6040000Y-11240000D02*
X6160000Y-11240000D01*
X6090800Y-4245800D02*
X6210800Y-4365800D01*
X6210800Y-4245800D02*
X6090800Y-4365800D01*
X6150800Y-4245800D02*
X6150800Y-4365800D01*
X6090800Y-4305800D02*
X6210800Y-4305800D01*
X6294000Y-10672000D02*
X6414000Y-10792000D01*
X6414000Y-10672000D02*
X6294000Y-10792000D01*
X6354000Y-10672000D02*
X6354000Y-10792000D01*
X6294000Y-10732000D02*
X6414000Y-10732000D01*
X6294000Y-11180000D02*
X6414000Y-11300000D01*
X6414000Y-11180000D02*
X6294000Y-11300000D01*
X6354000Y-11180000D02*
X6354000Y-11300000D01*
X6294000Y-11240000D02*
X6414000Y-11240000D01*
X6344800Y-4245800D02*
X6464800Y-4365800D01*
X6464800Y-4245800D02*
X6344800Y-4365800D01*
X6404800Y-4245800D02*
X6404800Y-4365800D01*
X6344800Y-4305800D02*
X6464800Y-4305800D01*
X6532000Y-12275000D02*
X6652000Y-12395000D01*
X6652000Y-12275000D02*
X6532000Y-12395000D01*
X6592000Y-12275000D02*
X6592000Y-12395000D01*
X6532000Y-12335000D02*
X6652000Y-12335000D01*
X6532000Y-12875000D02*
X6652000Y-12995000D01*
X6652000Y-12875000D02*
X6532000Y-12995000D01*
X6592000Y-12875000D02*
X6592000Y-12995000D01*
X6532000Y-12935000D02*
X6652000Y-12935000D01*
X6598800Y-4245800D02*
X6718800Y-4365800D01*
X6718800Y-4245800D02*
X6598800Y-4365800D01*
X6658800Y-4245800D02*
X6658800Y-4365800D01*
X6598800Y-4305800D02*
X6718800Y-4305800D01*
X6852800Y-4245800D02*
X6972800Y-4365800D01*
X6972800Y-4245800D02*
X6852800Y-4365800D01*
X6912800Y-4245800D02*
X6912800Y-4365800D01*
X6852800Y-4305800D02*
X6972800Y-4305800D01*
X6856000Y-12275000D02*
X6976000Y-12395000D01*
X6976000Y-12275000D02*
X6856000Y-12395000D01*
X6916000Y-12275000D02*
X6916000Y-12395000D01*
X6856000Y-12335000D02*
X6976000Y-12335000D01*
X6856000Y-12875000D02*
X6976000Y-12995000D01*
X6976000Y-12875000D02*
X6856000Y-12995000D01*
X6916000Y-12875000D02*
X6916000Y-12995000D01*
X6856000Y-12935000D02*
X6976000Y-12935000D01*
X7106800Y-4245800D02*
X7226800Y-4365800D01*
X7226800Y-4245800D02*
X7106800Y-4365800D01*
X7166800Y-4245800D02*
X7166800Y-4365800D01*
X7106800Y-4305800D02*
X7226800Y-4305800D01*
X7310000Y-10672000D02*
X7430000Y-10792000D01*
X7430000Y-10672000D02*
X7310000Y-10792000D01*
X7370000Y-10672000D02*
X7370000Y-10792000D01*
X7310000Y-10732000D02*
X7430000Y-10732000D01*
X7310000Y-11180000D02*
X7430000Y-11300000D01*
X7430000Y-11180000D02*
X7310000Y-11300000D01*
X7370000Y-11180000D02*
X7370000Y-11300000D01*
X7310000Y-11240000D02*
X7430000Y-11240000D01*
X7360800Y-4245800D02*
X7480800Y-4365800D01*
X7480800Y-4245800D02*
X7360800Y-4365800D01*
X7420800Y-4245800D02*
X7420800Y-4365800D01*
X7360800Y-4305800D02*
X7480800Y-4305800D01*
X7564000Y-10672000D02*
X7684000Y-10792000D01*
X7684000Y-10672000D02*
X7564000Y-10792000D01*
X7624000Y-10672000D02*
X7624000Y-10792000D01*
X7564000Y-10732000D02*
X7684000Y-10732000D01*
X7564000Y-11180000D02*
X7684000Y-11300000D01*
X7684000Y-11180000D02*
X7564000Y-11300000D01*
X7624000Y-11180000D02*
X7624000Y-11300000D01*
X7564000Y-11240000D02*
X7684000Y-11240000D01*
X7614800Y-4245800D02*
X7734800Y-4365800D01*
X7734800Y-4245800D02*
X7614800Y-4365800D01*
X7674800Y-4245800D02*
X7674800Y-4365800D01*
X7614800Y-4305800D02*
X7734800Y-4305800D01*
X7818000Y-10672000D02*
X7938000Y-10792000D01*
X7938000Y-10672000D02*
X7818000Y-10792000D01*
X7878000Y-10672000D02*
X7878000Y-10792000D01*
X7818000Y-10732000D02*
X7938000Y-10732000D01*
X7818000Y-11180000D02*
X7938000Y-11300000D01*
X7938000Y-11180000D02*
X7818000Y-11300000D01*
X7878000Y-11180000D02*
X7878000Y-11300000D01*
X7818000Y-11240000D02*
X7938000Y-11240000D01*
X7868800Y-4245800D02*
X7988800Y-4365800D01*
X7988800Y-4245800D02*
X7868800Y-4365800D01*
X7928800Y-4245800D02*
X7928800Y-4365800D01*
X7868800Y-4305800D02*
X7988800Y-4305800D01*
X8056000Y-12275000D02*
X8176000Y-12395000D01*
X8176000Y-12275000D02*
X8056000Y-12395000D01*
X8116000Y-12275000D02*
X8116000Y-12395000D01*
X8056000Y-12335000D02*
X8176000Y-12335000D01*
X8056000Y-12875000D02*
X8176000Y-12995000D01*
X8176000Y-12875000D02*
X8056000Y-12995000D01*
X8116000Y-12875000D02*
X8116000Y-12995000D01*
X8056000Y-12935000D02*
X8176000Y-12935000D01*
X8122800Y-4245800D02*
X8242800Y-4365800D01*
X8242800Y-4245800D02*
X8122800Y-4365800D01*
X8182800Y-4245800D02*
X8182800Y-4365800D01*
X8122800Y-4305800D02*
X8242800Y-4305800D01*
X8376800Y-4245800D02*
X8496800Y-4365800D01*
X8496800Y-4245800D02*
X8376800Y-4365800D01*
X8436800Y-4245800D02*
X8436800Y-4365800D01*
X8376800Y-4305800D02*
X8496800Y-4305800D01*
X8380000Y-12275000D02*
X8500000Y-12395000D01*
X8500000Y-12275000D02*
X8380000Y-12395000D01*
X8440000Y-12275000D02*
X8440000Y-12395000D01*
X8380000Y-12335000D02*
X8500000Y-12335000D01*
X8380000Y-12875000D02*
X8500000Y-12995000D01*
X8500000Y-12875000D02*
X8380000Y-12995000D01*
X8440000Y-12875000D02*
X8440000Y-12995000D01*
X8380000Y-12935000D02*
X8500000Y-12935000D01*
X8630800Y-4245800D02*
X8750800Y-4365800D01*
X8750800Y-4245800D02*
X8630800Y-4365800D01*
X8690800Y-4245800D02*
X8690800Y-4365800D01*
X8630800Y-4305800D02*
X8750800Y-4305800D01*
X8834000Y-10672000D02*
X8954000Y-10792000D01*
X8954000Y-10672000D02*
X8834000Y-10792000D01*
X8894000Y-10672000D02*
X8894000Y-10792000D01*
X8834000Y-10732000D02*
X8954000Y-10732000D01*
X8834000Y-11180000D02*
X8954000Y-11300000D01*
X8954000Y-11180000D02*
X8834000Y-11300000D01*
X8894000Y-11180000D02*
X8894000Y-11300000D01*
X8834000Y-11240000D02*
X8954000Y-11240000D01*
X8884800Y-4245800D02*
X9004800Y-4365800D01*
X9004800Y-4245800D02*
X8884800Y-4365800D01*
X8944800Y-4245800D02*
X8944800Y-4365800D01*
X8884800Y-4305800D02*
X9004800Y-4305800D01*
X9088000Y-10672000D02*
X9208000Y-10792000D01*
X9208000Y-10672000D02*
X9088000Y-10792000D01*
X9148000Y-10672000D02*
X9148000Y-10792000D01*
X9088000Y-10732000D02*
X9208000Y-10732000D01*
X9088000Y-11180000D02*
X9208000Y-11300000D01*
X9208000Y-11180000D02*
X9088000Y-11300000D01*
X9148000Y-11180000D02*
X9148000Y-11300000D01*
X9088000Y-11240000D02*
X9208000Y-11240000D01*
X9138800Y-4245800D02*
X9258800Y-4365800D01*
X9258800Y-4245800D02*
X9138800Y-4365800D01*
X9198800Y-4245800D02*
X9198800Y-4365800D01*
X9138800Y-4305800D02*
X9258800Y-4305800D01*
X9342000Y-10672000D02*
X9462000Y-10792000D01*
X9462000Y-10672000D02*
X9342000Y-10792000D01*
X9402000Y-10672000D02*
X9402000Y-10792000D01*
X9342000Y-10732000D02*
X9462000Y-10732000D01*
X9342000Y-11180000D02*
X9462000Y-11300000D01*
X9462000Y-11180000D02*
X9342000Y-11300000D01*
X9402000Y-11180000D02*
X9402000Y-11300000D01*
X9342000Y-11240000D02*
X9462000Y-11240000D01*
X9392800Y-4245800D02*
X9512800Y-4365800D01*
X9512800Y-4245800D02*
X9392800Y-4365800D01*
X9452800Y-4245800D02*
X9452800Y-4365800D01*
X9392800Y-4305800D02*
X9512800Y-4305800D01*
X9580000Y-12275000D02*
X9700000Y-12395000D01*
X9700000Y-12275000D02*
X9580000Y-12395000D01*
X9640000Y-12275000D02*
X9640000Y-12395000D01*
X9580000Y-12335000D02*
X9700000Y-12335000D01*
X9580000Y-12875000D02*
X9700000Y-12995000D01*
X9700000Y-12875000D02*
X9580000Y-12995000D01*
X9640000Y-12875000D02*
X9640000Y-12995000D01*
X9580000Y-12935000D02*
X9700000Y-12935000D01*
X9904000Y-12275000D02*
X10024000Y-12395000D01*
X10024000Y-12275000D02*
X9904000Y-12395000D01*
X9964000Y-12275000D02*
X9964000Y-12395000D01*
X9904000Y-12335000D02*
X10024000Y-12335000D01*
X9904000Y-12875000D02*
X10024000Y-12995000D01*
X10024000Y-12875000D02*
X9904000Y-12995000D01*
X9964000Y-12875000D02*
X9964000Y-12995000D01*
X9904000Y-12935000D02*
X10024000Y-12935000D01*
X10358000Y-10672000D02*
X10478000Y-10792000D01*
X10478000Y-10672000D02*
X10358000Y-10792000D01*
X10418000Y-10672000D02*
X10418000Y-10792000D01*
X10358000Y-10732000D02*
X10478000Y-10732000D01*
X10358000Y-11180000D02*
X10478000Y-11300000D01*
X10478000Y-11180000D02*
X10358000Y-11300000D01*
X10418000Y-11180000D02*
X10418000Y-11300000D01*
X10358000Y-11240000D02*
X10478000Y-11240000D01*
X10612000Y-10672000D02*
X10732000Y-10792000D01*
X10732000Y-10672000D02*
X10612000Y-10792000D01*
X10672000Y-10672000D02*
X10672000Y-10792000D01*
X10612000Y-10732000D02*
X10732000Y-10732000D01*
X10612000Y-11180000D02*
X10732000Y-11300000D01*
X10732000Y-11180000D02*
X10612000Y-11300000D01*
X10672000Y-11180000D02*
X10672000Y-11300000D01*
X10612000Y-11240000D02*
X10732000Y-11240000D01*
X10866000Y-10672000D02*
X10986000Y-10792000D01*
X10986000Y-10672000D02*
X10866000Y-10792000D01*
X10926000Y-10672000D02*
X10926000Y-10792000D01*
X10866000Y-10732000D02*
X10986000Y-10732000D01*
X10866000Y-11180000D02*
X10986000Y-11300000D01*
X10986000Y-11180000D02*
X10866000Y-11300000D01*
X10926000Y-11180000D02*
X10926000Y-11300000D01*
X10866000Y-11240000D02*
X10986000Y-11240000D01*
X11104000Y-12275000D02*
X11224000Y-12395000D01*
X11224000Y-12275000D02*
X11104000Y-12395000D01*
X11164000Y-12275000D02*
X11164000Y-12395000D01*
X11104000Y-12335000D02*
X11224000Y-12335000D01*
X11104000Y-12875000D02*
X11224000Y-12995000D01*
X11224000Y-12875000D02*
X11104000Y-12995000D01*
X11164000Y-12875000D02*
X11164000Y-12995000D01*
X11104000Y-12935000D02*
X11224000Y-12935000D01*
X11428000Y-12275000D02*
X11548000Y-12395000D01*
X11548000Y-12275000D02*
X11428000Y-12395000D01*
X11488000Y-12275000D02*
X11488000Y-12395000D01*
X11428000Y-12335000D02*
X11548000Y-12335000D01*
X11428000Y-12875000D02*
X11548000Y-12995000D01*
X11548000Y-12875000D02*
X11428000Y-12995000D01*
X11488000Y-12875000D02*
X11488000Y-12995000D01*
X11428000Y-12935000D02*
X11548000Y-12935000D01*
X11882000Y-10672000D02*
X12002000Y-10792000D01*
X12002000Y-10672000D02*
X11882000Y-10792000D01*
X11942000Y-10672000D02*
X11942000Y-10792000D01*
X11882000Y-10732000D02*
X12002000Y-10732000D01*
X11882000Y-11180000D02*
X12002000Y-11300000D01*
X12002000Y-11180000D02*
X11882000Y-11300000D01*
X11942000Y-11180000D02*
X11942000Y-11300000D01*
X11882000Y-11240000D02*
X12002000Y-11240000D01*
X12136000Y-10672000D02*
X12256000Y-10792000D01*
X12256000Y-10672000D02*
X12136000Y-10792000D01*
X12196000Y-10672000D02*
X12196000Y-10792000D01*
X12136000Y-10732000D02*
X12256000Y-10732000D01*
X12136000Y-11180000D02*
X12256000Y-11300000D01*
X12256000Y-11180000D02*
X12136000Y-11300000D01*
X12196000Y-11180000D02*
X12196000Y-11300000D01*
X12136000Y-11240000D02*
X12256000Y-11240000D01*
X12390000Y-10672000D02*
X12510000Y-10792000D01*
X12510000Y-10672000D02*
X12390000Y-10792000D01*
X12450000Y-10672000D02*
X12450000Y-10792000D01*
X12390000Y-10732000D02*
X12510000Y-10732000D01*
X12390000Y-11180000D02*
X12510000Y-11300000D01*
X12510000Y-11180000D02*
X12390000Y-11300000D01*
X12450000Y-11180000D02*
X12450000Y-11300000D01*
X12390000Y-11240000D02*
X12510000Y-11240000D01*
X12628000Y-12275000D02*
X12748000Y-12395000D01*
X12748000Y-12275000D02*
X12628000Y-12395000D01*
X12688000Y-12275000D02*
X12688000Y-12395000D01*
X12628000Y-12335000D02*
X12748000Y-12335000D01*
X12628000Y-12875000D02*
X12748000Y-12995000D01*
X12748000Y-12875000D02*
X12628000Y-12995000D01*
X12688000Y-12875000D02*
X12688000Y-12995000D01*
X12628000Y-12935000D02*
X12748000Y-12935000D01*
X12952000Y-12275000D02*
X13072000Y-12395000D01*
X13072000Y-12275000D02*
X12952000Y-12395000D01*
X13012000Y-12275000D02*
X13012000Y-12395000D01*
X12952000Y-12335000D02*
X13072000Y-12335000D01*
X12952000Y-12875000D02*
X13072000Y-12995000D01*
X13072000Y-12875000D02*
X12952000Y-12995000D01*
X13012000Y-12875000D02*
X13012000Y-12995000D01*
X12952000Y-12935000D02*
X13072000Y-12935000D01*
X13406000Y-10672000D02*
X13526000Y-10792000D01*
X13526000Y-10672000D02*
X13406000Y-10792000D01*
X13466000Y-10672000D02*
X13466000Y-10792000D01*
X13406000Y-10732000D02*
X13526000Y-10732000D01*
X13406000Y-11180000D02*
X13526000Y-11300000D01*
X13526000Y-11180000D02*
X13406000Y-11300000D01*
X13466000Y-11180000D02*
X13466000Y-11300000D01*
X13406000Y-11240000D02*
X13526000Y-11240000D01*
X13660000Y-10672000D02*
X13780000Y-10792000D01*
X13780000Y-10672000D02*
X13660000Y-10792000D01*
X13720000Y-10672000D02*
X13720000Y-10792000D01*
X13660000Y-10732000D02*
X13780000Y-10732000D01*
X13660000Y-11180000D02*
X13780000Y-11300000D01*
X13780000Y-11180000D02*
X13660000Y-11300000D01*
X13720000Y-11180000D02*
X13720000Y-11300000D01*
X13660000Y-11240000D02*
X13780000Y-11240000D01*
X13914000Y-10672000D02*
X14034000Y-10792000D01*
X14034000Y-10672000D02*
X13914000Y-10792000D01*
X13974000Y-10672000D02*
X13974000Y-10792000D01*
X13914000Y-10732000D02*
X14034000Y-10732000D01*
X13914000Y-11180000D02*
X14034000Y-11300000D01*
X14034000Y-11180000D02*
X13914000Y-11300000D01*
X13974000Y-11180000D02*
X13974000Y-11300000D01*
X13914000Y-11240000D02*
X14034000Y-11240000D01*
X14152000Y-12275000D02*
X14272000Y-12395000D01*
X14272000Y-12275000D02*
X14152000Y-12395000D01*
X14212000Y-12275000D02*
X14212000Y-12395000D01*
X14152000Y-12335000D02*
X14272000Y-12335000D01*
X14152000Y-12875000D02*
X14272000Y-12995000D01*
X14272000Y-12875000D02*
X14152000Y-12995000D01*
X14212000Y-12875000D02*
X14212000Y-12995000D01*
X14152000Y-12935000D02*
X14272000Y-12935000D01*
X14476000Y-12275000D02*
X14596000Y-12395000D01*
X14596000Y-12275000D02*
X14476000Y-12395000D01*
X14536000Y-12275000D02*
X14536000Y-12395000D01*
X14476000Y-12335000D02*
X14596000Y-12335000D01*
X14476000Y-12875000D02*
X14596000Y-12995000D01*
X14596000Y-12875000D02*
X14476000Y-12995000D01*
X14536000Y-12875000D02*
X14536000Y-12995000D01*
X14476000Y-12935000D02*
X14596000Y-12935000D01*
X14930000Y-10672000D02*
X15050000Y-10792000D01*
X15050000Y-10672000D02*
X14930000Y-10792000D01*
X14990000Y-10672000D02*
X14990000Y-10792000D01*
X14930000Y-10732000D02*
X15050000Y-10732000D01*
X14930000Y-11180000D02*
X15050000Y-11300000D01*
X15050000Y-11180000D02*
X14930000Y-11300000D01*
X14990000Y-11180000D02*
X14990000Y-11300000D01*
X14930000Y-11240000D02*
X15050000Y-11240000D01*
X15184000Y-10672000D02*
X15304000Y-10792000D01*
X15304000Y-10672000D02*
X15184000Y-10792000D01*
X15244000Y-10672000D02*
X15244000Y-10792000D01*
X15184000Y-10732000D02*
X15304000Y-10732000D01*
X15184000Y-11180000D02*
X15304000Y-11300000D01*
X15304000Y-11180000D02*
X15184000Y-11300000D01*
X15244000Y-11180000D02*
X15244000Y-11300000D01*
X15184000Y-11240000D02*
X15304000Y-11240000D01*
X15438000Y-10672000D02*
X15558000Y-10792000D01*
X15558000Y-10672000D02*
X15438000Y-10792000D01*
X15498000Y-10672000D02*
X15498000Y-10792000D01*
X15438000Y-10732000D02*
X15558000Y-10732000D01*
X15438000Y-11180000D02*
X15558000Y-11300000D01*
X15558000Y-11180000D02*
X15438000Y-11300000D01*
X15498000Y-11180000D02*
X15498000Y-11300000D01*
X15438000Y-11240000D02*
X15558000Y-11240000D01*
X15676000Y-12275000D02*
X15796000Y-12395000D01*
X15796000Y-12275000D02*
X15676000Y-12395000D01*
X15736000Y-12275000D02*
X15736000Y-12395000D01*
X15676000Y-12335000D02*
X15796000Y-12335000D01*
X15676000Y-12875000D02*
X15796000Y-12995000D01*
X15796000Y-12875000D02*
X15676000Y-12995000D01*
X15736000Y-12875000D02*
X15736000Y-12995000D01*
X15676000Y-12935000D02*
X15796000Y-12935000D01*
X16000000Y-12275000D02*
X16120000Y-12395000D01*
X16120000Y-12275000D02*
X16000000Y-12395000D01*
X16060000Y-12275000D02*
X16060000Y-12395000D01*
X16000000Y-12335000D02*
X16120000Y-12335000D01*
X16000000Y-12875000D02*
X16120000Y-12995000D01*
X16120000Y-12875000D02*
X16000000Y-12995000D01*
X16060000Y-12875000D02*
X16060000Y-12995000D01*
X16000000Y-12935000D02*
X16120000Y-12935000D01*
X16454000Y-10672000D02*
X16574000Y-10792000D01*
X16574000Y-10672000D02*
X16454000Y-10792000D01*
X16514000Y-10672000D02*
X16514000Y-10792000D01*
X16454000Y-10732000D02*
X16574000Y-10732000D01*
X16454000Y-11180000D02*
X16574000Y-11300000D01*
X16574000Y-11180000D02*
X16454000Y-11300000D01*
X16514000Y-11180000D02*
X16514000Y-11300000D01*
X16454000Y-11240000D02*
X16574000Y-11240000D01*
X16708000Y-10672000D02*
X16828000Y-10792000D01*
X16828000Y-10672000D02*
X16708000Y-10792000D01*
X16768000Y-10672000D02*
X16768000Y-10792000D01*
X16708000Y-10732000D02*
X16828000Y-10732000D01*
X16708000Y-11180000D02*
X16828000Y-11300000D01*
X16828000Y-11180000D02*
X16708000Y-11300000D01*
X16768000Y-11180000D02*
X16768000Y-11300000D01*
X16708000Y-11240000D02*
X16828000Y-11240000D01*
X16962000Y-10672000D02*
X17082000Y-10792000D01*
X17082000Y-10672000D02*
X16962000Y-10792000D01*
X17022000Y-10672000D02*
X17022000Y-10792000D01*
X16962000Y-10732000D02*
X17082000Y-10732000D01*
X16962000Y-11180000D02*
X17082000Y-11300000D01*
X17082000Y-11180000D02*
X16962000Y-11300000D01*
X17022000Y-11180000D02*
X17022000Y-11300000D01*
X16962000Y-11240000D02*
X17082000Y-11240000D01*
X17200000Y-12275000D02*
X17320000Y-12395000D01*
X17320000Y-12275000D02*
X17200000Y-12395000D01*
X17260000Y-12275000D02*
X17260000Y-12395000D01*
X17200000Y-12335000D02*
X17320000Y-12335000D01*
X17200000Y-12875000D02*
X17320000Y-12995000D01*
X17320000Y-12875000D02*
X17200000Y-12995000D01*
X17260000Y-12875000D02*
X17260000Y-12995000D01*
X17200000Y-12935000D02*
X17320000Y-12935000D01*
X18624500Y-6026600D02*
X18744500Y-6146600D01*
X18744500Y-6026600D02*
X18624500Y-6146600D01*
X18684500Y-6026600D02*
X18684500Y-6146600D01*
X18624500Y-6086600D02*
X18744500Y-6086600D01*
X18624500Y-7226600D02*
X18744500Y-7346600D01*
X18744500Y-7226600D02*
X18624500Y-7346600D01*
X18684500Y-7226600D02*
X18684500Y-7346600D01*
X18624500Y-7286600D02*
X18744500Y-7286600D01*
X19224500Y-6026600D02*
X19344500Y-6146600D01*
X19344500Y-6026600D02*
X19224500Y-6146600D01*
X19284500Y-6026600D02*
X19284500Y-6146600D01*
X19224500Y-6086600D02*
X19344500Y-6086600D01*
X19224500Y-7226600D02*
X19344500Y-7346600D01*
X19344500Y-7226600D02*
X19224500Y-7346600D01*
X19284500Y-7226600D02*
X19284500Y-7346600D01*
X19224500Y-7286600D02*
X19344500Y-7286600D01*
X15898900Y-4303800D02*
X16028900Y-4433800D01*
X16028900Y-4303800D02*
X15898900Y-4433800D01*
X16009862Y-4414762D02*
X16009862Y-4322838D01*
X15917938Y-4322838D01*
X15917938Y-4414762D01*
X16009862Y-4414762D01*
X16148900Y-5303800D02*
X16278900Y-5433800D01*
X16278900Y-5303800D02*
X16148900Y-5433800D01*
X16259862Y-5414762D02*
X16259862Y-5322838D01*
X16167938Y-5322838D01*
X16167938Y-5414762D01*
X16259862Y-5414762D01*
X16398900Y-4303800D02*
X16528900Y-4433800D01*
X16528900Y-4303800D02*
X16398900Y-4433800D01*
X16509862Y-4414762D02*
X16509862Y-4322838D01*
X16417938Y-4322838D01*
X16417938Y-4414762D01*
X16509862Y-4414762D01*
X4967890Y-4180800D02*
X5217890Y-4430800D01*
X5217890Y-4180800D02*
X4967890Y-4430800D01*
X5092890Y-4430800D02*
X5217890Y-4305800D01*
X5092890Y-4180800D01*
X4967890Y-4305800D01*
X5092890Y-4430800D01*
X4967890Y-7280870D02*
X5217890Y-7530870D01*
X5217890Y-7280870D02*
X4967890Y-7530870D01*
X5092890Y-7530870D02*
X5217890Y-7405870D01*
X5092890Y-7280870D01*
X4967890Y-7405870D01*
X5092890Y-7530870D01*
X12467748Y-7280870D02*
X12717748Y-7530870D01*
X12717748Y-7280870D02*
X12467748Y-7530870D01*
X12592748Y-7530870D02*
X12717748Y-7405870D01*
X12592748Y-7280870D01*
X12467748Y-7405870D01*
X12592748Y-7530870D01*
X12467800Y-4180800D02*
X12717800Y-4430800D01*
X12717800Y-4180800D02*
X12467800Y-4430800D01*
X12592800Y-4430800D02*
X12717800Y-4305800D01*
X12592800Y-4180800D01*
X12467800Y-4305800D01*
X12592800Y-4430800D01*
X4750000Y-3840000D02*
X4750000Y-4160000D01*
X4590000Y-4000000D02*
X4910000Y-4000000D01*
X4910000Y-4000000D02*
G75*
G03*
X4910000Y-4000000I-160000J0D01*
G01*
X4750000Y-12840000D02*
X4750000Y-13160000D01*
X4590000Y-13000000D02*
X4910000Y-13000000D01*
X4910000Y-13000000D02*
G75*
G03*
X4910000Y-13000000I-160000J0D01*
G01*
X19250000Y-3840000D02*
X19250000Y-4160000D01*
X19090000Y-4000000D02*
X19410000Y-4000000D01*
X19410000Y-4000000D02*
G75*
G03*
X19410000Y-4000000I-160000J0D01*
G01*
X19250000Y-12840000D02*
X19250000Y-13160000D01*
X19090000Y-13000000D02*
X19410000Y-13000000D01*
X19410000Y-13000000D02*
G75*
G03*
X19410000Y-13000000I-160000J0D01*
G01*
D12*
X4784523Y-13717619D02*
X4784523Y-13417619D01*
X4855952Y-13417619D01*
X4898809Y-13431905D01*
X4927381Y-13460476D01*
X4941666Y-13489048D01*
X4955952Y-13546191D01*
X4955952Y-13589048D01*
X4941666Y-13646191D01*
X4927381Y-13674762D01*
X4898809Y-13703334D01*
X4855952Y-13717619D01*
X4784523Y-13717619D01*
X5084523Y-13717619D02*
X5084523Y-13517619D01*
X5084523Y-13574762D02*
X5098809Y-13546191D01*
X5113095Y-13531905D01*
X5141666Y-13517619D01*
X5170238Y-13517619D01*
X5270238Y-13717619D02*
X5270238Y-13517619D01*
X5270238Y-13417619D02*
X5255952Y-13431905D01*
X5270238Y-13446191D01*
X5284523Y-13431905D01*
X5270238Y-13417619D01*
X5270238Y-13446191D01*
X5455952Y-13717619D02*
X5427381Y-13703334D01*
X5413095Y-13674762D01*
X5413095Y-13417619D01*
X5613095Y-13717619D02*
X5584523Y-13703334D01*
X5570238Y-13674762D01*
X5570238Y-13417619D01*
X5955952Y-13717619D02*
X5955952Y-13417619D01*
X6055952Y-13631905D01*
X6155952Y-13417619D01*
X6155952Y-13717619D01*
X6427381Y-13717619D02*
X6427381Y-13560476D01*
X6413095Y-13531905D01*
X6384523Y-13517619D01*
X6327381Y-13517619D01*
X6298809Y-13531905D01*
X6427381Y-13703334D02*
X6398809Y-13717619D01*
X6327381Y-13717619D01*
X6298809Y-13703334D01*
X6284523Y-13674762D01*
X6284523Y-13646191D01*
X6298809Y-13617619D01*
X6327381Y-13603334D01*
X6398809Y-13603334D01*
X6427381Y-13589048D01*
X6570238Y-13517619D02*
X6570238Y-13817619D01*
X6570238Y-13531905D02*
X6598809Y-13517619D01*
X6655952Y-13517619D01*
X6684523Y-13531905D01*
X6698809Y-13546191D01*
X6713095Y-13574762D01*
X6713095Y-13660476D01*
X6698809Y-13689048D01*
X6684523Y-13703334D01*
X6655952Y-13717619D01*
X6598809Y-13717619D01*
X6570238Y-13703334D01*
X6841666Y-13689048D02*
X6855952Y-13703334D01*
X6841666Y-13717619D01*
X6827381Y-13703334D01*
X6841666Y-13689048D01*
X6841666Y-13717619D01*
X6841666Y-13531905D02*
X6855952Y-13546191D01*
X6841666Y-13560476D01*
X6827381Y-13546191D01*
X6841666Y-13531905D01*
X6841666Y-13560476D01*
X4468095Y-14196905D02*
X4498095Y-14226905D01*
X4498095Y-14196905D02*
X4468095Y-14226905D01*
X4841666Y-14047619D02*
X4870238Y-14047619D01*
X4898809Y-14061905D01*
X4913095Y-14076191D01*
X4927381Y-14104762D01*
X4941666Y-14161905D01*
X4941666Y-14233334D01*
X4927381Y-14290476D01*
X4913095Y-14319048D01*
X4898809Y-14333334D01*
X4870238Y-14347619D01*
X4841666Y-14347619D01*
X4813095Y-14333334D01*
X4798809Y-14319048D01*
X4784523Y-14290476D01*
X4770238Y-14233334D01*
X4770238Y-14161905D01*
X4784523Y-14104762D01*
X4798809Y-14076191D01*
X4813095Y-14061905D01*
X4841666Y-14047619D01*
X5070238Y-14319048D02*
X5084523Y-14333334D01*
X5070238Y-14347619D01*
X5055952Y-14333334D01*
X5070238Y-14319048D01*
X5070238Y-14347619D01*
X5184523Y-14047619D02*
X5370238Y-14047619D01*
X5270238Y-14161905D01*
X5313095Y-14161905D01*
X5341666Y-14176191D01*
X5355952Y-14190476D01*
X5370238Y-14219048D01*
X5370238Y-14290476D01*
X5355952Y-14319048D01*
X5341666Y-14333334D01*
X5313095Y-14347619D01*
X5227381Y-14347619D01*
X5198809Y-14333334D01*
X5184523Y-14319048D01*
X5555952Y-14047619D02*
X5584523Y-14047619D01*
X5613095Y-14061905D01*
X5627381Y-14076191D01*
X5641666Y-14104762D01*
X5655952Y-14161905D01*
X5655952Y-14233334D01*
X5641666Y-14290476D01*
X5627381Y-14319048D01*
X5613095Y-14333334D01*
X5584523Y-14347619D01*
X5555952Y-14347619D01*
X5527381Y-14333334D01*
X5513095Y-14319048D01*
X5498809Y-14290476D01*
X5484523Y-14233334D01*
X5484523Y-14161905D01*
X5498809Y-14104762D01*
X5513095Y-14076191D01*
X5527381Y-14061905D01*
X5555952Y-14047619D01*
X5784523Y-14347619D02*
X5784523Y-14147619D01*
X5784523Y-14176191D02*
X5798809Y-14161905D01*
X5827381Y-14147619D01*
X5870238Y-14147619D01*
X5898809Y-14161905D01*
X5913095Y-14190476D01*
X5913095Y-14347619D01*
X5913095Y-14190476D02*
X5927381Y-14161905D01*
X5955952Y-14147619D01*
X5998809Y-14147619D01*
X6027381Y-14161905D01*
X6041666Y-14190476D01*
X6041666Y-14347619D01*
X6184523Y-14347619D02*
X6184523Y-14147619D01*
X6184523Y-14176191D02*
X6198809Y-14161905D01*
X6227381Y-14147619D01*
X6270238Y-14147619D01*
X6298809Y-14161905D01*
X6313095Y-14190476D01*
X6313095Y-14347619D01*
X6313095Y-14190476D02*
X6327381Y-14161905D01*
X6355952Y-14147619D01*
X6398809Y-14147619D01*
X6427381Y-14161905D01*
X6441666Y-14190476D01*
X6441666Y-14347619D01*
X7027381Y-14033334D02*
X6770238Y-14419048D01*
X7413095Y-14047619D02*
X7441666Y-14047619D01*
X7470238Y-14061905D01*
X7484523Y-14076191D01*
X7498809Y-14104762D01*
X7513095Y-14161905D01*
X7513095Y-14233334D01*
X7498809Y-14290476D01*
X7484523Y-14319048D01*
X7470238Y-14333334D01*
X7441666Y-14347619D01*
X7413095Y-14347619D01*
X7384523Y-14333334D01*
X7370238Y-14319048D01*
X7355952Y-14290476D01*
X7341666Y-14233334D01*
X7341666Y-14161905D01*
X7355952Y-14104762D01*
X7370238Y-14076191D01*
X7384523Y-14061905D01*
X7413095Y-14047619D01*
X7641666Y-14319048D02*
X7655952Y-14333334D01*
X7641666Y-14347619D01*
X7627381Y-14333334D01*
X7641666Y-14319048D01*
X7641666Y-14347619D01*
X7841666Y-14047619D02*
X7870238Y-14047619D01*
X7898809Y-14061905D01*
X7913095Y-14076191D01*
X7927381Y-14104762D01*
X7941666Y-14161905D01*
X7941666Y-14233334D01*
X7927381Y-14290476D01*
X7913095Y-14319048D01*
X7898809Y-14333334D01*
X7870238Y-14347619D01*
X7841666Y-14347619D01*
X7813095Y-14333334D01*
X7798809Y-14319048D01*
X7784523Y-14290476D01*
X7770238Y-14233334D01*
X7770238Y-14161905D01*
X7784523Y-14104762D01*
X7798809Y-14076191D01*
X7813095Y-14061905D01*
X7841666Y-14047619D01*
X8227381Y-14347619D02*
X8055952Y-14347619D01*
X8141666Y-14347619D02*
X8141666Y-14047619D01*
X8113095Y-14090476D01*
X8084523Y-14119048D01*
X8055952Y-14133334D01*
X8341666Y-14076191D02*
X8355952Y-14061905D01*
X8384523Y-14047619D01*
X8455952Y-14047619D01*
X8484523Y-14061905D01*
X8498809Y-14076191D01*
X8513095Y-14104762D01*
X8513095Y-14133334D01*
X8498809Y-14176191D01*
X8327381Y-14347619D01*
X8513095Y-14347619D01*
X8627381Y-14047619D02*
X8627381Y-14104762D01*
X8741666Y-14047619D02*
X8741666Y-14104762D01*
X9184523Y-14461905D02*
X9170238Y-14447619D01*
X9141666Y-14404762D01*
X9127381Y-14376191D01*
X9113095Y-14333334D01*
X9098809Y-14261905D01*
X9098809Y-14204762D01*
X9113095Y-14133334D01*
X9127381Y-14090476D01*
X9141666Y-14061905D01*
X9170238Y-14019048D01*
X9184523Y-14004762D01*
X9455952Y-14347619D02*
X9284523Y-14347619D01*
X9370238Y-14347619D02*
X9370238Y-14047619D01*
X9341666Y-14090476D01*
X9313095Y-14119048D01*
X9284523Y-14133334D01*
X9741666Y-14347619D02*
X9570238Y-14347619D01*
X9655952Y-14347619D02*
X9655952Y-14047619D01*
X9627381Y-14090476D01*
X9598809Y-14119048D01*
X9570238Y-14133334D01*
X9927381Y-14047619D02*
X9955952Y-14047619D01*
X9984523Y-14061905D01*
X9998809Y-14076191D01*
X10013095Y-14104762D01*
X10027381Y-14161905D01*
X10027381Y-14233334D01*
X10013095Y-14290476D01*
X9998809Y-14319048D01*
X9984523Y-14333334D01*
X9955952Y-14347619D01*
X9927381Y-14347619D01*
X9898809Y-14333334D01*
X9884523Y-14319048D01*
X9870238Y-14290476D01*
X9855952Y-14233334D01*
X9855952Y-14161905D01*
X9870238Y-14104762D01*
X9884523Y-14076191D01*
X9898809Y-14061905D01*
X9927381Y-14047619D01*
X10384523Y-14347619D02*
X10384523Y-14047619D01*
X10513095Y-14347619D02*
X10513095Y-14190476D01*
X10498809Y-14161905D01*
X10470238Y-14147619D01*
X10427381Y-14147619D01*
X10398809Y-14161905D01*
X10384523Y-14176191D01*
X10698809Y-14347619D02*
X10670238Y-14333334D01*
X10655952Y-14319048D01*
X10641666Y-14290476D01*
X10641666Y-14204762D01*
X10655952Y-14176191D01*
X10670238Y-14161905D01*
X10698809Y-14147619D01*
X10741666Y-14147619D01*
X10770238Y-14161905D01*
X10784523Y-14176191D01*
X10798809Y-14204762D01*
X10798809Y-14290476D01*
X10784523Y-14319048D01*
X10770238Y-14333334D01*
X10741666Y-14347619D01*
X10698809Y-14347619D01*
X10970238Y-14347619D02*
X10941666Y-14333334D01*
X10927381Y-14304762D01*
X10927381Y-14047619D01*
X11198809Y-14333334D02*
X11170238Y-14347619D01*
X11113095Y-14347619D01*
X11084523Y-14333334D01*
X11070238Y-14304762D01*
X11070238Y-14190476D01*
X11084523Y-14161905D01*
X11113095Y-14147619D01*
X11170238Y-14147619D01*
X11198809Y-14161905D01*
X11213095Y-14190476D01*
X11213095Y-14219048D01*
X11070238Y-14247619D01*
X11327381Y-14333334D02*
X11355952Y-14347619D01*
X11413095Y-14347619D01*
X11441666Y-14333334D01*
X11455952Y-14304762D01*
X11455952Y-14290476D01*
X11441666Y-14261905D01*
X11413095Y-14247619D01*
X11370238Y-14247619D01*
X11341666Y-14233334D01*
X11327381Y-14204762D01*
X11327381Y-14190476D01*
X11341666Y-14161905D01*
X11370238Y-14147619D01*
X11413095Y-14147619D01*
X11441666Y-14161905D01*
X11555952Y-14461905D02*
X11570238Y-14447619D01*
X11598809Y-14404762D01*
X11613095Y-14376191D01*
X11627381Y-14333334D01*
X11641666Y-14261905D01*
X11641666Y-14204762D01*
X11627381Y-14133334D01*
X11613095Y-14090476D01*
X11598809Y-14061905D01*
X11570238Y-14019048D01*
X11555952Y-14004762D01*
X4498095Y-14607905D02*
G75*
G03*
X4498095Y-14607905I-40000J0D01*
G01*
X4841666Y-14443619D02*
X4870238Y-14443619D01*
X4898809Y-14457905D01*
X4913095Y-14472191D01*
X4927381Y-14500762D01*
X4941666Y-14557905D01*
X4941666Y-14629334D01*
X4927381Y-14686476D01*
X4913095Y-14715048D01*
X4898809Y-14729334D01*
X4870238Y-14743619D01*
X4841666Y-14743619D01*
X4813095Y-14729334D01*
X4798809Y-14715048D01*
X4784523Y-14686476D01*
X4770238Y-14629334D01*
X4770238Y-14557905D01*
X4784523Y-14500762D01*
X4798809Y-14472191D01*
X4813095Y-14457905D01*
X4841666Y-14443619D01*
X5070238Y-14715048D02*
X5084523Y-14729334D01*
X5070238Y-14743619D01*
X5055952Y-14729334D01*
X5070238Y-14715048D01*
X5070238Y-14743619D01*
X5255952Y-14572191D02*
X5227381Y-14557905D01*
X5213095Y-14543619D01*
X5198809Y-14515048D01*
X5198809Y-14500762D01*
X5213095Y-14472191D01*
X5227381Y-14457905D01*
X5255952Y-14443619D01*
X5313095Y-14443619D01*
X5341666Y-14457905D01*
X5355952Y-14472191D01*
X5370238Y-14500762D01*
X5370238Y-14515048D01*
X5355952Y-14543619D01*
X5341666Y-14557905D01*
X5313095Y-14572191D01*
X5255952Y-14572191D01*
X5227381Y-14586476D01*
X5213095Y-14600762D01*
X5198809Y-14629334D01*
X5198809Y-14686476D01*
X5213095Y-14715048D01*
X5227381Y-14729334D01*
X5255952Y-14743619D01*
X5313095Y-14743619D01*
X5341666Y-14729334D01*
X5355952Y-14715048D01*
X5370238Y-14686476D01*
X5370238Y-14629334D01*
X5355952Y-14600762D01*
X5341666Y-14586476D01*
X5313095Y-14572191D01*
X5555952Y-14443619D02*
X5584523Y-14443619D01*
X5613095Y-14457905D01*
X5627381Y-14472191D01*
X5641666Y-14500762D01*
X5655952Y-14557905D01*
X5655952Y-14629334D01*
X5641666Y-14686476D01*
X5627381Y-14715048D01*
X5613095Y-14729334D01*
X5584523Y-14743619D01*
X5555952Y-14743619D01*
X5527381Y-14729334D01*
X5513095Y-14715048D01*
X5498809Y-14686476D01*
X5484523Y-14629334D01*
X5484523Y-14557905D01*
X5498809Y-14500762D01*
X5513095Y-14472191D01*
X5527381Y-14457905D01*
X5555952Y-14443619D01*
X5784523Y-14743619D02*
X5784523Y-14543619D01*
X5784523Y-14572191D02*
X5798809Y-14557905D01*
X5827381Y-14543619D01*
X5870238Y-14543619D01*
X5898809Y-14557905D01*
X5913095Y-14586476D01*
X5913095Y-14743619D01*
X5913095Y-14586476D02*
X5927381Y-14557905D01*
X5955952Y-14543619D01*
X5998809Y-14543619D01*
X6027381Y-14557905D01*
X6041666Y-14586476D01*
X6041666Y-14743619D01*
X6184523Y-14743619D02*
X6184523Y-14543619D01*
X6184523Y-14572191D02*
X6198809Y-14557905D01*
X6227381Y-14543619D01*
X6270238Y-14543619D01*
X6298809Y-14557905D01*
X6313095Y-14586476D01*
X6313095Y-14743619D01*
X6313095Y-14586476D02*
X6327381Y-14557905D01*
X6355952Y-14543619D01*
X6398809Y-14543619D01*
X6427381Y-14557905D01*
X6441666Y-14586476D01*
X6441666Y-14743619D01*
X7027381Y-14429334D02*
X6770238Y-14815048D01*
X7413095Y-14443619D02*
X7441666Y-14443619D01*
X7470238Y-14457905D01*
X7484523Y-14472191D01*
X7498809Y-14500762D01*
X7513095Y-14557905D01*
X7513095Y-14629334D01*
X7498809Y-14686476D01*
X7484523Y-14715048D01*
X7470238Y-14729334D01*
X7441666Y-14743619D01*
X7413095Y-14743619D01*
X7384523Y-14729334D01*
X7370238Y-14715048D01*
X7355952Y-14686476D01*
X7341666Y-14629334D01*
X7341666Y-14557905D01*
X7355952Y-14500762D01*
X7370238Y-14472191D01*
X7384523Y-14457905D01*
X7413095Y-14443619D01*
X7641666Y-14715048D02*
X7655952Y-14729334D01*
X7641666Y-14743619D01*
X7627381Y-14729334D01*
X7641666Y-14715048D01*
X7641666Y-14743619D01*
X7841666Y-14443619D02*
X7870238Y-14443619D01*
X7898809Y-14457905D01*
X7913095Y-14472191D01*
X7927381Y-14500762D01*
X7941666Y-14557905D01*
X7941666Y-14629334D01*
X7927381Y-14686476D01*
X7913095Y-14715048D01*
X7898809Y-14729334D01*
X7870238Y-14743619D01*
X7841666Y-14743619D01*
X7813095Y-14729334D01*
X7798809Y-14715048D01*
X7784523Y-14686476D01*
X7770238Y-14629334D01*
X7770238Y-14557905D01*
X7784523Y-14500762D01*
X7798809Y-14472191D01*
X7813095Y-14457905D01*
X7841666Y-14443619D01*
X8041666Y-14443619D02*
X8227381Y-14443619D01*
X8127381Y-14557905D01*
X8170238Y-14557905D01*
X8198809Y-14572191D01*
X8213095Y-14586476D01*
X8227381Y-14615048D01*
X8227381Y-14686476D01*
X8213095Y-14715048D01*
X8198809Y-14729334D01*
X8170238Y-14743619D01*
X8084523Y-14743619D01*
X8055952Y-14729334D01*
X8041666Y-14715048D01*
X8513095Y-14743619D02*
X8341666Y-14743619D01*
X8427381Y-14743619D02*
X8427381Y-14443619D01*
X8398809Y-14486476D01*
X8370238Y-14515048D01*
X8341666Y-14529334D01*
X8627381Y-14443619D02*
X8627381Y-14500762D01*
X8741666Y-14443619D02*
X8741666Y-14500762D01*
X9184523Y-14857905D02*
X9170238Y-14843619D01*
X9141666Y-14800762D01*
X9127381Y-14772191D01*
X9113095Y-14729334D01*
X9098809Y-14657905D01*
X9098809Y-14600762D01*
X9113095Y-14529334D01*
X9127381Y-14486476D01*
X9141666Y-14457905D01*
X9170238Y-14415048D01*
X9184523Y-14400762D01*
X9427381Y-14443619D02*
X9370238Y-14443619D01*
X9341666Y-14457905D01*
X9327381Y-14472191D01*
X9298809Y-14515048D01*
X9284523Y-14572191D01*
X9284523Y-14686476D01*
X9298809Y-14715048D01*
X9313095Y-14729334D01*
X9341666Y-14743619D01*
X9398809Y-14743619D01*
X9427381Y-14729334D01*
X9441666Y-14715048D01*
X9455952Y-14686476D01*
X9455952Y-14615048D01*
X9441666Y-14586476D01*
X9427381Y-14572191D01*
X9398809Y-14557905D01*
X9341666Y-14557905D01*
X9313095Y-14572191D01*
X9298809Y-14586476D01*
X9284523Y-14615048D01*
X9713095Y-14543619D02*
X9713095Y-14743619D01*
X9641666Y-14429334D02*
X9570238Y-14643619D01*
X9755952Y-14643619D01*
X10098809Y-14743619D02*
X10098809Y-14443619D01*
X10227381Y-14743619D02*
X10227381Y-14586476D01*
X10213095Y-14557905D01*
X10184523Y-14543619D01*
X10141666Y-14543619D01*
X10113095Y-14557905D01*
X10098809Y-14572191D01*
X10413095Y-14743619D02*
X10384523Y-14729334D01*
X10370238Y-14715048D01*
X10355952Y-14686476D01*
X10355952Y-14600762D01*
X10370238Y-14572191D01*
X10384523Y-14557905D01*
X10413095Y-14543619D01*
X10455952Y-14543619D01*
X10484523Y-14557905D01*
X10498809Y-14572191D01*
X10513095Y-14600762D01*
X10513095Y-14686476D01*
X10498809Y-14715048D01*
X10484523Y-14729334D01*
X10455952Y-14743619D01*
X10413095Y-14743619D01*
X10684523Y-14743619D02*
X10655952Y-14729334D01*
X10641666Y-14700762D01*
X10641666Y-14443619D01*
X10913095Y-14729334D02*
X10884523Y-14743619D01*
X10827381Y-14743619D01*
X10798809Y-14729334D01*
X10784523Y-14700762D01*
X10784523Y-14586476D01*
X10798809Y-14557905D01*
X10827381Y-14543619D01*
X10884523Y-14543619D01*
X10913095Y-14557905D01*
X10927381Y-14586476D01*
X10927381Y-14615048D01*
X10784523Y-14643619D01*
X11041666Y-14729334D02*
X11070238Y-14743619D01*
X11127381Y-14743619D01*
X11155952Y-14729334D01*
X11170238Y-14700762D01*
X11170238Y-14686476D01*
X11155952Y-14657905D01*
X11127381Y-14643619D01*
X11084523Y-14643619D01*
X11055952Y-14629334D01*
X11041666Y-14600762D01*
X11041666Y-14586476D01*
X11055952Y-14557905D01*
X11084523Y-14543619D01*
X11127381Y-14543619D01*
X11155952Y-14557905D01*
X11270238Y-14857905D02*
X11284523Y-14843619D01*
X11313095Y-14800762D01*
X11327381Y-14772191D01*
X11341666Y-14729334D01*
X11355952Y-14657905D01*
X11355952Y-14600762D01*
X11341666Y-14529334D01*
X11327381Y-14486476D01*
X11313095Y-14457905D01*
X11284523Y-14415048D01*
X11270238Y-14400762D01*
X4457455Y-14963265D02*
X4457455Y-15044545D01*
X4416815Y-15003905D02*
X4498095Y-15003905D01*
X4841666Y-14839619D02*
X4870238Y-14839619D01*
X4898809Y-14853905D01*
X4913095Y-14868191D01*
X4927381Y-14896762D01*
X4941666Y-14953905D01*
X4941666Y-15025334D01*
X4927381Y-15082476D01*
X4913095Y-15111048D01*
X4898809Y-15125334D01*
X4870238Y-15139619D01*
X4841666Y-15139619D01*
X4813095Y-15125334D01*
X4798809Y-15111048D01*
X4784523Y-15082476D01*
X4770238Y-15025334D01*
X4770238Y-14953905D01*
X4784523Y-14896762D01*
X4798809Y-14868191D01*
X4813095Y-14853905D01*
X4841666Y-14839619D01*
X5070238Y-15111048D02*
X5084523Y-15125334D01*
X5070238Y-15139619D01*
X5055952Y-15125334D01*
X5070238Y-15111048D01*
X5070238Y-15139619D01*
X5255952Y-14968191D02*
X5227381Y-14953905D01*
X5213095Y-14939619D01*
X5198809Y-14911048D01*
X5198809Y-14896762D01*
X5213095Y-14868191D01*
X5227381Y-14853905D01*
X5255952Y-14839619D01*
X5313095Y-14839619D01*
X5341666Y-14853905D01*
X5355952Y-14868191D01*
X5370238Y-14896762D01*
X5370238Y-14911048D01*
X5355952Y-14939619D01*
X5341666Y-14953905D01*
X5313095Y-14968191D01*
X5255952Y-14968191D01*
X5227381Y-14982476D01*
X5213095Y-14996762D01*
X5198809Y-15025334D01*
X5198809Y-15082476D01*
X5213095Y-15111048D01*
X5227381Y-15125334D01*
X5255952Y-15139619D01*
X5313095Y-15139619D01*
X5341666Y-15125334D01*
X5355952Y-15111048D01*
X5370238Y-15082476D01*
X5370238Y-15025334D01*
X5355952Y-14996762D01*
X5341666Y-14982476D01*
X5313095Y-14968191D01*
X5655952Y-15139619D02*
X5484523Y-15139619D01*
X5570238Y-15139619D02*
X5570238Y-14839619D01*
X5541666Y-14882476D01*
X5513095Y-14911048D01*
X5484523Y-14925334D01*
X5784523Y-15139619D02*
X5784523Y-14939619D01*
X5784523Y-14968191D02*
X5798809Y-14953905D01*
X5827381Y-14939619D01*
X5870238Y-14939619D01*
X5898809Y-14953905D01*
X5913095Y-14982476D01*
X5913095Y-15139619D01*
X5913095Y-14982476D02*
X5927381Y-14953905D01*
X5955952Y-14939619D01*
X5998809Y-14939619D01*
X6027381Y-14953905D01*
X6041666Y-14982476D01*
X6041666Y-15139619D01*
X6184523Y-15139619D02*
X6184523Y-14939619D01*
X6184523Y-14968191D02*
X6198809Y-14953905D01*
X6227381Y-14939619D01*
X6270238Y-14939619D01*
X6298809Y-14953905D01*
X6313095Y-14982476D01*
X6313095Y-15139619D01*
X6313095Y-14982476D02*
X6327381Y-14953905D01*
X6355952Y-14939619D01*
X6398809Y-14939619D01*
X6427381Y-14953905D01*
X6441666Y-14982476D01*
X6441666Y-15139619D01*
X7027381Y-14825334D02*
X6770238Y-15211048D01*
X7413095Y-14839619D02*
X7441666Y-14839619D01*
X7470238Y-14853905D01*
X7484523Y-14868191D01*
X7498809Y-14896762D01*
X7513095Y-14953905D01*
X7513095Y-15025334D01*
X7498809Y-15082476D01*
X7484523Y-15111048D01*
X7470238Y-15125334D01*
X7441666Y-15139619D01*
X7413095Y-15139619D01*
X7384523Y-15125334D01*
X7370238Y-15111048D01*
X7355952Y-15082476D01*
X7341666Y-15025334D01*
X7341666Y-14953905D01*
X7355952Y-14896762D01*
X7370238Y-14868191D01*
X7384523Y-14853905D01*
X7413095Y-14839619D01*
X7641666Y-15111048D02*
X7655952Y-15125334D01*
X7641666Y-15139619D01*
X7627381Y-15125334D01*
X7641666Y-15111048D01*
X7641666Y-15139619D01*
X7841666Y-14839619D02*
X7870238Y-14839619D01*
X7898809Y-14853905D01*
X7913095Y-14868191D01*
X7927381Y-14896762D01*
X7941666Y-14953905D01*
X7941666Y-15025334D01*
X7927381Y-15082476D01*
X7913095Y-15111048D01*
X7898809Y-15125334D01*
X7870238Y-15139619D01*
X7841666Y-15139619D01*
X7813095Y-15125334D01*
X7798809Y-15111048D01*
X7784523Y-15082476D01*
X7770238Y-15025334D01*
X7770238Y-14953905D01*
X7784523Y-14896762D01*
X7798809Y-14868191D01*
X7813095Y-14853905D01*
X7841666Y-14839619D01*
X8041666Y-14839619D02*
X8227381Y-14839619D01*
X8127381Y-14953905D01*
X8170238Y-14953905D01*
X8198809Y-14968191D01*
X8213095Y-14982476D01*
X8227381Y-15011048D01*
X8227381Y-15082476D01*
X8213095Y-15111048D01*
X8198809Y-15125334D01*
X8170238Y-15139619D01*
X8084523Y-15139619D01*
X8055952Y-15125334D01*
X8041666Y-15111048D01*
X8341666Y-14868191D02*
X8355952Y-14853905D01*
X8384523Y-14839619D01*
X8455952Y-14839619D01*
X8484523Y-14853905D01*
X8498809Y-14868191D01*
X8513095Y-14896762D01*
X8513095Y-14925334D01*
X8498809Y-14968191D01*
X8327381Y-15139619D01*
X8513095Y-15139619D01*
X8627381Y-14839619D02*
X8627381Y-14896762D01*
X8741666Y-14839619D02*
X8741666Y-14896762D01*
X9184523Y-15253905D02*
X9170238Y-15239619D01*
X9141666Y-15196762D01*
X9127381Y-15168191D01*
X9113095Y-15125334D01*
X9098809Y-15053905D01*
X9098809Y-14996762D01*
X9113095Y-14925334D01*
X9127381Y-14882476D01*
X9141666Y-14853905D01*
X9170238Y-14811048D01*
X9184523Y-14796762D01*
X9341666Y-14968191D02*
X9313095Y-14953905D01*
X9298809Y-14939619D01*
X9284523Y-14911048D01*
X9284523Y-14896762D01*
X9298809Y-14868191D01*
X9313095Y-14853905D01*
X9341666Y-14839619D01*
X9398809Y-14839619D01*
X9427381Y-14853905D01*
X9441666Y-14868191D01*
X9455952Y-14896762D01*
X9455952Y-14911048D01*
X9441666Y-14939619D01*
X9427381Y-14953905D01*
X9398809Y-14968191D01*
X9341666Y-14968191D01*
X9313095Y-14982476D01*
X9298809Y-14996762D01*
X9284523Y-15025334D01*
X9284523Y-15082476D01*
X9298809Y-15111048D01*
X9313095Y-15125334D01*
X9341666Y-15139619D01*
X9398809Y-15139619D01*
X9427381Y-15125334D01*
X9441666Y-15111048D01*
X9455952Y-15082476D01*
X9455952Y-15025334D01*
X9441666Y-14996762D01*
X9427381Y-14982476D01*
X9398809Y-14968191D01*
X9813095Y-15139619D02*
X9813095Y-14839619D01*
X9941666Y-15139619D02*
X9941666Y-14982476D01*
X9927381Y-14953905D01*
X9898809Y-14939619D01*
X9855952Y-14939619D01*
X9827381Y-14953905D01*
X9813095Y-14968191D01*
X10127381Y-15139619D02*
X10098809Y-15125334D01*
X10084523Y-15111048D01*
X10070238Y-15082476D01*
X10070238Y-14996762D01*
X10084523Y-14968191D01*
X10098809Y-14953905D01*
X10127381Y-14939619D01*
X10170238Y-14939619D01*
X10198809Y-14953905D01*
X10213095Y-14968191D01*
X10227381Y-14996762D01*
X10227381Y-15082476D01*
X10213095Y-15111048D01*
X10198809Y-15125334D01*
X10170238Y-15139619D01*
X10127381Y-15139619D01*
X10398809Y-15139619D02*
X10370238Y-15125334D01*
X10355952Y-15096762D01*
X10355952Y-14839619D01*
X10627381Y-15125334D02*
X10598809Y-15139619D01*
X10541666Y-15139619D01*
X10513095Y-15125334D01*
X10498809Y-15096762D01*
X10498809Y-14982476D01*
X10513095Y-14953905D01*
X10541666Y-14939619D01*
X10598809Y-14939619D01*
X10627381Y-14953905D01*
X10641666Y-14982476D01*
X10641666Y-15011048D01*
X10498809Y-15039619D01*
X10755952Y-15125334D02*
X10784523Y-15139619D01*
X10841666Y-15139619D01*
X10870238Y-15125334D01*
X10884523Y-15096762D01*
X10884523Y-15082476D01*
X10870238Y-15053905D01*
X10841666Y-15039619D01*
X10798809Y-15039619D01*
X10770238Y-15025334D01*
X10755952Y-14996762D01*
X10755952Y-14982476D01*
X10770238Y-14953905D01*
X10798809Y-14939619D01*
X10841666Y-14939619D01*
X10870238Y-14953905D01*
X10984523Y-15253905D02*
X10998809Y-15239619D01*
X11027381Y-15196762D01*
X11041666Y-15168191D01*
X11055952Y-15125334D01*
X11070238Y-15053905D01*
X11070238Y-14996762D01*
X11055952Y-14925334D01*
X11041666Y-14882476D01*
X11027381Y-14853905D01*
X10998809Y-14811048D01*
X10984523Y-14796762D01*
X4484915Y-15431725D02*
X4484915Y-15368085D01*
X4421275Y-15368085D01*
X4421275Y-15431725D01*
X4484915Y-15431725D01*
X4841666Y-15235619D02*
X4870238Y-15235619D01*
X4898809Y-15249905D01*
X4913095Y-15264191D01*
X4927381Y-15292762D01*
X4941666Y-15349905D01*
X4941666Y-15421334D01*
X4927381Y-15478476D01*
X4913095Y-15507048D01*
X4898809Y-15521334D01*
X4870238Y-15535619D01*
X4841666Y-15535619D01*
X4813095Y-15521334D01*
X4798809Y-15507048D01*
X4784523Y-15478476D01*
X4770238Y-15421334D01*
X4770238Y-15349905D01*
X4784523Y-15292762D01*
X4798809Y-15264191D01*
X4813095Y-15249905D01*
X4841666Y-15235619D01*
X5070238Y-15507048D02*
X5084523Y-15521334D01*
X5070238Y-15535619D01*
X5055952Y-15521334D01*
X5070238Y-15507048D01*
X5070238Y-15535619D01*
X5227381Y-15535619D02*
X5284523Y-15535619D01*
X5313095Y-15521334D01*
X5327381Y-15507048D01*
X5355952Y-15464191D01*
X5370238Y-15407048D01*
X5370238Y-15292762D01*
X5355952Y-15264191D01*
X5341666Y-15249905D01*
X5313095Y-15235619D01*
X5255952Y-15235619D01*
X5227381Y-15249905D01*
X5213095Y-15264191D01*
X5198809Y-15292762D01*
X5198809Y-15364191D01*
X5213095Y-15392762D01*
X5227381Y-15407048D01*
X5255952Y-15421334D01*
X5313095Y-15421334D01*
X5341666Y-15407048D01*
X5355952Y-15392762D01*
X5370238Y-15364191D01*
X5555952Y-15235619D02*
X5584523Y-15235619D01*
X5613095Y-15249905D01*
X5627381Y-15264191D01*
X5641666Y-15292762D01*
X5655952Y-15349905D01*
X5655952Y-15421334D01*
X5641666Y-15478476D01*
X5627381Y-15507048D01*
X5613095Y-15521334D01*
X5584523Y-15535619D01*
X5555952Y-15535619D01*
X5527381Y-15521334D01*
X5513095Y-15507048D01*
X5498809Y-15478476D01*
X5484523Y-15421334D01*
X5484523Y-15349905D01*
X5498809Y-15292762D01*
X5513095Y-15264191D01*
X5527381Y-15249905D01*
X5555952Y-15235619D01*
X5784523Y-15535619D02*
X5784523Y-15335619D01*
X5784523Y-15364191D02*
X5798809Y-15349905D01*
X5827381Y-15335619D01*
X5870238Y-15335619D01*
X5898809Y-15349905D01*
X5913095Y-15378476D01*
X5913095Y-15535619D01*
X5913095Y-15378476D02*
X5927381Y-15349905D01*
X5955952Y-15335619D01*
X5998809Y-15335619D01*
X6027381Y-15349905D01*
X6041666Y-15378476D01*
X6041666Y-15535619D01*
X6184523Y-15535619D02*
X6184523Y-15335619D01*
X6184523Y-15364191D02*
X6198809Y-15349905D01*
X6227381Y-15335619D01*
X6270238Y-15335619D01*
X6298809Y-15349905D01*
X6313095Y-15378476D01*
X6313095Y-15535619D01*
X6313095Y-15378476D02*
X6327381Y-15349905D01*
X6355952Y-15335619D01*
X6398809Y-15335619D01*
X6427381Y-15349905D01*
X6441666Y-15378476D01*
X6441666Y-15535619D01*
X7027381Y-15221334D02*
X6770238Y-15607048D01*
X7413095Y-15235619D02*
X7441666Y-15235619D01*
X7470238Y-15249905D01*
X7484523Y-15264191D01*
X7498809Y-15292762D01*
X7513095Y-15349905D01*
X7513095Y-15421334D01*
X7498809Y-15478476D01*
X7484523Y-15507048D01*
X7470238Y-15521334D01*
X7441666Y-15535619D01*
X7413095Y-15535619D01*
X7384523Y-15521334D01*
X7370238Y-15507048D01*
X7355952Y-15478476D01*
X7341666Y-15421334D01*
X7341666Y-15349905D01*
X7355952Y-15292762D01*
X7370238Y-15264191D01*
X7384523Y-15249905D01*
X7413095Y-15235619D01*
X7641666Y-15507048D02*
X7655952Y-15521334D01*
X7641666Y-15535619D01*
X7627381Y-15521334D01*
X7641666Y-15507048D01*
X7641666Y-15535619D01*
X7841666Y-15235619D02*
X7870238Y-15235619D01*
X7898809Y-15249905D01*
X7913095Y-15264191D01*
X7927381Y-15292762D01*
X7941666Y-15349905D01*
X7941666Y-15421334D01*
X7927381Y-15478476D01*
X7913095Y-15507048D01*
X7898809Y-15521334D01*
X7870238Y-15535619D01*
X7841666Y-15535619D01*
X7813095Y-15521334D01*
X7798809Y-15507048D01*
X7784523Y-15478476D01*
X7770238Y-15421334D01*
X7770238Y-15349905D01*
X7784523Y-15292762D01*
X7798809Y-15264191D01*
X7813095Y-15249905D01*
X7841666Y-15235619D01*
X8041666Y-15235619D02*
X8227381Y-15235619D01*
X8127381Y-15349905D01*
X8170238Y-15349905D01*
X8198809Y-15364191D01*
X8213095Y-15378476D01*
X8227381Y-15407048D01*
X8227381Y-15478476D01*
X8213095Y-15507048D01*
X8198809Y-15521334D01*
X8170238Y-15535619D01*
X8084523Y-15535619D01*
X8055952Y-15521334D01*
X8041666Y-15507048D01*
X8498809Y-15235619D02*
X8355952Y-15235619D01*
X8341666Y-15378476D01*
X8355952Y-15364191D01*
X8384523Y-15349905D01*
X8455952Y-15349905D01*
X8484523Y-15364191D01*
X8498809Y-15378476D01*
X8513095Y-15407048D01*
X8513095Y-15478476D01*
X8498809Y-15507048D01*
X8484523Y-15521334D01*
X8455952Y-15535619D01*
X8384523Y-15535619D01*
X8355952Y-15521334D01*
X8341666Y-15507048D01*
X8627381Y-15235619D02*
X8627381Y-15292762D01*
X8741666Y-15235619D02*
X8741666Y-15292762D01*
X9184523Y-15649905D02*
X9170238Y-15635619D01*
X9141666Y-15592762D01*
X9127381Y-15564191D01*
X9113095Y-15521334D01*
X9098809Y-15449905D01*
X9098809Y-15392762D01*
X9113095Y-15321334D01*
X9127381Y-15278476D01*
X9141666Y-15249905D01*
X9170238Y-15207048D01*
X9184523Y-15192762D01*
X9284523Y-15264191D02*
X9298809Y-15249905D01*
X9327381Y-15235619D01*
X9398809Y-15235619D01*
X9427381Y-15249905D01*
X9441666Y-15264191D01*
X9455952Y-15292762D01*
X9455952Y-15321334D01*
X9441666Y-15364191D01*
X9270238Y-15535619D01*
X9455952Y-15535619D01*
X9555952Y-15235619D02*
X9755952Y-15235619D01*
X9627381Y-15535619D01*
X10098809Y-15535619D02*
X10098809Y-15235619D01*
X10227381Y-15535619D02*
X10227381Y-15378476D01*
X10213095Y-15349905D01*
X10184523Y-15335619D01*
X10141666Y-15335619D01*
X10113095Y-15349905D01*
X10098809Y-15364191D01*
X10413095Y-15535619D02*
X10384523Y-15521334D01*
X10370238Y-15507048D01*
X10355952Y-15478476D01*
X10355952Y-15392762D01*
X10370238Y-15364191D01*
X10384523Y-15349905D01*
X10413095Y-15335619D01*
X10455952Y-15335619D01*
X10484523Y-15349905D01*
X10498809Y-15364191D01*
X10513095Y-15392762D01*
X10513095Y-15478476D01*
X10498809Y-15507048D01*
X10484523Y-15521334D01*
X10455952Y-15535619D01*
X10413095Y-15535619D01*
X10684523Y-15535619D02*
X10655952Y-15521334D01*
X10641666Y-15492762D01*
X10641666Y-15235619D01*
X10913095Y-15521334D02*
X10884523Y-15535619D01*
X10827381Y-15535619D01*
X10798809Y-15521334D01*
X10784523Y-15492762D01*
X10784523Y-15378476D01*
X10798809Y-15349905D01*
X10827381Y-15335619D01*
X10884523Y-15335619D01*
X10913095Y-15349905D01*
X10927381Y-15378476D01*
X10927381Y-15407048D01*
X10784523Y-15435619D01*
X11041666Y-15521334D02*
X11070238Y-15535619D01*
X11127381Y-15535619D01*
X11155952Y-15521334D01*
X11170238Y-15492762D01*
X11170238Y-15478476D01*
X11155952Y-15449905D01*
X11127381Y-15435619D01*
X11084523Y-15435619D01*
X11055952Y-15421334D01*
X11041666Y-15392762D01*
X11041666Y-15378476D01*
X11055952Y-15349905D01*
X11084523Y-15335619D01*
X11127381Y-15335619D01*
X11155952Y-15349905D01*
X11270238Y-15649905D02*
X11284523Y-15635619D01*
X11313095Y-15592762D01*
X11327381Y-15564191D01*
X11341666Y-15521334D01*
X11355952Y-15449905D01*
X11355952Y-15392762D01*
X11341666Y-15321334D01*
X11327381Y-15278476D01*
X11313095Y-15249905D01*
X11284523Y-15207048D01*
X11270238Y-15192762D01*
X4448095Y-15845905D02*
X4498095Y-15795905D01*
X4448095Y-15745905D01*
X4398095Y-15795905D01*
X4448095Y-15845905D01*
X4941666Y-15931619D02*
X4770238Y-15931619D01*
X4855952Y-15931619D02*
X4855952Y-15631619D01*
X4827381Y-15674476D01*
X4798809Y-15703048D01*
X4770238Y-15717334D01*
X5070238Y-15903048D02*
X5084523Y-15917334D01*
X5070238Y-15931619D01*
X5055952Y-15917334D01*
X5070238Y-15903048D01*
X5070238Y-15931619D01*
X5270238Y-15631619D02*
X5298809Y-15631619D01*
X5327381Y-15645905D01*
X5341666Y-15660191D01*
X5355952Y-15688762D01*
X5370238Y-15745905D01*
X5370238Y-15817334D01*
X5355952Y-15874476D01*
X5341666Y-15903048D01*
X5327381Y-15917334D01*
X5298809Y-15931619D01*
X5270238Y-15931619D01*
X5241666Y-15917334D01*
X5227381Y-15903048D01*
X5213095Y-15874476D01*
X5198809Y-15817334D01*
X5198809Y-15745905D01*
X5213095Y-15688762D01*
X5227381Y-15660191D01*
X5241666Y-15645905D01*
X5270238Y-15631619D01*
X5555952Y-15631619D02*
X5584523Y-15631619D01*
X5613095Y-15645905D01*
X5627381Y-15660191D01*
X5641666Y-15688762D01*
X5655952Y-15745905D01*
X5655952Y-15817334D01*
X5641666Y-15874476D01*
X5627381Y-15903048D01*
X5613095Y-15917334D01*
X5584523Y-15931619D01*
X5555952Y-15931619D01*
X5527381Y-15917334D01*
X5513095Y-15903048D01*
X5498809Y-15874476D01*
X5484523Y-15817334D01*
X5484523Y-15745905D01*
X5498809Y-15688762D01*
X5513095Y-15660191D01*
X5527381Y-15645905D01*
X5555952Y-15631619D01*
X5784523Y-15931619D02*
X5784523Y-15731619D01*
X5784523Y-15760191D02*
X5798809Y-15745905D01*
X5827381Y-15731619D01*
X5870238Y-15731619D01*
X5898809Y-15745905D01*
X5913095Y-15774476D01*
X5913095Y-15931619D01*
X5913095Y-15774476D02*
X5927381Y-15745905D01*
X5955952Y-15731619D01*
X5998809Y-15731619D01*
X6027381Y-15745905D01*
X6041666Y-15774476D01*
X6041666Y-15931619D01*
X6184523Y-15931619D02*
X6184523Y-15731619D01*
X6184523Y-15760191D02*
X6198809Y-15745905D01*
X6227381Y-15731619D01*
X6270238Y-15731619D01*
X6298809Y-15745905D01*
X6313095Y-15774476D01*
X6313095Y-15931619D01*
X6313095Y-15774476D02*
X6327381Y-15745905D01*
X6355952Y-15731619D01*
X6398809Y-15731619D01*
X6427381Y-15745905D01*
X6441666Y-15774476D01*
X6441666Y-15931619D01*
X7027381Y-15617334D02*
X6770238Y-16003048D01*
X7413095Y-15631619D02*
X7441666Y-15631619D01*
X7470238Y-15645905D01*
X7484523Y-15660191D01*
X7498809Y-15688762D01*
X7513095Y-15745905D01*
X7513095Y-15817334D01*
X7498809Y-15874476D01*
X7484523Y-15903048D01*
X7470238Y-15917334D01*
X7441666Y-15931619D01*
X7413095Y-15931619D01*
X7384523Y-15917334D01*
X7370238Y-15903048D01*
X7355952Y-15874476D01*
X7341666Y-15817334D01*
X7341666Y-15745905D01*
X7355952Y-15688762D01*
X7370238Y-15660191D01*
X7384523Y-15645905D01*
X7413095Y-15631619D01*
X7641666Y-15903048D02*
X7655952Y-15917334D01*
X7641666Y-15931619D01*
X7627381Y-15917334D01*
X7641666Y-15903048D01*
X7641666Y-15931619D01*
X7841666Y-15631619D02*
X7870238Y-15631619D01*
X7898809Y-15645905D01*
X7913095Y-15660191D01*
X7927381Y-15688762D01*
X7941666Y-15745905D01*
X7941666Y-15817334D01*
X7927381Y-15874476D01*
X7913095Y-15903048D01*
X7898809Y-15917334D01*
X7870238Y-15931619D01*
X7841666Y-15931619D01*
X7813095Y-15917334D01*
X7798809Y-15903048D01*
X7784523Y-15874476D01*
X7770238Y-15817334D01*
X7770238Y-15745905D01*
X7784523Y-15688762D01*
X7798809Y-15660191D01*
X7813095Y-15645905D01*
X7841666Y-15631619D01*
X8041666Y-15631619D02*
X8227381Y-15631619D01*
X8127381Y-15745905D01*
X8170238Y-15745905D01*
X8198809Y-15760191D01*
X8213095Y-15774476D01*
X8227381Y-15803048D01*
X8227381Y-15874476D01*
X8213095Y-15903048D01*
X8198809Y-15917334D01*
X8170238Y-15931619D01*
X8084523Y-15931619D01*
X8055952Y-15917334D01*
X8041666Y-15903048D01*
X8370238Y-15931619D02*
X8427381Y-15931619D01*
X8455952Y-15917334D01*
X8470238Y-15903048D01*
X8498809Y-15860191D01*
X8513095Y-15803048D01*
X8513095Y-15688762D01*
X8498809Y-15660191D01*
X8484523Y-15645905D01*
X8455952Y-15631619D01*
X8398809Y-15631619D01*
X8370238Y-15645905D01*
X8355952Y-15660191D01*
X8341666Y-15688762D01*
X8341666Y-15760191D01*
X8355952Y-15788762D01*
X8370238Y-15803048D01*
X8398809Y-15817334D01*
X8455952Y-15817334D01*
X8484523Y-15803048D01*
X8498809Y-15788762D01*
X8513095Y-15760191D01*
X8627381Y-15631619D02*
X8627381Y-15688762D01*
X8741666Y-15631619D02*
X8741666Y-15688762D01*
X9184523Y-16045905D02*
X9170238Y-16031619D01*
X9141666Y-15988762D01*
X9127381Y-15960191D01*
X9113095Y-15917334D01*
X9098809Y-15845905D01*
X9098809Y-15788762D01*
X9113095Y-15717334D01*
X9127381Y-15674476D01*
X9141666Y-15645905D01*
X9170238Y-15603048D01*
X9184523Y-15588762D01*
X9455952Y-15931619D02*
X9284523Y-15931619D01*
X9370238Y-15931619D02*
X9370238Y-15631619D01*
X9341666Y-15674476D01*
X9313095Y-15703048D01*
X9284523Y-15717334D01*
X9713095Y-15731619D02*
X9713095Y-15931619D01*
X9641666Y-15617334D02*
X9570238Y-15831619D01*
X9755952Y-15831619D01*
X10098809Y-15931619D02*
X10098809Y-15631619D01*
X10227381Y-15931619D02*
X10227381Y-15774476D01*
X10213095Y-15745905D01*
X10184523Y-15731619D01*
X10141666Y-15731619D01*
X10113095Y-15745905D01*
X10098809Y-15760191D01*
X10413095Y-15931619D02*
X10384523Y-15917334D01*
X10370238Y-15903048D01*
X10355952Y-15874476D01*
X10355952Y-15788762D01*
X10370238Y-15760191D01*
X10384523Y-15745905D01*
X10413095Y-15731619D01*
X10455952Y-15731619D01*
X10484523Y-15745905D01*
X10498809Y-15760191D01*
X10513095Y-15788762D01*
X10513095Y-15874476D01*
X10498809Y-15903048D01*
X10484523Y-15917334D01*
X10455952Y-15931619D01*
X10413095Y-15931619D01*
X10684523Y-15931619D02*
X10655952Y-15917334D01*
X10641666Y-15888762D01*
X10641666Y-15631619D01*
X10913095Y-15917334D02*
X10884523Y-15931619D01*
X10827381Y-15931619D01*
X10798809Y-15917334D01*
X10784523Y-15888762D01*
X10784523Y-15774476D01*
X10798809Y-15745905D01*
X10827381Y-15731619D01*
X10884523Y-15731619D01*
X10913095Y-15745905D01*
X10927381Y-15774476D01*
X10927381Y-15803048D01*
X10784523Y-15831619D01*
X11041666Y-15917334D02*
X11070238Y-15931619D01*
X11127381Y-15931619D01*
X11155952Y-15917334D01*
X11170238Y-15888762D01*
X11170238Y-15874476D01*
X11155952Y-15845905D01*
X11127381Y-15831619D01*
X11084523Y-15831619D01*
X11055952Y-15817334D01*
X11041666Y-15788762D01*
X11041666Y-15774476D01*
X11055952Y-15745905D01*
X11084523Y-15731619D01*
X11127381Y-15731619D01*
X11155952Y-15745905D01*
X11270238Y-16045905D02*
X11284523Y-16031619D01*
X11313095Y-15988762D01*
X11327381Y-15960191D01*
X11341666Y-15917334D01*
X11355952Y-15845905D01*
X11355952Y-15788762D01*
X11341666Y-15717334D01*
X11327381Y-15674476D01*
X11313095Y-15645905D01*
X11284523Y-15603048D01*
X11270238Y-15588762D01*
X4388095Y-16136905D02*
X4498095Y-16246905D01*
X4498095Y-16136905D02*
X4388095Y-16246905D01*
X4498095Y-16191905D02*
G75*
G03*
X4498095Y-16191905I-55000J0D01*
G01*
X4941666Y-16327619D02*
X4770238Y-16327619D01*
X4855952Y-16327619D02*
X4855952Y-16027619D01*
X4827381Y-16070476D01*
X4798809Y-16099048D01*
X4770238Y-16113334D01*
X5070238Y-16299048D02*
X5084523Y-16313334D01*
X5070238Y-16327619D01*
X5055952Y-16313334D01*
X5070238Y-16299048D01*
X5070238Y-16327619D01*
X5370238Y-16327619D02*
X5198809Y-16327619D01*
X5284523Y-16327619D02*
X5284523Y-16027619D01*
X5255952Y-16070476D01*
X5227381Y-16099048D01*
X5198809Y-16113334D01*
X5555952Y-16027619D02*
X5584523Y-16027619D01*
X5613095Y-16041905D01*
X5627381Y-16056191D01*
X5641666Y-16084762D01*
X5655952Y-16141905D01*
X5655952Y-16213334D01*
X5641666Y-16270476D01*
X5627381Y-16299048D01*
X5613095Y-16313334D01*
X5584523Y-16327619D01*
X5555952Y-16327619D01*
X5527381Y-16313334D01*
X5513095Y-16299048D01*
X5498809Y-16270476D01*
X5484523Y-16213334D01*
X5484523Y-16141905D01*
X5498809Y-16084762D01*
X5513095Y-16056191D01*
X5527381Y-16041905D01*
X5555952Y-16027619D01*
X5784523Y-16327619D02*
X5784523Y-16127619D01*
X5784523Y-16156191D02*
X5798809Y-16141905D01*
X5827381Y-16127619D01*
X5870238Y-16127619D01*
X5898809Y-16141905D01*
X5913095Y-16170476D01*
X5913095Y-16327619D01*
X5913095Y-16170476D02*
X5927381Y-16141905D01*
X5955952Y-16127619D01*
X5998809Y-16127619D01*
X6027381Y-16141905D01*
X6041666Y-16170476D01*
X6041666Y-16327619D01*
X6184523Y-16327619D02*
X6184523Y-16127619D01*
X6184523Y-16156191D02*
X6198809Y-16141905D01*
X6227381Y-16127619D01*
X6270238Y-16127619D01*
X6298809Y-16141905D01*
X6313095Y-16170476D01*
X6313095Y-16327619D01*
X6313095Y-16170476D02*
X6327381Y-16141905D01*
X6355952Y-16127619D01*
X6398809Y-16127619D01*
X6427381Y-16141905D01*
X6441666Y-16170476D01*
X6441666Y-16327619D01*
X7027381Y-16013334D02*
X6770238Y-16399048D01*
X7413095Y-16027619D02*
X7441666Y-16027619D01*
X7470238Y-16041905D01*
X7484523Y-16056191D01*
X7498809Y-16084762D01*
X7513095Y-16141905D01*
X7513095Y-16213334D01*
X7498809Y-16270476D01*
X7484523Y-16299048D01*
X7470238Y-16313334D01*
X7441666Y-16327619D01*
X7413095Y-16327619D01*
X7384523Y-16313334D01*
X7370238Y-16299048D01*
X7355952Y-16270476D01*
X7341666Y-16213334D01*
X7341666Y-16141905D01*
X7355952Y-16084762D01*
X7370238Y-16056191D01*
X7384523Y-16041905D01*
X7413095Y-16027619D01*
X7641666Y-16299048D02*
X7655952Y-16313334D01*
X7641666Y-16327619D01*
X7627381Y-16313334D01*
X7641666Y-16299048D01*
X7641666Y-16327619D01*
X7841666Y-16027619D02*
X7870238Y-16027619D01*
X7898809Y-16041905D01*
X7913095Y-16056191D01*
X7927381Y-16084762D01*
X7941666Y-16141905D01*
X7941666Y-16213334D01*
X7927381Y-16270476D01*
X7913095Y-16299048D01*
X7898809Y-16313334D01*
X7870238Y-16327619D01*
X7841666Y-16327619D01*
X7813095Y-16313334D01*
X7798809Y-16299048D01*
X7784523Y-16270476D01*
X7770238Y-16213334D01*
X7770238Y-16141905D01*
X7784523Y-16084762D01*
X7798809Y-16056191D01*
X7813095Y-16041905D01*
X7841666Y-16027619D01*
X8198809Y-16127619D02*
X8198809Y-16327619D01*
X8127381Y-16013334D02*
X8055952Y-16227619D01*
X8241666Y-16227619D01*
X8327381Y-16027619D02*
X8513095Y-16027619D01*
X8413095Y-16141905D01*
X8455952Y-16141905D01*
X8484523Y-16156191D01*
X8498809Y-16170476D01*
X8513095Y-16199048D01*
X8513095Y-16270476D01*
X8498809Y-16299048D01*
X8484523Y-16313334D01*
X8455952Y-16327619D01*
X8370238Y-16327619D01*
X8341666Y-16313334D01*
X8327381Y-16299048D01*
X8627381Y-16027619D02*
X8627381Y-16084762D01*
X8741666Y-16027619D02*
X8741666Y-16084762D01*
X9184523Y-16441905D02*
X9170238Y-16427619D01*
X9141666Y-16384762D01*
X9127381Y-16356191D01*
X9113095Y-16313334D01*
X9098809Y-16241905D01*
X9098809Y-16184762D01*
X9113095Y-16113334D01*
X9127381Y-16070476D01*
X9141666Y-16041905D01*
X9170238Y-15999048D01*
X9184523Y-15984762D01*
X9284523Y-16056191D02*
X9298809Y-16041905D01*
X9327381Y-16027619D01*
X9398809Y-16027619D01*
X9427381Y-16041905D01*
X9441666Y-16056191D01*
X9455952Y-16084762D01*
X9455952Y-16113334D01*
X9441666Y-16156191D01*
X9270238Y-16327619D01*
X9455952Y-16327619D01*
X9813095Y-16327619D02*
X9813095Y-16027619D01*
X9941666Y-16327619D02*
X9941666Y-16170476D01*
X9927381Y-16141905D01*
X9898809Y-16127619D01*
X9855952Y-16127619D01*
X9827381Y-16141905D01*
X9813095Y-16156191D01*
X10127381Y-16327619D02*
X10098809Y-16313334D01*
X10084523Y-16299048D01*
X10070238Y-16270476D01*
X10070238Y-16184762D01*
X10084523Y-16156191D01*
X10098809Y-16141905D01*
X10127381Y-16127619D01*
X10170238Y-16127619D01*
X10198809Y-16141905D01*
X10213095Y-16156191D01*
X10227381Y-16184762D01*
X10227381Y-16270476D01*
X10213095Y-16299048D01*
X10198809Y-16313334D01*
X10170238Y-16327619D01*
X10127381Y-16327619D01*
X10398809Y-16327619D02*
X10370238Y-16313334D01*
X10355952Y-16284762D01*
X10355952Y-16027619D01*
X10627381Y-16313334D02*
X10598809Y-16327619D01*
X10541666Y-16327619D01*
X10513095Y-16313334D01*
X10498809Y-16284762D01*
X10498809Y-16170476D01*
X10513095Y-16141905D01*
X10541666Y-16127619D01*
X10598809Y-16127619D01*
X10627381Y-16141905D01*
X10641666Y-16170476D01*
X10641666Y-16199048D01*
X10498809Y-16227619D01*
X10755952Y-16313334D02*
X10784523Y-16327619D01*
X10841666Y-16327619D01*
X10870238Y-16313334D01*
X10884523Y-16284762D01*
X10884523Y-16270476D01*
X10870238Y-16241905D01*
X10841666Y-16227619D01*
X10798809Y-16227619D01*
X10770238Y-16213334D01*
X10755952Y-16184762D01*
X10755952Y-16170476D01*
X10770238Y-16141905D01*
X10798809Y-16127619D01*
X10841666Y-16127619D01*
X10870238Y-16141905D01*
X10984523Y-16441905D02*
X10998809Y-16427619D01*
X11027381Y-16384762D01*
X11041666Y-16356191D01*
X11055952Y-16313334D01*
X11070238Y-16241905D01*
X11070238Y-16184762D01*
X11055952Y-16113334D01*
X11041666Y-16070476D01*
X11027381Y-16041905D01*
X10998809Y-15999048D01*
X10984523Y-15984762D01*
X4378095Y-16527905D02*
X4498095Y-16647905D01*
X4498095Y-16527905D02*
X4378095Y-16647905D01*
X4438095Y-16527905D02*
X4438095Y-16647905D01*
X4378095Y-16587905D02*
X4498095Y-16587905D01*
X4941666Y-16723619D02*
X4770238Y-16723619D01*
X4855952Y-16723619D02*
X4855952Y-16423619D01*
X4827381Y-16466476D01*
X4798809Y-16495048D01*
X4770238Y-16509334D01*
X5070238Y-16695048D02*
X5084523Y-16709334D01*
X5070238Y-16723619D01*
X5055952Y-16709334D01*
X5070238Y-16695048D01*
X5070238Y-16723619D01*
X5198809Y-16452191D02*
X5213095Y-16437905D01*
X5241666Y-16423619D01*
X5313095Y-16423619D01*
X5341666Y-16437905D01*
X5355952Y-16452191D01*
X5370238Y-16480762D01*
X5370238Y-16509334D01*
X5355952Y-16552191D01*
X5184523Y-16723619D01*
X5370238Y-16723619D01*
X5555952Y-16423619D02*
X5584523Y-16423619D01*
X5613095Y-16437905D01*
X5627381Y-16452191D01*
X5641666Y-16480762D01*
X5655952Y-16537905D01*
X5655952Y-16609334D01*
X5641666Y-16666476D01*
X5627381Y-16695048D01*
X5613095Y-16709334D01*
X5584523Y-16723619D01*
X5555952Y-16723619D01*
X5527381Y-16709334D01*
X5513095Y-16695048D01*
X5498809Y-16666476D01*
X5484523Y-16609334D01*
X5484523Y-16537905D01*
X5498809Y-16480762D01*
X5513095Y-16452191D01*
X5527381Y-16437905D01*
X5555952Y-16423619D01*
X5784523Y-16723619D02*
X5784523Y-16523619D01*
X5784523Y-16552191D02*
X5798809Y-16537905D01*
X5827381Y-16523619D01*
X5870238Y-16523619D01*
X5898809Y-16537905D01*
X5913095Y-16566476D01*
X5913095Y-16723619D01*
X5913095Y-16566476D02*
X5927381Y-16537905D01*
X5955952Y-16523619D01*
X5998809Y-16523619D01*
X6027381Y-16537905D01*
X6041666Y-16566476D01*
X6041666Y-16723619D01*
X6184523Y-16723619D02*
X6184523Y-16523619D01*
X6184523Y-16552191D02*
X6198809Y-16537905D01*
X6227381Y-16523619D01*
X6270238Y-16523619D01*
X6298809Y-16537905D01*
X6313095Y-16566476D01*
X6313095Y-16723619D01*
X6313095Y-16566476D02*
X6327381Y-16537905D01*
X6355952Y-16523619D01*
X6398809Y-16523619D01*
X6427381Y-16537905D01*
X6441666Y-16566476D01*
X6441666Y-16723619D01*
X7027381Y-16409334D02*
X6770238Y-16795048D01*
X7413095Y-16423619D02*
X7441666Y-16423619D01*
X7470238Y-16437905D01*
X7484523Y-16452191D01*
X7498809Y-16480762D01*
X7513095Y-16537905D01*
X7513095Y-16609334D01*
X7498809Y-16666476D01*
X7484523Y-16695048D01*
X7470238Y-16709334D01*
X7441666Y-16723619D01*
X7413095Y-16723619D01*
X7384523Y-16709334D01*
X7370238Y-16695048D01*
X7355952Y-16666476D01*
X7341666Y-16609334D01*
X7341666Y-16537905D01*
X7355952Y-16480762D01*
X7370238Y-16452191D01*
X7384523Y-16437905D01*
X7413095Y-16423619D01*
X7641666Y-16695048D02*
X7655952Y-16709334D01*
X7641666Y-16723619D01*
X7627381Y-16709334D01*
X7641666Y-16695048D01*
X7641666Y-16723619D01*
X7841666Y-16423619D02*
X7870238Y-16423619D01*
X7898809Y-16437905D01*
X7913095Y-16452191D01*
X7927381Y-16480762D01*
X7941666Y-16537905D01*
X7941666Y-16609334D01*
X7927381Y-16666476D01*
X7913095Y-16695048D01*
X7898809Y-16709334D01*
X7870238Y-16723619D01*
X7841666Y-16723619D01*
X7813095Y-16709334D01*
X7798809Y-16695048D01*
X7784523Y-16666476D01*
X7770238Y-16609334D01*
X7770238Y-16537905D01*
X7784523Y-16480762D01*
X7798809Y-16452191D01*
X7813095Y-16437905D01*
X7841666Y-16423619D01*
X8198809Y-16523619D02*
X8198809Y-16723619D01*
X8127381Y-16409334D02*
X8055952Y-16623619D01*
X8241666Y-16623619D01*
X8327381Y-16423619D02*
X8527381Y-16423619D01*
X8398809Y-16723619D01*
X8627381Y-16423619D02*
X8627381Y-16480762D01*
X8741666Y-16423619D02*
X8741666Y-16480762D01*
X9184523Y-16837905D02*
X9170238Y-16823619D01*
X9141666Y-16780762D01*
X9127381Y-16752191D01*
X9113095Y-16709334D01*
X9098809Y-16637905D01*
X9098809Y-16580762D01*
X9113095Y-16509334D01*
X9127381Y-16466476D01*
X9141666Y-16437905D01*
X9170238Y-16395048D01*
X9184523Y-16380762D01*
X9455952Y-16723619D02*
X9284523Y-16723619D01*
X9370238Y-16723619D02*
X9370238Y-16423619D01*
X9341666Y-16466476D01*
X9313095Y-16495048D01*
X9284523Y-16509334D01*
X9641666Y-16423619D02*
X9670238Y-16423619D01*
X9698809Y-16437905D01*
X9713095Y-16452191D01*
X9727381Y-16480762D01*
X9741666Y-16537905D01*
X9741666Y-16609334D01*
X9727381Y-16666476D01*
X9713095Y-16695048D01*
X9698809Y-16709334D01*
X9670238Y-16723619D01*
X9641666Y-16723619D01*
X9613095Y-16709334D01*
X9598809Y-16695048D01*
X9584523Y-16666476D01*
X9570238Y-16609334D01*
X9570238Y-16537905D01*
X9584523Y-16480762D01*
X9598809Y-16452191D01*
X9613095Y-16437905D01*
X9641666Y-16423619D01*
X9927381Y-16423619D02*
X9955952Y-16423619D01*
X9984523Y-16437905D01*
X9998809Y-16452191D01*
X10013095Y-16480762D01*
X10027381Y-16537905D01*
X10027381Y-16609334D01*
X10013095Y-16666476D01*
X9998809Y-16695048D01*
X9984523Y-16709334D01*
X9955952Y-16723619D01*
X9927381Y-16723619D01*
X9898809Y-16709334D01*
X9884523Y-16695048D01*
X9870238Y-16666476D01*
X9855952Y-16609334D01*
X9855952Y-16537905D01*
X9870238Y-16480762D01*
X9884523Y-16452191D01*
X9898809Y-16437905D01*
X9927381Y-16423619D01*
X10384523Y-16723619D02*
X10384523Y-16423619D01*
X10513095Y-16723619D02*
X10513095Y-16566476D01*
X10498809Y-16537905D01*
X10470238Y-16523619D01*
X10427381Y-16523619D01*
X10398809Y-16537905D01*
X10384523Y-16552191D01*
X10698809Y-16723619D02*
X10670238Y-16709334D01*
X10655952Y-16695048D01*
X10641666Y-16666476D01*
X10641666Y-16580762D01*
X10655952Y-16552191D01*
X10670238Y-16537905D01*
X10698809Y-16523619D01*
X10741666Y-16523619D01*
X10770238Y-16537905D01*
X10784523Y-16552191D01*
X10798809Y-16580762D01*
X10798809Y-16666476D01*
X10784523Y-16695048D01*
X10770238Y-16709334D01*
X10741666Y-16723619D01*
X10698809Y-16723619D01*
X10970238Y-16723619D02*
X10941666Y-16709334D01*
X10927381Y-16680762D01*
X10927381Y-16423619D01*
X11198809Y-16709334D02*
X11170238Y-16723619D01*
X11113095Y-16723619D01*
X11084523Y-16709334D01*
X11070238Y-16680762D01*
X11070238Y-16566476D01*
X11084523Y-16537905D01*
X11113095Y-16523619D01*
X11170238Y-16523619D01*
X11198809Y-16537905D01*
X11213095Y-16566476D01*
X11213095Y-16595048D01*
X11070238Y-16623619D01*
X11327381Y-16709334D02*
X11355952Y-16723619D01*
X11413095Y-16723619D01*
X11441666Y-16709334D01*
X11455952Y-16680762D01*
X11455952Y-16666476D01*
X11441666Y-16637905D01*
X11413095Y-16623619D01*
X11370238Y-16623619D01*
X11341666Y-16609334D01*
X11327381Y-16580762D01*
X11327381Y-16566476D01*
X11341666Y-16537905D01*
X11370238Y-16523619D01*
X11413095Y-16523619D01*
X11441666Y-16537905D01*
X11555952Y-16837905D02*
X11570238Y-16823619D01*
X11598809Y-16780762D01*
X11613095Y-16752191D01*
X11627381Y-16709334D01*
X11641666Y-16637905D01*
X11641666Y-16580762D01*
X11627381Y-16509334D01*
X11613095Y-16466476D01*
X11598809Y-16437905D01*
X11570238Y-16395048D01*
X11555952Y-16380762D01*
X4368095Y-16918905D02*
X4498095Y-17048905D01*
X4498095Y-16918905D02*
X4368095Y-17048905D01*
X4479057Y-17029868D02*
X4479057Y-16937943D01*
X4387133Y-16937943D01*
X4387133Y-17029868D01*
X4479057Y-17029868D01*
X4941666Y-17119619D02*
X4770238Y-17119619D01*
X4855952Y-17119619D02*
X4855952Y-16819619D01*
X4827381Y-16862477D01*
X4798809Y-16891048D01*
X4770238Y-16905334D01*
X5070238Y-17091048D02*
X5084523Y-17105334D01*
X5070238Y-17119619D01*
X5055952Y-17105334D01*
X5070238Y-17091048D01*
X5070238Y-17119619D01*
X5184523Y-16819619D02*
X5370238Y-16819619D01*
X5270238Y-16933905D01*
X5313095Y-16933905D01*
X5341666Y-16948191D01*
X5355952Y-16962477D01*
X5370238Y-16991048D01*
X5370238Y-17062477D01*
X5355952Y-17091048D01*
X5341666Y-17105334D01*
X5313095Y-17119619D01*
X5227381Y-17119619D01*
X5198809Y-17105334D01*
X5184523Y-17091048D01*
X5555952Y-16819619D02*
X5584523Y-16819619D01*
X5613095Y-16833905D01*
X5627381Y-16848191D01*
X5641666Y-16876762D01*
X5655952Y-16933905D01*
X5655952Y-17005334D01*
X5641666Y-17062477D01*
X5627381Y-17091048D01*
X5613095Y-17105334D01*
X5584523Y-17119619D01*
X5555952Y-17119619D01*
X5527381Y-17105334D01*
X5513095Y-17091048D01*
X5498809Y-17062477D01*
X5484523Y-17005334D01*
X5484523Y-16933905D01*
X5498809Y-16876762D01*
X5513095Y-16848191D01*
X5527381Y-16833905D01*
X5555952Y-16819619D01*
X5784523Y-17119619D02*
X5784523Y-16919619D01*
X5784523Y-16948191D02*
X5798809Y-16933905D01*
X5827381Y-16919619D01*
X5870238Y-16919619D01*
X5898809Y-16933905D01*
X5913095Y-16962477D01*
X5913095Y-17119619D01*
X5913095Y-16962477D02*
X5927381Y-16933905D01*
X5955952Y-16919619D01*
X5998809Y-16919619D01*
X6027381Y-16933905D01*
X6041666Y-16962477D01*
X6041666Y-17119619D01*
X6184523Y-17119619D02*
X6184523Y-16919619D01*
X6184523Y-16948191D02*
X6198809Y-16933905D01*
X6227381Y-16919619D01*
X6270238Y-16919619D01*
X6298809Y-16933905D01*
X6313095Y-16962477D01*
X6313095Y-17119619D01*
X6313095Y-16962477D02*
X6327381Y-16933905D01*
X6355952Y-16919619D01*
X6398809Y-16919619D01*
X6427381Y-16933905D01*
X6441666Y-16962477D01*
X6441666Y-17119619D01*
X7027381Y-16805334D02*
X6770238Y-17191048D01*
X7413095Y-16819619D02*
X7441666Y-16819619D01*
X7470238Y-16833905D01*
X7484523Y-16848191D01*
X7498809Y-16876762D01*
X7513095Y-16933905D01*
X7513095Y-17005334D01*
X7498809Y-17062477D01*
X7484523Y-17091048D01*
X7470238Y-17105334D01*
X7441666Y-17119619D01*
X7413095Y-17119619D01*
X7384523Y-17105334D01*
X7370238Y-17091048D01*
X7355952Y-17062477D01*
X7341666Y-17005334D01*
X7341666Y-16933905D01*
X7355952Y-16876762D01*
X7370238Y-16848191D01*
X7384523Y-16833905D01*
X7413095Y-16819619D01*
X7641666Y-17091048D02*
X7655952Y-17105334D01*
X7641666Y-17119619D01*
X7627381Y-17105334D01*
X7641666Y-17091048D01*
X7641666Y-17119619D01*
X7841666Y-16819619D02*
X7870238Y-16819619D01*
X7898809Y-16833905D01*
X7913095Y-16848191D01*
X7927381Y-16876762D01*
X7941666Y-16933905D01*
X7941666Y-17005334D01*
X7927381Y-17062477D01*
X7913095Y-17091048D01*
X7898809Y-17105334D01*
X7870238Y-17119619D01*
X7841666Y-17119619D01*
X7813095Y-17105334D01*
X7798809Y-17091048D01*
X7784523Y-17062477D01*
X7770238Y-17005334D01*
X7770238Y-16933905D01*
X7784523Y-16876762D01*
X7798809Y-16848191D01*
X7813095Y-16833905D01*
X7841666Y-16819619D01*
X8213095Y-16819619D02*
X8070238Y-16819619D01*
X8055952Y-16962477D01*
X8070238Y-16948191D01*
X8098809Y-16933905D01*
X8170238Y-16933905D01*
X8198809Y-16948191D01*
X8213095Y-16962477D01*
X8227381Y-16991048D01*
X8227381Y-17062477D01*
X8213095Y-17091048D01*
X8198809Y-17105334D01*
X8170238Y-17119619D01*
X8098809Y-17119619D01*
X8070238Y-17105334D01*
X8055952Y-17091048D01*
X8513095Y-17119619D02*
X8341666Y-17119619D01*
X8427381Y-17119619D02*
X8427381Y-16819619D01*
X8398809Y-16862477D01*
X8370238Y-16891048D01*
X8341666Y-16905334D01*
X8627381Y-16819619D02*
X8627381Y-16876762D01*
X8741666Y-16819619D02*
X8741666Y-16876762D01*
X9184523Y-17233905D02*
X9170238Y-17219619D01*
X9141666Y-17176762D01*
X9127381Y-17148191D01*
X9113095Y-17105334D01*
X9098809Y-17033905D01*
X9098809Y-16976762D01*
X9113095Y-16905334D01*
X9127381Y-16862477D01*
X9141666Y-16833905D01*
X9170238Y-16791048D01*
X9184523Y-16776762D01*
X9270238Y-16819619D02*
X9455952Y-16819619D01*
X9355952Y-16933905D01*
X9398809Y-16933905D01*
X9427381Y-16948191D01*
X9441666Y-16962477D01*
X9455952Y-16991048D01*
X9455952Y-17062477D01*
X9441666Y-17091048D01*
X9427381Y-17105334D01*
X9398809Y-17119619D01*
X9313095Y-17119619D01*
X9284523Y-17105334D01*
X9270238Y-17091048D01*
X9813095Y-17119619D02*
X9813095Y-16819619D01*
X9941666Y-17119619D02*
X9941666Y-16962477D01*
X9927381Y-16933905D01*
X9898809Y-16919619D01*
X9855952Y-16919619D01*
X9827381Y-16933905D01*
X9813095Y-16948191D01*
X10127381Y-17119619D02*
X10098809Y-17105334D01*
X10084523Y-17091048D01*
X10070238Y-17062477D01*
X10070238Y-16976762D01*
X10084523Y-16948191D01*
X10098809Y-16933905D01*
X10127381Y-16919619D01*
X10170238Y-16919619D01*
X10198809Y-16933905D01*
X10213095Y-16948191D01*
X10227381Y-16976762D01*
X10227381Y-17062477D01*
X10213095Y-17091048D01*
X10198809Y-17105334D01*
X10170238Y-17119619D01*
X10127381Y-17119619D01*
X10398809Y-17119619D02*
X10370238Y-17105334D01*
X10355952Y-17076762D01*
X10355952Y-16819619D01*
X10627381Y-17105334D02*
X10598809Y-17119619D01*
X10541666Y-17119619D01*
X10513095Y-17105334D01*
X10498809Y-17076762D01*
X10498809Y-16962477D01*
X10513095Y-16933905D01*
X10541666Y-16919619D01*
X10598809Y-16919619D01*
X10627381Y-16933905D01*
X10641666Y-16962477D01*
X10641666Y-16991048D01*
X10498809Y-17019619D01*
X10755952Y-17105334D02*
X10784523Y-17119619D01*
X10841666Y-17119619D01*
X10870238Y-17105334D01*
X10884523Y-17076762D01*
X10884523Y-17062477D01*
X10870238Y-17033905D01*
X10841666Y-17019619D01*
X10798809Y-17019619D01*
X10770238Y-17005334D01*
X10755952Y-16976762D01*
X10755952Y-16962477D01*
X10770238Y-16933905D01*
X10798809Y-16919619D01*
X10841666Y-16919619D01*
X10870238Y-16933905D01*
X10984523Y-17233905D02*
X10998809Y-17219619D01*
X11027381Y-17176762D01*
X11041666Y-17148191D01*
X11055952Y-17105334D01*
X11070238Y-17033905D01*
X11070238Y-16976762D01*
X11055952Y-16905334D01*
X11041666Y-16862477D01*
X11027381Y-16833905D01*
X10998809Y-16791048D01*
X10984523Y-16776762D01*
X4248095Y-17254905D02*
X4498095Y-17504905D01*
X4498095Y-17254905D02*
X4248095Y-17504905D01*
X4373095Y-17504905D02*
X4498095Y-17379905D01*
X4373095Y-17254905D01*
X4248095Y-17379905D01*
X4373095Y-17504905D01*
X4770238Y-17244191D02*
X4784523Y-17229905D01*
X4813095Y-17215619D01*
X4884523Y-17215619D01*
X4913095Y-17229905D01*
X4927381Y-17244191D01*
X4941666Y-17272762D01*
X4941666Y-17301334D01*
X4927381Y-17344191D01*
X4755952Y-17515619D01*
X4941666Y-17515619D01*
X5070238Y-17487048D02*
X5084523Y-17501334D01*
X5070238Y-17515619D01*
X5055952Y-17501334D01*
X5070238Y-17487048D01*
X5070238Y-17515619D01*
X5355952Y-17215619D02*
X5213095Y-17215619D01*
X5198809Y-17358477D01*
X5213095Y-17344191D01*
X5241666Y-17329905D01*
X5313095Y-17329905D01*
X5341666Y-17344191D01*
X5355952Y-17358477D01*
X5370238Y-17387048D01*
X5370238Y-17458477D01*
X5355952Y-17487048D01*
X5341666Y-17501334D01*
X5313095Y-17515619D01*
X5241666Y-17515619D01*
X5213095Y-17501334D01*
X5198809Y-17487048D01*
X5555952Y-17215619D02*
X5584523Y-17215619D01*
X5613095Y-17229905D01*
X5627381Y-17244191D01*
X5641666Y-17272762D01*
X5655952Y-17329905D01*
X5655952Y-17401334D01*
X5641666Y-17458477D01*
X5627381Y-17487048D01*
X5613095Y-17501334D01*
X5584523Y-17515619D01*
X5555952Y-17515619D01*
X5527381Y-17501334D01*
X5513095Y-17487048D01*
X5498809Y-17458477D01*
X5484523Y-17401334D01*
X5484523Y-17329905D01*
X5498809Y-17272762D01*
X5513095Y-17244191D01*
X5527381Y-17229905D01*
X5555952Y-17215619D01*
X5784523Y-17515619D02*
X5784523Y-17315619D01*
X5784523Y-17344191D02*
X5798809Y-17329905D01*
X5827381Y-17315619D01*
X5870238Y-17315619D01*
X5898809Y-17329905D01*
X5913095Y-17358477D01*
X5913095Y-17515619D01*
X5913095Y-17358477D02*
X5927381Y-17329905D01*
X5955952Y-17315619D01*
X5998809Y-17315619D01*
X6027381Y-17329905D01*
X6041666Y-17358477D01*
X6041666Y-17515619D01*
X6184523Y-17515619D02*
X6184523Y-17315619D01*
X6184523Y-17344191D02*
X6198809Y-17329905D01*
X6227381Y-17315619D01*
X6270238Y-17315619D01*
X6298809Y-17329905D01*
X6313095Y-17358477D01*
X6313095Y-17515619D01*
X6313095Y-17358477D02*
X6327381Y-17329905D01*
X6355952Y-17315619D01*
X6398809Y-17315619D01*
X6427381Y-17329905D01*
X6441666Y-17358477D01*
X6441666Y-17515619D01*
X7027381Y-17201334D02*
X6770238Y-17587048D01*
X7413095Y-17215619D02*
X7441666Y-17215619D01*
X7470238Y-17229905D01*
X7484523Y-17244191D01*
X7498809Y-17272762D01*
X7513095Y-17329905D01*
X7513095Y-17401334D01*
X7498809Y-17458477D01*
X7484523Y-17487048D01*
X7470238Y-17501334D01*
X7441666Y-17515619D01*
X7413095Y-17515619D01*
X7384523Y-17501334D01*
X7370238Y-17487048D01*
X7355952Y-17458477D01*
X7341666Y-17401334D01*
X7341666Y-17329905D01*
X7355952Y-17272762D01*
X7370238Y-17244191D01*
X7384523Y-17229905D01*
X7413095Y-17215619D01*
X7641666Y-17487048D02*
X7655952Y-17501334D01*
X7641666Y-17515619D01*
X7627381Y-17501334D01*
X7641666Y-17487048D01*
X7641666Y-17515619D01*
X7841666Y-17215619D02*
X7870238Y-17215619D01*
X7898809Y-17229905D01*
X7913095Y-17244191D01*
X7927381Y-17272762D01*
X7941666Y-17329905D01*
X7941666Y-17401334D01*
X7927381Y-17458477D01*
X7913095Y-17487048D01*
X7898809Y-17501334D01*
X7870238Y-17515619D01*
X7841666Y-17515619D01*
X7813095Y-17501334D01*
X7798809Y-17487048D01*
X7784523Y-17458477D01*
X7770238Y-17401334D01*
X7770238Y-17329905D01*
X7784523Y-17272762D01*
X7798809Y-17244191D01*
X7813095Y-17229905D01*
X7841666Y-17215619D01*
X8084523Y-17515619D02*
X8141666Y-17515619D01*
X8170238Y-17501334D01*
X8184523Y-17487048D01*
X8213095Y-17444191D01*
X8227381Y-17387048D01*
X8227381Y-17272762D01*
X8213095Y-17244191D01*
X8198809Y-17229905D01*
X8170238Y-17215619D01*
X8113095Y-17215619D01*
X8084523Y-17229905D01*
X8070238Y-17244191D01*
X8055952Y-17272762D01*
X8055952Y-17344191D01*
X8070238Y-17372762D01*
X8084523Y-17387048D01*
X8113095Y-17401334D01*
X8170238Y-17401334D01*
X8198809Y-17387048D01*
X8213095Y-17372762D01*
X8227381Y-17344191D01*
X8398809Y-17344191D02*
X8370238Y-17329905D01*
X8355952Y-17315619D01*
X8341666Y-17287048D01*
X8341666Y-17272762D01*
X8355952Y-17244191D01*
X8370238Y-17229905D01*
X8398809Y-17215619D01*
X8455952Y-17215619D01*
X8484523Y-17229905D01*
X8498809Y-17244191D01*
X8513095Y-17272762D01*
X8513095Y-17287048D01*
X8498809Y-17315619D01*
X8484523Y-17329905D01*
X8455952Y-17344191D01*
X8398809Y-17344191D01*
X8370238Y-17358477D01*
X8355952Y-17372762D01*
X8341666Y-17401334D01*
X8341666Y-17458477D01*
X8355952Y-17487048D01*
X8370238Y-17501334D01*
X8398809Y-17515619D01*
X8455952Y-17515619D01*
X8484523Y-17501334D01*
X8498809Y-17487048D01*
X8513095Y-17458477D01*
X8513095Y-17401334D01*
X8498809Y-17372762D01*
X8484523Y-17358477D01*
X8455952Y-17344191D01*
X8627381Y-17215619D02*
X8627381Y-17272762D01*
X8741666Y-17215619D02*
X8741666Y-17272762D01*
X9184523Y-17629905D02*
X9170238Y-17615619D01*
X9141666Y-17572762D01*
X9127381Y-17544191D01*
X9113095Y-17501334D01*
X9098809Y-17429905D01*
X9098809Y-17372762D01*
X9113095Y-17301334D01*
X9127381Y-17258477D01*
X9141666Y-17229905D01*
X9170238Y-17187048D01*
X9184523Y-17172762D01*
X9427381Y-17315619D02*
X9427381Y-17515619D01*
X9355952Y-17201334D02*
X9284523Y-17415619D01*
X9470238Y-17415619D01*
X9813095Y-17515619D02*
X9813095Y-17215619D01*
X9941666Y-17515619D02*
X9941666Y-17358477D01*
X9927381Y-17329905D01*
X9898809Y-17315619D01*
X9855952Y-17315619D01*
X9827381Y-17329905D01*
X9813095Y-17344191D01*
X10127381Y-17515619D02*
X10098809Y-17501334D01*
X10084523Y-17487048D01*
X10070238Y-17458477D01*
X10070238Y-17372762D01*
X10084523Y-17344191D01*
X10098809Y-17329905D01*
X10127381Y-17315619D01*
X10170238Y-17315619D01*
X10198809Y-17329905D01*
X10213095Y-17344191D01*
X10227381Y-17372762D01*
X10227381Y-17458477D01*
X10213095Y-17487048D01*
X10198809Y-17501334D01*
X10170238Y-17515619D01*
X10127381Y-17515619D01*
X10398809Y-17515619D02*
X10370238Y-17501334D01*
X10355952Y-17472762D01*
X10355952Y-17215619D01*
X10627381Y-17501334D02*
X10598809Y-17515619D01*
X10541666Y-17515619D01*
X10513095Y-17501334D01*
X10498809Y-17472762D01*
X10498809Y-17358477D01*
X10513095Y-17329905D01*
X10541666Y-17315619D01*
X10598809Y-17315619D01*
X10627381Y-17329905D01*
X10641666Y-17358477D01*
X10641666Y-17387048D01*
X10498809Y-17415619D01*
X10755952Y-17501334D02*
X10784523Y-17515619D01*
X10841666Y-17515619D01*
X10870238Y-17501334D01*
X10884523Y-17472762D01*
X10884523Y-17458477D01*
X10870238Y-17429905D01*
X10841666Y-17415619D01*
X10798809Y-17415619D01*
X10770238Y-17401334D01*
X10755952Y-17372762D01*
X10755952Y-17358477D01*
X10770238Y-17329905D01*
X10798809Y-17315619D01*
X10841666Y-17315619D01*
X10870238Y-17329905D01*
X10984523Y-17629905D02*
X10998809Y-17615619D01*
X11027381Y-17572762D01*
X11041666Y-17544191D01*
X11055952Y-17501334D01*
X11070238Y-17429905D01*
X11070238Y-17372762D01*
X11055952Y-17301334D01*
X11041666Y-17258477D01*
X11027381Y-17229905D01*
X10998809Y-17187048D01*
X10984523Y-17172762D01*
X4338095Y-17615905D02*
X4338095Y-17935905D01*
X4178095Y-17775905D02*
X4498095Y-17775905D01*
X4498095Y-17775905D02*
G75*
G03*
X4498095Y-17775905I-160000J0D01*
G01*
X4755952Y-17611619D02*
X4941666Y-17611619D01*
X4841666Y-17725905D01*
X4884523Y-17725905D01*
X4913095Y-17740191D01*
X4927381Y-17754477D01*
X4941666Y-17783048D01*
X4941666Y-17854477D01*
X4927381Y-17883048D01*
X4913095Y-17897334D01*
X4884523Y-17911619D01*
X4798809Y-17911619D01*
X4770238Y-17897334D01*
X4755952Y-17883048D01*
X5070238Y-17883048D02*
X5084523Y-17897334D01*
X5070238Y-17911619D01*
X5055952Y-17897334D01*
X5070238Y-17883048D01*
X5070238Y-17911619D01*
X5198809Y-17640191D02*
X5213095Y-17625905D01*
X5241666Y-17611619D01*
X5313095Y-17611619D01*
X5341666Y-17625905D01*
X5355952Y-17640191D01*
X5370238Y-17668762D01*
X5370238Y-17697334D01*
X5355952Y-17740191D01*
X5184523Y-17911619D01*
X5370238Y-17911619D01*
X5555952Y-17611619D02*
X5584523Y-17611619D01*
X5613095Y-17625905D01*
X5627381Y-17640191D01*
X5641666Y-17668762D01*
X5655952Y-17725905D01*
X5655952Y-17797334D01*
X5641666Y-17854477D01*
X5627381Y-17883048D01*
X5613095Y-17897334D01*
X5584523Y-17911619D01*
X5555952Y-17911619D01*
X5527381Y-17897334D01*
X5513095Y-17883048D01*
X5498809Y-17854477D01*
X5484523Y-17797334D01*
X5484523Y-17725905D01*
X5498809Y-17668762D01*
X5513095Y-17640191D01*
X5527381Y-17625905D01*
X5555952Y-17611619D01*
X5784523Y-17911619D02*
X5784523Y-17711619D01*
X5784523Y-17740191D02*
X5798809Y-17725905D01*
X5827381Y-17711619D01*
X5870238Y-17711619D01*
X5898809Y-17725905D01*
X5913095Y-17754477D01*
X5913095Y-17911619D01*
X5913095Y-17754477D02*
X5927381Y-17725905D01*
X5955952Y-17711619D01*
X5998809Y-17711619D01*
X6027381Y-17725905D01*
X6041666Y-17754477D01*
X6041666Y-17911619D01*
X6184523Y-17911619D02*
X6184523Y-17711619D01*
X6184523Y-17740191D02*
X6198809Y-17725905D01*
X6227381Y-17711619D01*
X6270238Y-17711619D01*
X6298809Y-17725905D01*
X6313095Y-17754477D01*
X6313095Y-17911619D01*
X6313095Y-17754477D02*
X6327381Y-17725905D01*
X6355952Y-17711619D01*
X6398809Y-17711619D01*
X6427381Y-17725905D01*
X6441666Y-17754477D01*
X6441666Y-17911619D01*
X7027381Y-17597334D02*
X6770238Y-17983048D01*
X7413095Y-17611619D02*
X7441666Y-17611619D01*
X7470238Y-17625905D01*
X7484523Y-17640191D01*
X7498809Y-17668762D01*
X7513095Y-17725905D01*
X7513095Y-17797334D01*
X7498809Y-17854477D01*
X7484523Y-17883048D01*
X7470238Y-17897334D01*
X7441666Y-17911619D01*
X7413095Y-17911619D01*
X7384523Y-17897334D01*
X7370238Y-17883048D01*
X7355952Y-17854477D01*
X7341666Y-17797334D01*
X7341666Y-17725905D01*
X7355952Y-17668762D01*
X7370238Y-17640191D01*
X7384523Y-17625905D01*
X7413095Y-17611619D01*
X7641666Y-17883048D02*
X7655952Y-17897334D01*
X7641666Y-17911619D01*
X7627381Y-17897334D01*
X7641666Y-17883048D01*
X7641666Y-17911619D01*
X7941666Y-17911619D02*
X7770238Y-17911619D01*
X7855952Y-17911619D02*
X7855952Y-17611619D01*
X7827381Y-17654477D01*
X7798809Y-17683048D01*
X7770238Y-17697334D01*
X8055952Y-17640191D02*
X8070238Y-17625905D01*
X8098809Y-17611619D01*
X8170238Y-17611619D01*
X8198809Y-17625905D01*
X8213095Y-17640191D01*
X8227381Y-17668762D01*
X8227381Y-17697334D01*
X8213095Y-17740191D01*
X8041666Y-17911619D01*
X8227381Y-17911619D01*
X8484523Y-17611619D02*
X8427381Y-17611619D01*
X8398809Y-17625905D01*
X8384523Y-17640191D01*
X8355952Y-17683048D01*
X8341666Y-17740191D01*
X8341666Y-17854477D01*
X8355952Y-17883048D01*
X8370238Y-17897334D01*
X8398809Y-17911619D01*
X8455952Y-17911619D01*
X8484523Y-17897334D01*
X8498809Y-17883048D01*
X8513095Y-17854477D01*
X8513095Y-17783048D01*
X8498809Y-17754477D01*
X8484523Y-17740191D01*
X8455952Y-17725905D01*
X8398809Y-17725905D01*
X8370238Y-17740191D01*
X8355952Y-17754477D01*
X8341666Y-17783048D01*
X8627381Y-17611619D02*
X8627381Y-17668762D01*
X8741666Y-17611619D02*
X8741666Y-17668762D01*
X9184523Y-18025905D02*
X9170238Y-18011619D01*
X9141666Y-17968762D01*
X9127381Y-17940191D01*
X9113095Y-17897334D01*
X9098809Y-17825905D01*
X9098809Y-17768762D01*
X9113095Y-17697334D01*
X9127381Y-17654477D01*
X9141666Y-17625905D01*
X9170238Y-17583048D01*
X9184523Y-17568762D01*
X9427381Y-17711619D02*
X9427381Y-17911619D01*
X9355952Y-17597334D02*
X9284523Y-17811619D01*
X9470238Y-17811619D01*
X9813095Y-17911619D02*
X9813095Y-17611619D01*
X9941666Y-17911619D02*
X9941666Y-17754477D01*
X9927381Y-17725905D01*
X9898809Y-17711619D01*
X9855952Y-17711619D01*
X9827381Y-17725905D01*
X9813095Y-17740191D01*
X10127381Y-17911619D02*
X10098809Y-17897334D01*
X10084523Y-17883048D01*
X10070238Y-17854477D01*
X10070238Y-17768762D01*
X10084523Y-17740191D01*
X10098809Y-17725905D01*
X10127381Y-17711619D01*
X10170238Y-17711619D01*
X10198809Y-17725905D01*
X10213095Y-17740191D01*
X10227381Y-17768762D01*
X10227381Y-17854477D01*
X10213095Y-17883048D01*
X10198809Y-17897334D01*
X10170238Y-17911619D01*
X10127381Y-17911619D01*
X10398809Y-17911619D02*
X10370238Y-17897334D01*
X10355952Y-17868762D01*
X10355952Y-17611619D01*
X10627381Y-17897334D02*
X10598809Y-17911619D01*
X10541666Y-17911619D01*
X10513095Y-17897334D01*
X10498809Y-17868762D01*
X10498809Y-17754477D01*
X10513095Y-17725905D01*
X10541666Y-17711619D01*
X10598809Y-17711619D01*
X10627381Y-17725905D01*
X10641666Y-17754477D01*
X10641666Y-17783048D01*
X10498809Y-17811619D01*
X10755952Y-17897334D02*
X10784523Y-17911619D01*
X10841666Y-17911619D01*
X10870238Y-17897334D01*
X10884523Y-17868762D01*
X10884523Y-17854477D01*
X10870238Y-17825905D01*
X10841666Y-17811619D01*
X10798809Y-17811619D01*
X10770238Y-17797334D01*
X10755952Y-17768762D01*
X10755952Y-17754477D01*
X10770238Y-17725905D01*
X10798809Y-17711619D01*
X10841666Y-17711619D01*
X10870238Y-17725905D01*
X10984523Y-18025905D02*
X10998809Y-18011619D01*
X11027381Y-17968762D01*
X11041666Y-17940191D01*
X11055952Y-17897334D01*
X11070238Y-17825905D01*
X11070238Y-17768762D01*
X11055952Y-17697334D01*
X11041666Y-17654477D01*
X11027381Y-17625905D01*
X10998809Y-17583048D01*
X10984523Y-17568762D01*
M02*
