G04 #@! TF.GenerationSoftware,KiCad,Pcbnew,(5.1.9)-1*
G04 #@! TF.CreationDate,2021-06-10T17:57:30+03:00*
G04 #@! TF.ProjectId,OneWireReader,4f6e6557-6972-4655-9265-616465722e6b,rev?*
G04 #@! TF.SameCoordinates,Original*
G04 #@! TF.FileFunction,Soldermask,Top*
G04 #@! TF.FilePolarity,Negative*
%FSLAX46Y46*%
G04 Gerber Fmt 4.6, Leading zero omitted, Abs format (unit mm)*
G04 Created by KiCad (PCBNEW (5.1.9)-1) date 2021-06-10 17:57:30*
%MOMM*%
%LPD*%
G01*
G04 APERTURE LIST*
%ADD10C,2.600000*%
%ADD11C,2.100000*%
%ADD12C,1.600000*%
%ADD13R,1.600000X1.800000*%
%ADD14C,2.340000*%
%ADD15R,0.900000X0.400000*%
%ADD16R,0.400000X0.900000*%
%ADD17R,4.500000X2.000000*%
%ADD18R,2.000000X1.500000*%
%ADD19R,2.000000X3.800000*%
%ADD20R,1.500000X2.000000*%
%ADD21R,3.800000X2.000000*%
%ADD22C,1.700000*%
%ADD23C,2.000000*%
%ADD24C,1.397000*%
%ADD25O,2.000000X1.440000*%
%ADD26R,2.000000X1.440000*%
%ADD27R,2.510000X1.000000*%
%ADD28C,3.000000*%
%ADD29O,1.800000X2.600000*%
%ADD30R,1.800000X2.600000*%
G04 APERTURE END LIST*
D10*
X191544000Y-43915000D03*
X186944000Y-43915000D03*
D11*
X191544000Y-56515000D03*
G36*
G01*
X185894000Y-57315000D02*
X185894000Y-55715000D01*
G75*
G02*
X186144000Y-55465000I250000J0D01*
G01*
X187744000Y-55465000D01*
G75*
G02*
X187994000Y-55715000I0J-250000D01*
G01*
X187994000Y-57315000D01*
G75*
G02*
X187744000Y-57565000I-250000J0D01*
G01*
X186144000Y-57565000D01*
G75*
G02*
X185894000Y-57315000I0J250000D01*
G01*
G37*
D12*
X162600000Y-93350000D03*
X162600000Y-98430000D03*
X162600000Y-88270000D03*
X170220000Y-80650000D03*
D13*
X162600000Y-80650000D03*
D12*
X170220000Y-98430000D03*
X170220000Y-93350000D03*
X170220000Y-88270000D03*
G36*
G01*
X183528000Y-87620000D02*
X183528000Y-86370000D01*
G75*
G02*
X183778000Y-86120000I250000J0D01*
G01*
X184703000Y-86120000D01*
G75*
G02*
X184953000Y-86370000I0J-250000D01*
G01*
X184953000Y-87620000D01*
G75*
G02*
X184703000Y-87870000I-250000J0D01*
G01*
X183778000Y-87870000D01*
G75*
G02*
X183528000Y-87620000I0J250000D01*
G01*
G37*
G36*
G01*
X180553000Y-87620000D02*
X180553000Y-86370000D01*
G75*
G02*
X180803000Y-86120000I250000J0D01*
G01*
X181728000Y-86120000D01*
G75*
G02*
X181978000Y-86370000I0J-250000D01*
G01*
X181978000Y-87620000D01*
G75*
G02*
X181728000Y-87870000I-250000J0D01*
G01*
X180803000Y-87870000D01*
G75*
G02*
X180553000Y-87620000I0J250000D01*
G01*
G37*
G36*
G01*
X183528000Y-83175000D02*
X183528000Y-81925000D01*
G75*
G02*
X183778000Y-81675000I250000J0D01*
G01*
X184703000Y-81675000D01*
G75*
G02*
X184953000Y-81925000I0J-250000D01*
G01*
X184953000Y-83175000D01*
G75*
G02*
X184703000Y-83425000I-250000J0D01*
G01*
X183778000Y-83425000D01*
G75*
G02*
X183528000Y-83175000I0J250000D01*
G01*
G37*
G36*
G01*
X180553000Y-83175000D02*
X180553000Y-81925000D01*
G75*
G02*
X180803000Y-81675000I250000J0D01*
G01*
X181728000Y-81675000D01*
G75*
G02*
X181978000Y-81925000I0J-250000D01*
G01*
X181978000Y-83175000D01*
G75*
G02*
X181728000Y-83425000I-250000J0D01*
G01*
X180803000Y-83425000D01*
G75*
G02*
X180553000Y-83175000I0J250000D01*
G01*
G37*
G36*
G01*
X183401000Y-78730000D02*
X183401000Y-77480000D01*
G75*
G02*
X183651000Y-77230000I250000J0D01*
G01*
X184576000Y-77230000D01*
G75*
G02*
X184826000Y-77480000I0J-250000D01*
G01*
X184826000Y-78730000D01*
G75*
G02*
X184576000Y-78980000I-250000J0D01*
G01*
X183651000Y-78980000D01*
G75*
G02*
X183401000Y-78730000I0J250000D01*
G01*
G37*
G36*
G01*
X180426000Y-78730000D02*
X180426000Y-77480000D01*
G75*
G02*
X180676000Y-77230000I250000J0D01*
G01*
X181601000Y-77230000D01*
G75*
G02*
X181851000Y-77480000I0J-250000D01*
G01*
X181851000Y-78730000D01*
G75*
G02*
X181601000Y-78980000I-250000J0D01*
G01*
X180676000Y-78980000D01*
G75*
G02*
X180426000Y-78730000I0J250000D01*
G01*
G37*
D14*
X159639000Y-43688000D03*
X162139000Y-53688000D03*
X164639000Y-43688000D03*
D15*
X77763000Y-47441000D03*
X77763000Y-48241000D03*
X77763000Y-49041000D03*
X77763000Y-49841000D03*
X79463000Y-47441000D03*
X79463000Y-49841000D03*
X79463000Y-48241000D03*
X79463000Y-49041000D03*
X99139000Y-50748000D03*
X99139000Y-51548000D03*
X99139000Y-52348000D03*
X99139000Y-53148000D03*
X100839000Y-50748000D03*
X100839000Y-53148000D03*
X100839000Y-51548000D03*
X100839000Y-52348000D03*
X167347000Y-75114000D03*
X167347000Y-74314000D03*
X167347000Y-73514000D03*
X167347000Y-72714000D03*
X165647000Y-75114000D03*
X165647000Y-72714000D03*
X165647000Y-74314000D03*
X165647000Y-73514000D03*
D16*
X56244000Y-62450000D03*
X57044000Y-62450000D03*
X57844000Y-62450000D03*
X58644000Y-62450000D03*
X56244000Y-60750000D03*
X58644000Y-60750000D03*
X57044000Y-60750000D03*
X57844000Y-60750000D03*
X61578000Y-62450000D03*
X62378000Y-62450000D03*
X63178000Y-62450000D03*
X63978000Y-62450000D03*
X61578000Y-60750000D03*
X63978000Y-60750000D03*
X62378000Y-60750000D03*
X63178000Y-60750000D03*
D15*
X100966000Y-60514000D03*
X100966000Y-59714000D03*
X100966000Y-58914000D03*
X100966000Y-58114000D03*
X99266000Y-60514000D03*
X99266000Y-58114000D03*
X99266000Y-59714000D03*
X99266000Y-58914000D03*
D16*
X120326000Y-62650000D03*
X119526000Y-62650000D03*
X118726000Y-62650000D03*
X117926000Y-62650000D03*
X120326000Y-64350000D03*
X117926000Y-64350000D03*
X119526000Y-64350000D03*
X118726000Y-64350000D03*
D17*
X80840000Y-72644000D03*
X89340000Y-72644000D03*
G36*
G01*
X64660000Y-74115000D02*
X64960000Y-74115000D01*
G75*
G02*
X65110000Y-74265000I0J-150000D01*
G01*
X65110000Y-76015000D01*
G75*
G02*
X64960000Y-76165000I-150000J0D01*
G01*
X64660000Y-76165000D01*
G75*
G02*
X64510000Y-76015000I0J150000D01*
G01*
X64510000Y-74265000D01*
G75*
G02*
X64660000Y-74115000I150000J0D01*
G01*
G37*
G36*
G01*
X63390000Y-74115000D02*
X63690000Y-74115000D01*
G75*
G02*
X63840000Y-74265000I0J-150000D01*
G01*
X63840000Y-76015000D01*
G75*
G02*
X63690000Y-76165000I-150000J0D01*
G01*
X63390000Y-76165000D01*
G75*
G02*
X63240000Y-76015000I0J150000D01*
G01*
X63240000Y-74265000D01*
G75*
G02*
X63390000Y-74115000I150000J0D01*
G01*
G37*
G36*
G01*
X62120000Y-74115000D02*
X62420000Y-74115000D01*
G75*
G02*
X62570000Y-74265000I0J-150000D01*
G01*
X62570000Y-76015000D01*
G75*
G02*
X62420000Y-76165000I-150000J0D01*
G01*
X62120000Y-76165000D01*
G75*
G02*
X61970000Y-76015000I0J150000D01*
G01*
X61970000Y-74265000D01*
G75*
G02*
X62120000Y-74115000I150000J0D01*
G01*
G37*
G36*
G01*
X60850000Y-74115000D02*
X61150000Y-74115000D01*
G75*
G02*
X61300000Y-74265000I0J-150000D01*
G01*
X61300000Y-76015000D01*
G75*
G02*
X61150000Y-76165000I-150000J0D01*
G01*
X60850000Y-76165000D01*
G75*
G02*
X60700000Y-76015000I0J150000D01*
G01*
X60700000Y-74265000D01*
G75*
G02*
X60850000Y-74115000I150000J0D01*
G01*
G37*
G36*
G01*
X59580000Y-74115000D02*
X59880000Y-74115000D01*
G75*
G02*
X60030000Y-74265000I0J-150000D01*
G01*
X60030000Y-76015000D01*
G75*
G02*
X59880000Y-76165000I-150000J0D01*
G01*
X59580000Y-76165000D01*
G75*
G02*
X59430000Y-76015000I0J150000D01*
G01*
X59430000Y-74265000D01*
G75*
G02*
X59580000Y-74115000I150000J0D01*
G01*
G37*
G36*
G01*
X58310000Y-74115000D02*
X58610000Y-74115000D01*
G75*
G02*
X58760000Y-74265000I0J-150000D01*
G01*
X58760000Y-76015000D01*
G75*
G02*
X58610000Y-76165000I-150000J0D01*
G01*
X58310000Y-76165000D01*
G75*
G02*
X58160000Y-76015000I0J150000D01*
G01*
X58160000Y-74265000D01*
G75*
G02*
X58310000Y-74115000I150000J0D01*
G01*
G37*
G36*
G01*
X57040000Y-74115000D02*
X57340000Y-74115000D01*
G75*
G02*
X57490000Y-74265000I0J-150000D01*
G01*
X57490000Y-76015000D01*
G75*
G02*
X57340000Y-76165000I-150000J0D01*
G01*
X57040000Y-76165000D01*
G75*
G02*
X56890000Y-76015000I0J150000D01*
G01*
X56890000Y-74265000D01*
G75*
G02*
X57040000Y-74115000I150000J0D01*
G01*
G37*
G36*
G01*
X55770000Y-74115000D02*
X56070000Y-74115000D01*
G75*
G02*
X56220000Y-74265000I0J-150000D01*
G01*
X56220000Y-76015000D01*
G75*
G02*
X56070000Y-76165000I-150000J0D01*
G01*
X55770000Y-76165000D01*
G75*
G02*
X55620000Y-76015000I0J150000D01*
G01*
X55620000Y-74265000D01*
G75*
G02*
X55770000Y-74115000I150000J0D01*
G01*
G37*
G36*
G01*
X54500000Y-74115000D02*
X54800000Y-74115000D01*
G75*
G02*
X54950000Y-74265000I0J-150000D01*
G01*
X54950000Y-76015000D01*
G75*
G02*
X54800000Y-76165000I-150000J0D01*
G01*
X54500000Y-76165000D01*
G75*
G02*
X54350000Y-76015000I0J150000D01*
G01*
X54350000Y-74265000D01*
G75*
G02*
X54500000Y-74115000I150000J0D01*
G01*
G37*
G36*
G01*
X54500000Y-64815000D02*
X54800000Y-64815000D01*
G75*
G02*
X54950000Y-64965000I0J-150000D01*
G01*
X54950000Y-66715000D01*
G75*
G02*
X54800000Y-66865000I-150000J0D01*
G01*
X54500000Y-66865000D01*
G75*
G02*
X54350000Y-66715000I0J150000D01*
G01*
X54350000Y-64965000D01*
G75*
G02*
X54500000Y-64815000I150000J0D01*
G01*
G37*
G36*
G01*
X55770000Y-64815000D02*
X56070000Y-64815000D01*
G75*
G02*
X56220000Y-64965000I0J-150000D01*
G01*
X56220000Y-66715000D01*
G75*
G02*
X56070000Y-66865000I-150000J0D01*
G01*
X55770000Y-66865000D01*
G75*
G02*
X55620000Y-66715000I0J150000D01*
G01*
X55620000Y-64965000D01*
G75*
G02*
X55770000Y-64815000I150000J0D01*
G01*
G37*
G36*
G01*
X57040000Y-64815000D02*
X57340000Y-64815000D01*
G75*
G02*
X57490000Y-64965000I0J-150000D01*
G01*
X57490000Y-66715000D01*
G75*
G02*
X57340000Y-66865000I-150000J0D01*
G01*
X57040000Y-66865000D01*
G75*
G02*
X56890000Y-66715000I0J150000D01*
G01*
X56890000Y-64965000D01*
G75*
G02*
X57040000Y-64815000I150000J0D01*
G01*
G37*
G36*
G01*
X58310000Y-64815000D02*
X58610000Y-64815000D01*
G75*
G02*
X58760000Y-64965000I0J-150000D01*
G01*
X58760000Y-66715000D01*
G75*
G02*
X58610000Y-66865000I-150000J0D01*
G01*
X58310000Y-66865000D01*
G75*
G02*
X58160000Y-66715000I0J150000D01*
G01*
X58160000Y-64965000D01*
G75*
G02*
X58310000Y-64815000I150000J0D01*
G01*
G37*
G36*
G01*
X59580000Y-64815000D02*
X59880000Y-64815000D01*
G75*
G02*
X60030000Y-64965000I0J-150000D01*
G01*
X60030000Y-66715000D01*
G75*
G02*
X59880000Y-66865000I-150000J0D01*
G01*
X59580000Y-66865000D01*
G75*
G02*
X59430000Y-66715000I0J150000D01*
G01*
X59430000Y-64965000D01*
G75*
G02*
X59580000Y-64815000I150000J0D01*
G01*
G37*
G36*
G01*
X60850000Y-64815000D02*
X61150000Y-64815000D01*
G75*
G02*
X61300000Y-64965000I0J-150000D01*
G01*
X61300000Y-66715000D01*
G75*
G02*
X61150000Y-66865000I-150000J0D01*
G01*
X60850000Y-66865000D01*
G75*
G02*
X60700000Y-66715000I0J150000D01*
G01*
X60700000Y-64965000D01*
G75*
G02*
X60850000Y-64815000I150000J0D01*
G01*
G37*
G36*
G01*
X62120000Y-64815000D02*
X62420000Y-64815000D01*
G75*
G02*
X62570000Y-64965000I0J-150000D01*
G01*
X62570000Y-66715000D01*
G75*
G02*
X62420000Y-66865000I-150000J0D01*
G01*
X62120000Y-66865000D01*
G75*
G02*
X61970000Y-66715000I0J150000D01*
G01*
X61970000Y-64965000D01*
G75*
G02*
X62120000Y-64815000I150000J0D01*
G01*
G37*
G36*
G01*
X63390000Y-64815000D02*
X63690000Y-64815000D01*
G75*
G02*
X63840000Y-64965000I0J-150000D01*
G01*
X63840000Y-66715000D01*
G75*
G02*
X63690000Y-66865000I-150000J0D01*
G01*
X63390000Y-66865000D01*
G75*
G02*
X63240000Y-66715000I0J150000D01*
G01*
X63240000Y-64965000D01*
G75*
G02*
X63390000Y-64815000I150000J0D01*
G01*
G37*
G36*
G01*
X64660000Y-64815000D02*
X64960000Y-64815000D01*
G75*
G02*
X65110000Y-64965000I0J-150000D01*
G01*
X65110000Y-66715000D01*
G75*
G02*
X64960000Y-66865000I-150000J0D01*
G01*
X64660000Y-66865000D01*
G75*
G02*
X64510000Y-66715000I0J150000D01*
G01*
X64510000Y-64965000D01*
G75*
G02*
X64660000Y-64815000I150000J0D01*
G01*
G37*
G36*
G01*
X106270000Y-66784000D02*
X106270000Y-67084000D01*
G75*
G02*
X106120000Y-67234000I-150000J0D01*
G01*
X104370000Y-67234000D01*
G75*
G02*
X104220000Y-67084000I0J150000D01*
G01*
X104220000Y-66784000D01*
G75*
G02*
X104370000Y-66634000I150000J0D01*
G01*
X106120000Y-66634000D01*
G75*
G02*
X106270000Y-66784000I0J-150000D01*
G01*
G37*
G36*
G01*
X106270000Y-65514000D02*
X106270000Y-65814000D01*
G75*
G02*
X106120000Y-65964000I-150000J0D01*
G01*
X104370000Y-65964000D01*
G75*
G02*
X104220000Y-65814000I0J150000D01*
G01*
X104220000Y-65514000D01*
G75*
G02*
X104370000Y-65364000I150000J0D01*
G01*
X106120000Y-65364000D01*
G75*
G02*
X106270000Y-65514000I0J-150000D01*
G01*
G37*
G36*
G01*
X106270000Y-64244000D02*
X106270000Y-64544000D01*
G75*
G02*
X106120000Y-64694000I-150000J0D01*
G01*
X104370000Y-64694000D01*
G75*
G02*
X104220000Y-64544000I0J150000D01*
G01*
X104220000Y-64244000D01*
G75*
G02*
X104370000Y-64094000I150000J0D01*
G01*
X106120000Y-64094000D01*
G75*
G02*
X106270000Y-64244000I0J-150000D01*
G01*
G37*
G36*
G01*
X106270000Y-62974000D02*
X106270000Y-63274000D01*
G75*
G02*
X106120000Y-63424000I-150000J0D01*
G01*
X104370000Y-63424000D01*
G75*
G02*
X104220000Y-63274000I0J150000D01*
G01*
X104220000Y-62974000D01*
G75*
G02*
X104370000Y-62824000I150000J0D01*
G01*
X106120000Y-62824000D01*
G75*
G02*
X106270000Y-62974000I0J-150000D01*
G01*
G37*
G36*
G01*
X106270000Y-61704000D02*
X106270000Y-62004000D01*
G75*
G02*
X106120000Y-62154000I-150000J0D01*
G01*
X104370000Y-62154000D01*
G75*
G02*
X104220000Y-62004000I0J150000D01*
G01*
X104220000Y-61704000D01*
G75*
G02*
X104370000Y-61554000I150000J0D01*
G01*
X106120000Y-61554000D01*
G75*
G02*
X106270000Y-61704000I0J-150000D01*
G01*
G37*
G36*
G01*
X106270000Y-60434000D02*
X106270000Y-60734000D01*
G75*
G02*
X106120000Y-60884000I-150000J0D01*
G01*
X104370000Y-60884000D01*
G75*
G02*
X104220000Y-60734000I0J150000D01*
G01*
X104220000Y-60434000D01*
G75*
G02*
X104370000Y-60284000I150000J0D01*
G01*
X106120000Y-60284000D01*
G75*
G02*
X106270000Y-60434000I0J-150000D01*
G01*
G37*
G36*
G01*
X106270000Y-59164000D02*
X106270000Y-59464000D01*
G75*
G02*
X106120000Y-59614000I-150000J0D01*
G01*
X104370000Y-59614000D01*
G75*
G02*
X104220000Y-59464000I0J150000D01*
G01*
X104220000Y-59164000D01*
G75*
G02*
X104370000Y-59014000I150000J0D01*
G01*
X106120000Y-59014000D01*
G75*
G02*
X106270000Y-59164000I0J-150000D01*
G01*
G37*
G36*
G01*
X106270000Y-57894000D02*
X106270000Y-58194000D01*
G75*
G02*
X106120000Y-58344000I-150000J0D01*
G01*
X104370000Y-58344000D01*
G75*
G02*
X104220000Y-58194000I0J150000D01*
G01*
X104220000Y-57894000D01*
G75*
G02*
X104370000Y-57744000I150000J0D01*
G01*
X106120000Y-57744000D01*
G75*
G02*
X106270000Y-57894000I0J-150000D01*
G01*
G37*
G36*
G01*
X106270000Y-56624000D02*
X106270000Y-56924000D01*
G75*
G02*
X106120000Y-57074000I-150000J0D01*
G01*
X104370000Y-57074000D01*
G75*
G02*
X104220000Y-56924000I0J150000D01*
G01*
X104220000Y-56624000D01*
G75*
G02*
X104370000Y-56474000I150000J0D01*
G01*
X106120000Y-56474000D01*
G75*
G02*
X106270000Y-56624000I0J-150000D01*
G01*
G37*
G36*
G01*
X106270000Y-55354000D02*
X106270000Y-55654000D01*
G75*
G02*
X106120000Y-55804000I-150000J0D01*
G01*
X104370000Y-55804000D01*
G75*
G02*
X104220000Y-55654000I0J150000D01*
G01*
X104220000Y-55354000D01*
G75*
G02*
X104370000Y-55204000I150000J0D01*
G01*
X106120000Y-55204000D01*
G75*
G02*
X106270000Y-55354000I0J-150000D01*
G01*
G37*
G36*
G01*
X115570000Y-55354000D02*
X115570000Y-55654000D01*
G75*
G02*
X115420000Y-55804000I-150000J0D01*
G01*
X113670000Y-55804000D01*
G75*
G02*
X113520000Y-55654000I0J150000D01*
G01*
X113520000Y-55354000D01*
G75*
G02*
X113670000Y-55204000I150000J0D01*
G01*
X115420000Y-55204000D01*
G75*
G02*
X115570000Y-55354000I0J-150000D01*
G01*
G37*
G36*
G01*
X115570000Y-56624000D02*
X115570000Y-56924000D01*
G75*
G02*
X115420000Y-57074000I-150000J0D01*
G01*
X113670000Y-57074000D01*
G75*
G02*
X113520000Y-56924000I0J150000D01*
G01*
X113520000Y-56624000D01*
G75*
G02*
X113670000Y-56474000I150000J0D01*
G01*
X115420000Y-56474000D01*
G75*
G02*
X115570000Y-56624000I0J-150000D01*
G01*
G37*
G36*
G01*
X115570000Y-57894000D02*
X115570000Y-58194000D01*
G75*
G02*
X115420000Y-58344000I-150000J0D01*
G01*
X113670000Y-58344000D01*
G75*
G02*
X113520000Y-58194000I0J150000D01*
G01*
X113520000Y-57894000D01*
G75*
G02*
X113670000Y-57744000I150000J0D01*
G01*
X115420000Y-57744000D01*
G75*
G02*
X115570000Y-57894000I0J-150000D01*
G01*
G37*
G36*
G01*
X115570000Y-59164000D02*
X115570000Y-59464000D01*
G75*
G02*
X115420000Y-59614000I-150000J0D01*
G01*
X113670000Y-59614000D01*
G75*
G02*
X113520000Y-59464000I0J150000D01*
G01*
X113520000Y-59164000D01*
G75*
G02*
X113670000Y-59014000I150000J0D01*
G01*
X115420000Y-59014000D01*
G75*
G02*
X115570000Y-59164000I0J-150000D01*
G01*
G37*
G36*
G01*
X115570000Y-60434000D02*
X115570000Y-60734000D01*
G75*
G02*
X115420000Y-60884000I-150000J0D01*
G01*
X113670000Y-60884000D01*
G75*
G02*
X113520000Y-60734000I0J150000D01*
G01*
X113520000Y-60434000D01*
G75*
G02*
X113670000Y-60284000I150000J0D01*
G01*
X115420000Y-60284000D01*
G75*
G02*
X115570000Y-60434000I0J-150000D01*
G01*
G37*
G36*
G01*
X115570000Y-61704000D02*
X115570000Y-62004000D01*
G75*
G02*
X115420000Y-62154000I-150000J0D01*
G01*
X113670000Y-62154000D01*
G75*
G02*
X113520000Y-62004000I0J150000D01*
G01*
X113520000Y-61704000D01*
G75*
G02*
X113670000Y-61554000I150000J0D01*
G01*
X115420000Y-61554000D01*
G75*
G02*
X115570000Y-61704000I0J-150000D01*
G01*
G37*
G36*
G01*
X115570000Y-62974000D02*
X115570000Y-63274000D01*
G75*
G02*
X115420000Y-63424000I-150000J0D01*
G01*
X113670000Y-63424000D01*
G75*
G02*
X113520000Y-63274000I0J150000D01*
G01*
X113520000Y-62974000D01*
G75*
G02*
X113670000Y-62824000I150000J0D01*
G01*
X115420000Y-62824000D01*
G75*
G02*
X115570000Y-62974000I0J-150000D01*
G01*
G37*
G36*
G01*
X115570000Y-64244000D02*
X115570000Y-64544000D01*
G75*
G02*
X115420000Y-64694000I-150000J0D01*
G01*
X113670000Y-64694000D01*
G75*
G02*
X113520000Y-64544000I0J150000D01*
G01*
X113520000Y-64244000D01*
G75*
G02*
X113670000Y-64094000I150000J0D01*
G01*
X115420000Y-64094000D01*
G75*
G02*
X115570000Y-64244000I0J-150000D01*
G01*
G37*
G36*
G01*
X115570000Y-65514000D02*
X115570000Y-65814000D01*
G75*
G02*
X115420000Y-65964000I-150000J0D01*
G01*
X113670000Y-65964000D01*
G75*
G02*
X113520000Y-65814000I0J150000D01*
G01*
X113520000Y-65514000D01*
G75*
G02*
X113670000Y-65364000I150000J0D01*
G01*
X115420000Y-65364000D01*
G75*
G02*
X115570000Y-65514000I0J-150000D01*
G01*
G37*
G36*
G01*
X115570000Y-66784000D02*
X115570000Y-67084000D01*
G75*
G02*
X115420000Y-67234000I-150000J0D01*
G01*
X113670000Y-67234000D01*
G75*
G02*
X113520000Y-67084000I0J150000D01*
G01*
X113520000Y-66784000D01*
G75*
G02*
X113670000Y-66634000I150000J0D01*
G01*
X115420000Y-66634000D01*
G75*
G02*
X115570000Y-66784000I0J-150000D01*
G01*
G37*
G36*
G01*
X154703000Y-74911000D02*
X155003000Y-74911000D01*
G75*
G02*
X155153000Y-75061000I0J-150000D01*
G01*
X155153000Y-76711000D01*
G75*
G02*
X155003000Y-76861000I-150000J0D01*
G01*
X154703000Y-76861000D01*
G75*
G02*
X154553000Y-76711000I0J150000D01*
G01*
X154553000Y-75061000D01*
G75*
G02*
X154703000Y-74911000I150000J0D01*
G01*
G37*
G36*
G01*
X153433000Y-74911000D02*
X153733000Y-74911000D01*
G75*
G02*
X153883000Y-75061000I0J-150000D01*
G01*
X153883000Y-76711000D01*
G75*
G02*
X153733000Y-76861000I-150000J0D01*
G01*
X153433000Y-76861000D01*
G75*
G02*
X153283000Y-76711000I0J150000D01*
G01*
X153283000Y-75061000D01*
G75*
G02*
X153433000Y-74911000I150000J0D01*
G01*
G37*
G36*
G01*
X152163000Y-74911000D02*
X152463000Y-74911000D01*
G75*
G02*
X152613000Y-75061000I0J-150000D01*
G01*
X152613000Y-76711000D01*
G75*
G02*
X152463000Y-76861000I-150000J0D01*
G01*
X152163000Y-76861000D01*
G75*
G02*
X152013000Y-76711000I0J150000D01*
G01*
X152013000Y-75061000D01*
G75*
G02*
X152163000Y-74911000I150000J0D01*
G01*
G37*
G36*
G01*
X150893000Y-74911000D02*
X151193000Y-74911000D01*
G75*
G02*
X151343000Y-75061000I0J-150000D01*
G01*
X151343000Y-76711000D01*
G75*
G02*
X151193000Y-76861000I-150000J0D01*
G01*
X150893000Y-76861000D01*
G75*
G02*
X150743000Y-76711000I0J150000D01*
G01*
X150743000Y-75061000D01*
G75*
G02*
X150893000Y-74911000I150000J0D01*
G01*
G37*
G36*
G01*
X150893000Y-69961000D02*
X151193000Y-69961000D01*
G75*
G02*
X151343000Y-70111000I0J-150000D01*
G01*
X151343000Y-71761000D01*
G75*
G02*
X151193000Y-71911000I-150000J0D01*
G01*
X150893000Y-71911000D01*
G75*
G02*
X150743000Y-71761000I0J150000D01*
G01*
X150743000Y-70111000D01*
G75*
G02*
X150893000Y-69961000I150000J0D01*
G01*
G37*
G36*
G01*
X152163000Y-69961000D02*
X152463000Y-69961000D01*
G75*
G02*
X152613000Y-70111000I0J-150000D01*
G01*
X152613000Y-71761000D01*
G75*
G02*
X152463000Y-71911000I-150000J0D01*
G01*
X152163000Y-71911000D01*
G75*
G02*
X152013000Y-71761000I0J150000D01*
G01*
X152013000Y-70111000D01*
G75*
G02*
X152163000Y-69961000I150000J0D01*
G01*
G37*
G36*
G01*
X153433000Y-69961000D02*
X153733000Y-69961000D01*
G75*
G02*
X153883000Y-70111000I0J-150000D01*
G01*
X153883000Y-71761000D01*
G75*
G02*
X153733000Y-71911000I-150000J0D01*
G01*
X153433000Y-71911000D01*
G75*
G02*
X153283000Y-71761000I0J150000D01*
G01*
X153283000Y-70111000D01*
G75*
G02*
X153433000Y-69961000I150000J0D01*
G01*
G37*
G36*
G01*
X154703000Y-69961000D02*
X155003000Y-69961000D01*
G75*
G02*
X155153000Y-70111000I0J-150000D01*
G01*
X155153000Y-71761000D01*
G75*
G02*
X155003000Y-71911000I-150000J0D01*
G01*
X154703000Y-71911000D01*
G75*
G02*
X154553000Y-71761000I0J150000D01*
G01*
X154553000Y-70111000D01*
G75*
G02*
X154703000Y-69961000I150000J0D01*
G01*
G37*
G36*
G01*
X78307000Y-65337000D02*
X76857000Y-65337000D01*
G75*
G02*
X76782000Y-65262000I0J75000D01*
G01*
X76782000Y-65112000D01*
G75*
G02*
X76857000Y-65037000I75000J0D01*
G01*
X78307000Y-65037000D01*
G75*
G02*
X78382000Y-65112000I0J-75000D01*
G01*
X78382000Y-65262000D01*
G75*
G02*
X78307000Y-65337000I-75000J0D01*
G01*
G37*
G36*
G01*
X78307000Y-64837000D02*
X76857000Y-64837000D01*
G75*
G02*
X76782000Y-64762000I0J75000D01*
G01*
X76782000Y-64612000D01*
G75*
G02*
X76857000Y-64537000I75000J0D01*
G01*
X78307000Y-64537000D01*
G75*
G02*
X78382000Y-64612000I0J-75000D01*
G01*
X78382000Y-64762000D01*
G75*
G02*
X78307000Y-64837000I-75000J0D01*
G01*
G37*
G36*
G01*
X78307000Y-64337000D02*
X76857000Y-64337000D01*
G75*
G02*
X76782000Y-64262000I0J75000D01*
G01*
X76782000Y-64112000D01*
G75*
G02*
X76857000Y-64037000I75000J0D01*
G01*
X78307000Y-64037000D01*
G75*
G02*
X78382000Y-64112000I0J-75000D01*
G01*
X78382000Y-64262000D01*
G75*
G02*
X78307000Y-64337000I-75000J0D01*
G01*
G37*
G36*
G01*
X78307000Y-63837000D02*
X76857000Y-63837000D01*
G75*
G02*
X76782000Y-63762000I0J75000D01*
G01*
X76782000Y-63612000D01*
G75*
G02*
X76857000Y-63537000I75000J0D01*
G01*
X78307000Y-63537000D01*
G75*
G02*
X78382000Y-63612000I0J-75000D01*
G01*
X78382000Y-63762000D01*
G75*
G02*
X78307000Y-63837000I-75000J0D01*
G01*
G37*
G36*
G01*
X78307000Y-63337000D02*
X76857000Y-63337000D01*
G75*
G02*
X76782000Y-63262000I0J75000D01*
G01*
X76782000Y-63112000D01*
G75*
G02*
X76857000Y-63037000I75000J0D01*
G01*
X78307000Y-63037000D01*
G75*
G02*
X78382000Y-63112000I0J-75000D01*
G01*
X78382000Y-63262000D01*
G75*
G02*
X78307000Y-63337000I-75000J0D01*
G01*
G37*
G36*
G01*
X78307000Y-62837000D02*
X76857000Y-62837000D01*
G75*
G02*
X76782000Y-62762000I0J75000D01*
G01*
X76782000Y-62612000D01*
G75*
G02*
X76857000Y-62537000I75000J0D01*
G01*
X78307000Y-62537000D01*
G75*
G02*
X78382000Y-62612000I0J-75000D01*
G01*
X78382000Y-62762000D01*
G75*
G02*
X78307000Y-62837000I-75000J0D01*
G01*
G37*
G36*
G01*
X78307000Y-62337000D02*
X76857000Y-62337000D01*
G75*
G02*
X76782000Y-62262000I0J75000D01*
G01*
X76782000Y-62112000D01*
G75*
G02*
X76857000Y-62037000I75000J0D01*
G01*
X78307000Y-62037000D01*
G75*
G02*
X78382000Y-62112000I0J-75000D01*
G01*
X78382000Y-62262000D01*
G75*
G02*
X78307000Y-62337000I-75000J0D01*
G01*
G37*
G36*
G01*
X78307000Y-61837000D02*
X76857000Y-61837000D01*
G75*
G02*
X76782000Y-61762000I0J75000D01*
G01*
X76782000Y-61612000D01*
G75*
G02*
X76857000Y-61537000I75000J0D01*
G01*
X78307000Y-61537000D01*
G75*
G02*
X78382000Y-61612000I0J-75000D01*
G01*
X78382000Y-61762000D01*
G75*
G02*
X78307000Y-61837000I-75000J0D01*
G01*
G37*
G36*
G01*
X78307000Y-61337000D02*
X76857000Y-61337000D01*
G75*
G02*
X76782000Y-61262000I0J75000D01*
G01*
X76782000Y-61112000D01*
G75*
G02*
X76857000Y-61037000I75000J0D01*
G01*
X78307000Y-61037000D01*
G75*
G02*
X78382000Y-61112000I0J-75000D01*
G01*
X78382000Y-61262000D01*
G75*
G02*
X78307000Y-61337000I-75000J0D01*
G01*
G37*
G36*
G01*
X78307000Y-60837000D02*
X76857000Y-60837000D01*
G75*
G02*
X76782000Y-60762000I0J75000D01*
G01*
X76782000Y-60612000D01*
G75*
G02*
X76857000Y-60537000I75000J0D01*
G01*
X78307000Y-60537000D01*
G75*
G02*
X78382000Y-60612000I0J-75000D01*
G01*
X78382000Y-60762000D01*
G75*
G02*
X78307000Y-60837000I-75000J0D01*
G01*
G37*
G36*
G01*
X78307000Y-60337000D02*
X76857000Y-60337000D01*
G75*
G02*
X76782000Y-60262000I0J75000D01*
G01*
X76782000Y-60112000D01*
G75*
G02*
X76857000Y-60037000I75000J0D01*
G01*
X78307000Y-60037000D01*
G75*
G02*
X78382000Y-60112000I0J-75000D01*
G01*
X78382000Y-60262000D01*
G75*
G02*
X78307000Y-60337000I-75000J0D01*
G01*
G37*
G36*
G01*
X78307000Y-59837000D02*
X76857000Y-59837000D01*
G75*
G02*
X76782000Y-59762000I0J75000D01*
G01*
X76782000Y-59612000D01*
G75*
G02*
X76857000Y-59537000I75000J0D01*
G01*
X78307000Y-59537000D01*
G75*
G02*
X78382000Y-59612000I0J-75000D01*
G01*
X78382000Y-59762000D01*
G75*
G02*
X78307000Y-59837000I-75000J0D01*
G01*
G37*
G36*
G01*
X78307000Y-59337000D02*
X76857000Y-59337000D01*
G75*
G02*
X76782000Y-59262000I0J75000D01*
G01*
X76782000Y-59112000D01*
G75*
G02*
X76857000Y-59037000I75000J0D01*
G01*
X78307000Y-59037000D01*
G75*
G02*
X78382000Y-59112000I0J-75000D01*
G01*
X78382000Y-59262000D01*
G75*
G02*
X78307000Y-59337000I-75000J0D01*
G01*
G37*
G36*
G01*
X78307000Y-58837000D02*
X76857000Y-58837000D01*
G75*
G02*
X76782000Y-58762000I0J75000D01*
G01*
X76782000Y-58612000D01*
G75*
G02*
X76857000Y-58537000I75000J0D01*
G01*
X78307000Y-58537000D01*
G75*
G02*
X78382000Y-58612000I0J-75000D01*
G01*
X78382000Y-58762000D01*
G75*
G02*
X78307000Y-58837000I-75000J0D01*
G01*
G37*
G36*
G01*
X78307000Y-58337000D02*
X76857000Y-58337000D01*
G75*
G02*
X76782000Y-58262000I0J75000D01*
G01*
X76782000Y-58112000D01*
G75*
G02*
X76857000Y-58037000I75000J0D01*
G01*
X78307000Y-58037000D01*
G75*
G02*
X78382000Y-58112000I0J-75000D01*
G01*
X78382000Y-58262000D01*
G75*
G02*
X78307000Y-58337000I-75000J0D01*
G01*
G37*
G36*
G01*
X78307000Y-57837000D02*
X76857000Y-57837000D01*
G75*
G02*
X76782000Y-57762000I0J75000D01*
G01*
X76782000Y-57612000D01*
G75*
G02*
X76857000Y-57537000I75000J0D01*
G01*
X78307000Y-57537000D01*
G75*
G02*
X78382000Y-57612000I0J-75000D01*
G01*
X78382000Y-57762000D01*
G75*
G02*
X78307000Y-57837000I-75000J0D01*
G01*
G37*
G36*
G01*
X78307000Y-57337000D02*
X76857000Y-57337000D01*
G75*
G02*
X76782000Y-57262000I0J75000D01*
G01*
X76782000Y-57112000D01*
G75*
G02*
X76857000Y-57037000I75000J0D01*
G01*
X78307000Y-57037000D01*
G75*
G02*
X78382000Y-57112000I0J-75000D01*
G01*
X78382000Y-57262000D01*
G75*
G02*
X78307000Y-57337000I-75000J0D01*
G01*
G37*
G36*
G01*
X78307000Y-56837000D02*
X76857000Y-56837000D01*
G75*
G02*
X76782000Y-56762000I0J75000D01*
G01*
X76782000Y-56612000D01*
G75*
G02*
X76857000Y-56537000I75000J0D01*
G01*
X78307000Y-56537000D01*
G75*
G02*
X78382000Y-56612000I0J-75000D01*
G01*
X78382000Y-56762000D01*
G75*
G02*
X78307000Y-56837000I-75000J0D01*
G01*
G37*
G36*
G01*
X78307000Y-56337000D02*
X76857000Y-56337000D01*
G75*
G02*
X76782000Y-56262000I0J75000D01*
G01*
X76782000Y-56112000D01*
G75*
G02*
X76857000Y-56037000I75000J0D01*
G01*
X78307000Y-56037000D01*
G75*
G02*
X78382000Y-56112000I0J-75000D01*
G01*
X78382000Y-56262000D01*
G75*
G02*
X78307000Y-56337000I-75000J0D01*
G01*
G37*
G36*
G01*
X78307000Y-55837000D02*
X76857000Y-55837000D01*
G75*
G02*
X76782000Y-55762000I0J75000D01*
G01*
X76782000Y-55612000D01*
G75*
G02*
X76857000Y-55537000I75000J0D01*
G01*
X78307000Y-55537000D01*
G75*
G02*
X78382000Y-55612000I0J-75000D01*
G01*
X78382000Y-55762000D01*
G75*
G02*
X78307000Y-55837000I-75000J0D01*
G01*
G37*
G36*
G01*
X78307000Y-55337000D02*
X76857000Y-55337000D01*
G75*
G02*
X76782000Y-55262000I0J75000D01*
G01*
X76782000Y-55112000D01*
G75*
G02*
X76857000Y-55037000I75000J0D01*
G01*
X78307000Y-55037000D01*
G75*
G02*
X78382000Y-55112000I0J-75000D01*
G01*
X78382000Y-55262000D01*
G75*
G02*
X78307000Y-55337000I-75000J0D01*
G01*
G37*
G36*
G01*
X78307000Y-54837000D02*
X76857000Y-54837000D01*
G75*
G02*
X76782000Y-54762000I0J75000D01*
G01*
X76782000Y-54612000D01*
G75*
G02*
X76857000Y-54537000I75000J0D01*
G01*
X78307000Y-54537000D01*
G75*
G02*
X78382000Y-54612000I0J-75000D01*
G01*
X78382000Y-54762000D01*
G75*
G02*
X78307000Y-54837000I-75000J0D01*
G01*
G37*
G36*
G01*
X78307000Y-54337000D02*
X76857000Y-54337000D01*
G75*
G02*
X76782000Y-54262000I0J75000D01*
G01*
X76782000Y-54112000D01*
G75*
G02*
X76857000Y-54037000I75000J0D01*
G01*
X78307000Y-54037000D01*
G75*
G02*
X78382000Y-54112000I0J-75000D01*
G01*
X78382000Y-54262000D01*
G75*
G02*
X78307000Y-54337000I-75000J0D01*
G01*
G37*
G36*
G01*
X78307000Y-53837000D02*
X76857000Y-53837000D01*
G75*
G02*
X76782000Y-53762000I0J75000D01*
G01*
X76782000Y-53612000D01*
G75*
G02*
X76857000Y-53537000I75000J0D01*
G01*
X78307000Y-53537000D01*
G75*
G02*
X78382000Y-53612000I0J-75000D01*
G01*
X78382000Y-53762000D01*
G75*
G02*
X78307000Y-53837000I-75000J0D01*
G01*
G37*
G36*
G01*
X78307000Y-53337000D02*
X76857000Y-53337000D01*
G75*
G02*
X76782000Y-53262000I0J75000D01*
G01*
X76782000Y-53112000D01*
G75*
G02*
X76857000Y-53037000I75000J0D01*
G01*
X78307000Y-53037000D01*
G75*
G02*
X78382000Y-53112000I0J-75000D01*
G01*
X78382000Y-53262000D01*
G75*
G02*
X78307000Y-53337000I-75000J0D01*
G01*
G37*
G36*
G01*
X79332000Y-52312000D02*
X79182000Y-52312000D01*
G75*
G02*
X79107000Y-52237000I0J75000D01*
G01*
X79107000Y-50787000D01*
G75*
G02*
X79182000Y-50712000I75000J0D01*
G01*
X79332000Y-50712000D01*
G75*
G02*
X79407000Y-50787000I0J-75000D01*
G01*
X79407000Y-52237000D01*
G75*
G02*
X79332000Y-52312000I-75000J0D01*
G01*
G37*
G36*
G01*
X79832000Y-52312000D02*
X79682000Y-52312000D01*
G75*
G02*
X79607000Y-52237000I0J75000D01*
G01*
X79607000Y-50787000D01*
G75*
G02*
X79682000Y-50712000I75000J0D01*
G01*
X79832000Y-50712000D01*
G75*
G02*
X79907000Y-50787000I0J-75000D01*
G01*
X79907000Y-52237000D01*
G75*
G02*
X79832000Y-52312000I-75000J0D01*
G01*
G37*
G36*
G01*
X80332000Y-52312000D02*
X80182000Y-52312000D01*
G75*
G02*
X80107000Y-52237000I0J75000D01*
G01*
X80107000Y-50787000D01*
G75*
G02*
X80182000Y-50712000I75000J0D01*
G01*
X80332000Y-50712000D01*
G75*
G02*
X80407000Y-50787000I0J-75000D01*
G01*
X80407000Y-52237000D01*
G75*
G02*
X80332000Y-52312000I-75000J0D01*
G01*
G37*
G36*
G01*
X80832000Y-52312000D02*
X80682000Y-52312000D01*
G75*
G02*
X80607000Y-52237000I0J75000D01*
G01*
X80607000Y-50787000D01*
G75*
G02*
X80682000Y-50712000I75000J0D01*
G01*
X80832000Y-50712000D01*
G75*
G02*
X80907000Y-50787000I0J-75000D01*
G01*
X80907000Y-52237000D01*
G75*
G02*
X80832000Y-52312000I-75000J0D01*
G01*
G37*
G36*
G01*
X81332000Y-52312000D02*
X81182000Y-52312000D01*
G75*
G02*
X81107000Y-52237000I0J75000D01*
G01*
X81107000Y-50787000D01*
G75*
G02*
X81182000Y-50712000I75000J0D01*
G01*
X81332000Y-50712000D01*
G75*
G02*
X81407000Y-50787000I0J-75000D01*
G01*
X81407000Y-52237000D01*
G75*
G02*
X81332000Y-52312000I-75000J0D01*
G01*
G37*
G36*
G01*
X81832000Y-52312000D02*
X81682000Y-52312000D01*
G75*
G02*
X81607000Y-52237000I0J75000D01*
G01*
X81607000Y-50787000D01*
G75*
G02*
X81682000Y-50712000I75000J0D01*
G01*
X81832000Y-50712000D01*
G75*
G02*
X81907000Y-50787000I0J-75000D01*
G01*
X81907000Y-52237000D01*
G75*
G02*
X81832000Y-52312000I-75000J0D01*
G01*
G37*
G36*
G01*
X82332000Y-52312000D02*
X82182000Y-52312000D01*
G75*
G02*
X82107000Y-52237000I0J75000D01*
G01*
X82107000Y-50787000D01*
G75*
G02*
X82182000Y-50712000I75000J0D01*
G01*
X82332000Y-50712000D01*
G75*
G02*
X82407000Y-50787000I0J-75000D01*
G01*
X82407000Y-52237000D01*
G75*
G02*
X82332000Y-52312000I-75000J0D01*
G01*
G37*
G36*
G01*
X82832000Y-52312000D02*
X82682000Y-52312000D01*
G75*
G02*
X82607000Y-52237000I0J75000D01*
G01*
X82607000Y-50787000D01*
G75*
G02*
X82682000Y-50712000I75000J0D01*
G01*
X82832000Y-50712000D01*
G75*
G02*
X82907000Y-50787000I0J-75000D01*
G01*
X82907000Y-52237000D01*
G75*
G02*
X82832000Y-52312000I-75000J0D01*
G01*
G37*
G36*
G01*
X83332000Y-52312000D02*
X83182000Y-52312000D01*
G75*
G02*
X83107000Y-52237000I0J75000D01*
G01*
X83107000Y-50787000D01*
G75*
G02*
X83182000Y-50712000I75000J0D01*
G01*
X83332000Y-50712000D01*
G75*
G02*
X83407000Y-50787000I0J-75000D01*
G01*
X83407000Y-52237000D01*
G75*
G02*
X83332000Y-52312000I-75000J0D01*
G01*
G37*
G36*
G01*
X83832000Y-52312000D02*
X83682000Y-52312000D01*
G75*
G02*
X83607000Y-52237000I0J75000D01*
G01*
X83607000Y-50787000D01*
G75*
G02*
X83682000Y-50712000I75000J0D01*
G01*
X83832000Y-50712000D01*
G75*
G02*
X83907000Y-50787000I0J-75000D01*
G01*
X83907000Y-52237000D01*
G75*
G02*
X83832000Y-52312000I-75000J0D01*
G01*
G37*
G36*
G01*
X84332000Y-52312000D02*
X84182000Y-52312000D01*
G75*
G02*
X84107000Y-52237000I0J75000D01*
G01*
X84107000Y-50787000D01*
G75*
G02*
X84182000Y-50712000I75000J0D01*
G01*
X84332000Y-50712000D01*
G75*
G02*
X84407000Y-50787000I0J-75000D01*
G01*
X84407000Y-52237000D01*
G75*
G02*
X84332000Y-52312000I-75000J0D01*
G01*
G37*
G36*
G01*
X84832000Y-52312000D02*
X84682000Y-52312000D01*
G75*
G02*
X84607000Y-52237000I0J75000D01*
G01*
X84607000Y-50787000D01*
G75*
G02*
X84682000Y-50712000I75000J0D01*
G01*
X84832000Y-50712000D01*
G75*
G02*
X84907000Y-50787000I0J-75000D01*
G01*
X84907000Y-52237000D01*
G75*
G02*
X84832000Y-52312000I-75000J0D01*
G01*
G37*
G36*
G01*
X85332000Y-52312000D02*
X85182000Y-52312000D01*
G75*
G02*
X85107000Y-52237000I0J75000D01*
G01*
X85107000Y-50787000D01*
G75*
G02*
X85182000Y-50712000I75000J0D01*
G01*
X85332000Y-50712000D01*
G75*
G02*
X85407000Y-50787000I0J-75000D01*
G01*
X85407000Y-52237000D01*
G75*
G02*
X85332000Y-52312000I-75000J0D01*
G01*
G37*
G36*
G01*
X85832000Y-52312000D02*
X85682000Y-52312000D01*
G75*
G02*
X85607000Y-52237000I0J75000D01*
G01*
X85607000Y-50787000D01*
G75*
G02*
X85682000Y-50712000I75000J0D01*
G01*
X85832000Y-50712000D01*
G75*
G02*
X85907000Y-50787000I0J-75000D01*
G01*
X85907000Y-52237000D01*
G75*
G02*
X85832000Y-52312000I-75000J0D01*
G01*
G37*
G36*
G01*
X86332000Y-52312000D02*
X86182000Y-52312000D01*
G75*
G02*
X86107000Y-52237000I0J75000D01*
G01*
X86107000Y-50787000D01*
G75*
G02*
X86182000Y-50712000I75000J0D01*
G01*
X86332000Y-50712000D01*
G75*
G02*
X86407000Y-50787000I0J-75000D01*
G01*
X86407000Y-52237000D01*
G75*
G02*
X86332000Y-52312000I-75000J0D01*
G01*
G37*
G36*
G01*
X86832000Y-52312000D02*
X86682000Y-52312000D01*
G75*
G02*
X86607000Y-52237000I0J75000D01*
G01*
X86607000Y-50787000D01*
G75*
G02*
X86682000Y-50712000I75000J0D01*
G01*
X86832000Y-50712000D01*
G75*
G02*
X86907000Y-50787000I0J-75000D01*
G01*
X86907000Y-52237000D01*
G75*
G02*
X86832000Y-52312000I-75000J0D01*
G01*
G37*
G36*
G01*
X87332000Y-52312000D02*
X87182000Y-52312000D01*
G75*
G02*
X87107000Y-52237000I0J75000D01*
G01*
X87107000Y-50787000D01*
G75*
G02*
X87182000Y-50712000I75000J0D01*
G01*
X87332000Y-50712000D01*
G75*
G02*
X87407000Y-50787000I0J-75000D01*
G01*
X87407000Y-52237000D01*
G75*
G02*
X87332000Y-52312000I-75000J0D01*
G01*
G37*
G36*
G01*
X87832000Y-52312000D02*
X87682000Y-52312000D01*
G75*
G02*
X87607000Y-52237000I0J75000D01*
G01*
X87607000Y-50787000D01*
G75*
G02*
X87682000Y-50712000I75000J0D01*
G01*
X87832000Y-50712000D01*
G75*
G02*
X87907000Y-50787000I0J-75000D01*
G01*
X87907000Y-52237000D01*
G75*
G02*
X87832000Y-52312000I-75000J0D01*
G01*
G37*
G36*
G01*
X88332000Y-52312000D02*
X88182000Y-52312000D01*
G75*
G02*
X88107000Y-52237000I0J75000D01*
G01*
X88107000Y-50787000D01*
G75*
G02*
X88182000Y-50712000I75000J0D01*
G01*
X88332000Y-50712000D01*
G75*
G02*
X88407000Y-50787000I0J-75000D01*
G01*
X88407000Y-52237000D01*
G75*
G02*
X88332000Y-52312000I-75000J0D01*
G01*
G37*
G36*
G01*
X88832000Y-52312000D02*
X88682000Y-52312000D01*
G75*
G02*
X88607000Y-52237000I0J75000D01*
G01*
X88607000Y-50787000D01*
G75*
G02*
X88682000Y-50712000I75000J0D01*
G01*
X88832000Y-50712000D01*
G75*
G02*
X88907000Y-50787000I0J-75000D01*
G01*
X88907000Y-52237000D01*
G75*
G02*
X88832000Y-52312000I-75000J0D01*
G01*
G37*
G36*
G01*
X89332000Y-52312000D02*
X89182000Y-52312000D01*
G75*
G02*
X89107000Y-52237000I0J75000D01*
G01*
X89107000Y-50787000D01*
G75*
G02*
X89182000Y-50712000I75000J0D01*
G01*
X89332000Y-50712000D01*
G75*
G02*
X89407000Y-50787000I0J-75000D01*
G01*
X89407000Y-52237000D01*
G75*
G02*
X89332000Y-52312000I-75000J0D01*
G01*
G37*
G36*
G01*
X89832000Y-52312000D02*
X89682000Y-52312000D01*
G75*
G02*
X89607000Y-52237000I0J75000D01*
G01*
X89607000Y-50787000D01*
G75*
G02*
X89682000Y-50712000I75000J0D01*
G01*
X89832000Y-50712000D01*
G75*
G02*
X89907000Y-50787000I0J-75000D01*
G01*
X89907000Y-52237000D01*
G75*
G02*
X89832000Y-52312000I-75000J0D01*
G01*
G37*
G36*
G01*
X90332000Y-52312000D02*
X90182000Y-52312000D01*
G75*
G02*
X90107000Y-52237000I0J75000D01*
G01*
X90107000Y-50787000D01*
G75*
G02*
X90182000Y-50712000I75000J0D01*
G01*
X90332000Y-50712000D01*
G75*
G02*
X90407000Y-50787000I0J-75000D01*
G01*
X90407000Y-52237000D01*
G75*
G02*
X90332000Y-52312000I-75000J0D01*
G01*
G37*
G36*
G01*
X90832000Y-52312000D02*
X90682000Y-52312000D01*
G75*
G02*
X90607000Y-52237000I0J75000D01*
G01*
X90607000Y-50787000D01*
G75*
G02*
X90682000Y-50712000I75000J0D01*
G01*
X90832000Y-50712000D01*
G75*
G02*
X90907000Y-50787000I0J-75000D01*
G01*
X90907000Y-52237000D01*
G75*
G02*
X90832000Y-52312000I-75000J0D01*
G01*
G37*
G36*
G01*
X91332000Y-52312000D02*
X91182000Y-52312000D01*
G75*
G02*
X91107000Y-52237000I0J75000D01*
G01*
X91107000Y-50787000D01*
G75*
G02*
X91182000Y-50712000I75000J0D01*
G01*
X91332000Y-50712000D01*
G75*
G02*
X91407000Y-50787000I0J-75000D01*
G01*
X91407000Y-52237000D01*
G75*
G02*
X91332000Y-52312000I-75000J0D01*
G01*
G37*
G36*
G01*
X93657000Y-53337000D02*
X92207000Y-53337000D01*
G75*
G02*
X92132000Y-53262000I0J75000D01*
G01*
X92132000Y-53112000D01*
G75*
G02*
X92207000Y-53037000I75000J0D01*
G01*
X93657000Y-53037000D01*
G75*
G02*
X93732000Y-53112000I0J-75000D01*
G01*
X93732000Y-53262000D01*
G75*
G02*
X93657000Y-53337000I-75000J0D01*
G01*
G37*
G36*
G01*
X93657000Y-53837000D02*
X92207000Y-53837000D01*
G75*
G02*
X92132000Y-53762000I0J75000D01*
G01*
X92132000Y-53612000D01*
G75*
G02*
X92207000Y-53537000I75000J0D01*
G01*
X93657000Y-53537000D01*
G75*
G02*
X93732000Y-53612000I0J-75000D01*
G01*
X93732000Y-53762000D01*
G75*
G02*
X93657000Y-53837000I-75000J0D01*
G01*
G37*
G36*
G01*
X93657000Y-54337000D02*
X92207000Y-54337000D01*
G75*
G02*
X92132000Y-54262000I0J75000D01*
G01*
X92132000Y-54112000D01*
G75*
G02*
X92207000Y-54037000I75000J0D01*
G01*
X93657000Y-54037000D01*
G75*
G02*
X93732000Y-54112000I0J-75000D01*
G01*
X93732000Y-54262000D01*
G75*
G02*
X93657000Y-54337000I-75000J0D01*
G01*
G37*
G36*
G01*
X93657000Y-54837000D02*
X92207000Y-54837000D01*
G75*
G02*
X92132000Y-54762000I0J75000D01*
G01*
X92132000Y-54612000D01*
G75*
G02*
X92207000Y-54537000I75000J0D01*
G01*
X93657000Y-54537000D01*
G75*
G02*
X93732000Y-54612000I0J-75000D01*
G01*
X93732000Y-54762000D01*
G75*
G02*
X93657000Y-54837000I-75000J0D01*
G01*
G37*
G36*
G01*
X93657000Y-55337000D02*
X92207000Y-55337000D01*
G75*
G02*
X92132000Y-55262000I0J75000D01*
G01*
X92132000Y-55112000D01*
G75*
G02*
X92207000Y-55037000I75000J0D01*
G01*
X93657000Y-55037000D01*
G75*
G02*
X93732000Y-55112000I0J-75000D01*
G01*
X93732000Y-55262000D01*
G75*
G02*
X93657000Y-55337000I-75000J0D01*
G01*
G37*
G36*
G01*
X93657000Y-55837000D02*
X92207000Y-55837000D01*
G75*
G02*
X92132000Y-55762000I0J75000D01*
G01*
X92132000Y-55612000D01*
G75*
G02*
X92207000Y-55537000I75000J0D01*
G01*
X93657000Y-55537000D01*
G75*
G02*
X93732000Y-55612000I0J-75000D01*
G01*
X93732000Y-55762000D01*
G75*
G02*
X93657000Y-55837000I-75000J0D01*
G01*
G37*
G36*
G01*
X93657000Y-56337000D02*
X92207000Y-56337000D01*
G75*
G02*
X92132000Y-56262000I0J75000D01*
G01*
X92132000Y-56112000D01*
G75*
G02*
X92207000Y-56037000I75000J0D01*
G01*
X93657000Y-56037000D01*
G75*
G02*
X93732000Y-56112000I0J-75000D01*
G01*
X93732000Y-56262000D01*
G75*
G02*
X93657000Y-56337000I-75000J0D01*
G01*
G37*
G36*
G01*
X93657000Y-56837000D02*
X92207000Y-56837000D01*
G75*
G02*
X92132000Y-56762000I0J75000D01*
G01*
X92132000Y-56612000D01*
G75*
G02*
X92207000Y-56537000I75000J0D01*
G01*
X93657000Y-56537000D01*
G75*
G02*
X93732000Y-56612000I0J-75000D01*
G01*
X93732000Y-56762000D01*
G75*
G02*
X93657000Y-56837000I-75000J0D01*
G01*
G37*
G36*
G01*
X93657000Y-57337000D02*
X92207000Y-57337000D01*
G75*
G02*
X92132000Y-57262000I0J75000D01*
G01*
X92132000Y-57112000D01*
G75*
G02*
X92207000Y-57037000I75000J0D01*
G01*
X93657000Y-57037000D01*
G75*
G02*
X93732000Y-57112000I0J-75000D01*
G01*
X93732000Y-57262000D01*
G75*
G02*
X93657000Y-57337000I-75000J0D01*
G01*
G37*
G36*
G01*
X93657000Y-57837000D02*
X92207000Y-57837000D01*
G75*
G02*
X92132000Y-57762000I0J75000D01*
G01*
X92132000Y-57612000D01*
G75*
G02*
X92207000Y-57537000I75000J0D01*
G01*
X93657000Y-57537000D01*
G75*
G02*
X93732000Y-57612000I0J-75000D01*
G01*
X93732000Y-57762000D01*
G75*
G02*
X93657000Y-57837000I-75000J0D01*
G01*
G37*
G36*
G01*
X93657000Y-58337000D02*
X92207000Y-58337000D01*
G75*
G02*
X92132000Y-58262000I0J75000D01*
G01*
X92132000Y-58112000D01*
G75*
G02*
X92207000Y-58037000I75000J0D01*
G01*
X93657000Y-58037000D01*
G75*
G02*
X93732000Y-58112000I0J-75000D01*
G01*
X93732000Y-58262000D01*
G75*
G02*
X93657000Y-58337000I-75000J0D01*
G01*
G37*
G36*
G01*
X93657000Y-58837000D02*
X92207000Y-58837000D01*
G75*
G02*
X92132000Y-58762000I0J75000D01*
G01*
X92132000Y-58612000D01*
G75*
G02*
X92207000Y-58537000I75000J0D01*
G01*
X93657000Y-58537000D01*
G75*
G02*
X93732000Y-58612000I0J-75000D01*
G01*
X93732000Y-58762000D01*
G75*
G02*
X93657000Y-58837000I-75000J0D01*
G01*
G37*
G36*
G01*
X93657000Y-59337000D02*
X92207000Y-59337000D01*
G75*
G02*
X92132000Y-59262000I0J75000D01*
G01*
X92132000Y-59112000D01*
G75*
G02*
X92207000Y-59037000I75000J0D01*
G01*
X93657000Y-59037000D01*
G75*
G02*
X93732000Y-59112000I0J-75000D01*
G01*
X93732000Y-59262000D01*
G75*
G02*
X93657000Y-59337000I-75000J0D01*
G01*
G37*
G36*
G01*
X93657000Y-59837000D02*
X92207000Y-59837000D01*
G75*
G02*
X92132000Y-59762000I0J75000D01*
G01*
X92132000Y-59612000D01*
G75*
G02*
X92207000Y-59537000I75000J0D01*
G01*
X93657000Y-59537000D01*
G75*
G02*
X93732000Y-59612000I0J-75000D01*
G01*
X93732000Y-59762000D01*
G75*
G02*
X93657000Y-59837000I-75000J0D01*
G01*
G37*
G36*
G01*
X93657000Y-60337000D02*
X92207000Y-60337000D01*
G75*
G02*
X92132000Y-60262000I0J75000D01*
G01*
X92132000Y-60112000D01*
G75*
G02*
X92207000Y-60037000I75000J0D01*
G01*
X93657000Y-60037000D01*
G75*
G02*
X93732000Y-60112000I0J-75000D01*
G01*
X93732000Y-60262000D01*
G75*
G02*
X93657000Y-60337000I-75000J0D01*
G01*
G37*
G36*
G01*
X93657000Y-60837000D02*
X92207000Y-60837000D01*
G75*
G02*
X92132000Y-60762000I0J75000D01*
G01*
X92132000Y-60612000D01*
G75*
G02*
X92207000Y-60537000I75000J0D01*
G01*
X93657000Y-60537000D01*
G75*
G02*
X93732000Y-60612000I0J-75000D01*
G01*
X93732000Y-60762000D01*
G75*
G02*
X93657000Y-60837000I-75000J0D01*
G01*
G37*
G36*
G01*
X93657000Y-61337000D02*
X92207000Y-61337000D01*
G75*
G02*
X92132000Y-61262000I0J75000D01*
G01*
X92132000Y-61112000D01*
G75*
G02*
X92207000Y-61037000I75000J0D01*
G01*
X93657000Y-61037000D01*
G75*
G02*
X93732000Y-61112000I0J-75000D01*
G01*
X93732000Y-61262000D01*
G75*
G02*
X93657000Y-61337000I-75000J0D01*
G01*
G37*
G36*
G01*
X93657000Y-61837000D02*
X92207000Y-61837000D01*
G75*
G02*
X92132000Y-61762000I0J75000D01*
G01*
X92132000Y-61612000D01*
G75*
G02*
X92207000Y-61537000I75000J0D01*
G01*
X93657000Y-61537000D01*
G75*
G02*
X93732000Y-61612000I0J-75000D01*
G01*
X93732000Y-61762000D01*
G75*
G02*
X93657000Y-61837000I-75000J0D01*
G01*
G37*
G36*
G01*
X93657000Y-62337000D02*
X92207000Y-62337000D01*
G75*
G02*
X92132000Y-62262000I0J75000D01*
G01*
X92132000Y-62112000D01*
G75*
G02*
X92207000Y-62037000I75000J0D01*
G01*
X93657000Y-62037000D01*
G75*
G02*
X93732000Y-62112000I0J-75000D01*
G01*
X93732000Y-62262000D01*
G75*
G02*
X93657000Y-62337000I-75000J0D01*
G01*
G37*
G36*
G01*
X93657000Y-62837000D02*
X92207000Y-62837000D01*
G75*
G02*
X92132000Y-62762000I0J75000D01*
G01*
X92132000Y-62612000D01*
G75*
G02*
X92207000Y-62537000I75000J0D01*
G01*
X93657000Y-62537000D01*
G75*
G02*
X93732000Y-62612000I0J-75000D01*
G01*
X93732000Y-62762000D01*
G75*
G02*
X93657000Y-62837000I-75000J0D01*
G01*
G37*
G36*
G01*
X93657000Y-63337000D02*
X92207000Y-63337000D01*
G75*
G02*
X92132000Y-63262000I0J75000D01*
G01*
X92132000Y-63112000D01*
G75*
G02*
X92207000Y-63037000I75000J0D01*
G01*
X93657000Y-63037000D01*
G75*
G02*
X93732000Y-63112000I0J-75000D01*
G01*
X93732000Y-63262000D01*
G75*
G02*
X93657000Y-63337000I-75000J0D01*
G01*
G37*
G36*
G01*
X93657000Y-63837000D02*
X92207000Y-63837000D01*
G75*
G02*
X92132000Y-63762000I0J75000D01*
G01*
X92132000Y-63612000D01*
G75*
G02*
X92207000Y-63537000I75000J0D01*
G01*
X93657000Y-63537000D01*
G75*
G02*
X93732000Y-63612000I0J-75000D01*
G01*
X93732000Y-63762000D01*
G75*
G02*
X93657000Y-63837000I-75000J0D01*
G01*
G37*
G36*
G01*
X93657000Y-64337000D02*
X92207000Y-64337000D01*
G75*
G02*
X92132000Y-64262000I0J75000D01*
G01*
X92132000Y-64112000D01*
G75*
G02*
X92207000Y-64037000I75000J0D01*
G01*
X93657000Y-64037000D01*
G75*
G02*
X93732000Y-64112000I0J-75000D01*
G01*
X93732000Y-64262000D01*
G75*
G02*
X93657000Y-64337000I-75000J0D01*
G01*
G37*
G36*
G01*
X93657000Y-64837000D02*
X92207000Y-64837000D01*
G75*
G02*
X92132000Y-64762000I0J75000D01*
G01*
X92132000Y-64612000D01*
G75*
G02*
X92207000Y-64537000I75000J0D01*
G01*
X93657000Y-64537000D01*
G75*
G02*
X93732000Y-64612000I0J-75000D01*
G01*
X93732000Y-64762000D01*
G75*
G02*
X93657000Y-64837000I-75000J0D01*
G01*
G37*
G36*
G01*
X93657000Y-65337000D02*
X92207000Y-65337000D01*
G75*
G02*
X92132000Y-65262000I0J75000D01*
G01*
X92132000Y-65112000D01*
G75*
G02*
X92207000Y-65037000I75000J0D01*
G01*
X93657000Y-65037000D01*
G75*
G02*
X93732000Y-65112000I0J-75000D01*
G01*
X93732000Y-65262000D01*
G75*
G02*
X93657000Y-65337000I-75000J0D01*
G01*
G37*
G36*
G01*
X91332000Y-67662000D02*
X91182000Y-67662000D01*
G75*
G02*
X91107000Y-67587000I0J75000D01*
G01*
X91107000Y-66137000D01*
G75*
G02*
X91182000Y-66062000I75000J0D01*
G01*
X91332000Y-66062000D01*
G75*
G02*
X91407000Y-66137000I0J-75000D01*
G01*
X91407000Y-67587000D01*
G75*
G02*
X91332000Y-67662000I-75000J0D01*
G01*
G37*
G36*
G01*
X90832000Y-67662000D02*
X90682000Y-67662000D01*
G75*
G02*
X90607000Y-67587000I0J75000D01*
G01*
X90607000Y-66137000D01*
G75*
G02*
X90682000Y-66062000I75000J0D01*
G01*
X90832000Y-66062000D01*
G75*
G02*
X90907000Y-66137000I0J-75000D01*
G01*
X90907000Y-67587000D01*
G75*
G02*
X90832000Y-67662000I-75000J0D01*
G01*
G37*
G36*
G01*
X90332000Y-67662000D02*
X90182000Y-67662000D01*
G75*
G02*
X90107000Y-67587000I0J75000D01*
G01*
X90107000Y-66137000D01*
G75*
G02*
X90182000Y-66062000I75000J0D01*
G01*
X90332000Y-66062000D01*
G75*
G02*
X90407000Y-66137000I0J-75000D01*
G01*
X90407000Y-67587000D01*
G75*
G02*
X90332000Y-67662000I-75000J0D01*
G01*
G37*
G36*
G01*
X89832000Y-67662000D02*
X89682000Y-67662000D01*
G75*
G02*
X89607000Y-67587000I0J75000D01*
G01*
X89607000Y-66137000D01*
G75*
G02*
X89682000Y-66062000I75000J0D01*
G01*
X89832000Y-66062000D01*
G75*
G02*
X89907000Y-66137000I0J-75000D01*
G01*
X89907000Y-67587000D01*
G75*
G02*
X89832000Y-67662000I-75000J0D01*
G01*
G37*
G36*
G01*
X89332000Y-67662000D02*
X89182000Y-67662000D01*
G75*
G02*
X89107000Y-67587000I0J75000D01*
G01*
X89107000Y-66137000D01*
G75*
G02*
X89182000Y-66062000I75000J0D01*
G01*
X89332000Y-66062000D01*
G75*
G02*
X89407000Y-66137000I0J-75000D01*
G01*
X89407000Y-67587000D01*
G75*
G02*
X89332000Y-67662000I-75000J0D01*
G01*
G37*
G36*
G01*
X88832000Y-67662000D02*
X88682000Y-67662000D01*
G75*
G02*
X88607000Y-67587000I0J75000D01*
G01*
X88607000Y-66137000D01*
G75*
G02*
X88682000Y-66062000I75000J0D01*
G01*
X88832000Y-66062000D01*
G75*
G02*
X88907000Y-66137000I0J-75000D01*
G01*
X88907000Y-67587000D01*
G75*
G02*
X88832000Y-67662000I-75000J0D01*
G01*
G37*
G36*
G01*
X88332000Y-67662000D02*
X88182000Y-67662000D01*
G75*
G02*
X88107000Y-67587000I0J75000D01*
G01*
X88107000Y-66137000D01*
G75*
G02*
X88182000Y-66062000I75000J0D01*
G01*
X88332000Y-66062000D01*
G75*
G02*
X88407000Y-66137000I0J-75000D01*
G01*
X88407000Y-67587000D01*
G75*
G02*
X88332000Y-67662000I-75000J0D01*
G01*
G37*
G36*
G01*
X87832000Y-67662000D02*
X87682000Y-67662000D01*
G75*
G02*
X87607000Y-67587000I0J75000D01*
G01*
X87607000Y-66137000D01*
G75*
G02*
X87682000Y-66062000I75000J0D01*
G01*
X87832000Y-66062000D01*
G75*
G02*
X87907000Y-66137000I0J-75000D01*
G01*
X87907000Y-67587000D01*
G75*
G02*
X87832000Y-67662000I-75000J0D01*
G01*
G37*
G36*
G01*
X87332000Y-67662000D02*
X87182000Y-67662000D01*
G75*
G02*
X87107000Y-67587000I0J75000D01*
G01*
X87107000Y-66137000D01*
G75*
G02*
X87182000Y-66062000I75000J0D01*
G01*
X87332000Y-66062000D01*
G75*
G02*
X87407000Y-66137000I0J-75000D01*
G01*
X87407000Y-67587000D01*
G75*
G02*
X87332000Y-67662000I-75000J0D01*
G01*
G37*
G36*
G01*
X86832000Y-67662000D02*
X86682000Y-67662000D01*
G75*
G02*
X86607000Y-67587000I0J75000D01*
G01*
X86607000Y-66137000D01*
G75*
G02*
X86682000Y-66062000I75000J0D01*
G01*
X86832000Y-66062000D01*
G75*
G02*
X86907000Y-66137000I0J-75000D01*
G01*
X86907000Y-67587000D01*
G75*
G02*
X86832000Y-67662000I-75000J0D01*
G01*
G37*
G36*
G01*
X86332000Y-67662000D02*
X86182000Y-67662000D01*
G75*
G02*
X86107000Y-67587000I0J75000D01*
G01*
X86107000Y-66137000D01*
G75*
G02*
X86182000Y-66062000I75000J0D01*
G01*
X86332000Y-66062000D01*
G75*
G02*
X86407000Y-66137000I0J-75000D01*
G01*
X86407000Y-67587000D01*
G75*
G02*
X86332000Y-67662000I-75000J0D01*
G01*
G37*
G36*
G01*
X85832000Y-67662000D02*
X85682000Y-67662000D01*
G75*
G02*
X85607000Y-67587000I0J75000D01*
G01*
X85607000Y-66137000D01*
G75*
G02*
X85682000Y-66062000I75000J0D01*
G01*
X85832000Y-66062000D01*
G75*
G02*
X85907000Y-66137000I0J-75000D01*
G01*
X85907000Y-67587000D01*
G75*
G02*
X85832000Y-67662000I-75000J0D01*
G01*
G37*
G36*
G01*
X85332000Y-67662000D02*
X85182000Y-67662000D01*
G75*
G02*
X85107000Y-67587000I0J75000D01*
G01*
X85107000Y-66137000D01*
G75*
G02*
X85182000Y-66062000I75000J0D01*
G01*
X85332000Y-66062000D01*
G75*
G02*
X85407000Y-66137000I0J-75000D01*
G01*
X85407000Y-67587000D01*
G75*
G02*
X85332000Y-67662000I-75000J0D01*
G01*
G37*
G36*
G01*
X84832000Y-67662000D02*
X84682000Y-67662000D01*
G75*
G02*
X84607000Y-67587000I0J75000D01*
G01*
X84607000Y-66137000D01*
G75*
G02*
X84682000Y-66062000I75000J0D01*
G01*
X84832000Y-66062000D01*
G75*
G02*
X84907000Y-66137000I0J-75000D01*
G01*
X84907000Y-67587000D01*
G75*
G02*
X84832000Y-67662000I-75000J0D01*
G01*
G37*
G36*
G01*
X84332000Y-67662000D02*
X84182000Y-67662000D01*
G75*
G02*
X84107000Y-67587000I0J75000D01*
G01*
X84107000Y-66137000D01*
G75*
G02*
X84182000Y-66062000I75000J0D01*
G01*
X84332000Y-66062000D01*
G75*
G02*
X84407000Y-66137000I0J-75000D01*
G01*
X84407000Y-67587000D01*
G75*
G02*
X84332000Y-67662000I-75000J0D01*
G01*
G37*
G36*
G01*
X83832000Y-67662000D02*
X83682000Y-67662000D01*
G75*
G02*
X83607000Y-67587000I0J75000D01*
G01*
X83607000Y-66137000D01*
G75*
G02*
X83682000Y-66062000I75000J0D01*
G01*
X83832000Y-66062000D01*
G75*
G02*
X83907000Y-66137000I0J-75000D01*
G01*
X83907000Y-67587000D01*
G75*
G02*
X83832000Y-67662000I-75000J0D01*
G01*
G37*
G36*
G01*
X83332000Y-67662000D02*
X83182000Y-67662000D01*
G75*
G02*
X83107000Y-67587000I0J75000D01*
G01*
X83107000Y-66137000D01*
G75*
G02*
X83182000Y-66062000I75000J0D01*
G01*
X83332000Y-66062000D01*
G75*
G02*
X83407000Y-66137000I0J-75000D01*
G01*
X83407000Y-67587000D01*
G75*
G02*
X83332000Y-67662000I-75000J0D01*
G01*
G37*
G36*
G01*
X82832000Y-67662000D02*
X82682000Y-67662000D01*
G75*
G02*
X82607000Y-67587000I0J75000D01*
G01*
X82607000Y-66137000D01*
G75*
G02*
X82682000Y-66062000I75000J0D01*
G01*
X82832000Y-66062000D01*
G75*
G02*
X82907000Y-66137000I0J-75000D01*
G01*
X82907000Y-67587000D01*
G75*
G02*
X82832000Y-67662000I-75000J0D01*
G01*
G37*
G36*
G01*
X82332000Y-67662000D02*
X82182000Y-67662000D01*
G75*
G02*
X82107000Y-67587000I0J75000D01*
G01*
X82107000Y-66137000D01*
G75*
G02*
X82182000Y-66062000I75000J0D01*
G01*
X82332000Y-66062000D01*
G75*
G02*
X82407000Y-66137000I0J-75000D01*
G01*
X82407000Y-67587000D01*
G75*
G02*
X82332000Y-67662000I-75000J0D01*
G01*
G37*
G36*
G01*
X81832000Y-67662000D02*
X81682000Y-67662000D01*
G75*
G02*
X81607000Y-67587000I0J75000D01*
G01*
X81607000Y-66137000D01*
G75*
G02*
X81682000Y-66062000I75000J0D01*
G01*
X81832000Y-66062000D01*
G75*
G02*
X81907000Y-66137000I0J-75000D01*
G01*
X81907000Y-67587000D01*
G75*
G02*
X81832000Y-67662000I-75000J0D01*
G01*
G37*
G36*
G01*
X81332000Y-67662000D02*
X81182000Y-67662000D01*
G75*
G02*
X81107000Y-67587000I0J75000D01*
G01*
X81107000Y-66137000D01*
G75*
G02*
X81182000Y-66062000I75000J0D01*
G01*
X81332000Y-66062000D01*
G75*
G02*
X81407000Y-66137000I0J-75000D01*
G01*
X81407000Y-67587000D01*
G75*
G02*
X81332000Y-67662000I-75000J0D01*
G01*
G37*
G36*
G01*
X80832000Y-67662000D02*
X80682000Y-67662000D01*
G75*
G02*
X80607000Y-67587000I0J75000D01*
G01*
X80607000Y-66137000D01*
G75*
G02*
X80682000Y-66062000I75000J0D01*
G01*
X80832000Y-66062000D01*
G75*
G02*
X80907000Y-66137000I0J-75000D01*
G01*
X80907000Y-67587000D01*
G75*
G02*
X80832000Y-67662000I-75000J0D01*
G01*
G37*
G36*
G01*
X80332000Y-67662000D02*
X80182000Y-67662000D01*
G75*
G02*
X80107000Y-67587000I0J75000D01*
G01*
X80107000Y-66137000D01*
G75*
G02*
X80182000Y-66062000I75000J0D01*
G01*
X80332000Y-66062000D01*
G75*
G02*
X80407000Y-66137000I0J-75000D01*
G01*
X80407000Y-67587000D01*
G75*
G02*
X80332000Y-67662000I-75000J0D01*
G01*
G37*
G36*
G01*
X79832000Y-67662000D02*
X79682000Y-67662000D01*
G75*
G02*
X79607000Y-67587000I0J75000D01*
G01*
X79607000Y-66137000D01*
G75*
G02*
X79682000Y-66062000I75000J0D01*
G01*
X79832000Y-66062000D01*
G75*
G02*
X79907000Y-66137000I0J-75000D01*
G01*
X79907000Y-67587000D01*
G75*
G02*
X79832000Y-67662000I-75000J0D01*
G01*
G37*
G36*
G01*
X79332000Y-67662000D02*
X79182000Y-67662000D01*
G75*
G02*
X79107000Y-67587000I0J75000D01*
G01*
X79107000Y-66137000D01*
G75*
G02*
X79182000Y-66062000I75000J0D01*
G01*
X79332000Y-66062000D01*
G75*
G02*
X79407000Y-66137000I0J-75000D01*
G01*
X79407000Y-67587000D01*
G75*
G02*
X79332000Y-67662000I-75000J0D01*
G01*
G37*
D18*
X129388000Y-59069000D03*
X129388000Y-54469000D03*
X129388000Y-56769000D03*
D19*
X123088000Y-56769000D03*
D20*
X176770000Y-49886000D03*
X181370000Y-49886000D03*
X179070000Y-49886000D03*
D21*
X179070000Y-43586000D03*
G36*
G01*
X180236000Y-97687000D02*
X179936000Y-97687000D01*
G75*
G02*
X179786000Y-97537000I0J150000D01*
G01*
X179786000Y-95887000D01*
G75*
G02*
X179936000Y-95737000I150000J0D01*
G01*
X180236000Y-95737000D01*
G75*
G02*
X180386000Y-95887000I0J-150000D01*
G01*
X180386000Y-97537000D01*
G75*
G02*
X180236000Y-97687000I-150000J0D01*
G01*
G37*
G36*
G01*
X181506000Y-97687000D02*
X181206000Y-97687000D01*
G75*
G02*
X181056000Y-97537000I0J150000D01*
G01*
X181056000Y-95887000D01*
G75*
G02*
X181206000Y-95737000I150000J0D01*
G01*
X181506000Y-95737000D01*
G75*
G02*
X181656000Y-95887000I0J-150000D01*
G01*
X181656000Y-97537000D01*
G75*
G02*
X181506000Y-97687000I-150000J0D01*
G01*
G37*
G36*
G01*
X182776000Y-97687000D02*
X182476000Y-97687000D01*
G75*
G02*
X182326000Y-97537000I0J150000D01*
G01*
X182326000Y-95887000D01*
G75*
G02*
X182476000Y-95737000I150000J0D01*
G01*
X182776000Y-95737000D01*
G75*
G02*
X182926000Y-95887000I0J-150000D01*
G01*
X182926000Y-97537000D01*
G75*
G02*
X182776000Y-97687000I-150000J0D01*
G01*
G37*
G36*
G01*
X184046000Y-97687000D02*
X183746000Y-97687000D01*
G75*
G02*
X183596000Y-97537000I0J150000D01*
G01*
X183596000Y-95887000D01*
G75*
G02*
X183746000Y-95737000I150000J0D01*
G01*
X184046000Y-95737000D01*
G75*
G02*
X184196000Y-95887000I0J-150000D01*
G01*
X184196000Y-97537000D01*
G75*
G02*
X184046000Y-97687000I-150000J0D01*
G01*
G37*
G36*
G01*
X185316000Y-97687000D02*
X185016000Y-97687000D01*
G75*
G02*
X184866000Y-97537000I0J150000D01*
G01*
X184866000Y-95887000D01*
G75*
G02*
X185016000Y-95737000I150000J0D01*
G01*
X185316000Y-95737000D01*
G75*
G02*
X185466000Y-95887000I0J-150000D01*
G01*
X185466000Y-97537000D01*
G75*
G02*
X185316000Y-97687000I-150000J0D01*
G01*
G37*
G36*
G01*
X186586000Y-97687000D02*
X186286000Y-97687000D01*
G75*
G02*
X186136000Y-97537000I0J150000D01*
G01*
X186136000Y-95887000D01*
G75*
G02*
X186286000Y-95737000I150000J0D01*
G01*
X186586000Y-95737000D01*
G75*
G02*
X186736000Y-95887000I0J-150000D01*
G01*
X186736000Y-97537000D01*
G75*
G02*
X186586000Y-97687000I-150000J0D01*
G01*
G37*
G36*
G01*
X187856000Y-97687000D02*
X187556000Y-97687000D01*
G75*
G02*
X187406000Y-97537000I0J150000D01*
G01*
X187406000Y-95887000D01*
G75*
G02*
X187556000Y-95737000I150000J0D01*
G01*
X187856000Y-95737000D01*
G75*
G02*
X188006000Y-95887000I0J-150000D01*
G01*
X188006000Y-97537000D01*
G75*
G02*
X187856000Y-97687000I-150000J0D01*
G01*
G37*
G36*
G01*
X187856000Y-102637000D02*
X187556000Y-102637000D01*
G75*
G02*
X187406000Y-102487000I0J150000D01*
G01*
X187406000Y-100837000D01*
G75*
G02*
X187556000Y-100687000I150000J0D01*
G01*
X187856000Y-100687000D01*
G75*
G02*
X188006000Y-100837000I0J-150000D01*
G01*
X188006000Y-102487000D01*
G75*
G02*
X187856000Y-102637000I-150000J0D01*
G01*
G37*
G36*
G01*
X186586000Y-102637000D02*
X186286000Y-102637000D01*
G75*
G02*
X186136000Y-102487000I0J150000D01*
G01*
X186136000Y-100837000D01*
G75*
G02*
X186286000Y-100687000I150000J0D01*
G01*
X186586000Y-100687000D01*
G75*
G02*
X186736000Y-100837000I0J-150000D01*
G01*
X186736000Y-102487000D01*
G75*
G02*
X186586000Y-102637000I-150000J0D01*
G01*
G37*
G36*
G01*
X185316000Y-102637000D02*
X185016000Y-102637000D01*
G75*
G02*
X184866000Y-102487000I0J150000D01*
G01*
X184866000Y-100837000D01*
G75*
G02*
X185016000Y-100687000I150000J0D01*
G01*
X185316000Y-100687000D01*
G75*
G02*
X185466000Y-100837000I0J-150000D01*
G01*
X185466000Y-102487000D01*
G75*
G02*
X185316000Y-102637000I-150000J0D01*
G01*
G37*
G36*
G01*
X184046000Y-102637000D02*
X183746000Y-102637000D01*
G75*
G02*
X183596000Y-102487000I0J150000D01*
G01*
X183596000Y-100837000D01*
G75*
G02*
X183746000Y-100687000I150000J0D01*
G01*
X184046000Y-100687000D01*
G75*
G02*
X184196000Y-100837000I0J-150000D01*
G01*
X184196000Y-102487000D01*
G75*
G02*
X184046000Y-102637000I-150000J0D01*
G01*
G37*
G36*
G01*
X182776000Y-102637000D02*
X182476000Y-102637000D01*
G75*
G02*
X182326000Y-102487000I0J150000D01*
G01*
X182326000Y-100837000D01*
G75*
G02*
X182476000Y-100687000I150000J0D01*
G01*
X182776000Y-100687000D01*
G75*
G02*
X182926000Y-100837000I0J-150000D01*
G01*
X182926000Y-102487000D01*
G75*
G02*
X182776000Y-102637000I-150000J0D01*
G01*
G37*
G36*
G01*
X181506000Y-102637000D02*
X181206000Y-102637000D01*
G75*
G02*
X181056000Y-102487000I0J150000D01*
G01*
X181056000Y-100837000D01*
G75*
G02*
X181206000Y-100687000I150000J0D01*
G01*
X181506000Y-100687000D01*
G75*
G02*
X181656000Y-100837000I0J-150000D01*
G01*
X181656000Y-102487000D01*
G75*
G02*
X181506000Y-102637000I-150000J0D01*
G01*
G37*
G36*
G01*
X180236000Y-102637000D02*
X179936000Y-102637000D01*
G75*
G02*
X179786000Y-102487000I0J150000D01*
G01*
X179786000Y-100837000D01*
G75*
G02*
X179936000Y-100687000I150000J0D01*
G01*
X180236000Y-100687000D01*
G75*
G02*
X180386000Y-100837000I0J-150000D01*
G01*
X180386000Y-102487000D01*
G75*
G02*
X180236000Y-102637000I-150000J0D01*
G01*
G37*
D22*
X188595000Y-62866000D03*
X188595000Y-66866000D03*
X188595000Y-70866000D03*
D23*
X192845000Y-72866000D03*
X192845000Y-60866000D03*
X186845000Y-60866000D03*
X186845000Y-72866000D03*
D22*
X170600000Y-125100000D03*
X166600000Y-125100000D03*
X162600000Y-125100000D03*
D23*
X160600000Y-129350000D03*
X172600000Y-129350000D03*
X172600000Y-123350000D03*
X160600000Y-123350000D03*
D22*
X155360000Y-125100000D03*
X151360000Y-125100000D03*
X147360000Y-125100000D03*
D23*
X145360000Y-129350000D03*
X157360000Y-129350000D03*
X157360000Y-123350000D03*
X145360000Y-123350000D03*
D22*
X140120000Y-125100000D03*
X136120000Y-125100000D03*
X132120000Y-125100000D03*
D23*
X130120000Y-129350000D03*
X142120000Y-129350000D03*
X142120000Y-123350000D03*
X130120000Y-123350000D03*
D22*
X124880000Y-125100000D03*
X120880000Y-125100000D03*
X116880000Y-125100000D03*
D23*
X114880000Y-129350000D03*
X126880000Y-129350000D03*
X126880000Y-123350000D03*
X114880000Y-123350000D03*
D22*
X109640000Y-125100000D03*
X105640000Y-125100000D03*
X101640000Y-125100000D03*
D23*
X99640000Y-129350000D03*
X111640000Y-129350000D03*
X111640000Y-123350000D03*
X99640000Y-123350000D03*
D22*
X94400000Y-125100000D03*
X90400000Y-125100000D03*
X86400000Y-125100000D03*
D23*
X84400000Y-129350000D03*
X96400000Y-129350000D03*
X96400000Y-123350000D03*
X84400000Y-123350000D03*
D22*
X79160000Y-125100000D03*
X75160000Y-125100000D03*
X71160000Y-125100000D03*
D23*
X69160000Y-129350000D03*
X81160000Y-129350000D03*
X81160000Y-123350000D03*
X69160000Y-123350000D03*
D22*
X63920000Y-125100000D03*
X59920000Y-125100000D03*
X55920000Y-125100000D03*
D23*
X53920000Y-129350000D03*
X65920000Y-129350000D03*
X65920000Y-123350000D03*
X53920000Y-123350000D03*
D24*
X185928000Y-113284000D03*
X191008000Y-113284000D03*
X185928000Y-120904000D03*
X191008000Y-120904000D03*
X181483000Y-120904000D03*
X176403000Y-120904000D03*
X181483000Y-113284000D03*
X176403000Y-113284000D03*
G36*
G01*
X120088500Y-53541500D02*
X121338500Y-53541500D01*
G75*
G02*
X121588500Y-53791500I0J-250000D01*
G01*
X121588500Y-54591500D01*
G75*
G02*
X121338500Y-54841500I-250000J0D01*
G01*
X120088500Y-54841500D01*
G75*
G02*
X119838500Y-54591500I0J250000D01*
G01*
X119838500Y-53791500D01*
G75*
G02*
X120088500Y-53541500I250000J0D01*
G01*
G37*
G36*
G01*
X120088500Y-50441500D02*
X121338500Y-50441500D01*
G75*
G02*
X121588500Y-50691500I0J-250000D01*
G01*
X121588500Y-51491500D01*
G75*
G02*
X121338500Y-51741500I-250000J0D01*
G01*
X120088500Y-51741500D01*
G75*
G02*
X119838500Y-51491500I0J250000D01*
G01*
X119838500Y-50691500D01*
G75*
G02*
X120088500Y-50441500I250000J0D01*
G01*
G37*
G36*
G01*
X72273000Y-63765000D02*
X73523000Y-63765000D01*
G75*
G02*
X73773000Y-64015000I0J-250000D01*
G01*
X73773000Y-64815000D01*
G75*
G02*
X73523000Y-65065000I-250000J0D01*
G01*
X72273000Y-65065000D01*
G75*
G02*
X72023000Y-64815000I0J250000D01*
G01*
X72023000Y-64015000D01*
G75*
G02*
X72273000Y-63765000I250000J0D01*
G01*
G37*
G36*
G01*
X72273000Y-60665000D02*
X73523000Y-60665000D01*
G75*
G02*
X73773000Y-60915000I0J-250000D01*
G01*
X73773000Y-61715000D01*
G75*
G02*
X73523000Y-61965000I-250000J0D01*
G01*
X72273000Y-61965000D01*
G75*
G02*
X72023000Y-61715000I0J250000D01*
G01*
X72023000Y-60915000D01*
G75*
G02*
X72273000Y-60665000I250000J0D01*
G01*
G37*
G36*
G01*
X149723000Y-72125000D02*
X148473000Y-72125000D01*
G75*
G02*
X148223000Y-71875000I0J250000D01*
G01*
X148223000Y-71075000D01*
G75*
G02*
X148473000Y-70825000I250000J0D01*
G01*
X149723000Y-70825000D01*
G75*
G02*
X149973000Y-71075000I0J-250000D01*
G01*
X149973000Y-71875000D01*
G75*
G02*
X149723000Y-72125000I-250000J0D01*
G01*
G37*
G36*
G01*
X149723000Y-75225000D02*
X148473000Y-75225000D01*
G75*
G02*
X148223000Y-74975000I0J250000D01*
G01*
X148223000Y-74175000D01*
G75*
G02*
X148473000Y-73925000I250000J0D01*
G01*
X149723000Y-73925000D01*
G75*
G02*
X149973000Y-74175000I0J-250000D01*
G01*
X149973000Y-74975000D01*
G75*
G02*
X149723000Y-75225000I-250000J0D01*
G01*
G37*
G36*
G01*
X154062000Y-68824000D02*
X154062000Y-67574000D01*
G75*
G02*
X154312000Y-67324000I250000J0D01*
G01*
X155112000Y-67324000D01*
G75*
G02*
X155362000Y-67574000I0J-250000D01*
G01*
X155362000Y-68824000D01*
G75*
G02*
X155112000Y-69074000I-250000J0D01*
G01*
X154312000Y-69074000D01*
G75*
G02*
X154062000Y-68824000I0J250000D01*
G01*
G37*
G36*
G01*
X150962000Y-68824000D02*
X150962000Y-67574000D01*
G75*
G02*
X151212000Y-67324000I250000J0D01*
G01*
X152012000Y-67324000D01*
G75*
G02*
X152262000Y-67574000I0J-250000D01*
G01*
X152262000Y-68824000D01*
G75*
G02*
X152012000Y-69074000I-250000J0D01*
G01*
X151212000Y-69074000D01*
G75*
G02*
X150962000Y-68824000I0J250000D01*
G01*
G37*
G36*
G01*
X187081000Y-93102000D02*
X188331000Y-93102000D01*
G75*
G02*
X188581000Y-93352000I0J-250000D01*
G01*
X188581000Y-94152000D01*
G75*
G02*
X188331000Y-94402000I-250000J0D01*
G01*
X187081000Y-94402000D01*
G75*
G02*
X186831000Y-94152000I0J250000D01*
G01*
X186831000Y-93352000D01*
G75*
G02*
X187081000Y-93102000I250000J0D01*
G01*
G37*
G36*
G01*
X187081000Y-90002000D02*
X188331000Y-90002000D01*
G75*
G02*
X188581000Y-90252000I0J-250000D01*
G01*
X188581000Y-91052000D01*
G75*
G02*
X188331000Y-91302000I-250000J0D01*
G01*
X187081000Y-91302000D01*
G75*
G02*
X186831000Y-91052000I0J250000D01*
G01*
X186831000Y-90252000D01*
G75*
G02*
X187081000Y-90002000I250000J0D01*
G01*
G37*
G36*
G01*
X183652000Y-93229000D02*
X184902000Y-93229000D01*
G75*
G02*
X185152000Y-93479000I0J-250000D01*
G01*
X185152000Y-94279000D01*
G75*
G02*
X184902000Y-94529000I-250000J0D01*
G01*
X183652000Y-94529000D01*
G75*
G02*
X183402000Y-94279000I0J250000D01*
G01*
X183402000Y-93479000D01*
G75*
G02*
X183652000Y-93229000I250000J0D01*
G01*
G37*
G36*
G01*
X183652000Y-90129000D02*
X184902000Y-90129000D01*
G75*
G02*
X185152000Y-90379000I0J-250000D01*
G01*
X185152000Y-91179000D01*
G75*
G02*
X184902000Y-91429000I-250000J0D01*
G01*
X183652000Y-91429000D01*
G75*
G02*
X183402000Y-91179000I0J250000D01*
G01*
X183402000Y-90379000D01*
G75*
G02*
X183652000Y-90129000I250000J0D01*
G01*
G37*
G36*
G01*
X172985000Y-121275000D02*
X172985000Y-120025000D01*
G75*
G02*
X173235000Y-119775000I250000J0D01*
G01*
X174035000Y-119775000D01*
G75*
G02*
X174285000Y-120025000I0J-250000D01*
G01*
X174285000Y-121275000D01*
G75*
G02*
X174035000Y-121525000I-250000J0D01*
G01*
X173235000Y-121525000D01*
G75*
G02*
X172985000Y-121275000I0J250000D01*
G01*
G37*
G36*
G01*
X169885000Y-121275000D02*
X169885000Y-120025000D01*
G75*
G02*
X170135000Y-119775000I250000J0D01*
G01*
X170935000Y-119775000D01*
G75*
G02*
X171185000Y-120025000I0J-250000D01*
G01*
X171185000Y-121275000D01*
G75*
G02*
X170935000Y-121525000I-250000J0D01*
G01*
X170135000Y-121525000D01*
G75*
G02*
X169885000Y-121275000I0J250000D01*
G01*
G37*
G36*
G01*
X155945000Y-120025000D02*
X155945000Y-121275000D01*
G75*
G02*
X155695000Y-121525000I-250000J0D01*
G01*
X154895000Y-121525000D01*
G75*
G02*
X154645000Y-121275000I0J250000D01*
G01*
X154645000Y-120025000D01*
G75*
G02*
X154895000Y-119775000I250000J0D01*
G01*
X155695000Y-119775000D01*
G75*
G02*
X155945000Y-120025000I0J-250000D01*
G01*
G37*
G36*
G01*
X159045000Y-120025000D02*
X159045000Y-121275000D01*
G75*
G02*
X158795000Y-121525000I-250000J0D01*
G01*
X157995000Y-121525000D01*
G75*
G02*
X157745000Y-121275000I0J250000D01*
G01*
X157745000Y-120025000D01*
G75*
G02*
X157995000Y-119775000I250000J0D01*
G01*
X158795000Y-119775000D01*
G75*
G02*
X159045000Y-120025000I0J-250000D01*
G01*
G37*
G36*
G01*
X142505000Y-121275000D02*
X142505000Y-120025000D01*
G75*
G02*
X142755000Y-119775000I250000J0D01*
G01*
X143555000Y-119775000D01*
G75*
G02*
X143805000Y-120025000I0J-250000D01*
G01*
X143805000Y-121275000D01*
G75*
G02*
X143555000Y-121525000I-250000J0D01*
G01*
X142755000Y-121525000D01*
G75*
G02*
X142505000Y-121275000I0J250000D01*
G01*
G37*
G36*
G01*
X139405000Y-121275000D02*
X139405000Y-120025000D01*
G75*
G02*
X139655000Y-119775000I250000J0D01*
G01*
X140455000Y-119775000D01*
G75*
G02*
X140705000Y-120025000I0J-250000D01*
G01*
X140705000Y-121275000D01*
G75*
G02*
X140455000Y-121525000I-250000J0D01*
G01*
X139655000Y-121525000D01*
G75*
G02*
X139405000Y-121275000I0J250000D01*
G01*
G37*
G36*
G01*
X127392000Y-121275000D02*
X127392000Y-120025000D01*
G75*
G02*
X127642000Y-119775000I250000J0D01*
G01*
X128442000Y-119775000D01*
G75*
G02*
X128692000Y-120025000I0J-250000D01*
G01*
X128692000Y-121275000D01*
G75*
G02*
X128442000Y-121525000I-250000J0D01*
G01*
X127642000Y-121525000D01*
G75*
G02*
X127392000Y-121275000I0J250000D01*
G01*
G37*
G36*
G01*
X124292000Y-121275000D02*
X124292000Y-120025000D01*
G75*
G02*
X124542000Y-119775000I250000J0D01*
G01*
X125342000Y-119775000D01*
G75*
G02*
X125592000Y-120025000I0J-250000D01*
G01*
X125592000Y-121275000D01*
G75*
G02*
X125342000Y-121525000I-250000J0D01*
G01*
X124542000Y-121525000D01*
G75*
G02*
X124292000Y-121275000I0J250000D01*
G01*
G37*
G36*
G01*
X186553000Y-106034000D02*
X185303000Y-106034000D01*
G75*
G02*
X185053000Y-105784000I0J250000D01*
G01*
X185053000Y-104984000D01*
G75*
G02*
X185303000Y-104734000I250000J0D01*
G01*
X186553000Y-104734000D01*
G75*
G02*
X186803000Y-104984000I0J-250000D01*
G01*
X186803000Y-105784000D01*
G75*
G02*
X186553000Y-106034000I-250000J0D01*
G01*
G37*
G36*
G01*
X186553000Y-109134000D02*
X185303000Y-109134000D01*
G75*
G02*
X185053000Y-108884000I0J250000D01*
G01*
X185053000Y-108084000D01*
G75*
G02*
X185303000Y-107834000I250000J0D01*
G01*
X186553000Y-107834000D01*
G75*
G02*
X186803000Y-108084000I0J-250000D01*
G01*
X186803000Y-108884000D01*
G75*
G02*
X186553000Y-109134000I-250000J0D01*
G01*
G37*
G36*
G01*
X182362000Y-106034000D02*
X181112000Y-106034000D01*
G75*
G02*
X180862000Y-105784000I0J250000D01*
G01*
X180862000Y-104984000D01*
G75*
G02*
X181112000Y-104734000I250000J0D01*
G01*
X182362000Y-104734000D01*
G75*
G02*
X182612000Y-104984000I0J-250000D01*
G01*
X182612000Y-105784000D01*
G75*
G02*
X182362000Y-106034000I-250000J0D01*
G01*
G37*
G36*
G01*
X182362000Y-109134000D02*
X181112000Y-109134000D01*
G75*
G02*
X180862000Y-108884000I0J250000D01*
G01*
X180862000Y-108084000D01*
G75*
G02*
X181112000Y-107834000I250000J0D01*
G01*
X182362000Y-107834000D01*
G75*
G02*
X182612000Y-108084000I0J-250000D01*
G01*
X182612000Y-108884000D01*
G75*
G02*
X182362000Y-109134000I-250000J0D01*
G01*
G37*
G36*
G01*
X112152000Y-121275000D02*
X112152000Y-120025000D01*
G75*
G02*
X112402000Y-119775000I250000J0D01*
G01*
X113202000Y-119775000D01*
G75*
G02*
X113452000Y-120025000I0J-250000D01*
G01*
X113452000Y-121275000D01*
G75*
G02*
X113202000Y-121525000I-250000J0D01*
G01*
X112402000Y-121525000D01*
G75*
G02*
X112152000Y-121275000I0J250000D01*
G01*
G37*
G36*
G01*
X109052000Y-121275000D02*
X109052000Y-120025000D01*
G75*
G02*
X109302000Y-119775000I250000J0D01*
G01*
X110102000Y-119775000D01*
G75*
G02*
X110352000Y-120025000I0J-250000D01*
G01*
X110352000Y-121275000D01*
G75*
G02*
X110102000Y-121525000I-250000J0D01*
G01*
X109302000Y-121525000D01*
G75*
G02*
X109052000Y-121275000I0J250000D01*
G01*
G37*
G36*
G01*
X96912000Y-121275000D02*
X96912000Y-120025000D01*
G75*
G02*
X97162000Y-119775000I250000J0D01*
G01*
X97962000Y-119775000D01*
G75*
G02*
X98212000Y-120025000I0J-250000D01*
G01*
X98212000Y-121275000D01*
G75*
G02*
X97962000Y-121525000I-250000J0D01*
G01*
X97162000Y-121525000D01*
G75*
G02*
X96912000Y-121275000I0J250000D01*
G01*
G37*
G36*
G01*
X93812000Y-121275000D02*
X93812000Y-120025000D01*
G75*
G02*
X94062000Y-119775000I250000J0D01*
G01*
X94862000Y-119775000D01*
G75*
G02*
X95112000Y-120025000I0J-250000D01*
G01*
X95112000Y-121275000D01*
G75*
G02*
X94862000Y-121525000I-250000J0D01*
G01*
X94062000Y-121525000D01*
G75*
G02*
X93812000Y-121275000I0J250000D01*
G01*
G37*
G36*
G01*
X81672000Y-121275000D02*
X81672000Y-120025000D01*
G75*
G02*
X81922000Y-119775000I250000J0D01*
G01*
X82722000Y-119775000D01*
G75*
G02*
X82972000Y-120025000I0J-250000D01*
G01*
X82972000Y-121275000D01*
G75*
G02*
X82722000Y-121525000I-250000J0D01*
G01*
X81922000Y-121525000D01*
G75*
G02*
X81672000Y-121275000I0J250000D01*
G01*
G37*
G36*
G01*
X78572000Y-121275000D02*
X78572000Y-120025000D01*
G75*
G02*
X78822000Y-119775000I250000J0D01*
G01*
X79622000Y-119775000D01*
G75*
G02*
X79872000Y-120025000I0J-250000D01*
G01*
X79872000Y-121275000D01*
G75*
G02*
X79622000Y-121525000I-250000J0D01*
G01*
X78822000Y-121525000D01*
G75*
G02*
X78572000Y-121275000I0J250000D01*
G01*
G37*
G36*
G01*
X66432000Y-121275000D02*
X66432000Y-120025000D01*
G75*
G02*
X66682000Y-119775000I250000J0D01*
G01*
X67482000Y-119775000D01*
G75*
G02*
X67732000Y-120025000I0J-250000D01*
G01*
X67732000Y-121275000D01*
G75*
G02*
X67482000Y-121525000I-250000J0D01*
G01*
X66682000Y-121525000D01*
G75*
G02*
X66432000Y-121275000I0J250000D01*
G01*
G37*
G36*
G01*
X63332000Y-121275000D02*
X63332000Y-120025000D01*
G75*
G02*
X63582000Y-119775000I250000J0D01*
G01*
X64382000Y-119775000D01*
G75*
G02*
X64632000Y-120025000I0J-250000D01*
G01*
X64632000Y-121275000D01*
G75*
G02*
X64382000Y-121525000I-250000J0D01*
G01*
X63582000Y-121525000D01*
G75*
G02*
X63332000Y-121275000I0J250000D01*
G01*
G37*
G36*
G01*
X185303000Y-125614000D02*
X186553000Y-125614000D01*
G75*
G02*
X186803000Y-125864000I0J-250000D01*
G01*
X186803000Y-126664000D01*
G75*
G02*
X186553000Y-126914000I-250000J0D01*
G01*
X185303000Y-126914000D01*
G75*
G02*
X185053000Y-126664000I0J250000D01*
G01*
X185053000Y-125864000D01*
G75*
G02*
X185303000Y-125614000I250000J0D01*
G01*
G37*
G36*
G01*
X185303000Y-122514000D02*
X186553000Y-122514000D01*
G75*
G02*
X186803000Y-122764000I0J-250000D01*
G01*
X186803000Y-123564000D01*
G75*
G02*
X186553000Y-123814000I-250000J0D01*
G01*
X185303000Y-123814000D01*
G75*
G02*
X185053000Y-123564000I0J250000D01*
G01*
X185053000Y-122764000D01*
G75*
G02*
X185303000Y-122514000I250000J0D01*
G01*
G37*
G36*
G01*
X180858000Y-125614000D02*
X182108000Y-125614000D01*
G75*
G02*
X182358000Y-125864000I0J-250000D01*
G01*
X182358000Y-126664000D01*
G75*
G02*
X182108000Y-126914000I-250000J0D01*
G01*
X180858000Y-126914000D01*
G75*
G02*
X180608000Y-126664000I0J250000D01*
G01*
X180608000Y-125864000D01*
G75*
G02*
X180858000Y-125614000I250000J0D01*
G01*
G37*
G36*
G01*
X180858000Y-122514000D02*
X182108000Y-122514000D01*
G75*
G02*
X182358000Y-122764000I0J-250000D01*
G01*
X182358000Y-123564000D01*
G75*
G02*
X182108000Y-123814000I-250000J0D01*
G01*
X180858000Y-123814000D01*
G75*
G02*
X180608000Y-123564000I0J250000D01*
G01*
X180608000Y-122764000D01*
G75*
G02*
X180858000Y-122514000I250000J0D01*
G01*
G37*
D12*
X147360000Y-93350000D03*
X147360000Y-98430000D03*
X147360000Y-88270000D03*
X154980000Y-80650000D03*
D13*
X147360000Y-80650000D03*
D12*
X154980000Y-98430000D03*
X154980000Y-93350000D03*
X154980000Y-88270000D03*
X132120000Y-93350000D03*
X132120000Y-98430000D03*
X132120000Y-88270000D03*
X139740000Y-80650000D03*
D13*
X132120000Y-80650000D03*
D12*
X139740000Y-98430000D03*
X139740000Y-93350000D03*
X139740000Y-88270000D03*
X116880000Y-93350000D03*
X116880000Y-98430000D03*
X116880000Y-88270000D03*
X124500000Y-80650000D03*
D13*
X116880000Y-80650000D03*
D12*
X124500000Y-98430000D03*
X124500000Y-93350000D03*
X124500000Y-88270000D03*
X101640000Y-93350000D03*
X101640000Y-98430000D03*
X101640000Y-88270000D03*
X109260000Y-80650000D03*
D13*
X101640000Y-80650000D03*
D12*
X109260000Y-98430000D03*
X109260000Y-93350000D03*
X109260000Y-88270000D03*
X86400000Y-93350000D03*
X86400000Y-98430000D03*
X86400000Y-88270000D03*
X94020000Y-80650000D03*
D13*
X86400000Y-80650000D03*
D12*
X94020000Y-98430000D03*
X94020000Y-93350000D03*
X94020000Y-88270000D03*
X71160000Y-93350000D03*
X71160000Y-98430000D03*
X71160000Y-88270000D03*
X78780000Y-80650000D03*
D13*
X71160000Y-80650000D03*
D12*
X78780000Y-98430000D03*
X78780000Y-93350000D03*
X78780000Y-88270000D03*
X55920000Y-93350000D03*
X55920000Y-98430000D03*
X55920000Y-88270000D03*
X63540000Y-80650000D03*
D13*
X55920000Y-80650000D03*
D12*
X63540000Y-98430000D03*
X63540000Y-93350000D03*
X63540000Y-88270000D03*
D25*
X143931000Y-69220000D03*
X136311000Y-69220000D03*
X143931000Y-66680000D03*
X136311000Y-66680000D03*
X143931000Y-64140000D03*
X136311000Y-64140000D03*
X143931000Y-61600000D03*
X136311000Y-61600000D03*
X143931000Y-59060000D03*
X136311000Y-59060000D03*
X143931000Y-56520000D03*
X136311000Y-56520000D03*
X143931000Y-53980000D03*
D26*
X136311000Y-53980000D03*
G36*
G01*
X171220000Y-106320000D02*
X171220000Y-108320000D01*
G75*
G02*
X170720000Y-108820000I-500000J0D01*
G01*
X169720000Y-108820000D01*
G75*
G02*
X169220000Y-108320000I0J500000D01*
G01*
X169220000Y-106320000D01*
G75*
G02*
X169720000Y-105820000I500000J0D01*
G01*
X170720000Y-105820000D01*
G75*
G02*
X171220000Y-106320000I0J-500000D01*
G01*
G37*
G36*
G01*
X166140000Y-106320000D02*
X166140000Y-108320000D01*
G75*
G02*
X165640000Y-108820000I-500000J0D01*
G01*
X164640000Y-108820000D01*
G75*
G02*
X164140000Y-108320000I0J500000D01*
G01*
X164140000Y-106320000D01*
G75*
G02*
X164640000Y-105820000I500000J0D01*
G01*
X165640000Y-105820000D01*
G75*
G02*
X166140000Y-106320000I0J-500000D01*
G01*
G37*
G36*
G01*
X168680000Y-106320000D02*
X168680000Y-108320000D01*
G75*
G02*
X168180000Y-108820000I-500000J0D01*
G01*
X167180000Y-108820000D01*
G75*
G02*
X166680000Y-108320000I0J500000D01*
G01*
X166680000Y-106320000D01*
G75*
G02*
X167180000Y-105820000I500000J0D01*
G01*
X168180000Y-105820000D01*
G75*
G02*
X168680000Y-106320000I0J-500000D01*
G01*
G37*
G36*
G01*
X166140000Y-111400000D02*
X166140000Y-113400000D01*
G75*
G02*
X165640000Y-113900000I-500000J0D01*
G01*
X164640000Y-113900000D01*
G75*
G02*
X164140000Y-113400000I0J500000D01*
G01*
X164140000Y-111400000D01*
G75*
G02*
X164640000Y-110900000I500000J0D01*
G01*
X165640000Y-110900000D01*
G75*
G02*
X166140000Y-111400000I0J-500000D01*
G01*
G37*
G36*
G01*
X168680000Y-111400000D02*
X168680000Y-113400000D01*
G75*
G02*
X168180000Y-113900000I-500000J0D01*
G01*
X167180000Y-113900000D01*
G75*
G02*
X166680000Y-113400000I0J500000D01*
G01*
X166680000Y-111400000D01*
G75*
G02*
X167180000Y-110900000I500000J0D01*
G01*
X168180000Y-110900000D01*
G75*
G02*
X168680000Y-111400000I0J-500000D01*
G01*
G37*
G36*
G01*
X171220000Y-111400000D02*
X171220000Y-113400000D01*
G75*
G02*
X170720000Y-113900000I-500000J0D01*
G01*
X169720000Y-113900000D01*
G75*
G02*
X169220000Y-113400000I0J500000D01*
G01*
X169220000Y-111400000D01*
G75*
G02*
X169720000Y-110900000I500000J0D01*
G01*
X170720000Y-110900000D01*
G75*
G02*
X171220000Y-111400000I0J-500000D01*
G01*
G37*
G36*
G01*
X155980000Y-106320000D02*
X155980000Y-108320000D01*
G75*
G02*
X155480000Y-108820000I-500000J0D01*
G01*
X154480000Y-108820000D01*
G75*
G02*
X153980000Y-108320000I0J500000D01*
G01*
X153980000Y-106320000D01*
G75*
G02*
X154480000Y-105820000I500000J0D01*
G01*
X155480000Y-105820000D01*
G75*
G02*
X155980000Y-106320000I0J-500000D01*
G01*
G37*
G36*
G01*
X150900000Y-106320000D02*
X150900000Y-108320000D01*
G75*
G02*
X150400000Y-108820000I-500000J0D01*
G01*
X149400000Y-108820000D01*
G75*
G02*
X148900000Y-108320000I0J500000D01*
G01*
X148900000Y-106320000D01*
G75*
G02*
X149400000Y-105820000I500000J0D01*
G01*
X150400000Y-105820000D01*
G75*
G02*
X150900000Y-106320000I0J-500000D01*
G01*
G37*
G36*
G01*
X153440000Y-106320000D02*
X153440000Y-108320000D01*
G75*
G02*
X152940000Y-108820000I-500000J0D01*
G01*
X151940000Y-108820000D01*
G75*
G02*
X151440000Y-108320000I0J500000D01*
G01*
X151440000Y-106320000D01*
G75*
G02*
X151940000Y-105820000I500000J0D01*
G01*
X152940000Y-105820000D01*
G75*
G02*
X153440000Y-106320000I0J-500000D01*
G01*
G37*
G36*
G01*
X150900000Y-111400000D02*
X150900000Y-113400000D01*
G75*
G02*
X150400000Y-113900000I-500000J0D01*
G01*
X149400000Y-113900000D01*
G75*
G02*
X148900000Y-113400000I0J500000D01*
G01*
X148900000Y-111400000D01*
G75*
G02*
X149400000Y-110900000I500000J0D01*
G01*
X150400000Y-110900000D01*
G75*
G02*
X150900000Y-111400000I0J-500000D01*
G01*
G37*
G36*
G01*
X153440000Y-111400000D02*
X153440000Y-113400000D01*
G75*
G02*
X152940000Y-113900000I-500000J0D01*
G01*
X151940000Y-113900000D01*
G75*
G02*
X151440000Y-113400000I0J500000D01*
G01*
X151440000Y-111400000D01*
G75*
G02*
X151940000Y-110900000I500000J0D01*
G01*
X152940000Y-110900000D01*
G75*
G02*
X153440000Y-111400000I0J-500000D01*
G01*
G37*
G36*
G01*
X155980000Y-111400000D02*
X155980000Y-113400000D01*
G75*
G02*
X155480000Y-113900000I-500000J0D01*
G01*
X154480000Y-113900000D01*
G75*
G02*
X153980000Y-113400000I0J500000D01*
G01*
X153980000Y-111400000D01*
G75*
G02*
X154480000Y-110900000I500000J0D01*
G01*
X155480000Y-110900000D01*
G75*
G02*
X155980000Y-111400000I0J-500000D01*
G01*
G37*
G36*
G01*
X140740000Y-106320000D02*
X140740000Y-108320000D01*
G75*
G02*
X140240000Y-108820000I-500000J0D01*
G01*
X139240000Y-108820000D01*
G75*
G02*
X138740000Y-108320000I0J500000D01*
G01*
X138740000Y-106320000D01*
G75*
G02*
X139240000Y-105820000I500000J0D01*
G01*
X140240000Y-105820000D01*
G75*
G02*
X140740000Y-106320000I0J-500000D01*
G01*
G37*
G36*
G01*
X135660000Y-106320000D02*
X135660000Y-108320000D01*
G75*
G02*
X135160000Y-108820000I-500000J0D01*
G01*
X134160000Y-108820000D01*
G75*
G02*
X133660000Y-108320000I0J500000D01*
G01*
X133660000Y-106320000D01*
G75*
G02*
X134160000Y-105820000I500000J0D01*
G01*
X135160000Y-105820000D01*
G75*
G02*
X135660000Y-106320000I0J-500000D01*
G01*
G37*
G36*
G01*
X138200000Y-106320000D02*
X138200000Y-108320000D01*
G75*
G02*
X137700000Y-108820000I-500000J0D01*
G01*
X136700000Y-108820000D01*
G75*
G02*
X136200000Y-108320000I0J500000D01*
G01*
X136200000Y-106320000D01*
G75*
G02*
X136700000Y-105820000I500000J0D01*
G01*
X137700000Y-105820000D01*
G75*
G02*
X138200000Y-106320000I0J-500000D01*
G01*
G37*
G36*
G01*
X135660000Y-111400000D02*
X135660000Y-113400000D01*
G75*
G02*
X135160000Y-113900000I-500000J0D01*
G01*
X134160000Y-113900000D01*
G75*
G02*
X133660000Y-113400000I0J500000D01*
G01*
X133660000Y-111400000D01*
G75*
G02*
X134160000Y-110900000I500000J0D01*
G01*
X135160000Y-110900000D01*
G75*
G02*
X135660000Y-111400000I0J-500000D01*
G01*
G37*
G36*
G01*
X138200000Y-111400000D02*
X138200000Y-113400000D01*
G75*
G02*
X137700000Y-113900000I-500000J0D01*
G01*
X136700000Y-113900000D01*
G75*
G02*
X136200000Y-113400000I0J500000D01*
G01*
X136200000Y-111400000D01*
G75*
G02*
X136700000Y-110900000I500000J0D01*
G01*
X137700000Y-110900000D01*
G75*
G02*
X138200000Y-111400000I0J-500000D01*
G01*
G37*
G36*
G01*
X140740000Y-111400000D02*
X140740000Y-113400000D01*
G75*
G02*
X140240000Y-113900000I-500000J0D01*
G01*
X139240000Y-113900000D01*
G75*
G02*
X138740000Y-113400000I0J500000D01*
G01*
X138740000Y-111400000D01*
G75*
G02*
X139240000Y-110900000I500000J0D01*
G01*
X140240000Y-110900000D01*
G75*
G02*
X140740000Y-111400000I0J-500000D01*
G01*
G37*
G36*
G01*
X125500000Y-106320000D02*
X125500000Y-108320000D01*
G75*
G02*
X125000000Y-108820000I-500000J0D01*
G01*
X124000000Y-108820000D01*
G75*
G02*
X123500000Y-108320000I0J500000D01*
G01*
X123500000Y-106320000D01*
G75*
G02*
X124000000Y-105820000I500000J0D01*
G01*
X125000000Y-105820000D01*
G75*
G02*
X125500000Y-106320000I0J-500000D01*
G01*
G37*
G36*
G01*
X120420000Y-106320000D02*
X120420000Y-108320000D01*
G75*
G02*
X119920000Y-108820000I-500000J0D01*
G01*
X118920000Y-108820000D01*
G75*
G02*
X118420000Y-108320000I0J500000D01*
G01*
X118420000Y-106320000D01*
G75*
G02*
X118920000Y-105820000I500000J0D01*
G01*
X119920000Y-105820000D01*
G75*
G02*
X120420000Y-106320000I0J-500000D01*
G01*
G37*
G36*
G01*
X122960000Y-106320000D02*
X122960000Y-108320000D01*
G75*
G02*
X122460000Y-108820000I-500000J0D01*
G01*
X121460000Y-108820000D01*
G75*
G02*
X120960000Y-108320000I0J500000D01*
G01*
X120960000Y-106320000D01*
G75*
G02*
X121460000Y-105820000I500000J0D01*
G01*
X122460000Y-105820000D01*
G75*
G02*
X122960000Y-106320000I0J-500000D01*
G01*
G37*
G36*
G01*
X120420000Y-111400000D02*
X120420000Y-113400000D01*
G75*
G02*
X119920000Y-113900000I-500000J0D01*
G01*
X118920000Y-113900000D01*
G75*
G02*
X118420000Y-113400000I0J500000D01*
G01*
X118420000Y-111400000D01*
G75*
G02*
X118920000Y-110900000I500000J0D01*
G01*
X119920000Y-110900000D01*
G75*
G02*
X120420000Y-111400000I0J-500000D01*
G01*
G37*
G36*
G01*
X122960000Y-111400000D02*
X122960000Y-113400000D01*
G75*
G02*
X122460000Y-113900000I-500000J0D01*
G01*
X121460000Y-113900000D01*
G75*
G02*
X120960000Y-113400000I0J500000D01*
G01*
X120960000Y-111400000D01*
G75*
G02*
X121460000Y-110900000I500000J0D01*
G01*
X122460000Y-110900000D01*
G75*
G02*
X122960000Y-111400000I0J-500000D01*
G01*
G37*
G36*
G01*
X125500000Y-111400000D02*
X125500000Y-113400000D01*
G75*
G02*
X125000000Y-113900000I-500000J0D01*
G01*
X124000000Y-113900000D01*
G75*
G02*
X123500000Y-113400000I0J500000D01*
G01*
X123500000Y-111400000D01*
G75*
G02*
X124000000Y-110900000I500000J0D01*
G01*
X125000000Y-110900000D01*
G75*
G02*
X125500000Y-111400000I0J-500000D01*
G01*
G37*
G36*
G01*
X110260000Y-106320000D02*
X110260000Y-108320000D01*
G75*
G02*
X109760000Y-108820000I-500000J0D01*
G01*
X108760000Y-108820000D01*
G75*
G02*
X108260000Y-108320000I0J500000D01*
G01*
X108260000Y-106320000D01*
G75*
G02*
X108760000Y-105820000I500000J0D01*
G01*
X109760000Y-105820000D01*
G75*
G02*
X110260000Y-106320000I0J-500000D01*
G01*
G37*
G36*
G01*
X105180000Y-106320000D02*
X105180000Y-108320000D01*
G75*
G02*
X104680000Y-108820000I-500000J0D01*
G01*
X103680000Y-108820000D01*
G75*
G02*
X103180000Y-108320000I0J500000D01*
G01*
X103180000Y-106320000D01*
G75*
G02*
X103680000Y-105820000I500000J0D01*
G01*
X104680000Y-105820000D01*
G75*
G02*
X105180000Y-106320000I0J-500000D01*
G01*
G37*
G36*
G01*
X107720000Y-106320000D02*
X107720000Y-108320000D01*
G75*
G02*
X107220000Y-108820000I-500000J0D01*
G01*
X106220000Y-108820000D01*
G75*
G02*
X105720000Y-108320000I0J500000D01*
G01*
X105720000Y-106320000D01*
G75*
G02*
X106220000Y-105820000I500000J0D01*
G01*
X107220000Y-105820000D01*
G75*
G02*
X107720000Y-106320000I0J-500000D01*
G01*
G37*
G36*
G01*
X105180000Y-111400000D02*
X105180000Y-113400000D01*
G75*
G02*
X104680000Y-113900000I-500000J0D01*
G01*
X103680000Y-113900000D01*
G75*
G02*
X103180000Y-113400000I0J500000D01*
G01*
X103180000Y-111400000D01*
G75*
G02*
X103680000Y-110900000I500000J0D01*
G01*
X104680000Y-110900000D01*
G75*
G02*
X105180000Y-111400000I0J-500000D01*
G01*
G37*
G36*
G01*
X107720000Y-111400000D02*
X107720000Y-113400000D01*
G75*
G02*
X107220000Y-113900000I-500000J0D01*
G01*
X106220000Y-113900000D01*
G75*
G02*
X105720000Y-113400000I0J500000D01*
G01*
X105720000Y-111400000D01*
G75*
G02*
X106220000Y-110900000I500000J0D01*
G01*
X107220000Y-110900000D01*
G75*
G02*
X107720000Y-111400000I0J-500000D01*
G01*
G37*
G36*
G01*
X110260000Y-111400000D02*
X110260000Y-113400000D01*
G75*
G02*
X109760000Y-113900000I-500000J0D01*
G01*
X108760000Y-113900000D01*
G75*
G02*
X108260000Y-113400000I0J500000D01*
G01*
X108260000Y-111400000D01*
G75*
G02*
X108760000Y-110900000I500000J0D01*
G01*
X109760000Y-110900000D01*
G75*
G02*
X110260000Y-111400000I0J-500000D01*
G01*
G37*
G36*
G01*
X95020000Y-106320000D02*
X95020000Y-108320000D01*
G75*
G02*
X94520000Y-108820000I-500000J0D01*
G01*
X93520000Y-108820000D01*
G75*
G02*
X93020000Y-108320000I0J500000D01*
G01*
X93020000Y-106320000D01*
G75*
G02*
X93520000Y-105820000I500000J0D01*
G01*
X94520000Y-105820000D01*
G75*
G02*
X95020000Y-106320000I0J-500000D01*
G01*
G37*
G36*
G01*
X89940000Y-106320000D02*
X89940000Y-108320000D01*
G75*
G02*
X89440000Y-108820000I-500000J0D01*
G01*
X88440000Y-108820000D01*
G75*
G02*
X87940000Y-108320000I0J500000D01*
G01*
X87940000Y-106320000D01*
G75*
G02*
X88440000Y-105820000I500000J0D01*
G01*
X89440000Y-105820000D01*
G75*
G02*
X89940000Y-106320000I0J-500000D01*
G01*
G37*
G36*
G01*
X92480000Y-106320000D02*
X92480000Y-108320000D01*
G75*
G02*
X91980000Y-108820000I-500000J0D01*
G01*
X90980000Y-108820000D01*
G75*
G02*
X90480000Y-108320000I0J500000D01*
G01*
X90480000Y-106320000D01*
G75*
G02*
X90980000Y-105820000I500000J0D01*
G01*
X91980000Y-105820000D01*
G75*
G02*
X92480000Y-106320000I0J-500000D01*
G01*
G37*
G36*
G01*
X89940000Y-111400000D02*
X89940000Y-113400000D01*
G75*
G02*
X89440000Y-113900000I-500000J0D01*
G01*
X88440000Y-113900000D01*
G75*
G02*
X87940000Y-113400000I0J500000D01*
G01*
X87940000Y-111400000D01*
G75*
G02*
X88440000Y-110900000I500000J0D01*
G01*
X89440000Y-110900000D01*
G75*
G02*
X89940000Y-111400000I0J-500000D01*
G01*
G37*
G36*
G01*
X92480000Y-111400000D02*
X92480000Y-113400000D01*
G75*
G02*
X91980000Y-113900000I-500000J0D01*
G01*
X90980000Y-113900000D01*
G75*
G02*
X90480000Y-113400000I0J500000D01*
G01*
X90480000Y-111400000D01*
G75*
G02*
X90980000Y-110900000I500000J0D01*
G01*
X91980000Y-110900000D01*
G75*
G02*
X92480000Y-111400000I0J-500000D01*
G01*
G37*
G36*
G01*
X95020000Y-111400000D02*
X95020000Y-113400000D01*
G75*
G02*
X94520000Y-113900000I-500000J0D01*
G01*
X93520000Y-113900000D01*
G75*
G02*
X93020000Y-113400000I0J500000D01*
G01*
X93020000Y-111400000D01*
G75*
G02*
X93520000Y-110900000I500000J0D01*
G01*
X94520000Y-110900000D01*
G75*
G02*
X95020000Y-111400000I0J-500000D01*
G01*
G37*
D27*
X154182000Y-52451000D03*
X154182000Y-47371000D03*
X150872000Y-49911000D03*
X150872000Y-44831000D03*
G36*
G01*
X79780000Y-106320000D02*
X79780000Y-108320000D01*
G75*
G02*
X79280000Y-108820000I-500000J0D01*
G01*
X78280000Y-108820000D01*
G75*
G02*
X77780000Y-108320000I0J500000D01*
G01*
X77780000Y-106320000D01*
G75*
G02*
X78280000Y-105820000I500000J0D01*
G01*
X79280000Y-105820000D01*
G75*
G02*
X79780000Y-106320000I0J-500000D01*
G01*
G37*
G36*
G01*
X74700000Y-106320000D02*
X74700000Y-108320000D01*
G75*
G02*
X74200000Y-108820000I-500000J0D01*
G01*
X73200000Y-108820000D01*
G75*
G02*
X72700000Y-108320000I0J500000D01*
G01*
X72700000Y-106320000D01*
G75*
G02*
X73200000Y-105820000I500000J0D01*
G01*
X74200000Y-105820000D01*
G75*
G02*
X74700000Y-106320000I0J-500000D01*
G01*
G37*
G36*
G01*
X77240000Y-106320000D02*
X77240000Y-108320000D01*
G75*
G02*
X76740000Y-108820000I-500000J0D01*
G01*
X75740000Y-108820000D01*
G75*
G02*
X75240000Y-108320000I0J500000D01*
G01*
X75240000Y-106320000D01*
G75*
G02*
X75740000Y-105820000I500000J0D01*
G01*
X76740000Y-105820000D01*
G75*
G02*
X77240000Y-106320000I0J-500000D01*
G01*
G37*
G36*
G01*
X74700000Y-111400000D02*
X74700000Y-113400000D01*
G75*
G02*
X74200000Y-113900000I-500000J0D01*
G01*
X73200000Y-113900000D01*
G75*
G02*
X72700000Y-113400000I0J500000D01*
G01*
X72700000Y-111400000D01*
G75*
G02*
X73200000Y-110900000I500000J0D01*
G01*
X74200000Y-110900000D01*
G75*
G02*
X74700000Y-111400000I0J-500000D01*
G01*
G37*
G36*
G01*
X77240000Y-111400000D02*
X77240000Y-113400000D01*
G75*
G02*
X76740000Y-113900000I-500000J0D01*
G01*
X75740000Y-113900000D01*
G75*
G02*
X75240000Y-113400000I0J500000D01*
G01*
X75240000Y-111400000D01*
G75*
G02*
X75740000Y-110900000I500000J0D01*
G01*
X76740000Y-110900000D01*
G75*
G02*
X77240000Y-111400000I0J-500000D01*
G01*
G37*
G36*
G01*
X79780000Y-111400000D02*
X79780000Y-113400000D01*
G75*
G02*
X79280000Y-113900000I-500000J0D01*
G01*
X78280000Y-113900000D01*
G75*
G02*
X77780000Y-113400000I0J500000D01*
G01*
X77780000Y-111400000D01*
G75*
G02*
X78280000Y-110900000I500000J0D01*
G01*
X79280000Y-110900000D01*
G75*
G02*
X79780000Y-111400000I0J-500000D01*
G01*
G37*
G36*
G01*
X64540000Y-106320000D02*
X64540000Y-108320000D01*
G75*
G02*
X64040000Y-108820000I-500000J0D01*
G01*
X63040000Y-108820000D01*
G75*
G02*
X62540000Y-108320000I0J500000D01*
G01*
X62540000Y-106320000D01*
G75*
G02*
X63040000Y-105820000I500000J0D01*
G01*
X64040000Y-105820000D01*
G75*
G02*
X64540000Y-106320000I0J-500000D01*
G01*
G37*
G36*
G01*
X59460000Y-106320000D02*
X59460000Y-108320000D01*
G75*
G02*
X58960000Y-108820000I-500000J0D01*
G01*
X57960000Y-108820000D01*
G75*
G02*
X57460000Y-108320000I0J500000D01*
G01*
X57460000Y-106320000D01*
G75*
G02*
X57960000Y-105820000I500000J0D01*
G01*
X58960000Y-105820000D01*
G75*
G02*
X59460000Y-106320000I0J-500000D01*
G01*
G37*
G36*
G01*
X62000000Y-106320000D02*
X62000000Y-108320000D01*
G75*
G02*
X61500000Y-108820000I-500000J0D01*
G01*
X60500000Y-108820000D01*
G75*
G02*
X60000000Y-108320000I0J500000D01*
G01*
X60000000Y-106320000D01*
G75*
G02*
X60500000Y-105820000I500000J0D01*
G01*
X61500000Y-105820000D01*
G75*
G02*
X62000000Y-106320000I0J-500000D01*
G01*
G37*
G36*
G01*
X59460000Y-111400000D02*
X59460000Y-113400000D01*
G75*
G02*
X58960000Y-113900000I-500000J0D01*
G01*
X57960000Y-113900000D01*
G75*
G02*
X57460000Y-113400000I0J500000D01*
G01*
X57460000Y-111400000D01*
G75*
G02*
X57960000Y-110900000I500000J0D01*
G01*
X58960000Y-110900000D01*
G75*
G02*
X59460000Y-111400000I0J-500000D01*
G01*
G37*
G36*
G01*
X62000000Y-111400000D02*
X62000000Y-113400000D01*
G75*
G02*
X61500000Y-113900000I-500000J0D01*
G01*
X60500000Y-113900000D01*
G75*
G02*
X60000000Y-113400000I0J500000D01*
G01*
X60000000Y-111400000D01*
G75*
G02*
X60500000Y-110900000I500000J0D01*
G01*
X61500000Y-110900000D01*
G75*
G02*
X62000000Y-111400000I0J-500000D01*
G01*
G37*
G36*
G01*
X64540000Y-111400000D02*
X64540000Y-113400000D01*
G75*
G02*
X64040000Y-113900000I-500000J0D01*
G01*
X63040000Y-113900000D01*
G75*
G02*
X62540000Y-113400000I0J500000D01*
G01*
X62540000Y-111400000D01*
G75*
G02*
X63040000Y-110900000I500000J0D01*
G01*
X64040000Y-110900000D01*
G75*
G02*
X64540000Y-111400000I0J-500000D01*
G01*
G37*
D28*
X125928000Y-43058000D03*
X125927480Y-74058700D03*
X50928900Y-74058700D03*
X50928900Y-43058000D03*
D29*
X94528000Y-43058000D03*
X91988000Y-43058000D03*
X89448000Y-43058000D03*
X86908000Y-43058000D03*
X84368000Y-43058000D03*
X81828000Y-43058000D03*
X79288000Y-43058000D03*
X76748000Y-43058000D03*
X74208000Y-43058000D03*
X71668000Y-43058000D03*
X69128000Y-43058000D03*
X66588000Y-43058000D03*
X64048000Y-43058000D03*
X61508000Y-43058000D03*
X58968000Y-43058000D03*
D30*
X56428000Y-43058000D03*
G36*
G01*
X94162001Y-70987000D02*
X92861999Y-70987000D01*
G75*
G02*
X92612000Y-70737001I0J249999D01*
G01*
X92612000Y-69911999D01*
G75*
G02*
X92861999Y-69662000I249999J0D01*
G01*
X94162001Y-69662000D01*
G75*
G02*
X94412000Y-69911999I0J-249999D01*
G01*
X94412000Y-70737001D01*
G75*
G02*
X94162001Y-70987000I-249999J0D01*
G01*
G37*
G36*
G01*
X94162001Y-74112000D02*
X92861999Y-74112000D01*
G75*
G02*
X92612000Y-73862001I0J249999D01*
G01*
X92612000Y-73036999D01*
G75*
G02*
X92861999Y-72787000I249999J0D01*
G01*
X94162001Y-72787000D01*
G75*
G02*
X94412000Y-73036999I0J-249999D01*
G01*
X94412000Y-73862001D01*
G75*
G02*
X94162001Y-74112000I-249999J0D01*
G01*
G37*
G36*
G01*
X170265000Y-46547000D02*
X171365000Y-46547000D01*
G75*
G02*
X171615000Y-46797000I0J-250000D01*
G01*
X171615000Y-49297000D01*
G75*
G02*
X171365000Y-49547000I-250000J0D01*
G01*
X170265000Y-49547000D01*
G75*
G02*
X170015000Y-49297000I0J250000D01*
G01*
X170015000Y-46797000D01*
G75*
G02*
X170265000Y-46547000I250000J0D01*
G01*
G37*
G36*
G01*
X170265000Y-42147000D02*
X171365000Y-42147000D01*
G75*
G02*
X171615000Y-42397000I0J-250000D01*
G01*
X171615000Y-44897000D01*
G75*
G02*
X171365000Y-45147000I-250000J0D01*
G01*
X170265000Y-45147000D01*
G75*
G02*
X170015000Y-44897000I0J250000D01*
G01*
X170015000Y-42397000D01*
G75*
G02*
X170265000Y-42147000I250000J0D01*
G01*
G37*
G36*
G01*
X175408500Y-92838500D02*
X176508500Y-92838500D01*
G75*
G02*
X176758500Y-93088500I0J-250000D01*
G01*
X176758500Y-95588500D01*
G75*
G02*
X176508500Y-95838500I-250000J0D01*
G01*
X175408500Y-95838500D01*
G75*
G02*
X175158500Y-95588500I0J250000D01*
G01*
X175158500Y-93088500D01*
G75*
G02*
X175408500Y-92838500I250000J0D01*
G01*
G37*
G36*
G01*
X175408500Y-88438500D02*
X176508500Y-88438500D01*
G75*
G02*
X176758500Y-88688500I0J-250000D01*
G01*
X176758500Y-91188500D01*
G75*
G02*
X176508500Y-91438500I-250000J0D01*
G01*
X175408500Y-91438500D01*
G75*
G02*
X175158500Y-91188500I0J250000D01*
G01*
X175158500Y-88688500D01*
G75*
G02*
X175408500Y-88438500I250000J0D01*
G01*
G37*
G36*
G01*
X127065000Y-65447000D02*
X127065000Y-64347000D01*
G75*
G02*
X127315000Y-64097000I250000J0D01*
G01*
X129815000Y-64097000D01*
G75*
G02*
X130065000Y-64347000I0J-250000D01*
G01*
X130065000Y-65447000D01*
G75*
G02*
X129815000Y-65697000I-250000J0D01*
G01*
X127315000Y-65697000D01*
G75*
G02*
X127065000Y-65447000I0J250000D01*
G01*
G37*
G36*
G01*
X122665000Y-65447000D02*
X122665000Y-64347000D01*
G75*
G02*
X122915000Y-64097000I250000J0D01*
G01*
X125415000Y-64097000D01*
G75*
G02*
X125665000Y-64347000I0J-250000D01*
G01*
X125665000Y-65447000D01*
G75*
G02*
X125415000Y-65697000I-250000J0D01*
G01*
X122915000Y-65697000D01*
G75*
G02*
X122665000Y-65447000I0J250000D01*
G01*
G37*
G36*
G01*
X77271001Y-71114000D02*
X75970999Y-71114000D01*
G75*
G02*
X75721000Y-70864001I0J249999D01*
G01*
X75721000Y-70038999D01*
G75*
G02*
X75970999Y-69789000I249999J0D01*
G01*
X77271001Y-69789000D01*
G75*
G02*
X77521000Y-70038999I0J-249999D01*
G01*
X77521000Y-70864001D01*
G75*
G02*
X77271001Y-71114000I-249999J0D01*
G01*
G37*
G36*
G01*
X77271001Y-74239000D02*
X75970999Y-74239000D01*
G75*
G02*
X75721000Y-73989001I0J249999D01*
G01*
X75721000Y-73163999D01*
G75*
G02*
X75970999Y-72914000I249999J0D01*
G01*
X77271001Y-72914000D01*
G75*
G02*
X77521000Y-73163999I0J-249999D01*
G01*
X77521000Y-73989001D01*
G75*
G02*
X77271001Y-74239000I-249999J0D01*
G01*
G37*
G36*
G01*
X79364000Y-68310999D02*
X79364000Y-69611001D01*
G75*
G02*
X79114001Y-69861000I-249999J0D01*
G01*
X78288999Y-69861000D01*
G75*
G02*
X78039000Y-69611001I0J249999D01*
G01*
X78039000Y-68310999D01*
G75*
G02*
X78288999Y-68061000I249999J0D01*
G01*
X79114001Y-68061000D01*
G75*
G02*
X79364000Y-68310999I0J-249999D01*
G01*
G37*
G36*
G01*
X82489000Y-68310999D02*
X82489000Y-69611001D01*
G75*
G02*
X82239001Y-69861000I-249999J0D01*
G01*
X81413999Y-69861000D01*
G75*
G02*
X81164000Y-69611001I0J249999D01*
G01*
X81164000Y-68310999D01*
G75*
G02*
X81413999Y-68061000I249999J0D01*
G01*
X82239001Y-68061000D01*
G75*
G02*
X82489000Y-68310999I0J-249999D01*
G01*
G37*
G36*
G01*
X89016000Y-68437999D02*
X89016000Y-69738001D01*
G75*
G02*
X88766001Y-69988000I-249999J0D01*
G01*
X87940999Y-69988000D01*
G75*
G02*
X87691000Y-69738001I0J249999D01*
G01*
X87691000Y-68437999D01*
G75*
G02*
X87940999Y-68188000I249999J0D01*
G01*
X88766001Y-68188000D01*
G75*
G02*
X89016000Y-68437999I0J-249999D01*
G01*
G37*
G36*
G01*
X92141000Y-68437999D02*
X92141000Y-69738001D01*
G75*
G02*
X91891001Y-69988000I-249999J0D01*
G01*
X91065999Y-69988000D01*
G75*
G02*
X90816000Y-69738001I0J249999D01*
G01*
X90816000Y-68437999D01*
G75*
G02*
X91065999Y-68188000I249999J0D01*
G01*
X91891001Y-68188000D01*
G75*
G02*
X92141000Y-68437999I0J-249999D01*
G01*
G37*
G36*
G01*
X58277999Y-48080500D02*
X59578001Y-48080500D01*
G75*
G02*
X59828000Y-48330499I0J-249999D01*
G01*
X59828000Y-49155501D01*
G75*
G02*
X59578001Y-49405500I-249999J0D01*
G01*
X58277999Y-49405500D01*
G75*
G02*
X58028000Y-49155501I0J249999D01*
G01*
X58028000Y-48330499D01*
G75*
G02*
X58277999Y-48080500I249999J0D01*
G01*
G37*
G36*
G01*
X58277999Y-44955500D02*
X59578001Y-44955500D01*
G75*
G02*
X59828000Y-45205499I0J-249999D01*
G01*
X59828000Y-46030501D01*
G75*
G02*
X59578001Y-46280500I-249999J0D01*
G01*
X58277999Y-46280500D01*
G75*
G02*
X58028000Y-46030501I0J249999D01*
G01*
X58028000Y-45205499D01*
G75*
G02*
X58277999Y-44955500I249999J0D01*
G01*
G37*
G36*
G01*
X116443999Y-53605000D02*
X117744001Y-53605000D01*
G75*
G02*
X117994000Y-53854999I0J-249999D01*
G01*
X117994000Y-54680001D01*
G75*
G02*
X117744001Y-54930000I-249999J0D01*
G01*
X116443999Y-54930000D01*
G75*
G02*
X116194000Y-54680001I0J249999D01*
G01*
X116194000Y-53854999D01*
G75*
G02*
X116443999Y-53605000I249999J0D01*
G01*
G37*
G36*
G01*
X116443999Y-50480000D02*
X117744001Y-50480000D01*
G75*
G02*
X117994000Y-50729999I0J-249999D01*
G01*
X117994000Y-51555001D01*
G75*
G02*
X117744001Y-51805000I-249999J0D01*
G01*
X116443999Y-51805000D01*
G75*
G02*
X116194000Y-51555001I0J249999D01*
G01*
X116194000Y-50729999D01*
G75*
G02*
X116443999Y-50480000I249999J0D01*
G01*
G37*
G36*
G01*
X178259501Y-123814000D02*
X176959499Y-123814000D01*
G75*
G02*
X176709500Y-123564001I0J249999D01*
G01*
X176709500Y-122738999D01*
G75*
G02*
X176959499Y-122489000I249999J0D01*
G01*
X178259501Y-122489000D01*
G75*
G02*
X178509500Y-122738999I0J-249999D01*
G01*
X178509500Y-123564001D01*
G75*
G02*
X178259501Y-123814000I-249999J0D01*
G01*
G37*
G36*
G01*
X178259501Y-126939000D02*
X176959499Y-126939000D01*
G75*
G02*
X176709500Y-126689001I0J249999D01*
G01*
X176709500Y-125863999D01*
G75*
G02*
X176959499Y-125614000I249999J0D01*
G01*
X178259501Y-125614000D01*
G75*
G02*
X178509500Y-125863999I0J-249999D01*
G01*
X178509500Y-126689001D01*
G75*
G02*
X178259501Y-126939000I-249999J0D01*
G01*
G37*
G36*
G01*
X178170000Y-52689999D02*
X178170000Y-53990001D01*
G75*
G02*
X177920001Y-54240000I-249999J0D01*
G01*
X177094999Y-54240000D01*
G75*
G02*
X176845000Y-53990001I0J249999D01*
G01*
X176845000Y-52689999D01*
G75*
G02*
X177094999Y-52440000I249999J0D01*
G01*
X177920001Y-52440000D01*
G75*
G02*
X178170000Y-52689999I0J-249999D01*
G01*
G37*
G36*
G01*
X181295000Y-52689999D02*
X181295000Y-53990001D01*
G75*
G02*
X181045001Y-54240000I-249999J0D01*
G01*
X180219999Y-54240000D01*
G75*
G02*
X179970000Y-53990001I0J249999D01*
G01*
X179970000Y-52689999D01*
G75*
G02*
X180219999Y-52440000I249999J0D01*
G01*
X181045001Y-52440000D01*
G75*
G02*
X181295000Y-52689999I0J-249999D01*
G01*
G37*
G36*
G01*
X98944000Y-66055001D02*
X98944000Y-64754999D01*
G75*
G02*
X99193999Y-64505000I249999J0D01*
G01*
X100019001Y-64505000D01*
G75*
G02*
X100269000Y-64754999I0J-249999D01*
G01*
X100269000Y-66055001D01*
G75*
G02*
X100019001Y-66305000I-249999J0D01*
G01*
X99193999Y-66305000D01*
G75*
G02*
X98944000Y-66055001I0J249999D01*
G01*
G37*
G36*
G01*
X95819000Y-66055001D02*
X95819000Y-64754999D01*
G75*
G02*
X96068999Y-64505000I249999J0D01*
G01*
X96894001Y-64505000D01*
G75*
G02*
X97144000Y-64754999I0J-249999D01*
G01*
X97144000Y-66055001D01*
G75*
G02*
X96894001Y-66305000I-249999J0D01*
G01*
X96068999Y-66305000D01*
G75*
G02*
X95819000Y-66055001I0J249999D01*
G01*
G37*
G36*
G01*
X94980999Y-56780000D02*
X96281001Y-56780000D01*
G75*
G02*
X96531000Y-57029999I0J-249999D01*
G01*
X96531000Y-57855001D01*
G75*
G02*
X96281001Y-58105000I-249999J0D01*
G01*
X94980999Y-58105000D01*
G75*
G02*
X94731000Y-57855001I0J249999D01*
G01*
X94731000Y-57029999D01*
G75*
G02*
X94980999Y-56780000I249999J0D01*
G01*
G37*
G36*
G01*
X94980999Y-53655000D02*
X96281001Y-53655000D01*
G75*
G02*
X96531000Y-53904999I0J-249999D01*
G01*
X96531000Y-54730001D01*
G75*
G02*
X96281001Y-54980000I-249999J0D01*
G01*
X94980999Y-54980000D01*
G75*
G02*
X94731000Y-54730001I0J249999D01*
G01*
X94731000Y-53904999D01*
G75*
G02*
X94980999Y-53655000I249999J0D01*
G01*
G37*
G36*
G01*
X180070999Y-93229000D02*
X181371001Y-93229000D01*
G75*
G02*
X181621000Y-93478999I0J-249999D01*
G01*
X181621000Y-94304001D01*
G75*
G02*
X181371001Y-94554000I-249999J0D01*
G01*
X180070999Y-94554000D01*
G75*
G02*
X179821000Y-94304001I0J249999D01*
G01*
X179821000Y-93478999D01*
G75*
G02*
X180070999Y-93229000I249999J0D01*
G01*
G37*
G36*
G01*
X180070999Y-90104000D02*
X181371001Y-90104000D01*
G75*
G02*
X181621000Y-90353999I0J-249999D01*
G01*
X181621000Y-91179001D01*
G75*
G02*
X181371001Y-91429000I-249999J0D01*
G01*
X180070999Y-91429000D01*
G75*
G02*
X179821000Y-91179001I0J249999D01*
G01*
X179821000Y-90353999D01*
G75*
G02*
X180070999Y-90104000I249999J0D01*
G01*
G37*
G36*
G01*
X190057000Y-50461000D02*
X190057000Y-49361000D01*
G75*
G02*
X190307000Y-49111000I250000J0D01*
G01*
X192807000Y-49111000D01*
G75*
G02*
X193057000Y-49361000I0J-250000D01*
G01*
X193057000Y-50461000D01*
G75*
G02*
X192807000Y-50711000I-250000J0D01*
G01*
X190307000Y-50711000D01*
G75*
G02*
X190057000Y-50461000I0J250000D01*
G01*
G37*
G36*
G01*
X185657000Y-50461000D02*
X185657000Y-49361000D01*
G75*
G02*
X185907000Y-49111000I250000J0D01*
G01*
X188407000Y-49111000D01*
G75*
G02*
X188657000Y-49361000I0J-250000D01*
G01*
X188657000Y-50461000D01*
G75*
G02*
X188407000Y-50711000I-250000J0D01*
G01*
X185907000Y-50711000D01*
G75*
G02*
X185657000Y-50461000I0J250000D01*
G01*
G37*
G36*
G01*
X75961001Y-61965000D02*
X74660999Y-61965000D01*
G75*
G02*
X74411000Y-61715001I0J249999D01*
G01*
X74411000Y-60889999D01*
G75*
G02*
X74660999Y-60640000I249999J0D01*
G01*
X75961001Y-60640000D01*
G75*
G02*
X76211000Y-60889999I0J-249999D01*
G01*
X76211000Y-61715001D01*
G75*
G02*
X75961001Y-61965000I-249999J0D01*
G01*
G37*
G36*
G01*
X75961001Y-65090000D02*
X74660999Y-65090000D01*
G75*
G02*
X74411000Y-64840001I0J249999D01*
G01*
X74411000Y-64014999D01*
G75*
G02*
X74660999Y-63765000I249999J0D01*
G01*
X75961001Y-63765000D01*
G75*
G02*
X76211000Y-64014999I0J-249999D01*
G01*
X76211000Y-64840001D01*
G75*
G02*
X75961001Y-65090000I-249999J0D01*
G01*
G37*
G36*
G01*
X73268000Y-50784999D02*
X73268000Y-52085001D01*
G75*
G02*
X73018001Y-52335000I-249999J0D01*
G01*
X72192999Y-52335000D01*
G75*
G02*
X71943000Y-52085001I0J249999D01*
G01*
X71943000Y-50784999D01*
G75*
G02*
X72192999Y-50535000I249999J0D01*
G01*
X73018001Y-50535000D01*
G75*
G02*
X73268000Y-50784999I0J-249999D01*
G01*
G37*
G36*
G01*
X76393000Y-50784999D02*
X76393000Y-52085001D01*
G75*
G02*
X76143001Y-52335000I-249999J0D01*
G01*
X75317999Y-52335000D01*
G75*
G02*
X75068000Y-52085001I0J249999D01*
G01*
X75068000Y-50784999D01*
G75*
G02*
X75317999Y-50535000I249999J0D01*
G01*
X76143001Y-50535000D01*
G75*
G02*
X76393000Y-50784999I0J-249999D01*
G01*
G37*
G36*
G01*
X187944999Y-107834000D02*
X189245001Y-107834000D01*
G75*
G02*
X189495000Y-108083999I0J-249999D01*
G01*
X189495000Y-108909001D01*
G75*
G02*
X189245001Y-109159000I-249999J0D01*
G01*
X187944999Y-109159000D01*
G75*
G02*
X187695000Y-108909001I0J249999D01*
G01*
X187695000Y-108083999D01*
G75*
G02*
X187944999Y-107834000I249999J0D01*
G01*
G37*
G36*
G01*
X187944999Y-104709000D02*
X189245001Y-104709000D01*
G75*
G02*
X189495000Y-104958999I0J-249999D01*
G01*
X189495000Y-105784001D01*
G75*
G02*
X189245001Y-106034000I-249999J0D01*
G01*
X187944999Y-106034000D01*
G75*
G02*
X187695000Y-105784001I0J249999D01*
G01*
X187695000Y-104958999D01*
G75*
G02*
X187944999Y-104709000I249999J0D01*
G01*
G37*
G36*
G01*
X178546999Y-107834000D02*
X179847001Y-107834000D01*
G75*
G02*
X180097000Y-108083999I0J-249999D01*
G01*
X180097000Y-108909001D01*
G75*
G02*
X179847001Y-109159000I-249999J0D01*
G01*
X178546999Y-109159000D01*
G75*
G02*
X178297000Y-108909001I0J249999D01*
G01*
X178297000Y-108083999D01*
G75*
G02*
X178546999Y-107834000I249999J0D01*
G01*
G37*
G36*
G01*
X178546999Y-104709000D02*
X179847001Y-104709000D01*
G75*
G02*
X180097000Y-104958999I0J-249999D01*
G01*
X180097000Y-105784001D01*
G75*
G02*
X179847001Y-106034000I-249999J0D01*
G01*
X178546999Y-106034000D01*
G75*
G02*
X178297000Y-105784001I0J249999D01*
G01*
X178297000Y-104958999D01*
G75*
G02*
X178546999Y-104709000I249999J0D01*
G01*
G37*
M02*
